G04 EAGLE Gerber RS-274X export*
G75*
%MOMM*%
%FSLAX34Y34*%
%LPD*%
%INSlot drill/holes/outline*%
%IPPOS*%
%AMOC8*
5,1,8,0,0,1.08239X$1,22.5*%
G01*
%ADD10C,0.000000*%
%ADD11C,0.254000*%


D10*
X970000Y980000D02*
X880000Y980000D01*
X880000Y975000D01*
X879998Y974860D01*
X879992Y974720D01*
X879982Y974580D01*
X879969Y974440D01*
X879951Y974301D01*
X879929Y974162D01*
X879904Y974025D01*
X879875Y973887D01*
X879842Y973751D01*
X879805Y973616D01*
X879764Y973482D01*
X879719Y973349D01*
X879671Y973217D01*
X879619Y973087D01*
X879564Y972958D01*
X879505Y972831D01*
X879442Y972705D01*
X879376Y972581D01*
X879307Y972460D01*
X879234Y972340D01*
X879157Y972222D01*
X879078Y972107D01*
X878995Y971993D01*
X878909Y971883D01*
X878820Y971774D01*
X878728Y971668D01*
X878633Y971565D01*
X878536Y971464D01*
X878435Y971367D01*
X878332Y971272D01*
X878226Y971180D01*
X878117Y971091D01*
X878007Y971005D01*
X877893Y970922D01*
X877778Y970843D01*
X877660Y970766D01*
X877540Y970693D01*
X877419Y970624D01*
X877295Y970558D01*
X877169Y970495D01*
X877042Y970436D01*
X876913Y970381D01*
X876783Y970329D01*
X876651Y970281D01*
X876518Y970236D01*
X876384Y970195D01*
X876249Y970158D01*
X876113Y970125D01*
X875975Y970096D01*
X875838Y970071D01*
X875699Y970049D01*
X875560Y970031D01*
X875420Y970018D01*
X875280Y970008D01*
X875140Y970002D01*
X875000Y970000D01*
X865000Y970000D01*
X864860Y970002D01*
X864720Y970008D01*
X864580Y970018D01*
X864440Y970031D01*
X864301Y970049D01*
X864162Y970071D01*
X864025Y970096D01*
X863887Y970125D01*
X863751Y970158D01*
X863616Y970195D01*
X863482Y970236D01*
X863349Y970281D01*
X863217Y970329D01*
X863087Y970381D01*
X862958Y970436D01*
X862831Y970495D01*
X862705Y970558D01*
X862581Y970624D01*
X862460Y970693D01*
X862340Y970766D01*
X862222Y970843D01*
X862107Y970922D01*
X861993Y971005D01*
X861883Y971091D01*
X861774Y971180D01*
X861668Y971272D01*
X861565Y971367D01*
X861464Y971464D01*
X861367Y971565D01*
X861272Y971668D01*
X861180Y971774D01*
X861091Y971883D01*
X861005Y971993D01*
X860922Y972107D01*
X860843Y972222D01*
X860766Y972340D01*
X860693Y972460D01*
X860624Y972581D01*
X860558Y972705D01*
X860495Y972831D01*
X860436Y972958D01*
X860381Y973087D01*
X860329Y973217D01*
X860281Y973349D01*
X860236Y973482D01*
X860195Y973616D01*
X860158Y973751D01*
X860125Y973887D01*
X860096Y974025D01*
X860071Y974162D01*
X860049Y974301D01*
X860031Y974440D01*
X860018Y974580D01*
X860008Y974720D01*
X860002Y974860D01*
X860000Y975000D01*
X860000Y980000D01*
X120000Y980000D01*
X120000Y975000D01*
X119998Y974860D01*
X119992Y974720D01*
X119982Y974580D01*
X119969Y974440D01*
X119951Y974301D01*
X119929Y974162D01*
X119904Y974025D01*
X119875Y973887D01*
X119842Y973751D01*
X119805Y973616D01*
X119764Y973482D01*
X119719Y973349D01*
X119671Y973217D01*
X119619Y973087D01*
X119564Y972958D01*
X119505Y972831D01*
X119442Y972705D01*
X119376Y972581D01*
X119307Y972460D01*
X119234Y972340D01*
X119157Y972222D01*
X119078Y972107D01*
X118995Y971993D01*
X118909Y971883D01*
X118820Y971774D01*
X118728Y971668D01*
X118633Y971565D01*
X118536Y971464D01*
X118435Y971367D01*
X118332Y971272D01*
X118226Y971180D01*
X118117Y971091D01*
X118007Y971005D01*
X117893Y970922D01*
X117778Y970843D01*
X117660Y970766D01*
X117540Y970693D01*
X117419Y970624D01*
X117295Y970558D01*
X117169Y970495D01*
X117042Y970436D01*
X116913Y970381D01*
X116783Y970329D01*
X116651Y970281D01*
X116518Y970236D01*
X116384Y970195D01*
X116249Y970158D01*
X116113Y970125D01*
X115975Y970096D01*
X115838Y970071D01*
X115699Y970049D01*
X115560Y970031D01*
X115420Y970018D01*
X115280Y970008D01*
X115140Y970002D01*
X115000Y970000D01*
X105000Y970000D01*
X104860Y970002D01*
X104720Y970008D01*
X104580Y970018D01*
X104440Y970031D01*
X104301Y970049D01*
X104162Y970071D01*
X104025Y970096D01*
X103887Y970125D01*
X103751Y970158D01*
X103616Y970195D01*
X103482Y970236D01*
X103349Y970281D01*
X103217Y970329D01*
X103087Y970381D01*
X102958Y970436D01*
X102831Y970495D01*
X102705Y970558D01*
X102581Y970624D01*
X102460Y970693D01*
X102340Y970766D01*
X102222Y970843D01*
X102107Y970922D01*
X101993Y971005D01*
X101883Y971091D01*
X101774Y971180D01*
X101668Y971272D01*
X101565Y971367D01*
X101464Y971464D01*
X101367Y971565D01*
X101272Y971668D01*
X101180Y971774D01*
X101091Y971883D01*
X101005Y971993D01*
X100922Y972107D01*
X100843Y972222D01*
X100766Y972340D01*
X100693Y972460D01*
X100624Y972581D01*
X100558Y972705D01*
X100495Y972831D01*
X100436Y972958D01*
X100381Y973087D01*
X100329Y973217D01*
X100281Y973349D01*
X100236Y973482D01*
X100195Y973616D01*
X100158Y973751D01*
X100125Y973887D01*
X100096Y974025D01*
X100071Y974162D01*
X100049Y974301D01*
X100031Y974440D01*
X100018Y974580D01*
X100008Y974720D01*
X100002Y974860D01*
X100000Y975000D01*
X100000Y980000D01*
X10000Y980000D01*
X9758Y979997D01*
X9517Y979988D01*
X9276Y979974D01*
X9035Y979953D01*
X8795Y979927D01*
X8555Y979895D01*
X8316Y979857D01*
X8079Y979814D01*
X7842Y979764D01*
X7607Y979709D01*
X7373Y979649D01*
X7141Y979582D01*
X6910Y979511D01*
X6681Y979433D01*
X6454Y979350D01*
X6229Y979262D01*
X6006Y979168D01*
X5786Y979069D01*
X5568Y978964D01*
X5353Y978855D01*
X5140Y978740D01*
X4930Y978620D01*
X4724Y978495D01*
X4520Y978365D01*
X4319Y978230D01*
X4122Y978090D01*
X3928Y977946D01*
X3738Y977797D01*
X3552Y977643D01*
X3369Y977485D01*
X3190Y977323D01*
X3015Y977156D01*
X2844Y976985D01*
X2677Y976810D01*
X2515Y976631D01*
X2357Y976448D01*
X2203Y976262D01*
X2054Y976072D01*
X1910Y975878D01*
X1770Y975681D01*
X1635Y975480D01*
X1505Y975276D01*
X1380Y975070D01*
X1260Y974860D01*
X1145Y974647D01*
X1036Y974432D01*
X931Y974214D01*
X832Y973994D01*
X738Y973771D01*
X650Y973546D01*
X567Y973319D01*
X489Y973090D01*
X418Y972859D01*
X351Y972627D01*
X291Y972393D01*
X236Y972158D01*
X186Y971921D01*
X143Y971684D01*
X105Y971445D01*
X73Y971205D01*
X47Y970965D01*
X26Y970724D01*
X12Y970483D01*
X3Y970242D01*
X0Y970000D01*
X0Y10000D01*
X3Y9758D01*
X12Y9517D01*
X26Y9276D01*
X47Y9035D01*
X73Y8795D01*
X105Y8555D01*
X143Y8316D01*
X186Y8079D01*
X236Y7842D01*
X291Y7607D01*
X351Y7373D01*
X418Y7141D01*
X489Y6910D01*
X567Y6681D01*
X650Y6454D01*
X738Y6229D01*
X832Y6006D01*
X931Y5786D01*
X1036Y5568D01*
X1145Y5353D01*
X1260Y5140D01*
X1380Y4930D01*
X1505Y4724D01*
X1635Y4520D01*
X1770Y4319D01*
X1910Y4122D01*
X2054Y3928D01*
X2203Y3738D01*
X2357Y3552D01*
X2515Y3369D01*
X2677Y3190D01*
X2844Y3015D01*
X3015Y2844D01*
X3190Y2677D01*
X3369Y2515D01*
X3552Y2357D01*
X3738Y2203D01*
X3928Y2054D01*
X4122Y1910D01*
X4319Y1770D01*
X4520Y1635D01*
X4724Y1505D01*
X4930Y1380D01*
X5140Y1260D01*
X5353Y1145D01*
X5568Y1036D01*
X5786Y931D01*
X6006Y832D01*
X6229Y738D01*
X6454Y650D01*
X6681Y567D01*
X6910Y489D01*
X7141Y418D01*
X7373Y351D01*
X7607Y291D01*
X7842Y236D01*
X8079Y186D01*
X8316Y143D01*
X8555Y105D01*
X8795Y73D01*
X9035Y47D01*
X9276Y26D01*
X9517Y12D01*
X9758Y3D01*
X10000Y0D01*
X100000Y0D01*
X100000Y5000D01*
X100002Y5140D01*
X100008Y5280D01*
X100018Y5420D01*
X100031Y5560D01*
X100049Y5699D01*
X100071Y5838D01*
X100096Y5975D01*
X100125Y6113D01*
X100158Y6249D01*
X100195Y6384D01*
X100236Y6518D01*
X100281Y6651D01*
X100329Y6783D01*
X100381Y6913D01*
X100436Y7042D01*
X100495Y7169D01*
X100558Y7295D01*
X100624Y7419D01*
X100693Y7540D01*
X100766Y7660D01*
X100843Y7778D01*
X100922Y7893D01*
X101005Y8007D01*
X101091Y8117D01*
X101180Y8226D01*
X101272Y8332D01*
X101367Y8435D01*
X101464Y8536D01*
X101565Y8633D01*
X101668Y8728D01*
X101774Y8820D01*
X101883Y8909D01*
X101993Y8995D01*
X102107Y9078D01*
X102222Y9157D01*
X102340Y9234D01*
X102460Y9307D01*
X102581Y9376D01*
X102705Y9442D01*
X102831Y9505D01*
X102958Y9564D01*
X103087Y9619D01*
X103217Y9671D01*
X103349Y9719D01*
X103482Y9764D01*
X103616Y9805D01*
X103751Y9842D01*
X103887Y9875D01*
X104025Y9904D01*
X104162Y9929D01*
X104301Y9951D01*
X104440Y9969D01*
X104580Y9982D01*
X104720Y9992D01*
X104860Y9998D01*
X105000Y10000D01*
X115000Y10000D01*
X115140Y9998D01*
X115280Y9992D01*
X115420Y9982D01*
X115560Y9969D01*
X115699Y9951D01*
X115838Y9929D01*
X115975Y9904D01*
X116113Y9875D01*
X116249Y9842D01*
X116384Y9805D01*
X116518Y9764D01*
X116651Y9719D01*
X116783Y9671D01*
X116913Y9619D01*
X117042Y9564D01*
X117169Y9505D01*
X117295Y9442D01*
X117419Y9376D01*
X117540Y9307D01*
X117660Y9234D01*
X117778Y9157D01*
X117893Y9078D01*
X118007Y8995D01*
X118117Y8909D01*
X118226Y8820D01*
X118332Y8728D01*
X118435Y8633D01*
X118536Y8536D01*
X118633Y8435D01*
X118728Y8332D01*
X118820Y8226D01*
X118909Y8117D01*
X118995Y8007D01*
X119078Y7893D01*
X119157Y7778D01*
X119234Y7660D01*
X119307Y7540D01*
X119376Y7419D01*
X119442Y7295D01*
X119505Y7169D01*
X119564Y7042D01*
X119619Y6913D01*
X119671Y6783D01*
X119719Y6651D01*
X119764Y6518D01*
X119805Y6384D01*
X119842Y6249D01*
X119875Y6113D01*
X119904Y5975D01*
X119929Y5838D01*
X119951Y5699D01*
X119969Y5560D01*
X119982Y5420D01*
X119992Y5280D01*
X119998Y5140D01*
X120000Y5000D01*
X120000Y0D01*
X860000Y0D01*
X860000Y5000D01*
X860002Y5140D01*
X860008Y5280D01*
X860018Y5420D01*
X860031Y5560D01*
X860049Y5699D01*
X860071Y5838D01*
X860096Y5975D01*
X860125Y6113D01*
X860158Y6249D01*
X860195Y6384D01*
X860236Y6518D01*
X860281Y6651D01*
X860329Y6783D01*
X860381Y6913D01*
X860436Y7042D01*
X860495Y7169D01*
X860558Y7295D01*
X860624Y7419D01*
X860693Y7540D01*
X860766Y7660D01*
X860843Y7778D01*
X860922Y7893D01*
X861005Y8007D01*
X861091Y8117D01*
X861180Y8226D01*
X861272Y8332D01*
X861367Y8435D01*
X861464Y8536D01*
X861565Y8633D01*
X861668Y8728D01*
X861774Y8820D01*
X861883Y8909D01*
X861993Y8995D01*
X862107Y9078D01*
X862222Y9157D01*
X862340Y9234D01*
X862460Y9307D01*
X862581Y9376D01*
X862705Y9442D01*
X862831Y9505D01*
X862958Y9564D01*
X863087Y9619D01*
X863217Y9671D01*
X863349Y9719D01*
X863482Y9764D01*
X863616Y9805D01*
X863751Y9842D01*
X863887Y9875D01*
X864025Y9904D01*
X864162Y9929D01*
X864301Y9951D01*
X864440Y9969D01*
X864580Y9982D01*
X864720Y9992D01*
X864860Y9998D01*
X865000Y10000D01*
X875000Y10000D01*
X875140Y9998D01*
X875280Y9992D01*
X875420Y9982D01*
X875560Y9969D01*
X875699Y9951D01*
X875838Y9929D01*
X875975Y9904D01*
X876113Y9875D01*
X876249Y9842D01*
X876384Y9805D01*
X876518Y9764D01*
X876651Y9719D01*
X876783Y9671D01*
X876913Y9619D01*
X877042Y9564D01*
X877169Y9505D01*
X877295Y9442D01*
X877419Y9376D01*
X877540Y9307D01*
X877660Y9234D01*
X877778Y9157D01*
X877893Y9078D01*
X878007Y8995D01*
X878117Y8909D01*
X878226Y8820D01*
X878332Y8728D01*
X878435Y8633D01*
X878536Y8536D01*
X878633Y8435D01*
X878728Y8332D01*
X878820Y8226D01*
X878909Y8117D01*
X878995Y8007D01*
X879078Y7893D01*
X879157Y7778D01*
X879234Y7660D01*
X879307Y7540D01*
X879376Y7419D01*
X879442Y7295D01*
X879505Y7169D01*
X879564Y7042D01*
X879619Y6913D01*
X879671Y6783D01*
X879719Y6651D01*
X879764Y6518D01*
X879805Y6384D01*
X879842Y6249D01*
X879875Y6113D01*
X879904Y5975D01*
X879929Y5838D01*
X879951Y5699D01*
X879969Y5560D01*
X879982Y5420D01*
X879992Y5280D01*
X879998Y5140D01*
X880000Y5000D01*
X880000Y0D01*
X970000Y0D01*
X970242Y3D01*
X970483Y12D01*
X970724Y26D01*
X970965Y47D01*
X971205Y73D01*
X971445Y105D01*
X971684Y143D01*
X971921Y186D01*
X972158Y236D01*
X972393Y291D01*
X972627Y351D01*
X972859Y418D01*
X973090Y489D01*
X973319Y567D01*
X973546Y650D01*
X973771Y738D01*
X973994Y832D01*
X974214Y931D01*
X974432Y1036D01*
X974647Y1145D01*
X974860Y1260D01*
X975070Y1380D01*
X975276Y1505D01*
X975480Y1635D01*
X975681Y1770D01*
X975878Y1910D01*
X976072Y2054D01*
X976262Y2203D01*
X976448Y2357D01*
X976631Y2515D01*
X976810Y2677D01*
X976985Y2844D01*
X977156Y3015D01*
X977323Y3190D01*
X977485Y3369D01*
X977643Y3552D01*
X977797Y3738D01*
X977946Y3928D01*
X978090Y4122D01*
X978230Y4319D01*
X978365Y4520D01*
X978495Y4724D01*
X978620Y4930D01*
X978740Y5140D01*
X978855Y5353D01*
X978964Y5568D01*
X979069Y5786D01*
X979168Y6006D01*
X979262Y6229D01*
X979350Y6454D01*
X979433Y6681D01*
X979511Y6910D01*
X979582Y7141D01*
X979649Y7373D01*
X979709Y7607D01*
X979764Y7842D01*
X979814Y8079D01*
X979857Y8316D01*
X979895Y8555D01*
X979927Y8795D01*
X979953Y9035D01*
X979974Y9276D01*
X979988Y9517D01*
X979997Y9758D01*
X980000Y10000D01*
X980000Y970000D01*
X979997Y970242D01*
X979988Y970483D01*
X979974Y970724D01*
X979953Y970965D01*
X979927Y971205D01*
X979895Y971445D01*
X979857Y971684D01*
X979814Y971921D01*
X979764Y972158D01*
X979709Y972393D01*
X979649Y972627D01*
X979582Y972859D01*
X979511Y973090D01*
X979433Y973319D01*
X979350Y973546D01*
X979262Y973771D01*
X979168Y973994D01*
X979069Y974214D01*
X978964Y974432D01*
X978855Y974647D01*
X978740Y974860D01*
X978620Y975070D01*
X978495Y975276D01*
X978365Y975480D01*
X978230Y975681D01*
X978090Y975878D01*
X977946Y976072D01*
X977797Y976262D01*
X977643Y976448D01*
X977485Y976631D01*
X977323Y976810D01*
X977156Y976985D01*
X976985Y977156D01*
X976810Y977323D01*
X976631Y977485D01*
X976448Y977643D01*
X976262Y977797D01*
X976072Y977946D01*
X975878Y978090D01*
X975681Y978230D01*
X975480Y978365D01*
X975276Y978495D01*
X975070Y978620D01*
X974860Y978740D01*
X974647Y978855D01*
X974432Y978964D01*
X974214Y979069D01*
X973994Y979168D01*
X973771Y979262D01*
X973546Y979350D01*
X973319Y979433D01*
X973090Y979511D01*
X972859Y979582D01*
X972627Y979649D01*
X972393Y979709D01*
X972158Y979764D01*
X971921Y979814D01*
X971684Y979857D01*
X971445Y979895D01*
X971205Y979927D01*
X970965Y979953D01*
X970724Y979974D01*
X970483Y979988D01*
X970242Y979997D01*
X970000Y980000D01*
X734500Y324000D02*
X734505Y324380D01*
X734519Y324761D01*
X734542Y325140D01*
X734575Y325519D01*
X734617Y325897D01*
X734668Y326274D01*
X734728Y326650D01*
X734798Y327024D01*
X734877Y327396D01*
X734965Y327766D01*
X735061Y328134D01*
X735167Y328499D01*
X735282Y328862D01*
X735406Y329222D01*
X735539Y329578D01*
X735680Y329932D01*
X735830Y330281D01*
X735988Y330627D01*
X736155Y330969D01*
X736330Y331307D01*
X736514Y331640D01*
X736705Y331969D01*
X736905Y332292D01*
X737112Y332611D01*
X737327Y332925D01*
X737550Y333233D01*
X737781Y333536D01*
X738018Y333833D01*
X738263Y334124D01*
X738515Y334409D01*
X738774Y334688D01*
X739040Y334960D01*
X739312Y335226D01*
X739591Y335485D01*
X739876Y335737D01*
X740167Y335982D01*
X740464Y336219D01*
X740767Y336450D01*
X741075Y336673D01*
X741389Y336888D01*
X741708Y337095D01*
X742031Y337295D01*
X742360Y337486D01*
X742693Y337670D01*
X743031Y337845D01*
X743373Y338012D01*
X743719Y338170D01*
X744068Y338320D01*
X744422Y338461D01*
X744778Y338594D01*
X745138Y338718D01*
X745501Y338833D01*
X745866Y338939D01*
X746234Y339035D01*
X746604Y339123D01*
X746976Y339202D01*
X747350Y339272D01*
X747726Y339332D01*
X748103Y339383D01*
X748481Y339425D01*
X748860Y339458D01*
X749239Y339481D01*
X749620Y339495D01*
X750000Y339500D01*
X750380Y339495D01*
X750761Y339481D01*
X751140Y339458D01*
X751519Y339425D01*
X751897Y339383D01*
X752274Y339332D01*
X752650Y339272D01*
X753024Y339202D01*
X753396Y339123D01*
X753766Y339035D01*
X754134Y338939D01*
X754499Y338833D01*
X754862Y338718D01*
X755222Y338594D01*
X755578Y338461D01*
X755932Y338320D01*
X756281Y338170D01*
X756627Y338012D01*
X756969Y337845D01*
X757307Y337670D01*
X757640Y337486D01*
X757969Y337295D01*
X758292Y337095D01*
X758611Y336888D01*
X758925Y336673D01*
X759233Y336450D01*
X759536Y336219D01*
X759833Y335982D01*
X760124Y335737D01*
X760409Y335485D01*
X760688Y335226D01*
X760960Y334960D01*
X761226Y334688D01*
X761485Y334409D01*
X761737Y334124D01*
X761982Y333833D01*
X762219Y333536D01*
X762450Y333233D01*
X762673Y332925D01*
X762888Y332611D01*
X763095Y332292D01*
X763295Y331969D01*
X763486Y331640D01*
X763670Y331307D01*
X763845Y330969D01*
X764012Y330627D01*
X764170Y330281D01*
X764320Y329932D01*
X764461Y329578D01*
X764594Y329222D01*
X764718Y328862D01*
X764833Y328499D01*
X764939Y328134D01*
X765035Y327766D01*
X765123Y327396D01*
X765202Y327024D01*
X765272Y326650D01*
X765332Y326274D01*
X765383Y325897D01*
X765425Y325519D01*
X765458Y325140D01*
X765481Y324761D01*
X765495Y324380D01*
X765500Y324000D01*
X765495Y323620D01*
X765481Y323239D01*
X765458Y322860D01*
X765425Y322481D01*
X765383Y322103D01*
X765332Y321726D01*
X765272Y321350D01*
X765202Y320976D01*
X765123Y320604D01*
X765035Y320234D01*
X764939Y319866D01*
X764833Y319501D01*
X764718Y319138D01*
X764594Y318778D01*
X764461Y318422D01*
X764320Y318068D01*
X764170Y317719D01*
X764012Y317373D01*
X763845Y317031D01*
X763670Y316693D01*
X763486Y316360D01*
X763295Y316031D01*
X763095Y315708D01*
X762888Y315389D01*
X762673Y315075D01*
X762450Y314767D01*
X762219Y314464D01*
X761982Y314167D01*
X761737Y313876D01*
X761485Y313591D01*
X761226Y313312D01*
X760960Y313040D01*
X760688Y312774D01*
X760409Y312515D01*
X760124Y312263D01*
X759833Y312018D01*
X759536Y311781D01*
X759233Y311550D01*
X758925Y311327D01*
X758611Y311112D01*
X758292Y310905D01*
X757969Y310705D01*
X757640Y310514D01*
X757307Y310330D01*
X756969Y310155D01*
X756627Y309988D01*
X756281Y309830D01*
X755932Y309680D01*
X755578Y309539D01*
X755222Y309406D01*
X754862Y309282D01*
X754499Y309167D01*
X754134Y309061D01*
X753766Y308965D01*
X753396Y308877D01*
X753024Y308798D01*
X752650Y308728D01*
X752274Y308668D01*
X751897Y308617D01*
X751519Y308575D01*
X751140Y308542D01*
X750761Y308519D01*
X750380Y308505D01*
X750000Y308500D01*
X749620Y308505D01*
X749239Y308519D01*
X748860Y308542D01*
X748481Y308575D01*
X748103Y308617D01*
X747726Y308668D01*
X747350Y308728D01*
X746976Y308798D01*
X746604Y308877D01*
X746234Y308965D01*
X745866Y309061D01*
X745501Y309167D01*
X745138Y309282D01*
X744778Y309406D01*
X744422Y309539D01*
X744068Y309680D01*
X743719Y309830D01*
X743373Y309988D01*
X743031Y310155D01*
X742693Y310330D01*
X742360Y310514D01*
X742031Y310705D01*
X741708Y310905D01*
X741389Y311112D01*
X741075Y311327D01*
X740767Y311550D01*
X740464Y311781D01*
X740167Y312018D01*
X739876Y312263D01*
X739591Y312515D01*
X739312Y312774D01*
X739040Y313040D01*
X738774Y313312D01*
X738515Y313591D01*
X738263Y313876D01*
X738018Y314167D01*
X737781Y314464D01*
X737550Y314767D01*
X737327Y315075D01*
X737112Y315389D01*
X736905Y315708D01*
X736705Y316031D01*
X736514Y316360D01*
X736330Y316693D01*
X736155Y317031D01*
X735988Y317373D01*
X735830Y317719D01*
X735680Y318068D01*
X735539Y318422D01*
X735406Y318778D01*
X735282Y319138D01*
X735167Y319501D01*
X735061Y319866D01*
X734965Y320234D01*
X734877Y320604D01*
X734798Y320976D01*
X734728Y321350D01*
X734668Y321726D01*
X734617Y322103D01*
X734575Y322481D01*
X734542Y322860D01*
X734519Y323239D01*
X734505Y323620D01*
X734500Y324000D01*
X734500Y86000D02*
X734505Y86380D01*
X734519Y86761D01*
X734542Y87140D01*
X734575Y87519D01*
X734617Y87897D01*
X734668Y88274D01*
X734728Y88650D01*
X734798Y89024D01*
X734877Y89396D01*
X734965Y89766D01*
X735061Y90134D01*
X735167Y90499D01*
X735282Y90862D01*
X735406Y91222D01*
X735539Y91578D01*
X735680Y91932D01*
X735830Y92281D01*
X735988Y92627D01*
X736155Y92969D01*
X736330Y93307D01*
X736514Y93640D01*
X736705Y93969D01*
X736905Y94292D01*
X737112Y94611D01*
X737327Y94925D01*
X737550Y95233D01*
X737781Y95536D01*
X738018Y95833D01*
X738263Y96124D01*
X738515Y96409D01*
X738774Y96688D01*
X739040Y96960D01*
X739312Y97226D01*
X739591Y97485D01*
X739876Y97737D01*
X740167Y97982D01*
X740464Y98219D01*
X740767Y98450D01*
X741075Y98673D01*
X741389Y98888D01*
X741708Y99095D01*
X742031Y99295D01*
X742360Y99486D01*
X742693Y99670D01*
X743031Y99845D01*
X743373Y100012D01*
X743719Y100170D01*
X744068Y100320D01*
X744422Y100461D01*
X744778Y100594D01*
X745138Y100718D01*
X745501Y100833D01*
X745866Y100939D01*
X746234Y101035D01*
X746604Y101123D01*
X746976Y101202D01*
X747350Y101272D01*
X747726Y101332D01*
X748103Y101383D01*
X748481Y101425D01*
X748860Y101458D01*
X749239Y101481D01*
X749620Y101495D01*
X750000Y101500D01*
X750380Y101495D01*
X750761Y101481D01*
X751140Y101458D01*
X751519Y101425D01*
X751897Y101383D01*
X752274Y101332D01*
X752650Y101272D01*
X753024Y101202D01*
X753396Y101123D01*
X753766Y101035D01*
X754134Y100939D01*
X754499Y100833D01*
X754862Y100718D01*
X755222Y100594D01*
X755578Y100461D01*
X755932Y100320D01*
X756281Y100170D01*
X756627Y100012D01*
X756969Y99845D01*
X757307Y99670D01*
X757640Y99486D01*
X757969Y99295D01*
X758292Y99095D01*
X758611Y98888D01*
X758925Y98673D01*
X759233Y98450D01*
X759536Y98219D01*
X759833Y97982D01*
X760124Y97737D01*
X760409Y97485D01*
X760688Y97226D01*
X760960Y96960D01*
X761226Y96688D01*
X761485Y96409D01*
X761737Y96124D01*
X761982Y95833D01*
X762219Y95536D01*
X762450Y95233D01*
X762673Y94925D01*
X762888Y94611D01*
X763095Y94292D01*
X763295Y93969D01*
X763486Y93640D01*
X763670Y93307D01*
X763845Y92969D01*
X764012Y92627D01*
X764170Y92281D01*
X764320Y91932D01*
X764461Y91578D01*
X764594Y91222D01*
X764718Y90862D01*
X764833Y90499D01*
X764939Y90134D01*
X765035Y89766D01*
X765123Y89396D01*
X765202Y89024D01*
X765272Y88650D01*
X765332Y88274D01*
X765383Y87897D01*
X765425Y87519D01*
X765458Y87140D01*
X765481Y86761D01*
X765495Y86380D01*
X765500Y86000D01*
X765495Y85620D01*
X765481Y85239D01*
X765458Y84860D01*
X765425Y84481D01*
X765383Y84103D01*
X765332Y83726D01*
X765272Y83350D01*
X765202Y82976D01*
X765123Y82604D01*
X765035Y82234D01*
X764939Y81866D01*
X764833Y81501D01*
X764718Y81138D01*
X764594Y80778D01*
X764461Y80422D01*
X764320Y80068D01*
X764170Y79719D01*
X764012Y79373D01*
X763845Y79031D01*
X763670Y78693D01*
X763486Y78360D01*
X763295Y78031D01*
X763095Y77708D01*
X762888Y77389D01*
X762673Y77075D01*
X762450Y76767D01*
X762219Y76464D01*
X761982Y76167D01*
X761737Y75876D01*
X761485Y75591D01*
X761226Y75312D01*
X760960Y75040D01*
X760688Y74774D01*
X760409Y74515D01*
X760124Y74263D01*
X759833Y74018D01*
X759536Y73781D01*
X759233Y73550D01*
X758925Y73327D01*
X758611Y73112D01*
X758292Y72905D01*
X757969Y72705D01*
X757640Y72514D01*
X757307Y72330D01*
X756969Y72155D01*
X756627Y71988D01*
X756281Y71830D01*
X755932Y71680D01*
X755578Y71539D01*
X755222Y71406D01*
X754862Y71282D01*
X754499Y71167D01*
X754134Y71061D01*
X753766Y70965D01*
X753396Y70877D01*
X753024Y70798D01*
X752650Y70728D01*
X752274Y70668D01*
X751897Y70617D01*
X751519Y70575D01*
X751140Y70542D01*
X750761Y70519D01*
X750380Y70505D01*
X750000Y70500D01*
X749620Y70505D01*
X749239Y70519D01*
X748860Y70542D01*
X748481Y70575D01*
X748103Y70617D01*
X747726Y70668D01*
X747350Y70728D01*
X746976Y70798D01*
X746604Y70877D01*
X746234Y70965D01*
X745866Y71061D01*
X745501Y71167D01*
X745138Y71282D01*
X744778Y71406D01*
X744422Y71539D01*
X744068Y71680D01*
X743719Y71830D01*
X743373Y71988D01*
X743031Y72155D01*
X742693Y72330D01*
X742360Y72514D01*
X742031Y72705D01*
X741708Y72905D01*
X741389Y73112D01*
X741075Y73327D01*
X740767Y73550D01*
X740464Y73781D01*
X740167Y74018D01*
X739876Y74263D01*
X739591Y74515D01*
X739312Y74774D01*
X739040Y75040D01*
X738774Y75312D01*
X738515Y75591D01*
X738263Y75876D01*
X738018Y76167D01*
X737781Y76464D01*
X737550Y76767D01*
X737327Y77075D01*
X737112Y77389D01*
X736905Y77708D01*
X736705Y78031D01*
X736514Y78360D01*
X736330Y78693D01*
X736155Y79031D01*
X735988Y79373D01*
X735830Y79719D01*
X735680Y80068D01*
X735539Y80422D01*
X735406Y80778D01*
X735282Y81138D01*
X735167Y81501D01*
X735061Y81866D01*
X734965Y82234D01*
X734877Y82604D01*
X734798Y82976D01*
X734728Y83350D01*
X734668Y83726D01*
X734617Y84103D01*
X734575Y84481D01*
X734542Y84860D01*
X734519Y85239D01*
X734505Y85620D01*
X734500Y86000D01*
X577500Y86000D02*
X577506Y86491D01*
X577524Y86981D01*
X577554Y87471D01*
X577596Y87960D01*
X577650Y88448D01*
X577716Y88935D01*
X577794Y89419D01*
X577884Y89902D01*
X577986Y90382D01*
X578099Y90860D01*
X578224Y91334D01*
X578361Y91806D01*
X578509Y92274D01*
X578669Y92738D01*
X578840Y93198D01*
X579022Y93654D01*
X579216Y94105D01*
X579420Y94551D01*
X579636Y94992D01*
X579862Y95428D01*
X580098Y95858D01*
X580345Y96282D01*
X580603Y96700D01*
X580871Y97111D01*
X581148Y97516D01*
X581436Y97914D01*
X581733Y98305D01*
X582040Y98688D01*
X582356Y99063D01*
X582681Y99431D01*
X583015Y99791D01*
X583358Y100142D01*
X583709Y100485D01*
X584069Y100819D01*
X584437Y101144D01*
X584812Y101460D01*
X585195Y101767D01*
X585586Y102064D01*
X585984Y102352D01*
X586389Y102629D01*
X586800Y102897D01*
X587218Y103155D01*
X587642Y103402D01*
X588072Y103638D01*
X588508Y103864D01*
X588949Y104080D01*
X589395Y104284D01*
X589846Y104478D01*
X590302Y104660D01*
X590762Y104831D01*
X591226Y104991D01*
X591694Y105139D01*
X592166Y105276D01*
X592640Y105401D01*
X593118Y105514D01*
X593598Y105616D01*
X594081Y105706D01*
X594565Y105784D01*
X595052Y105850D01*
X595540Y105904D01*
X596029Y105946D01*
X596519Y105976D01*
X597009Y105994D01*
X597500Y106000D01*
X597991Y105994D01*
X598481Y105976D01*
X598971Y105946D01*
X599460Y105904D01*
X599948Y105850D01*
X600435Y105784D01*
X600919Y105706D01*
X601402Y105616D01*
X601882Y105514D01*
X602360Y105401D01*
X602834Y105276D01*
X603306Y105139D01*
X603774Y104991D01*
X604238Y104831D01*
X604698Y104660D01*
X605154Y104478D01*
X605605Y104284D01*
X606051Y104080D01*
X606492Y103864D01*
X606928Y103638D01*
X607358Y103402D01*
X607782Y103155D01*
X608200Y102897D01*
X608611Y102629D01*
X609016Y102352D01*
X609414Y102064D01*
X609805Y101767D01*
X610188Y101460D01*
X610563Y101144D01*
X610931Y100819D01*
X611291Y100485D01*
X611642Y100142D01*
X611985Y99791D01*
X612319Y99431D01*
X612644Y99063D01*
X612960Y98688D01*
X613267Y98305D01*
X613564Y97914D01*
X613852Y97516D01*
X614129Y97111D01*
X614397Y96700D01*
X614655Y96282D01*
X614902Y95858D01*
X615138Y95428D01*
X615364Y94992D01*
X615580Y94551D01*
X615784Y94105D01*
X615978Y93654D01*
X616160Y93198D01*
X616331Y92738D01*
X616491Y92274D01*
X616639Y91806D01*
X616776Y91334D01*
X616901Y90860D01*
X617014Y90382D01*
X617116Y89902D01*
X617206Y89419D01*
X617284Y88935D01*
X617350Y88448D01*
X617404Y87960D01*
X617446Y87471D01*
X617476Y86981D01*
X617494Y86491D01*
X617500Y86000D01*
X617494Y85509D01*
X617476Y85019D01*
X617446Y84529D01*
X617404Y84040D01*
X617350Y83552D01*
X617284Y83065D01*
X617206Y82581D01*
X617116Y82098D01*
X617014Y81618D01*
X616901Y81140D01*
X616776Y80666D01*
X616639Y80194D01*
X616491Y79726D01*
X616331Y79262D01*
X616160Y78802D01*
X615978Y78346D01*
X615784Y77895D01*
X615580Y77449D01*
X615364Y77008D01*
X615138Y76572D01*
X614902Y76142D01*
X614655Y75718D01*
X614397Y75300D01*
X614129Y74889D01*
X613852Y74484D01*
X613564Y74086D01*
X613267Y73695D01*
X612960Y73312D01*
X612644Y72937D01*
X612319Y72569D01*
X611985Y72209D01*
X611642Y71858D01*
X611291Y71515D01*
X610931Y71181D01*
X610563Y70856D01*
X610188Y70540D01*
X609805Y70233D01*
X609414Y69936D01*
X609016Y69648D01*
X608611Y69371D01*
X608200Y69103D01*
X607782Y68845D01*
X607358Y68598D01*
X606928Y68362D01*
X606492Y68136D01*
X606051Y67920D01*
X605605Y67716D01*
X605154Y67522D01*
X604698Y67340D01*
X604238Y67169D01*
X603774Y67009D01*
X603306Y66861D01*
X602834Y66724D01*
X602360Y66599D01*
X601882Y66486D01*
X601402Y66384D01*
X600919Y66294D01*
X600435Y66216D01*
X599948Y66150D01*
X599460Y66096D01*
X598971Y66054D01*
X598481Y66024D01*
X597991Y66006D01*
X597500Y66000D01*
X597009Y66006D01*
X596519Y66024D01*
X596029Y66054D01*
X595540Y66096D01*
X595052Y66150D01*
X594565Y66216D01*
X594081Y66294D01*
X593598Y66384D01*
X593118Y66486D01*
X592640Y66599D01*
X592166Y66724D01*
X591694Y66861D01*
X591226Y67009D01*
X590762Y67169D01*
X590302Y67340D01*
X589846Y67522D01*
X589395Y67716D01*
X588949Y67920D01*
X588508Y68136D01*
X588072Y68362D01*
X587642Y68598D01*
X587218Y68845D01*
X586800Y69103D01*
X586389Y69371D01*
X585984Y69648D01*
X585586Y69936D01*
X585195Y70233D01*
X584812Y70540D01*
X584437Y70856D01*
X584069Y71181D01*
X583709Y71515D01*
X583358Y71858D01*
X583015Y72209D01*
X582681Y72569D01*
X582356Y72937D01*
X582040Y73312D01*
X581733Y73695D01*
X581436Y74086D01*
X581148Y74484D01*
X580871Y74889D01*
X580603Y75300D01*
X580345Y75718D01*
X580098Y76142D01*
X579862Y76572D01*
X579636Y77008D01*
X579420Y77449D01*
X579216Y77895D01*
X579022Y78346D01*
X578840Y78802D01*
X578669Y79262D01*
X578509Y79726D01*
X578361Y80194D01*
X578224Y80666D01*
X578099Y81140D01*
X577986Y81618D01*
X577884Y82098D01*
X577794Y82581D01*
X577716Y83065D01*
X577650Y83552D01*
X577596Y84040D01*
X577554Y84529D01*
X577524Y85019D01*
X577506Y85509D01*
X577500Y86000D01*
X577500Y324000D02*
X577506Y324491D01*
X577524Y324981D01*
X577554Y325471D01*
X577596Y325960D01*
X577650Y326448D01*
X577716Y326935D01*
X577794Y327419D01*
X577884Y327902D01*
X577986Y328382D01*
X578099Y328860D01*
X578224Y329334D01*
X578361Y329806D01*
X578509Y330274D01*
X578669Y330738D01*
X578840Y331198D01*
X579022Y331654D01*
X579216Y332105D01*
X579420Y332551D01*
X579636Y332992D01*
X579862Y333428D01*
X580098Y333858D01*
X580345Y334282D01*
X580603Y334700D01*
X580871Y335111D01*
X581148Y335516D01*
X581436Y335914D01*
X581733Y336305D01*
X582040Y336688D01*
X582356Y337063D01*
X582681Y337431D01*
X583015Y337791D01*
X583358Y338142D01*
X583709Y338485D01*
X584069Y338819D01*
X584437Y339144D01*
X584812Y339460D01*
X585195Y339767D01*
X585586Y340064D01*
X585984Y340352D01*
X586389Y340629D01*
X586800Y340897D01*
X587218Y341155D01*
X587642Y341402D01*
X588072Y341638D01*
X588508Y341864D01*
X588949Y342080D01*
X589395Y342284D01*
X589846Y342478D01*
X590302Y342660D01*
X590762Y342831D01*
X591226Y342991D01*
X591694Y343139D01*
X592166Y343276D01*
X592640Y343401D01*
X593118Y343514D01*
X593598Y343616D01*
X594081Y343706D01*
X594565Y343784D01*
X595052Y343850D01*
X595540Y343904D01*
X596029Y343946D01*
X596519Y343976D01*
X597009Y343994D01*
X597500Y344000D01*
X597991Y343994D01*
X598481Y343976D01*
X598971Y343946D01*
X599460Y343904D01*
X599948Y343850D01*
X600435Y343784D01*
X600919Y343706D01*
X601402Y343616D01*
X601882Y343514D01*
X602360Y343401D01*
X602834Y343276D01*
X603306Y343139D01*
X603774Y342991D01*
X604238Y342831D01*
X604698Y342660D01*
X605154Y342478D01*
X605605Y342284D01*
X606051Y342080D01*
X606492Y341864D01*
X606928Y341638D01*
X607358Y341402D01*
X607782Y341155D01*
X608200Y340897D01*
X608611Y340629D01*
X609016Y340352D01*
X609414Y340064D01*
X609805Y339767D01*
X610188Y339460D01*
X610563Y339144D01*
X610931Y338819D01*
X611291Y338485D01*
X611642Y338142D01*
X611985Y337791D01*
X612319Y337431D01*
X612644Y337063D01*
X612960Y336688D01*
X613267Y336305D01*
X613564Y335914D01*
X613852Y335516D01*
X614129Y335111D01*
X614397Y334700D01*
X614655Y334282D01*
X614902Y333858D01*
X615138Y333428D01*
X615364Y332992D01*
X615580Y332551D01*
X615784Y332105D01*
X615978Y331654D01*
X616160Y331198D01*
X616331Y330738D01*
X616491Y330274D01*
X616639Y329806D01*
X616776Y329334D01*
X616901Y328860D01*
X617014Y328382D01*
X617116Y327902D01*
X617206Y327419D01*
X617284Y326935D01*
X617350Y326448D01*
X617404Y325960D01*
X617446Y325471D01*
X617476Y324981D01*
X617494Y324491D01*
X617500Y324000D01*
X617494Y323509D01*
X617476Y323019D01*
X617446Y322529D01*
X617404Y322040D01*
X617350Y321552D01*
X617284Y321065D01*
X617206Y320581D01*
X617116Y320098D01*
X617014Y319618D01*
X616901Y319140D01*
X616776Y318666D01*
X616639Y318194D01*
X616491Y317726D01*
X616331Y317262D01*
X616160Y316802D01*
X615978Y316346D01*
X615784Y315895D01*
X615580Y315449D01*
X615364Y315008D01*
X615138Y314572D01*
X614902Y314142D01*
X614655Y313718D01*
X614397Y313300D01*
X614129Y312889D01*
X613852Y312484D01*
X613564Y312086D01*
X613267Y311695D01*
X612960Y311312D01*
X612644Y310937D01*
X612319Y310569D01*
X611985Y310209D01*
X611642Y309858D01*
X611291Y309515D01*
X610931Y309181D01*
X610563Y308856D01*
X610188Y308540D01*
X609805Y308233D01*
X609414Y307936D01*
X609016Y307648D01*
X608611Y307371D01*
X608200Y307103D01*
X607782Y306845D01*
X607358Y306598D01*
X606928Y306362D01*
X606492Y306136D01*
X606051Y305920D01*
X605605Y305716D01*
X605154Y305522D01*
X604698Y305340D01*
X604238Y305169D01*
X603774Y305009D01*
X603306Y304861D01*
X602834Y304724D01*
X602360Y304599D01*
X601882Y304486D01*
X601402Y304384D01*
X600919Y304294D01*
X600435Y304216D01*
X599948Y304150D01*
X599460Y304096D01*
X598971Y304054D01*
X598481Y304024D01*
X597991Y304006D01*
X597500Y304000D01*
X597009Y304006D01*
X596519Y304024D01*
X596029Y304054D01*
X595540Y304096D01*
X595052Y304150D01*
X594565Y304216D01*
X594081Y304294D01*
X593598Y304384D01*
X593118Y304486D01*
X592640Y304599D01*
X592166Y304724D01*
X591694Y304861D01*
X591226Y305009D01*
X590762Y305169D01*
X590302Y305340D01*
X589846Y305522D01*
X589395Y305716D01*
X588949Y305920D01*
X588508Y306136D01*
X588072Y306362D01*
X587642Y306598D01*
X587218Y306845D01*
X586800Y307103D01*
X586389Y307371D01*
X585984Y307648D01*
X585586Y307936D01*
X585195Y308233D01*
X584812Y308540D01*
X584437Y308856D01*
X584069Y309181D01*
X583709Y309515D01*
X583358Y309858D01*
X583015Y310209D01*
X582681Y310569D01*
X582356Y310937D01*
X582040Y311312D01*
X581733Y311695D01*
X581436Y312086D01*
X581148Y312484D01*
X580871Y312889D01*
X580603Y313300D01*
X580345Y313718D01*
X580098Y314142D01*
X579862Y314572D01*
X579636Y315008D01*
X579420Y315449D01*
X579216Y315895D01*
X579022Y316346D01*
X578840Y316802D01*
X578669Y317262D01*
X578509Y317726D01*
X578361Y318194D01*
X578224Y318666D01*
X578099Y319140D01*
X577986Y319618D01*
X577884Y320098D01*
X577794Y320581D01*
X577716Y321065D01*
X577650Y321552D01*
X577596Y322040D01*
X577554Y322529D01*
X577524Y323019D01*
X577506Y323509D01*
X577500Y324000D01*
X89680Y870000D02*
X89686Y870499D01*
X89704Y870997D01*
X89735Y871495D01*
X89778Y871992D01*
X89833Y872487D01*
X89900Y872982D01*
X89979Y873474D01*
X90070Y873964D01*
X90174Y874452D01*
X90289Y874937D01*
X90416Y875420D01*
X90555Y875899D01*
X90706Y876374D01*
X90868Y876846D01*
X91042Y877313D01*
X91227Y877776D01*
X91423Y878235D01*
X91631Y878688D01*
X91850Y879136D01*
X92079Y879579D01*
X92320Y880016D01*
X92571Y880447D01*
X92833Y880871D01*
X93105Y881289D01*
X93387Y881700D01*
X93679Y882105D01*
X93981Y882502D01*
X94292Y882891D01*
X94614Y883272D01*
X94944Y883646D01*
X95283Y884011D01*
X95632Y884368D01*
X95989Y884717D01*
X96354Y885056D01*
X96728Y885386D01*
X97109Y885708D01*
X97498Y886019D01*
X97895Y886321D01*
X98300Y886613D01*
X98711Y886895D01*
X99129Y887167D01*
X99553Y887429D01*
X99984Y887680D01*
X100421Y887921D01*
X100864Y888150D01*
X101312Y888369D01*
X101765Y888577D01*
X102224Y888773D01*
X102687Y888958D01*
X103154Y889132D01*
X103626Y889294D01*
X104101Y889445D01*
X104580Y889584D01*
X105063Y889711D01*
X105548Y889826D01*
X106036Y889930D01*
X106526Y890021D01*
X107018Y890100D01*
X107513Y890167D01*
X108008Y890222D01*
X108505Y890265D01*
X109003Y890296D01*
X109501Y890314D01*
X110000Y890320D01*
X110499Y890314D01*
X110997Y890296D01*
X111495Y890265D01*
X111992Y890222D01*
X112487Y890167D01*
X112982Y890100D01*
X113474Y890021D01*
X113964Y889930D01*
X114452Y889826D01*
X114937Y889711D01*
X115420Y889584D01*
X115899Y889445D01*
X116374Y889294D01*
X116846Y889132D01*
X117313Y888958D01*
X117776Y888773D01*
X118235Y888577D01*
X118688Y888369D01*
X119136Y888150D01*
X119579Y887921D01*
X120016Y887680D01*
X120447Y887429D01*
X120871Y887167D01*
X121289Y886895D01*
X121700Y886613D01*
X122105Y886321D01*
X122502Y886019D01*
X122891Y885708D01*
X123272Y885386D01*
X123646Y885056D01*
X124011Y884717D01*
X124368Y884368D01*
X124717Y884011D01*
X125056Y883646D01*
X125386Y883272D01*
X125708Y882891D01*
X126019Y882502D01*
X126321Y882105D01*
X126613Y881700D01*
X126895Y881289D01*
X127167Y880871D01*
X127429Y880447D01*
X127680Y880016D01*
X127921Y879579D01*
X128150Y879136D01*
X128369Y878688D01*
X128577Y878235D01*
X128773Y877776D01*
X128958Y877313D01*
X129132Y876846D01*
X129294Y876374D01*
X129445Y875899D01*
X129584Y875420D01*
X129711Y874937D01*
X129826Y874452D01*
X129930Y873964D01*
X130021Y873474D01*
X130100Y872982D01*
X130167Y872487D01*
X130222Y871992D01*
X130265Y871495D01*
X130296Y870997D01*
X130314Y870499D01*
X130320Y870000D01*
X130314Y869501D01*
X130296Y869003D01*
X130265Y868505D01*
X130222Y868008D01*
X130167Y867513D01*
X130100Y867018D01*
X130021Y866526D01*
X129930Y866036D01*
X129826Y865548D01*
X129711Y865063D01*
X129584Y864580D01*
X129445Y864101D01*
X129294Y863626D01*
X129132Y863154D01*
X128958Y862687D01*
X128773Y862224D01*
X128577Y861765D01*
X128369Y861312D01*
X128150Y860864D01*
X127921Y860421D01*
X127680Y859984D01*
X127429Y859553D01*
X127167Y859129D01*
X126895Y858711D01*
X126613Y858300D01*
X126321Y857895D01*
X126019Y857498D01*
X125708Y857109D01*
X125386Y856728D01*
X125056Y856354D01*
X124717Y855989D01*
X124368Y855632D01*
X124011Y855283D01*
X123646Y854944D01*
X123272Y854614D01*
X122891Y854292D01*
X122502Y853981D01*
X122105Y853679D01*
X121700Y853387D01*
X121289Y853105D01*
X120871Y852833D01*
X120447Y852571D01*
X120016Y852320D01*
X119579Y852079D01*
X119136Y851850D01*
X118688Y851631D01*
X118235Y851423D01*
X117776Y851227D01*
X117313Y851042D01*
X116846Y850868D01*
X116374Y850706D01*
X115899Y850555D01*
X115420Y850416D01*
X114937Y850289D01*
X114452Y850174D01*
X113964Y850070D01*
X113474Y849979D01*
X112982Y849900D01*
X112487Y849833D01*
X111992Y849778D01*
X111495Y849735D01*
X110997Y849704D01*
X110499Y849686D01*
X110000Y849680D01*
X109501Y849686D01*
X109003Y849704D01*
X108505Y849735D01*
X108008Y849778D01*
X107513Y849833D01*
X107018Y849900D01*
X106526Y849979D01*
X106036Y850070D01*
X105548Y850174D01*
X105063Y850289D01*
X104580Y850416D01*
X104101Y850555D01*
X103626Y850706D01*
X103154Y850868D01*
X102687Y851042D01*
X102224Y851227D01*
X101765Y851423D01*
X101312Y851631D01*
X100864Y851850D01*
X100421Y852079D01*
X99984Y852320D01*
X99553Y852571D01*
X99129Y852833D01*
X98711Y853105D01*
X98300Y853387D01*
X97895Y853679D01*
X97498Y853981D01*
X97109Y854292D01*
X96728Y854614D01*
X96354Y854944D01*
X95989Y855283D01*
X95632Y855632D01*
X95283Y855989D01*
X94944Y856354D01*
X94614Y856728D01*
X94292Y857109D01*
X93981Y857498D01*
X93679Y857895D01*
X93387Y858300D01*
X93105Y858711D01*
X92833Y859129D01*
X92571Y859553D01*
X92320Y859984D01*
X92079Y860421D01*
X91850Y860864D01*
X91631Y861312D01*
X91423Y861765D01*
X91227Y862224D01*
X91042Y862687D01*
X90868Y863154D01*
X90706Y863626D01*
X90555Y864101D01*
X90416Y864580D01*
X90289Y865063D01*
X90174Y865548D01*
X90070Y866036D01*
X89979Y866526D01*
X89900Y867018D01*
X89833Y867513D01*
X89778Y868008D01*
X89735Y868505D01*
X89704Y869003D01*
X89686Y869501D01*
X89680Y870000D01*
X279680Y870000D02*
X279686Y870499D01*
X279704Y870997D01*
X279735Y871495D01*
X279778Y871992D01*
X279833Y872487D01*
X279900Y872982D01*
X279979Y873474D01*
X280070Y873964D01*
X280174Y874452D01*
X280289Y874937D01*
X280416Y875420D01*
X280555Y875899D01*
X280706Y876374D01*
X280868Y876846D01*
X281042Y877313D01*
X281227Y877776D01*
X281423Y878235D01*
X281631Y878688D01*
X281850Y879136D01*
X282079Y879579D01*
X282320Y880016D01*
X282571Y880447D01*
X282833Y880871D01*
X283105Y881289D01*
X283387Y881700D01*
X283679Y882105D01*
X283981Y882502D01*
X284292Y882891D01*
X284614Y883272D01*
X284944Y883646D01*
X285283Y884011D01*
X285632Y884368D01*
X285989Y884717D01*
X286354Y885056D01*
X286728Y885386D01*
X287109Y885708D01*
X287498Y886019D01*
X287895Y886321D01*
X288300Y886613D01*
X288711Y886895D01*
X289129Y887167D01*
X289553Y887429D01*
X289984Y887680D01*
X290421Y887921D01*
X290864Y888150D01*
X291312Y888369D01*
X291765Y888577D01*
X292224Y888773D01*
X292687Y888958D01*
X293154Y889132D01*
X293626Y889294D01*
X294101Y889445D01*
X294580Y889584D01*
X295063Y889711D01*
X295548Y889826D01*
X296036Y889930D01*
X296526Y890021D01*
X297018Y890100D01*
X297513Y890167D01*
X298008Y890222D01*
X298505Y890265D01*
X299003Y890296D01*
X299501Y890314D01*
X300000Y890320D01*
X300499Y890314D01*
X300997Y890296D01*
X301495Y890265D01*
X301992Y890222D01*
X302487Y890167D01*
X302982Y890100D01*
X303474Y890021D01*
X303964Y889930D01*
X304452Y889826D01*
X304937Y889711D01*
X305420Y889584D01*
X305899Y889445D01*
X306374Y889294D01*
X306846Y889132D01*
X307313Y888958D01*
X307776Y888773D01*
X308235Y888577D01*
X308688Y888369D01*
X309136Y888150D01*
X309579Y887921D01*
X310016Y887680D01*
X310447Y887429D01*
X310871Y887167D01*
X311289Y886895D01*
X311700Y886613D01*
X312105Y886321D01*
X312502Y886019D01*
X312891Y885708D01*
X313272Y885386D01*
X313646Y885056D01*
X314011Y884717D01*
X314368Y884368D01*
X314717Y884011D01*
X315056Y883646D01*
X315386Y883272D01*
X315708Y882891D01*
X316019Y882502D01*
X316321Y882105D01*
X316613Y881700D01*
X316895Y881289D01*
X317167Y880871D01*
X317429Y880447D01*
X317680Y880016D01*
X317921Y879579D01*
X318150Y879136D01*
X318369Y878688D01*
X318577Y878235D01*
X318773Y877776D01*
X318958Y877313D01*
X319132Y876846D01*
X319294Y876374D01*
X319445Y875899D01*
X319584Y875420D01*
X319711Y874937D01*
X319826Y874452D01*
X319930Y873964D01*
X320021Y873474D01*
X320100Y872982D01*
X320167Y872487D01*
X320222Y871992D01*
X320265Y871495D01*
X320296Y870997D01*
X320314Y870499D01*
X320320Y870000D01*
X320314Y869501D01*
X320296Y869003D01*
X320265Y868505D01*
X320222Y868008D01*
X320167Y867513D01*
X320100Y867018D01*
X320021Y866526D01*
X319930Y866036D01*
X319826Y865548D01*
X319711Y865063D01*
X319584Y864580D01*
X319445Y864101D01*
X319294Y863626D01*
X319132Y863154D01*
X318958Y862687D01*
X318773Y862224D01*
X318577Y861765D01*
X318369Y861312D01*
X318150Y860864D01*
X317921Y860421D01*
X317680Y859984D01*
X317429Y859553D01*
X317167Y859129D01*
X316895Y858711D01*
X316613Y858300D01*
X316321Y857895D01*
X316019Y857498D01*
X315708Y857109D01*
X315386Y856728D01*
X315056Y856354D01*
X314717Y855989D01*
X314368Y855632D01*
X314011Y855283D01*
X313646Y854944D01*
X313272Y854614D01*
X312891Y854292D01*
X312502Y853981D01*
X312105Y853679D01*
X311700Y853387D01*
X311289Y853105D01*
X310871Y852833D01*
X310447Y852571D01*
X310016Y852320D01*
X309579Y852079D01*
X309136Y851850D01*
X308688Y851631D01*
X308235Y851423D01*
X307776Y851227D01*
X307313Y851042D01*
X306846Y850868D01*
X306374Y850706D01*
X305899Y850555D01*
X305420Y850416D01*
X304937Y850289D01*
X304452Y850174D01*
X303964Y850070D01*
X303474Y849979D01*
X302982Y849900D01*
X302487Y849833D01*
X301992Y849778D01*
X301495Y849735D01*
X300997Y849704D01*
X300499Y849686D01*
X300000Y849680D01*
X299501Y849686D01*
X299003Y849704D01*
X298505Y849735D01*
X298008Y849778D01*
X297513Y849833D01*
X297018Y849900D01*
X296526Y849979D01*
X296036Y850070D01*
X295548Y850174D01*
X295063Y850289D01*
X294580Y850416D01*
X294101Y850555D01*
X293626Y850706D01*
X293154Y850868D01*
X292687Y851042D01*
X292224Y851227D01*
X291765Y851423D01*
X291312Y851631D01*
X290864Y851850D01*
X290421Y852079D01*
X289984Y852320D01*
X289553Y852571D01*
X289129Y852833D01*
X288711Y853105D01*
X288300Y853387D01*
X287895Y853679D01*
X287498Y853981D01*
X287109Y854292D01*
X286728Y854614D01*
X286354Y854944D01*
X285989Y855283D01*
X285632Y855632D01*
X285283Y855989D01*
X284944Y856354D01*
X284614Y856728D01*
X284292Y857109D01*
X283981Y857498D01*
X283679Y857895D01*
X283387Y858300D01*
X283105Y858711D01*
X282833Y859129D01*
X282571Y859553D01*
X282320Y859984D01*
X282079Y860421D01*
X281850Y860864D01*
X281631Y861312D01*
X281423Y861765D01*
X281227Y862224D01*
X281042Y862687D01*
X280868Y863154D01*
X280706Y863626D01*
X280555Y864101D01*
X280416Y864580D01*
X280289Y865063D01*
X280174Y865548D01*
X280070Y866036D01*
X279979Y866526D01*
X279900Y867018D01*
X279833Y867513D01*
X279778Y868008D01*
X279735Y868505D01*
X279704Y869003D01*
X279686Y869501D01*
X279680Y870000D01*
X469680Y870000D02*
X469686Y870499D01*
X469704Y870997D01*
X469735Y871495D01*
X469778Y871992D01*
X469833Y872487D01*
X469900Y872982D01*
X469979Y873474D01*
X470070Y873964D01*
X470174Y874452D01*
X470289Y874937D01*
X470416Y875420D01*
X470555Y875899D01*
X470706Y876374D01*
X470868Y876846D01*
X471042Y877313D01*
X471227Y877776D01*
X471423Y878235D01*
X471631Y878688D01*
X471850Y879136D01*
X472079Y879579D01*
X472320Y880016D01*
X472571Y880447D01*
X472833Y880871D01*
X473105Y881289D01*
X473387Y881700D01*
X473679Y882105D01*
X473981Y882502D01*
X474292Y882891D01*
X474614Y883272D01*
X474944Y883646D01*
X475283Y884011D01*
X475632Y884368D01*
X475989Y884717D01*
X476354Y885056D01*
X476728Y885386D01*
X477109Y885708D01*
X477498Y886019D01*
X477895Y886321D01*
X478300Y886613D01*
X478711Y886895D01*
X479129Y887167D01*
X479553Y887429D01*
X479984Y887680D01*
X480421Y887921D01*
X480864Y888150D01*
X481312Y888369D01*
X481765Y888577D01*
X482224Y888773D01*
X482687Y888958D01*
X483154Y889132D01*
X483626Y889294D01*
X484101Y889445D01*
X484580Y889584D01*
X485063Y889711D01*
X485548Y889826D01*
X486036Y889930D01*
X486526Y890021D01*
X487018Y890100D01*
X487513Y890167D01*
X488008Y890222D01*
X488505Y890265D01*
X489003Y890296D01*
X489501Y890314D01*
X490000Y890320D01*
X490499Y890314D01*
X490997Y890296D01*
X491495Y890265D01*
X491992Y890222D01*
X492487Y890167D01*
X492982Y890100D01*
X493474Y890021D01*
X493964Y889930D01*
X494452Y889826D01*
X494937Y889711D01*
X495420Y889584D01*
X495899Y889445D01*
X496374Y889294D01*
X496846Y889132D01*
X497313Y888958D01*
X497776Y888773D01*
X498235Y888577D01*
X498688Y888369D01*
X499136Y888150D01*
X499579Y887921D01*
X500016Y887680D01*
X500447Y887429D01*
X500871Y887167D01*
X501289Y886895D01*
X501700Y886613D01*
X502105Y886321D01*
X502502Y886019D01*
X502891Y885708D01*
X503272Y885386D01*
X503646Y885056D01*
X504011Y884717D01*
X504368Y884368D01*
X504717Y884011D01*
X505056Y883646D01*
X505386Y883272D01*
X505708Y882891D01*
X506019Y882502D01*
X506321Y882105D01*
X506613Y881700D01*
X506895Y881289D01*
X507167Y880871D01*
X507429Y880447D01*
X507680Y880016D01*
X507921Y879579D01*
X508150Y879136D01*
X508369Y878688D01*
X508577Y878235D01*
X508773Y877776D01*
X508958Y877313D01*
X509132Y876846D01*
X509294Y876374D01*
X509445Y875899D01*
X509584Y875420D01*
X509711Y874937D01*
X509826Y874452D01*
X509930Y873964D01*
X510021Y873474D01*
X510100Y872982D01*
X510167Y872487D01*
X510222Y871992D01*
X510265Y871495D01*
X510296Y870997D01*
X510314Y870499D01*
X510320Y870000D01*
X510314Y869501D01*
X510296Y869003D01*
X510265Y868505D01*
X510222Y868008D01*
X510167Y867513D01*
X510100Y867018D01*
X510021Y866526D01*
X509930Y866036D01*
X509826Y865548D01*
X509711Y865063D01*
X509584Y864580D01*
X509445Y864101D01*
X509294Y863626D01*
X509132Y863154D01*
X508958Y862687D01*
X508773Y862224D01*
X508577Y861765D01*
X508369Y861312D01*
X508150Y860864D01*
X507921Y860421D01*
X507680Y859984D01*
X507429Y859553D01*
X507167Y859129D01*
X506895Y858711D01*
X506613Y858300D01*
X506321Y857895D01*
X506019Y857498D01*
X505708Y857109D01*
X505386Y856728D01*
X505056Y856354D01*
X504717Y855989D01*
X504368Y855632D01*
X504011Y855283D01*
X503646Y854944D01*
X503272Y854614D01*
X502891Y854292D01*
X502502Y853981D01*
X502105Y853679D01*
X501700Y853387D01*
X501289Y853105D01*
X500871Y852833D01*
X500447Y852571D01*
X500016Y852320D01*
X499579Y852079D01*
X499136Y851850D01*
X498688Y851631D01*
X498235Y851423D01*
X497776Y851227D01*
X497313Y851042D01*
X496846Y850868D01*
X496374Y850706D01*
X495899Y850555D01*
X495420Y850416D01*
X494937Y850289D01*
X494452Y850174D01*
X493964Y850070D01*
X493474Y849979D01*
X492982Y849900D01*
X492487Y849833D01*
X491992Y849778D01*
X491495Y849735D01*
X490997Y849704D01*
X490499Y849686D01*
X490000Y849680D01*
X489501Y849686D01*
X489003Y849704D01*
X488505Y849735D01*
X488008Y849778D01*
X487513Y849833D01*
X487018Y849900D01*
X486526Y849979D01*
X486036Y850070D01*
X485548Y850174D01*
X485063Y850289D01*
X484580Y850416D01*
X484101Y850555D01*
X483626Y850706D01*
X483154Y850868D01*
X482687Y851042D01*
X482224Y851227D01*
X481765Y851423D01*
X481312Y851631D01*
X480864Y851850D01*
X480421Y852079D01*
X479984Y852320D01*
X479553Y852571D01*
X479129Y852833D01*
X478711Y853105D01*
X478300Y853387D01*
X477895Y853679D01*
X477498Y853981D01*
X477109Y854292D01*
X476728Y854614D01*
X476354Y854944D01*
X475989Y855283D01*
X475632Y855632D01*
X475283Y855989D01*
X474944Y856354D01*
X474614Y856728D01*
X474292Y857109D01*
X473981Y857498D01*
X473679Y857895D01*
X473387Y858300D01*
X473105Y858711D01*
X472833Y859129D01*
X472571Y859553D01*
X472320Y859984D01*
X472079Y860421D01*
X471850Y860864D01*
X471631Y861312D01*
X471423Y861765D01*
X471227Y862224D01*
X471042Y862687D01*
X470868Y863154D01*
X470706Y863626D01*
X470555Y864101D01*
X470416Y864580D01*
X470289Y865063D01*
X470174Y865548D01*
X470070Y866036D01*
X469979Y866526D01*
X469900Y867018D01*
X469833Y867513D01*
X469778Y868008D01*
X469735Y868505D01*
X469704Y869003D01*
X469686Y869501D01*
X469680Y870000D01*
X89680Y680000D02*
X89686Y680499D01*
X89704Y680997D01*
X89735Y681495D01*
X89778Y681992D01*
X89833Y682487D01*
X89900Y682982D01*
X89979Y683474D01*
X90070Y683964D01*
X90174Y684452D01*
X90289Y684937D01*
X90416Y685420D01*
X90555Y685899D01*
X90706Y686374D01*
X90868Y686846D01*
X91042Y687313D01*
X91227Y687776D01*
X91423Y688235D01*
X91631Y688688D01*
X91850Y689136D01*
X92079Y689579D01*
X92320Y690016D01*
X92571Y690447D01*
X92833Y690871D01*
X93105Y691289D01*
X93387Y691700D01*
X93679Y692105D01*
X93981Y692502D01*
X94292Y692891D01*
X94614Y693272D01*
X94944Y693646D01*
X95283Y694011D01*
X95632Y694368D01*
X95989Y694717D01*
X96354Y695056D01*
X96728Y695386D01*
X97109Y695708D01*
X97498Y696019D01*
X97895Y696321D01*
X98300Y696613D01*
X98711Y696895D01*
X99129Y697167D01*
X99553Y697429D01*
X99984Y697680D01*
X100421Y697921D01*
X100864Y698150D01*
X101312Y698369D01*
X101765Y698577D01*
X102224Y698773D01*
X102687Y698958D01*
X103154Y699132D01*
X103626Y699294D01*
X104101Y699445D01*
X104580Y699584D01*
X105063Y699711D01*
X105548Y699826D01*
X106036Y699930D01*
X106526Y700021D01*
X107018Y700100D01*
X107513Y700167D01*
X108008Y700222D01*
X108505Y700265D01*
X109003Y700296D01*
X109501Y700314D01*
X110000Y700320D01*
X110499Y700314D01*
X110997Y700296D01*
X111495Y700265D01*
X111992Y700222D01*
X112487Y700167D01*
X112982Y700100D01*
X113474Y700021D01*
X113964Y699930D01*
X114452Y699826D01*
X114937Y699711D01*
X115420Y699584D01*
X115899Y699445D01*
X116374Y699294D01*
X116846Y699132D01*
X117313Y698958D01*
X117776Y698773D01*
X118235Y698577D01*
X118688Y698369D01*
X119136Y698150D01*
X119579Y697921D01*
X120016Y697680D01*
X120447Y697429D01*
X120871Y697167D01*
X121289Y696895D01*
X121700Y696613D01*
X122105Y696321D01*
X122502Y696019D01*
X122891Y695708D01*
X123272Y695386D01*
X123646Y695056D01*
X124011Y694717D01*
X124368Y694368D01*
X124717Y694011D01*
X125056Y693646D01*
X125386Y693272D01*
X125708Y692891D01*
X126019Y692502D01*
X126321Y692105D01*
X126613Y691700D01*
X126895Y691289D01*
X127167Y690871D01*
X127429Y690447D01*
X127680Y690016D01*
X127921Y689579D01*
X128150Y689136D01*
X128369Y688688D01*
X128577Y688235D01*
X128773Y687776D01*
X128958Y687313D01*
X129132Y686846D01*
X129294Y686374D01*
X129445Y685899D01*
X129584Y685420D01*
X129711Y684937D01*
X129826Y684452D01*
X129930Y683964D01*
X130021Y683474D01*
X130100Y682982D01*
X130167Y682487D01*
X130222Y681992D01*
X130265Y681495D01*
X130296Y680997D01*
X130314Y680499D01*
X130320Y680000D01*
X130314Y679501D01*
X130296Y679003D01*
X130265Y678505D01*
X130222Y678008D01*
X130167Y677513D01*
X130100Y677018D01*
X130021Y676526D01*
X129930Y676036D01*
X129826Y675548D01*
X129711Y675063D01*
X129584Y674580D01*
X129445Y674101D01*
X129294Y673626D01*
X129132Y673154D01*
X128958Y672687D01*
X128773Y672224D01*
X128577Y671765D01*
X128369Y671312D01*
X128150Y670864D01*
X127921Y670421D01*
X127680Y669984D01*
X127429Y669553D01*
X127167Y669129D01*
X126895Y668711D01*
X126613Y668300D01*
X126321Y667895D01*
X126019Y667498D01*
X125708Y667109D01*
X125386Y666728D01*
X125056Y666354D01*
X124717Y665989D01*
X124368Y665632D01*
X124011Y665283D01*
X123646Y664944D01*
X123272Y664614D01*
X122891Y664292D01*
X122502Y663981D01*
X122105Y663679D01*
X121700Y663387D01*
X121289Y663105D01*
X120871Y662833D01*
X120447Y662571D01*
X120016Y662320D01*
X119579Y662079D01*
X119136Y661850D01*
X118688Y661631D01*
X118235Y661423D01*
X117776Y661227D01*
X117313Y661042D01*
X116846Y660868D01*
X116374Y660706D01*
X115899Y660555D01*
X115420Y660416D01*
X114937Y660289D01*
X114452Y660174D01*
X113964Y660070D01*
X113474Y659979D01*
X112982Y659900D01*
X112487Y659833D01*
X111992Y659778D01*
X111495Y659735D01*
X110997Y659704D01*
X110499Y659686D01*
X110000Y659680D01*
X109501Y659686D01*
X109003Y659704D01*
X108505Y659735D01*
X108008Y659778D01*
X107513Y659833D01*
X107018Y659900D01*
X106526Y659979D01*
X106036Y660070D01*
X105548Y660174D01*
X105063Y660289D01*
X104580Y660416D01*
X104101Y660555D01*
X103626Y660706D01*
X103154Y660868D01*
X102687Y661042D01*
X102224Y661227D01*
X101765Y661423D01*
X101312Y661631D01*
X100864Y661850D01*
X100421Y662079D01*
X99984Y662320D01*
X99553Y662571D01*
X99129Y662833D01*
X98711Y663105D01*
X98300Y663387D01*
X97895Y663679D01*
X97498Y663981D01*
X97109Y664292D01*
X96728Y664614D01*
X96354Y664944D01*
X95989Y665283D01*
X95632Y665632D01*
X95283Y665989D01*
X94944Y666354D01*
X94614Y666728D01*
X94292Y667109D01*
X93981Y667498D01*
X93679Y667895D01*
X93387Y668300D01*
X93105Y668711D01*
X92833Y669129D01*
X92571Y669553D01*
X92320Y669984D01*
X92079Y670421D01*
X91850Y670864D01*
X91631Y671312D01*
X91423Y671765D01*
X91227Y672224D01*
X91042Y672687D01*
X90868Y673154D01*
X90706Y673626D01*
X90555Y674101D01*
X90416Y674580D01*
X90289Y675063D01*
X90174Y675548D01*
X90070Y676036D01*
X89979Y676526D01*
X89900Y677018D01*
X89833Y677513D01*
X89778Y678008D01*
X89735Y678505D01*
X89704Y679003D01*
X89686Y679501D01*
X89680Y680000D01*
X279680Y680000D02*
X279686Y680499D01*
X279704Y680997D01*
X279735Y681495D01*
X279778Y681992D01*
X279833Y682487D01*
X279900Y682982D01*
X279979Y683474D01*
X280070Y683964D01*
X280174Y684452D01*
X280289Y684937D01*
X280416Y685420D01*
X280555Y685899D01*
X280706Y686374D01*
X280868Y686846D01*
X281042Y687313D01*
X281227Y687776D01*
X281423Y688235D01*
X281631Y688688D01*
X281850Y689136D01*
X282079Y689579D01*
X282320Y690016D01*
X282571Y690447D01*
X282833Y690871D01*
X283105Y691289D01*
X283387Y691700D01*
X283679Y692105D01*
X283981Y692502D01*
X284292Y692891D01*
X284614Y693272D01*
X284944Y693646D01*
X285283Y694011D01*
X285632Y694368D01*
X285989Y694717D01*
X286354Y695056D01*
X286728Y695386D01*
X287109Y695708D01*
X287498Y696019D01*
X287895Y696321D01*
X288300Y696613D01*
X288711Y696895D01*
X289129Y697167D01*
X289553Y697429D01*
X289984Y697680D01*
X290421Y697921D01*
X290864Y698150D01*
X291312Y698369D01*
X291765Y698577D01*
X292224Y698773D01*
X292687Y698958D01*
X293154Y699132D01*
X293626Y699294D01*
X294101Y699445D01*
X294580Y699584D01*
X295063Y699711D01*
X295548Y699826D01*
X296036Y699930D01*
X296526Y700021D01*
X297018Y700100D01*
X297513Y700167D01*
X298008Y700222D01*
X298505Y700265D01*
X299003Y700296D01*
X299501Y700314D01*
X300000Y700320D01*
X300499Y700314D01*
X300997Y700296D01*
X301495Y700265D01*
X301992Y700222D01*
X302487Y700167D01*
X302982Y700100D01*
X303474Y700021D01*
X303964Y699930D01*
X304452Y699826D01*
X304937Y699711D01*
X305420Y699584D01*
X305899Y699445D01*
X306374Y699294D01*
X306846Y699132D01*
X307313Y698958D01*
X307776Y698773D01*
X308235Y698577D01*
X308688Y698369D01*
X309136Y698150D01*
X309579Y697921D01*
X310016Y697680D01*
X310447Y697429D01*
X310871Y697167D01*
X311289Y696895D01*
X311700Y696613D01*
X312105Y696321D01*
X312502Y696019D01*
X312891Y695708D01*
X313272Y695386D01*
X313646Y695056D01*
X314011Y694717D01*
X314368Y694368D01*
X314717Y694011D01*
X315056Y693646D01*
X315386Y693272D01*
X315708Y692891D01*
X316019Y692502D01*
X316321Y692105D01*
X316613Y691700D01*
X316895Y691289D01*
X317167Y690871D01*
X317429Y690447D01*
X317680Y690016D01*
X317921Y689579D01*
X318150Y689136D01*
X318369Y688688D01*
X318577Y688235D01*
X318773Y687776D01*
X318958Y687313D01*
X319132Y686846D01*
X319294Y686374D01*
X319445Y685899D01*
X319584Y685420D01*
X319711Y684937D01*
X319826Y684452D01*
X319930Y683964D01*
X320021Y683474D01*
X320100Y682982D01*
X320167Y682487D01*
X320222Y681992D01*
X320265Y681495D01*
X320296Y680997D01*
X320314Y680499D01*
X320320Y680000D01*
X320314Y679501D01*
X320296Y679003D01*
X320265Y678505D01*
X320222Y678008D01*
X320167Y677513D01*
X320100Y677018D01*
X320021Y676526D01*
X319930Y676036D01*
X319826Y675548D01*
X319711Y675063D01*
X319584Y674580D01*
X319445Y674101D01*
X319294Y673626D01*
X319132Y673154D01*
X318958Y672687D01*
X318773Y672224D01*
X318577Y671765D01*
X318369Y671312D01*
X318150Y670864D01*
X317921Y670421D01*
X317680Y669984D01*
X317429Y669553D01*
X317167Y669129D01*
X316895Y668711D01*
X316613Y668300D01*
X316321Y667895D01*
X316019Y667498D01*
X315708Y667109D01*
X315386Y666728D01*
X315056Y666354D01*
X314717Y665989D01*
X314368Y665632D01*
X314011Y665283D01*
X313646Y664944D01*
X313272Y664614D01*
X312891Y664292D01*
X312502Y663981D01*
X312105Y663679D01*
X311700Y663387D01*
X311289Y663105D01*
X310871Y662833D01*
X310447Y662571D01*
X310016Y662320D01*
X309579Y662079D01*
X309136Y661850D01*
X308688Y661631D01*
X308235Y661423D01*
X307776Y661227D01*
X307313Y661042D01*
X306846Y660868D01*
X306374Y660706D01*
X305899Y660555D01*
X305420Y660416D01*
X304937Y660289D01*
X304452Y660174D01*
X303964Y660070D01*
X303474Y659979D01*
X302982Y659900D01*
X302487Y659833D01*
X301992Y659778D01*
X301495Y659735D01*
X300997Y659704D01*
X300499Y659686D01*
X300000Y659680D01*
X299501Y659686D01*
X299003Y659704D01*
X298505Y659735D01*
X298008Y659778D01*
X297513Y659833D01*
X297018Y659900D01*
X296526Y659979D01*
X296036Y660070D01*
X295548Y660174D01*
X295063Y660289D01*
X294580Y660416D01*
X294101Y660555D01*
X293626Y660706D01*
X293154Y660868D01*
X292687Y661042D01*
X292224Y661227D01*
X291765Y661423D01*
X291312Y661631D01*
X290864Y661850D01*
X290421Y662079D01*
X289984Y662320D01*
X289553Y662571D01*
X289129Y662833D01*
X288711Y663105D01*
X288300Y663387D01*
X287895Y663679D01*
X287498Y663981D01*
X287109Y664292D01*
X286728Y664614D01*
X286354Y664944D01*
X285989Y665283D01*
X285632Y665632D01*
X285283Y665989D01*
X284944Y666354D01*
X284614Y666728D01*
X284292Y667109D01*
X283981Y667498D01*
X283679Y667895D01*
X283387Y668300D01*
X283105Y668711D01*
X282833Y669129D01*
X282571Y669553D01*
X282320Y669984D01*
X282079Y670421D01*
X281850Y670864D01*
X281631Y671312D01*
X281423Y671765D01*
X281227Y672224D01*
X281042Y672687D01*
X280868Y673154D01*
X280706Y673626D01*
X280555Y674101D01*
X280416Y674580D01*
X280289Y675063D01*
X280174Y675548D01*
X280070Y676036D01*
X279979Y676526D01*
X279900Y677018D01*
X279833Y677513D01*
X279778Y678008D01*
X279735Y678505D01*
X279704Y679003D01*
X279686Y679501D01*
X279680Y680000D01*
X469680Y680000D02*
X469686Y680499D01*
X469704Y680997D01*
X469735Y681495D01*
X469778Y681992D01*
X469833Y682487D01*
X469900Y682982D01*
X469979Y683474D01*
X470070Y683964D01*
X470174Y684452D01*
X470289Y684937D01*
X470416Y685420D01*
X470555Y685899D01*
X470706Y686374D01*
X470868Y686846D01*
X471042Y687313D01*
X471227Y687776D01*
X471423Y688235D01*
X471631Y688688D01*
X471850Y689136D01*
X472079Y689579D01*
X472320Y690016D01*
X472571Y690447D01*
X472833Y690871D01*
X473105Y691289D01*
X473387Y691700D01*
X473679Y692105D01*
X473981Y692502D01*
X474292Y692891D01*
X474614Y693272D01*
X474944Y693646D01*
X475283Y694011D01*
X475632Y694368D01*
X475989Y694717D01*
X476354Y695056D01*
X476728Y695386D01*
X477109Y695708D01*
X477498Y696019D01*
X477895Y696321D01*
X478300Y696613D01*
X478711Y696895D01*
X479129Y697167D01*
X479553Y697429D01*
X479984Y697680D01*
X480421Y697921D01*
X480864Y698150D01*
X481312Y698369D01*
X481765Y698577D01*
X482224Y698773D01*
X482687Y698958D01*
X483154Y699132D01*
X483626Y699294D01*
X484101Y699445D01*
X484580Y699584D01*
X485063Y699711D01*
X485548Y699826D01*
X486036Y699930D01*
X486526Y700021D01*
X487018Y700100D01*
X487513Y700167D01*
X488008Y700222D01*
X488505Y700265D01*
X489003Y700296D01*
X489501Y700314D01*
X490000Y700320D01*
X490499Y700314D01*
X490997Y700296D01*
X491495Y700265D01*
X491992Y700222D01*
X492487Y700167D01*
X492982Y700100D01*
X493474Y700021D01*
X493964Y699930D01*
X494452Y699826D01*
X494937Y699711D01*
X495420Y699584D01*
X495899Y699445D01*
X496374Y699294D01*
X496846Y699132D01*
X497313Y698958D01*
X497776Y698773D01*
X498235Y698577D01*
X498688Y698369D01*
X499136Y698150D01*
X499579Y697921D01*
X500016Y697680D01*
X500447Y697429D01*
X500871Y697167D01*
X501289Y696895D01*
X501700Y696613D01*
X502105Y696321D01*
X502502Y696019D01*
X502891Y695708D01*
X503272Y695386D01*
X503646Y695056D01*
X504011Y694717D01*
X504368Y694368D01*
X504717Y694011D01*
X505056Y693646D01*
X505386Y693272D01*
X505708Y692891D01*
X506019Y692502D01*
X506321Y692105D01*
X506613Y691700D01*
X506895Y691289D01*
X507167Y690871D01*
X507429Y690447D01*
X507680Y690016D01*
X507921Y689579D01*
X508150Y689136D01*
X508369Y688688D01*
X508577Y688235D01*
X508773Y687776D01*
X508958Y687313D01*
X509132Y686846D01*
X509294Y686374D01*
X509445Y685899D01*
X509584Y685420D01*
X509711Y684937D01*
X509826Y684452D01*
X509930Y683964D01*
X510021Y683474D01*
X510100Y682982D01*
X510167Y682487D01*
X510222Y681992D01*
X510265Y681495D01*
X510296Y680997D01*
X510314Y680499D01*
X510320Y680000D01*
X510314Y679501D01*
X510296Y679003D01*
X510265Y678505D01*
X510222Y678008D01*
X510167Y677513D01*
X510100Y677018D01*
X510021Y676526D01*
X509930Y676036D01*
X509826Y675548D01*
X509711Y675063D01*
X509584Y674580D01*
X509445Y674101D01*
X509294Y673626D01*
X509132Y673154D01*
X508958Y672687D01*
X508773Y672224D01*
X508577Y671765D01*
X508369Y671312D01*
X508150Y670864D01*
X507921Y670421D01*
X507680Y669984D01*
X507429Y669553D01*
X507167Y669129D01*
X506895Y668711D01*
X506613Y668300D01*
X506321Y667895D01*
X506019Y667498D01*
X505708Y667109D01*
X505386Y666728D01*
X505056Y666354D01*
X504717Y665989D01*
X504368Y665632D01*
X504011Y665283D01*
X503646Y664944D01*
X503272Y664614D01*
X502891Y664292D01*
X502502Y663981D01*
X502105Y663679D01*
X501700Y663387D01*
X501289Y663105D01*
X500871Y662833D01*
X500447Y662571D01*
X500016Y662320D01*
X499579Y662079D01*
X499136Y661850D01*
X498688Y661631D01*
X498235Y661423D01*
X497776Y661227D01*
X497313Y661042D01*
X496846Y660868D01*
X496374Y660706D01*
X495899Y660555D01*
X495420Y660416D01*
X494937Y660289D01*
X494452Y660174D01*
X493964Y660070D01*
X493474Y659979D01*
X492982Y659900D01*
X492487Y659833D01*
X491992Y659778D01*
X491495Y659735D01*
X490997Y659704D01*
X490499Y659686D01*
X490000Y659680D01*
X489501Y659686D01*
X489003Y659704D01*
X488505Y659735D01*
X488008Y659778D01*
X487513Y659833D01*
X487018Y659900D01*
X486526Y659979D01*
X486036Y660070D01*
X485548Y660174D01*
X485063Y660289D01*
X484580Y660416D01*
X484101Y660555D01*
X483626Y660706D01*
X483154Y660868D01*
X482687Y661042D01*
X482224Y661227D01*
X481765Y661423D01*
X481312Y661631D01*
X480864Y661850D01*
X480421Y662079D01*
X479984Y662320D01*
X479553Y662571D01*
X479129Y662833D01*
X478711Y663105D01*
X478300Y663387D01*
X477895Y663679D01*
X477498Y663981D01*
X477109Y664292D01*
X476728Y664614D01*
X476354Y664944D01*
X475989Y665283D01*
X475632Y665632D01*
X475283Y665989D01*
X474944Y666354D01*
X474614Y666728D01*
X474292Y667109D01*
X473981Y667498D01*
X473679Y667895D01*
X473387Y668300D01*
X473105Y668711D01*
X472833Y669129D01*
X472571Y669553D01*
X472320Y669984D01*
X472079Y670421D01*
X471850Y670864D01*
X471631Y671312D01*
X471423Y671765D01*
X471227Y672224D01*
X471042Y672687D01*
X470868Y673154D01*
X470706Y673626D01*
X470555Y674101D01*
X470416Y674580D01*
X470289Y675063D01*
X470174Y675548D01*
X470070Y676036D01*
X469979Y676526D01*
X469900Y677018D01*
X469833Y677513D01*
X469778Y678008D01*
X469735Y678505D01*
X469704Y679003D01*
X469686Y679501D01*
X469680Y680000D01*
X89680Y490000D02*
X89686Y490499D01*
X89704Y490997D01*
X89735Y491495D01*
X89778Y491992D01*
X89833Y492487D01*
X89900Y492982D01*
X89979Y493474D01*
X90070Y493964D01*
X90174Y494452D01*
X90289Y494937D01*
X90416Y495420D01*
X90555Y495899D01*
X90706Y496374D01*
X90868Y496846D01*
X91042Y497313D01*
X91227Y497776D01*
X91423Y498235D01*
X91631Y498688D01*
X91850Y499136D01*
X92079Y499579D01*
X92320Y500016D01*
X92571Y500447D01*
X92833Y500871D01*
X93105Y501289D01*
X93387Y501700D01*
X93679Y502105D01*
X93981Y502502D01*
X94292Y502891D01*
X94614Y503272D01*
X94944Y503646D01*
X95283Y504011D01*
X95632Y504368D01*
X95989Y504717D01*
X96354Y505056D01*
X96728Y505386D01*
X97109Y505708D01*
X97498Y506019D01*
X97895Y506321D01*
X98300Y506613D01*
X98711Y506895D01*
X99129Y507167D01*
X99553Y507429D01*
X99984Y507680D01*
X100421Y507921D01*
X100864Y508150D01*
X101312Y508369D01*
X101765Y508577D01*
X102224Y508773D01*
X102687Y508958D01*
X103154Y509132D01*
X103626Y509294D01*
X104101Y509445D01*
X104580Y509584D01*
X105063Y509711D01*
X105548Y509826D01*
X106036Y509930D01*
X106526Y510021D01*
X107018Y510100D01*
X107513Y510167D01*
X108008Y510222D01*
X108505Y510265D01*
X109003Y510296D01*
X109501Y510314D01*
X110000Y510320D01*
X110499Y510314D01*
X110997Y510296D01*
X111495Y510265D01*
X111992Y510222D01*
X112487Y510167D01*
X112982Y510100D01*
X113474Y510021D01*
X113964Y509930D01*
X114452Y509826D01*
X114937Y509711D01*
X115420Y509584D01*
X115899Y509445D01*
X116374Y509294D01*
X116846Y509132D01*
X117313Y508958D01*
X117776Y508773D01*
X118235Y508577D01*
X118688Y508369D01*
X119136Y508150D01*
X119579Y507921D01*
X120016Y507680D01*
X120447Y507429D01*
X120871Y507167D01*
X121289Y506895D01*
X121700Y506613D01*
X122105Y506321D01*
X122502Y506019D01*
X122891Y505708D01*
X123272Y505386D01*
X123646Y505056D01*
X124011Y504717D01*
X124368Y504368D01*
X124717Y504011D01*
X125056Y503646D01*
X125386Y503272D01*
X125708Y502891D01*
X126019Y502502D01*
X126321Y502105D01*
X126613Y501700D01*
X126895Y501289D01*
X127167Y500871D01*
X127429Y500447D01*
X127680Y500016D01*
X127921Y499579D01*
X128150Y499136D01*
X128369Y498688D01*
X128577Y498235D01*
X128773Y497776D01*
X128958Y497313D01*
X129132Y496846D01*
X129294Y496374D01*
X129445Y495899D01*
X129584Y495420D01*
X129711Y494937D01*
X129826Y494452D01*
X129930Y493964D01*
X130021Y493474D01*
X130100Y492982D01*
X130167Y492487D01*
X130222Y491992D01*
X130265Y491495D01*
X130296Y490997D01*
X130314Y490499D01*
X130320Y490000D01*
X130314Y489501D01*
X130296Y489003D01*
X130265Y488505D01*
X130222Y488008D01*
X130167Y487513D01*
X130100Y487018D01*
X130021Y486526D01*
X129930Y486036D01*
X129826Y485548D01*
X129711Y485063D01*
X129584Y484580D01*
X129445Y484101D01*
X129294Y483626D01*
X129132Y483154D01*
X128958Y482687D01*
X128773Y482224D01*
X128577Y481765D01*
X128369Y481312D01*
X128150Y480864D01*
X127921Y480421D01*
X127680Y479984D01*
X127429Y479553D01*
X127167Y479129D01*
X126895Y478711D01*
X126613Y478300D01*
X126321Y477895D01*
X126019Y477498D01*
X125708Y477109D01*
X125386Y476728D01*
X125056Y476354D01*
X124717Y475989D01*
X124368Y475632D01*
X124011Y475283D01*
X123646Y474944D01*
X123272Y474614D01*
X122891Y474292D01*
X122502Y473981D01*
X122105Y473679D01*
X121700Y473387D01*
X121289Y473105D01*
X120871Y472833D01*
X120447Y472571D01*
X120016Y472320D01*
X119579Y472079D01*
X119136Y471850D01*
X118688Y471631D01*
X118235Y471423D01*
X117776Y471227D01*
X117313Y471042D01*
X116846Y470868D01*
X116374Y470706D01*
X115899Y470555D01*
X115420Y470416D01*
X114937Y470289D01*
X114452Y470174D01*
X113964Y470070D01*
X113474Y469979D01*
X112982Y469900D01*
X112487Y469833D01*
X111992Y469778D01*
X111495Y469735D01*
X110997Y469704D01*
X110499Y469686D01*
X110000Y469680D01*
X109501Y469686D01*
X109003Y469704D01*
X108505Y469735D01*
X108008Y469778D01*
X107513Y469833D01*
X107018Y469900D01*
X106526Y469979D01*
X106036Y470070D01*
X105548Y470174D01*
X105063Y470289D01*
X104580Y470416D01*
X104101Y470555D01*
X103626Y470706D01*
X103154Y470868D01*
X102687Y471042D01*
X102224Y471227D01*
X101765Y471423D01*
X101312Y471631D01*
X100864Y471850D01*
X100421Y472079D01*
X99984Y472320D01*
X99553Y472571D01*
X99129Y472833D01*
X98711Y473105D01*
X98300Y473387D01*
X97895Y473679D01*
X97498Y473981D01*
X97109Y474292D01*
X96728Y474614D01*
X96354Y474944D01*
X95989Y475283D01*
X95632Y475632D01*
X95283Y475989D01*
X94944Y476354D01*
X94614Y476728D01*
X94292Y477109D01*
X93981Y477498D01*
X93679Y477895D01*
X93387Y478300D01*
X93105Y478711D01*
X92833Y479129D01*
X92571Y479553D01*
X92320Y479984D01*
X92079Y480421D01*
X91850Y480864D01*
X91631Y481312D01*
X91423Y481765D01*
X91227Y482224D01*
X91042Y482687D01*
X90868Y483154D01*
X90706Y483626D01*
X90555Y484101D01*
X90416Y484580D01*
X90289Y485063D01*
X90174Y485548D01*
X90070Y486036D01*
X89979Y486526D01*
X89900Y487018D01*
X89833Y487513D01*
X89778Y488008D01*
X89735Y488505D01*
X89704Y489003D01*
X89686Y489501D01*
X89680Y490000D01*
X279680Y490000D02*
X279686Y490499D01*
X279704Y490997D01*
X279735Y491495D01*
X279778Y491992D01*
X279833Y492487D01*
X279900Y492982D01*
X279979Y493474D01*
X280070Y493964D01*
X280174Y494452D01*
X280289Y494937D01*
X280416Y495420D01*
X280555Y495899D01*
X280706Y496374D01*
X280868Y496846D01*
X281042Y497313D01*
X281227Y497776D01*
X281423Y498235D01*
X281631Y498688D01*
X281850Y499136D01*
X282079Y499579D01*
X282320Y500016D01*
X282571Y500447D01*
X282833Y500871D01*
X283105Y501289D01*
X283387Y501700D01*
X283679Y502105D01*
X283981Y502502D01*
X284292Y502891D01*
X284614Y503272D01*
X284944Y503646D01*
X285283Y504011D01*
X285632Y504368D01*
X285989Y504717D01*
X286354Y505056D01*
X286728Y505386D01*
X287109Y505708D01*
X287498Y506019D01*
X287895Y506321D01*
X288300Y506613D01*
X288711Y506895D01*
X289129Y507167D01*
X289553Y507429D01*
X289984Y507680D01*
X290421Y507921D01*
X290864Y508150D01*
X291312Y508369D01*
X291765Y508577D01*
X292224Y508773D01*
X292687Y508958D01*
X293154Y509132D01*
X293626Y509294D01*
X294101Y509445D01*
X294580Y509584D01*
X295063Y509711D01*
X295548Y509826D01*
X296036Y509930D01*
X296526Y510021D01*
X297018Y510100D01*
X297513Y510167D01*
X298008Y510222D01*
X298505Y510265D01*
X299003Y510296D01*
X299501Y510314D01*
X300000Y510320D01*
X300499Y510314D01*
X300997Y510296D01*
X301495Y510265D01*
X301992Y510222D01*
X302487Y510167D01*
X302982Y510100D01*
X303474Y510021D01*
X303964Y509930D01*
X304452Y509826D01*
X304937Y509711D01*
X305420Y509584D01*
X305899Y509445D01*
X306374Y509294D01*
X306846Y509132D01*
X307313Y508958D01*
X307776Y508773D01*
X308235Y508577D01*
X308688Y508369D01*
X309136Y508150D01*
X309579Y507921D01*
X310016Y507680D01*
X310447Y507429D01*
X310871Y507167D01*
X311289Y506895D01*
X311700Y506613D01*
X312105Y506321D01*
X312502Y506019D01*
X312891Y505708D01*
X313272Y505386D01*
X313646Y505056D01*
X314011Y504717D01*
X314368Y504368D01*
X314717Y504011D01*
X315056Y503646D01*
X315386Y503272D01*
X315708Y502891D01*
X316019Y502502D01*
X316321Y502105D01*
X316613Y501700D01*
X316895Y501289D01*
X317167Y500871D01*
X317429Y500447D01*
X317680Y500016D01*
X317921Y499579D01*
X318150Y499136D01*
X318369Y498688D01*
X318577Y498235D01*
X318773Y497776D01*
X318958Y497313D01*
X319132Y496846D01*
X319294Y496374D01*
X319445Y495899D01*
X319584Y495420D01*
X319711Y494937D01*
X319826Y494452D01*
X319930Y493964D01*
X320021Y493474D01*
X320100Y492982D01*
X320167Y492487D01*
X320222Y491992D01*
X320265Y491495D01*
X320296Y490997D01*
X320314Y490499D01*
X320320Y490000D01*
X320314Y489501D01*
X320296Y489003D01*
X320265Y488505D01*
X320222Y488008D01*
X320167Y487513D01*
X320100Y487018D01*
X320021Y486526D01*
X319930Y486036D01*
X319826Y485548D01*
X319711Y485063D01*
X319584Y484580D01*
X319445Y484101D01*
X319294Y483626D01*
X319132Y483154D01*
X318958Y482687D01*
X318773Y482224D01*
X318577Y481765D01*
X318369Y481312D01*
X318150Y480864D01*
X317921Y480421D01*
X317680Y479984D01*
X317429Y479553D01*
X317167Y479129D01*
X316895Y478711D01*
X316613Y478300D01*
X316321Y477895D01*
X316019Y477498D01*
X315708Y477109D01*
X315386Y476728D01*
X315056Y476354D01*
X314717Y475989D01*
X314368Y475632D01*
X314011Y475283D01*
X313646Y474944D01*
X313272Y474614D01*
X312891Y474292D01*
X312502Y473981D01*
X312105Y473679D01*
X311700Y473387D01*
X311289Y473105D01*
X310871Y472833D01*
X310447Y472571D01*
X310016Y472320D01*
X309579Y472079D01*
X309136Y471850D01*
X308688Y471631D01*
X308235Y471423D01*
X307776Y471227D01*
X307313Y471042D01*
X306846Y470868D01*
X306374Y470706D01*
X305899Y470555D01*
X305420Y470416D01*
X304937Y470289D01*
X304452Y470174D01*
X303964Y470070D01*
X303474Y469979D01*
X302982Y469900D01*
X302487Y469833D01*
X301992Y469778D01*
X301495Y469735D01*
X300997Y469704D01*
X300499Y469686D01*
X300000Y469680D01*
X299501Y469686D01*
X299003Y469704D01*
X298505Y469735D01*
X298008Y469778D01*
X297513Y469833D01*
X297018Y469900D01*
X296526Y469979D01*
X296036Y470070D01*
X295548Y470174D01*
X295063Y470289D01*
X294580Y470416D01*
X294101Y470555D01*
X293626Y470706D01*
X293154Y470868D01*
X292687Y471042D01*
X292224Y471227D01*
X291765Y471423D01*
X291312Y471631D01*
X290864Y471850D01*
X290421Y472079D01*
X289984Y472320D01*
X289553Y472571D01*
X289129Y472833D01*
X288711Y473105D01*
X288300Y473387D01*
X287895Y473679D01*
X287498Y473981D01*
X287109Y474292D01*
X286728Y474614D01*
X286354Y474944D01*
X285989Y475283D01*
X285632Y475632D01*
X285283Y475989D01*
X284944Y476354D01*
X284614Y476728D01*
X284292Y477109D01*
X283981Y477498D01*
X283679Y477895D01*
X283387Y478300D01*
X283105Y478711D01*
X282833Y479129D01*
X282571Y479553D01*
X282320Y479984D01*
X282079Y480421D01*
X281850Y480864D01*
X281631Y481312D01*
X281423Y481765D01*
X281227Y482224D01*
X281042Y482687D01*
X280868Y483154D01*
X280706Y483626D01*
X280555Y484101D01*
X280416Y484580D01*
X280289Y485063D01*
X280174Y485548D01*
X280070Y486036D01*
X279979Y486526D01*
X279900Y487018D01*
X279833Y487513D01*
X279778Y488008D01*
X279735Y488505D01*
X279704Y489003D01*
X279686Y489501D01*
X279680Y490000D01*
X469680Y490000D02*
X469686Y490499D01*
X469704Y490997D01*
X469735Y491495D01*
X469778Y491992D01*
X469833Y492487D01*
X469900Y492982D01*
X469979Y493474D01*
X470070Y493964D01*
X470174Y494452D01*
X470289Y494937D01*
X470416Y495420D01*
X470555Y495899D01*
X470706Y496374D01*
X470868Y496846D01*
X471042Y497313D01*
X471227Y497776D01*
X471423Y498235D01*
X471631Y498688D01*
X471850Y499136D01*
X472079Y499579D01*
X472320Y500016D01*
X472571Y500447D01*
X472833Y500871D01*
X473105Y501289D01*
X473387Y501700D01*
X473679Y502105D01*
X473981Y502502D01*
X474292Y502891D01*
X474614Y503272D01*
X474944Y503646D01*
X475283Y504011D01*
X475632Y504368D01*
X475989Y504717D01*
X476354Y505056D01*
X476728Y505386D01*
X477109Y505708D01*
X477498Y506019D01*
X477895Y506321D01*
X478300Y506613D01*
X478711Y506895D01*
X479129Y507167D01*
X479553Y507429D01*
X479984Y507680D01*
X480421Y507921D01*
X480864Y508150D01*
X481312Y508369D01*
X481765Y508577D01*
X482224Y508773D01*
X482687Y508958D01*
X483154Y509132D01*
X483626Y509294D01*
X484101Y509445D01*
X484580Y509584D01*
X485063Y509711D01*
X485548Y509826D01*
X486036Y509930D01*
X486526Y510021D01*
X487018Y510100D01*
X487513Y510167D01*
X488008Y510222D01*
X488505Y510265D01*
X489003Y510296D01*
X489501Y510314D01*
X490000Y510320D01*
X490499Y510314D01*
X490997Y510296D01*
X491495Y510265D01*
X491992Y510222D01*
X492487Y510167D01*
X492982Y510100D01*
X493474Y510021D01*
X493964Y509930D01*
X494452Y509826D01*
X494937Y509711D01*
X495420Y509584D01*
X495899Y509445D01*
X496374Y509294D01*
X496846Y509132D01*
X497313Y508958D01*
X497776Y508773D01*
X498235Y508577D01*
X498688Y508369D01*
X499136Y508150D01*
X499579Y507921D01*
X500016Y507680D01*
X500447Y507429D01*
X500871Y507167D01*
X501289Y506895D01*
X501700Y506613D01*
X502105Y506321D01*
X502502Y506019D01*
X502891Y505708D01*
X503272Y505386D01*
X503646Y505056D01*
X504011Y504717D01*
X504368Y504368D01*
X504717Y504011D01*
X505056Y503646D01*
X505386Y503272D01*
X505708Y502891D01*
X506019Y502502D01*
X506321Y502105D01*
X506613Y501700D01*
X506895Y501289D01*
X507167Y500871D01*
X507429Y500447D01*
X507680Y500016D01*
X507921Y499579D01*
X508150Y499136D01*
X508369Y498688D01*
X508577Y498235D01*
X508773Y497776D01*
X508958Y497313D01*
X509132Y496846D01*
X509294Y496374D01*
X509445Y495899D01*
X509584Y495420D01*
X509711Y494937D01*
X509826Y494452D01*
X509930Y493964D01*
X510021Y493474D01*
X510100Y492982D01*
X510167Y492487D01*
X510222Y491992D01*
X510265Y491495D01*
X510296Y490997D01*
X510314Y490499D01*
X510320Y490000D01*
X510314Y489501D01*
X510296Y489003D01*
X510265Y488505D01*
X510222Y488008D01*
X510167Y487513D01*
X510100Y487018D01*
X510021Y486526D01*
X509930Y486036D01*
X509826Y485548D01*
X509711Y485063D01*
X509584Y484580D01*
X509445Y484101D01*
X509294Y483626D01*
X509132Y483154D01*
X508958Y482687D01*
X508773Y482224D01*
X508577Y481765D01*
X508369Y481312D01*
X508150Y480864D01*
X507921Y480421D01*
X507680Y479984D01*
X507429Y479553D01*
X507167Y479129D01*
X506895Y478711D01*
X506613Y478300D01*
X506321Y477895D01*
X506019Y477498D01*
X505708Y477109D01*
X505386Y476728D01*
X505056Y476354D01*
X504717Y475989D01*
X504368Y475632D01*
X504011Y475283D01*
X503646Y474944D01*
X503272Y474614D01*
X502891Y474292D01*
X502502Y473981D01*
X502105Y473679D01*
X501700Y473387D01*
X501289Y473105D01*
X500871Y472833D01*
X500447Y472571D01*
X500016Y472320D01*
X499579Y472079D01*
X499136Y471850D01*
X498688Y471631D01*
X498235Y471423D01*
X497776Y471227D01*
X497313Y471042D01*
X496846Y470868D01*
X496374Y470706D01*
X495899Y470555D01*
X495420Y470416D01*
X494937Y470289D01*
X494452Y470174D01*
X493964Y470070D01*
X493474Y469979D01*
X492982Y469900D01*
X492487Y469833D01*
X491992Y469778D01*
X491495Y469735D01*
X490997Y469704D01*
X490499Y469686D01*
X490000Y469680D01*
X489501Y469686D01*
X489003Y469704D01*
X488505Y469735D01*
X488008Y469778D01*
X487513Y469833D01*
X487018Y469900D01*
X486526Y469979D01*
X486036Y470070D01*
X485548Y470174D01*
X485063Y470289D01*
X484580Y470416D01*
X484101Y470555D01*
X483626Y470706D01*
X483154Y470868D01*
X482687Y471042D01*
X482224Y471227D01*
X481765Y471423D01*
X481312Y471631D01*
X480864Y471850D01*
X480421Y472079D01*
X479984Y472320D01*
X479553Y472571D01*
X479129Y472833D01*
X478711Y473105D01*
X478300Y473387D01*
X477895Y473679D01*
X477498Y473981D01*
X477109Y474292D01*
X476728Y474614D01*
X476354Y474944D01*
X475989Y475283D01*
X475632Y475632D01*
X475283Y475989D01*
X474944Y476354D01*
X474614Y476728D01*
X474292Y477109D01*
X473981Y477498D01*
X473679Y477895D01*
X473387Y478300D01*
X473105Y478711D01*
X472833Y479129D01*
X472571Y479553D01*
X472320Y479984D01*
X472079Y480421D01*
X471850Y480864D01*
X471631Y481312D01*
X471423Y481765D01*
X471227Y482224D01*
X471042Y482687D01*
X470868Y483154D01*
X470706Y483626D01*
X470555Y484101D01*
X470416Y484580D01*
X470289Y485063D01*
X470174Y485548D01*
X470070Y486036D01*
X469979Y486526D01*
X469900Y487018D01*
X469833Y487513D01*
X469778Y488008D01*
X469735Y488505D01*
X469704Y489003D01*
X469686Y489501D01*
X469680Y490000D01*
X89680Y300000D02*
X89686Y300499D01*
X89704Y300997D01*
X89735Y301495D01*
X89778Y301992D01*
X89833Y302487D01*
X89900Y302982D01*
X89979Y303474D01*
X90070Y303964D01*
X90174Y304452D01*
X90289Y304937D01*
X90416Y305420D01*
X90555Y305899D01*
X90706Y306374D01*
X90868Y306846D01*
X91042Y307313D01*
X91227Y307776D01*
X91423Y308235D01*
X91631Y308688D01*
X91850Y309136D01*
X92079Y309579D01*
X92320Y310016D01*
X92571Y310447D01*
X92833Y310871D01*
X93105Y311289D01*
X93387Y311700D01*
X93679Y312105D01*
X93981Y312502D01*
X94292Y312891D01*
X94614Y313272D01*
X94944Y313646D01*
X95283Y314011D01*
X95632Y314368D01*
X95989Y314717D01*
X96354Y315056D01*
X96728Y315386D01*
X97109Y315708D01*
X97498Y316019D01*
X97895Y316321D01*
X98300Y316613D01*
X98711Y316895D01*
X99129Y317167D01*
X99553Y317429D01*
X99984Y317680D01*
X100421Y317921D01*
X100864Y318150D01*
X101312Y318369D01*
X101765Y318577D01*
X102224Y318773D01*
X102687Y318958D01*
X103154Y319132D01*
X103626Y319294D01*
X104101Y319445D01*
X104580Y319584D01*
X105063Y319711D01*
X105548Y319826D01*
X106036Y319930D01*
X106526Y320021D01*
X107018Y320100D01*
X107513Y320167D01*
X108008Y320222D01*
X108505Y320265D01*
X109003Y320296D01*
X109501Y320314D01*
X110000Y320320D01*
X110499Y320314D01*
X110997Y320296D01*
X111495Y320265D01*
X111992Y320222D01*
X112487Y320167D01*
X112982Y320100D01*
X113474Y320021D01*
X113964Y319930D01*
X114452Y319826D01*
X114937Y319711D01*
X115420Y319584D01*
X115899Y319445D01*
X116374Y319294D01*
X116846Y319132D01*
X117313Y318958D01*
X117776Y318773D01*
X118235Y318577D01*
X118688Y318369D01*
X119136Y318150D01*
X119579Y317921D01*
X120016Y317680D01*
X120447Y317429D01*
X120871Y317167D01*
X121289Y316895D01*
X121700Y316613D01*
X122105Y316321D01*
X122502Y316019D01*
X122891Y315708D01*
X123272Y315386D01*
X123646Y315056D01*
X124011Y314717D01*
X124368Y314368D01*
X124717Y314011D01*
X125056Y313646D01*
X125386Y313272D01*
X125708Y312891D01*
X126019Y312502D01*
X126321Y312105D01*
X126613Y311700D01*
X126895Y311289D01*
X127167Y310871D01*
X127429Y310447D01*
X127680Y310016D01*
X127921Y309579D01*
X128150Y309136D01*
X128369Y308688D01*
X128577Y308235D01*
X128773Y307776D01*
X128958Y307313D01*
X129132Y306846D01*
X129294Y306374D01*
X129445Y305899D01*
X129584Y305420D01*
X129711Y304937D01*
X129826Y304452D01*
X129930Y303964D01*
X130021Y303474D01*
X130100Y302982D01*
X130167Y302487D01*
X130222Y301992D01*
X130265Y301495D01*
X130296Y300997D01*
X130314Y300499D01*
X130320Y300000D01*
X130314Y299501D01*
X130296Y299003D01*
X130265Y298505D01*
X130222Y298008D01*
X130167Y297513D01*
X130100Y297018D01*
X130021Y296526D01*
X129930Y296036D01*
X129826Y295548D01*
X129711Y295063D01*
X129584Y294580D01*
X129445Y294101D01*
X129294Y293626D01*
X129132Y293154D01*
X128958Y292687D01*
X128773Y292224D01*
X128577Y291765D01*
X128369Y291312D01*
X128150Y290864D01*
X127921Y290421D01*
X127680Y289984D01*
X127429Y289553D01*
X127167Y289129D01*
X126895Y288711D01*
X126613Y288300D01*
X126321Y287895D01*
X126019Y287498D01*
X125708Y287109D01*
X125386Y286728D01*
X125056Y286354D01*
X124717Y285989D01*
X124368Y285632D01*
X124011Y285283D01*
X123646Y284944D01*
X123272Y284614D01*
X122891Y284292D01*
X122502Y283981D01*
X122105Y283679D01*
X121700Y283387D01*
X121289Y283105D01*
X120871Y282833D01*
X120447Y282571D01*
X120016Y282320D01*
X119579Y282079D01*
X119136Y281850D01*
X118688Y281631D01*
X118235Y281423D01*
X117776Y281227D01*
X117313Y281042D01*
X116846Y280868D01*
X116374Y280706D01*
X115899Y280555D01*
X115420Y280416D01*
X114937Y280289D01*
X114452Y280174D01*
X113964Y280070D01*
X113474Y279979D01*
X112982Y279900D01*
X112487Y279833D01*
X111992Y279778D01*
X111495Y279735D01*
X110997Y279704D01*
X110499Y279686D01*
X110000Y279680D01*
X109501Y279686D01*
X109003Y279704D01*
X108505Y279735D01*
X108008Y279778D01*
X107513Y279833D01*
X107018Y279900D01*
X106526Y279979D01*
X106036Y280070D01*
X105548Y280174D01*
X105063Y280289D01*
X104580Y280416D01*
X104101Y280555D01*
X103626Y280706D01*
X103154Y280868D01*
X102687Y281042D01*
X102224Y281227D01*
X101765Y281423D01*
X101312Y281631D01*
X100864Y281850D01*
X100421Y282079D01*
X99984Y282320D01*
X99553Y282571D01*
X99129Y282833D01*
X98711Y283105D01*
X98300Y283387D01*
X97895Y283679D01*
X97498Y283981D01*
X97109Y284292D01*
X96728Y284614D01*
X96354Y284944D01*
X95989Y285283D01*
X95632Y285632D01*
X95283Y285989D01*
X94944Y286354D01*
X94614Y286728D01*
X94292Y287109D01*
X93981Y287498D01*
X93679Y287895D01*
X93387Y288300D01*
X93105Y288711D01*
X92833Y289129D01*
X92571Y289553D01*
X92320Y289984D01*
X92079Y290421D01*
X91850Y290864D01*
X91631Y291312D01*
X91423Y291765D01*
X91227Y292224D01*
X91042Y292687D01*
X90868Y293154D01*
X90706Y293626D01*
X90555Y294101D01*
X90416Y294580D01*
X90289Y295063D01*
X90174Y295548D01*
X90070Y296036D01*
X89979Y296526D01*
X89900Y297018D01*
X89833Y297513D01*
X89778Y298008D01*
X89735Y298505D01*
X89704Y299003D01*
X89686Y299501D01*
X89680Y300000D01*
X279680Y300000D02*
X279686Y300499D01*
X279704Y300997D01*
X279735Y301495D01*
X279778Y301992D01*
X279833Y302487D01*
X279900Y302982D01*
X279979Y303474D01*
X280070Y303964D01*
X280174Y304452D01*
X280289Y304937D01*
X280416Y305420D01*
X280555Y305899D01*
X280706Y306374D01*
X280868Y306846D01*
X281042Y307313D01*
X281227Y307776D01*
X281423Y308235D01*
X281631Y308688D01*
X281850Y309136D01*
X282079Y309579D01*
X282320Y310016D01*
X282571Y310447D01*
X282833Y310871D01*
X283105Y311289D01*
X283387Y311700D01*
X283679Y312105D01*
X283981Y312502D01*
X284292Y312891D01*
X284614Y313272D01*
X284944Y313646D01*
X285283Y314011D01*
X285632Y314368D01*
X285989Y314717D01*
X286354Y315056D01*
X286728Y315386D01*
X287109Y315708D01*
X287498Y316019D01*
X287895Y316321D01*
X288300Y316613D01*
X288711Y316895D01*
X289129Y317167D01*
X289553Y317429D01*
X289984Y317680D01*
X290421Y317921D01*
X290864Y318150D01*
X291312Y318369D01*
X291765Y318577D01*
X292224Y318773D01*
X292687Y318958D01*
X293154Y319132D01*
X293626Y319294D01*
X294101Y319445D01*
X294580Y319584D01*
X295063Y319711D01*
X295548Y319826D01*
X296036Y319930D01*
X296526Y320021D01*
X297018Y320100D01*
X297513Y320167D01*
X298008Y320222D01*
X298505Y320265D01*
X299003Y320296D01*
X299501Y320314D01*
X300000Y320320D01*
X300499Y320314D01*
X300997Y320296D01*
X301495Y320265D01*
X301992Y320222D01*
X302487Y320167D01*
X302982Y320100D01*
X303474Y320021D01*
X303964Y319930D01*
X304452Y319826D01*
X304937Y319711D01*
X305420Y319584D01*
X305899Y319445D01*
X306374Y319294D01*
X306846Y319132D01*
X307313Y318958D01*
X307776Y318773D01*
X308235Y318577D01*
X308688Y318369D01*
X309136Y318150D01*
X309579Y317921D01*
X310016Y317680D01*
X310447Y317429D01*
X310871Y317167D01*
X311289Y316895D01*
X311700Y316613D01*
X312105Y316321D01*
X312502Y316019D01*
X312891Y315708D01*
X313272Y315386D01*
X313646Y315056D01*
X314011Y314717D01*
X314368Y314368D01*
X314717Y314011D01*
X315056Y313646D01*
X315386Y313272D01*
X315708Y312891D01*
X316019Y312502D01*
X316321Y312105D01*
X316613Y311700D01*
X316895Y311289D01*
X317167Y310871D01*
X317429Y310447D01*
X317680Y310016D01*
X317921Y309579D01*
X318150Y309136D01*
X318369Y308688D01*
X318577Y308235D01*
X318773Y307776D01*
X318958Y307313D01*
X319132Y306846D01*
X319294Y306374D01*
X319445Y305899D01*
X319584Y305420D01*
X319711Y304937D01*
X319826Y304452D01*
X319930Y303964D01*
X320021Y303474D01*
X320100Y302982D01*
X320167Y302487D01*
X320222Y301992D01*
X320265Y301495D01*
X320296Y300997D01*
X320314Y300499D01*
X320320Y300000D01*
X320314Y299501D01*
X320296Y299003D01*
X320265Y298505D01*
X320222Y298008D01*
X320167Y297513D01*
X320100Y297018D01*
X320021Y296526D01*
X319930Y296036D01*
X319826Y295548D01*
X319711Y295063D01*
X319584Y294580D01*
X319445Y294101D01*
X319294Y293626D01*
X319132Y293154D01*
X318958Y292687D01*
X318773Y292224D01*
X318577Y291765D01*
X318369Y291312D01*
X318150Y290864D01*
X317921Y290421D01*
X317680Y289984D01*
X317429Y289553D01*
X317167Y289129D01*
X316895Y288711D01*
X316613Y288300D01*
X316321Y287895D01*
X316019Y287498D01*
X315708Y287109D01*
X315386Y286728D01*
X315056Y286354D01*
X314717Y285989D01*
X314368Y285632D01*
X314011Y285283D01*
X313646Y284944D01*
X313272Y284614D01*
X312891Y284292D01*
X312502Y283981D01*
X312105Y283679D01*
X311700Y283387D01*
X311289Y283105D01*
X310871Y282833D01*
X310447Y282571D01*
X310016Y282320D01*
X309579Y282079D01*
X309136Y281850D01*
X308688Y281631D01*
X308235Y281423D01*
X307776Y281227D01*
X307313Y281042D01*
X306846Y280868D01*
X306374Y280706D01*
X305899Y280555D01*
X305420Y280416D01*
X304937Y280289D01*
X304452Y280174D01*
X303964Y280070D01*
X303474Y279979D01*
X302982Y279900D01*
X302487Y279833D01*
X301992Y279778D01*
X301495Y279735D01*
X300997Y279704D01*
X300499Y279686D01*
X300000Y279680D01*
X299501Y279686D01*
X299003Y279704D01*
X298505Y279735D01*
X298008Y279778D01*
X297513Y279833D01*
X297018Y279900D01*
X296526Y279979D01*
X296036Y280070D01*
X295548Y280174D01*
X295063Y280289D01*
X294580Y280416D01*
X294101Y280555D01*
X293626Y280706D01*
X293154Y280868D01*
X292687Y281042D01*
X292224Y281227D01*
X291765Y281423D01*
X291312Y281631D01*
X290864Y281850D01*
X290421Y282079D01*
X289984Y282320D01*
X289553Y282571D01*
X289129Y282833D01*
X288711Y283105D01*
X288300Y283387D01*
X287895Y283679D01*
X287498Y283981D01*
X287109Y284292D01*
X286728Y284614D01*
X286354Y284944D01*
X285989Y285283D01*
X285632Y285632D01*
X285283Y285989D01*
X284944Y286354D01*
X284614Y286728D01*
X284292Y287109D01*
X283981Y287498D01*
X283679Y287895D01*
X283387Y288300D01*
X283105Y288711D01*
X282833Y289129D01*
X282571Y289553D01*
X282320Y289984D01*
X282079Y290421D01*
X281850Y290864D01*
X281631Y291312D01*
X281423Y291765D01*
X281227Y292224D01*
X281042Y292687D01*
X280868Y293154D01*
X280706Y293626D01*
X280555Y294101D01*
X280416Y294580D01*
X280289Y295063D01*
X280174Y295548D01*
X280070Y296036D01*
X279979Y296526D01*
X279900Y297018D01*
X279833Y297513D01*
X279778Y298008D01*
X279735Y298505D01*
X279704Y299003D01*
X279686Y299501D01*
X279680Y300000D01*
X469680Y300000D02*
X469686Y300499D01*
X469704Y300997D01*
X469735Y301495D01*
X469778Y301992D01*
X469833Y302487D01*
X469900Y302982D01*
X469979Y303474D01*
X470070Y303964D01*
X470174Y304452D01*
X470289Y304937D01*
X470416Y305420D01*
X470555Y305899D01*
X470706Y306374D01*
X470868Y306846D01*
X471042Y307313D01*
X471227Y307776D01*
X471423Y308235D01*
X471631Y308688D01*
X471850Y309136D01*
X472079Y309579D01*
X472320Y310016D01*
X472571Y310447D01*
X472833Y310871D01*
X473105Y311289D01*
X473387Y311700D01*
X473679Y312105D01*
X473981Y312502D01*
X474292Y312891D01*
X474614Y313272D01*
X474944Y313646D01*
X475283Y314011D01*
X475632Y314368D01*
X475989Y314717D01*
X476354Y315056D01*
X476728Y315386D01*
X477109Y315708D01*
X477498Y316019D01*
X477895Y316321D01*
X478300Y316613D01*
X478711Y316895D01*
X479129Y317167D01*
X479553Y317429D01*
X479984Y317680D01*
X480421Y317921D01*
X480864Y318150D01*
X481312Y318369D01*
X481765Y318577D01*
X482224Y318773D01*
X482687Y318958D01*
X483154Y319132D01*
X483626Y319294D01*
X484101Y319445D01*
X484580Y319584D01*
X485063Y319711D01*
X485548Y319826D01*
X486036Y319930D01*
X486526Y320021D01*
X487018Y320100D01*
X487513Y320167D01*
X488008Y320222D01*
X488505Y320265D01*
X489003Y320296D01*
X489501Y320314D01*
X490000Y320320D01*
X490499Y320314D01*
X490997Y320296D01*
X491495Y320265D01*
X491992Y320222D01*
X492487Y320167D01*
X492982Y320100D01*
X493474Y320021D01*
X493964Y319930D01*
X494452Y319826D01*
X494937Y319711D01*
X495420Y319584D01*
X495899Y319445D01*
X496374Y319294D01*
X496846Y319132D01*
X497313Y318958D01*
X497776Y318773D01*
X498235Y318577D01*
X498688Y318369D01*
X499136Y318150D01*
X499579Y317921D01*
X500016Y317680D01*
X500447Y317429D01*
X500871Y317167D01*
X501289Y316895D01*
X501700Y316613D01*
X502105Y316321D01*
X502502Y316019D01*
X502891Y315708D01*
X503272Y315386D01*
X503646Y315056D01*
X504011Y314717D01*
X504368Y314368D01*
X504717Y314011D01*
X505056Y313646D01*
X505386Y313272D01*
X505708Y312891D01*
X506019Y312502D01*
X506321Y312105D01*
X506613Y311700D01*
X506895Y311289D01*
X507167Y310871D01*
X507429Y310447D01*
X507680Y310016D01*
X507921Y309579D01*
X508150Y309136D01*
X508369Y308688D01*
X508577Y308235D01*
X508773Y307776D01*
X508958Y307313D01*
X509132Y306846D01*
X509294Y306374D01*
X509445Y305899D01*
X509584Y305420D01*
X509711Y304937D01*
X509826Y304452D01*
X509930Y303964D01*
X510021Y303474D01*
X510100Y302982D01*
X510167Y302487D01*
X510222Y301992D01*
X510265Y301495D01*
X510296Y300997D01*
X510314Y300499D01*
X510320Y300000D01*
X510314Y299501D01*
X510296Y299003D01*
X510265Y298505D01*
X510222Y298008D01*
X510167Y297513D01*
X510100Y297018D01*
X510021Y296526D01*
X509930Y296036D01*
X509826Y295548D01*
X509711Y295063D01*
X509584Y294580D01*
X509445Y294101D01*
X509294Y293626D01*
X509132Y293154D01*
X508958Y292687D01*
X508773Y292224D01*
X508577Y291765D01*
X508369Y291312D01*
X508150Y290864D01*
X507921Y290421D01*
X507680Y289984D01*
X507429Y289553D01*
X507167Y289129D01*
X506895Y288711D01*
X506613Y288300D01*
X506321Y287895D01*
X506019Y287498D01*
X505708Y287109D01*
X505386Y286728D01*
X505056Y286354D01*
X504717Y285989D01*
X504368Y285632D01*
X504011Y285283D01*
X503646Y284944D01*
X503272Y284614D01*
X502891Y284292D01*
X502502Y283981D01*
X502105Y283679D01*
X501700Y283387D01*
X501289Y283105D01*
X500871Y282833D01*
X500447Y282571D01*
X500016Y282320D01*
X499579Y282079D01*
X499136Y281850D01*
X498688Y281631D01*
X498235Y281423D01*
X497776Y281227D01*
X497313Y281042D01*
X496846Y280868D01*
X496374Y280706D01*
X495899Y280555D01*
X495420Y280416D01*
X494937Y280289D01*
X494452Y280174D01*
X493964Y280070D01*
X493474Y279979D01*
X492982Y279900D01*
X492487Y279833D01*
X491992Y279778D01*
X491495Y279735D01*
X490997Y279704D01*
X490499Y279686D01*
X490000Y279680D01*
X489501Y279686D01*
X489003Y279704D01*
X488505Y279735D01*
X488008Y279778D01*
X487513Y279833D01*
X487018Y279900D01*
X486526Y279979D01*
X486036Y280070D01*
X485548Y280174D01*
X485063Y280289D01*
X484580Y280416D01*
X484101Y280555D01*
X483626Y280706D01*
X483154Y280868D01*
X482687Y281042D01*
X482224Y281227D01*
X481765Y281423D01*
X481312Y281631D01*
X480864Y281850D01*
X480421Y282079D01*
X479984Y282320D01*
X479553Y282571D01*
X479129Y282833D01*
X478711Y283105D01*
X478300Y283387D01*
X477895Y283679D01*
X477498Y283981D01*
X477109Y284292D01*
X476728Y284614D01*
X476354Y284944D01*
X475989Y285283D01*
X475632Y285632D01*
X475283Y285989D01*
X474944Y286354D01*
X474614Y286728D01*
X474292Y287109D01*
X473981Y287498D01*
X473679Y287895D01*
X473387Y288300D01*
X473105Y288711D01*
X472833Y289129D01*
X472571Y289553D01*
X472320Y289984D01*
X472079Y290421D01*
X471850Y290864D01*
X471631Y291312D01*
X471423Y291765D01*
X471227Y292224D01*
X471042Y292687D01*
X470868Y293154D01*
X470706Y293626D01*
X470555Y294101D01*
X470416Y294580D01*
X470289Y295063D01*
X470174Y295548D01*
X470070Y296036D01*
X469979Y296526D01*
X469900Y297018D01*
X469833Y297513D01*
X469778Y298008D01*
X469735Y298505D01*
X469704Y299003D01*
X469686Y299501D01*
X469680Y300000D01*
X89680Y110000D02*
X89686Y110499D01*
X89704Y110997D01*
X89735Y111495D01*
X89778Y111992D01*
X89833Y112487D01*
X89900Y112982D01*
X89979Y113474D01*
X90070Y113964D01*
X90174Y114452D01*
X90289Y114937D01*
X90416Y115420D01*
X90555Y115899D01*
X90706Y116374D01*
X90868Y116846D01*
X91042Y117313D01*
X91227Y117776D01*
X91423Y118235D01*
X91631Y118688D01*
X91850Y119136D01*
X92079Y119579D01*
X92320Y120016D01*
X92571Y120447D01*
X92833Y120871D01*
X93105Y121289D01*
X93387Y121700D01*
X93679Y122105D01*
X93981Y122502D01*
X94292Y122891D01*
X94614Y123272D01*
X94944Y123646D01*
X95283Y124011D01*
X95632Y124368D01*
X95989Y124717D01*
X96354Y125056D01*
X96728Y125386D01*
X97109Y125708D01*
X97498Y126019D01*
X97895Y126321D01*
X98300Y126613D01*
X98711Y126895D01*
X99129Y127167D01*
X99553Y127429D01*
X99984Y127680D01*
X100421Y127921D01*
X100864Y128150D01*
X101312Y128369D01*
X101765Y128577D01*
X102224Y128773D01*
X102687Y128958D01*
X103154Y129132D01*
X103626Y129294D01*
X104101Y129445D01*
X104580Y129584D01*
X105063Y129711D01*
X105548Y129826D01*
X106036Y129930D01*
X106526Y130021D01*
X107018Y130100D01*
X107513Y130167D01*
X108008Y130222D01*
X108505Y130265D01*
X109003Y130296D01*
X109501Y130314D01*
X110000Y130320D01*
X110499Y130314D01*
X110997Y130296D01*
X111495Y130265D01*
X111992Y130222D01*
X112487Y130167D01*
X112982Y130100D01*
X113474Y130021D01*
X113964Y129930D01*
X114452Y129826D01*
X114937Y129711D01*
X115420Y129584D01*
X115899Y129445D01*
X116374Y129294D01*
X116846Y129132D01*
X117313Y128958D01*
X117776Y128773D01*
X118235Y128577D01*
X118688Y128369D01*
X119136Y128150D01*
X119579Y127921D01*
X120016Y127680D01*
X120447Y127429D01*
X120871Y127167D01*
X121289Y126895D01*
X121700Y126613D01*
X122105Y126321D01*
X122502Y126019D01*
X122891Y125708D01*
X123272Y125386D01*
X123646Y125056D01*
X124011Y124717D01*
X124368Y124368D01*
X124717Y124011D01*
X125056Y123646D01*
X125386Y123272D01*
X125708Y122891D01*
X126019Y122502D01*
X126321Y122105D01*
X126613Y121700D01*
X126895Y121289D01*
X127167Y120871D01*
X127429Y120447D01*
X127680Y120016D01*
X127921Y119579D01*
X128150Y119136D01*
X128369Y118688D01*
X128577Y118235D01*
X128773Y117776D01*
X128958Y117313D01*
X129132Y116846D01*
X129294Y116374D01*
X129445Y115899D01*
X129584Y115420D01*
X129711Y114937D01*
X129826Y114452D01*
X129930Y113964D01*
X130021Y113474D01*
X130100Y112982D01*
X130167Y112487D01*
X130222Y111992D01*
X130265Y111495D01*
X130296Y110997D01*
X130314Y110499D01*
X130320Y110000D01*
X130314Y109501D01*
X130296Y109003D01*
X130265Y108505D01*
X130222Y108008D01*
X130167Y107513D01*
X130100Y107018D01*
X130021Y106526D01*
X129930Y106036D01*
X129826Y105548D01*
X129711Y105063D01*
X129584Y104580D01*
X129445Y104101D01*
X129294Y103626D01*
X129132Y103154D01*
X128958Y102687D01*
X128773Y102224D01*
X128577Y101765D01*
X128369Y101312D01*
X128150Y100864D01*
X127921Y100421D01*
X127680Y99984D01*
X127429Y99553D01*
X127167Y99129D01*
X126895Y98711D01*
X126613Y98300D01*
X126321Y97895D01*
X126019Y97498D01*
X125708Y97109D01*
X125386Y96728D01*
X125056Y96354D01*
X124717Y95989D01*
X124368Y95632D01*
X124011Y95283D01*
X123646Y94944D01*
X123272Y94614D01*
X122891Y94292D01*
X122502Y93981D01*
X122105Y93679D01*
X121700Y93387D01*
X121289Y93105D01*
X120871Y92833D01*
X120447Y92571D01*
X120016Y92320D01*
X119579Y92079D01*
X119136Y91850D01*
X118688Y91631D01*
X118235Y91423D01*
X117776Y91227D01*
X117313Y91042D01*
X116846Y90868D01*
X116374Y90706D01*
X115899Y90555D01*
X115420Y90416D01*
X114937Y90289D01*
X114452Y90174D01*
X113964Y90070D01*
X113474Y89979D01*
X112982Y89900D01*
X112487Y89833D01*
X111992Y89778D01*
X111495Y89735D01*
X110997Y89704D01*
X110499Y89686D01*
X110000Y89680D01*
X109501Y89686D01*
X109003Y89704D01*
X108505Y89735D01*
X108008Y89778D01*
X107513Y89833D01*
X107018Y89900D01*
X106526Y89979D01*
X106036Y90070D01*
X105548Y90174D01*
X105063Y90289D01*
X104580Y90416D01*
X104101Y90555D01*
X103626Y90706D01*
X103154Y90868D01*
X102687Y91042D01*
X102224Y91227D01*
X101765Y91423D01*
X101312Y91631D01*
X100864Y91850D01*
X100421Y92079D01*
X99984Y92320D01*
X99553Y92571D01*
X99129Y92833D01*
X98711Y93105D01*
X98300Y93387D01*
X97895Y93679D01*
X97498Y93981D01*
X97109Y94292D01*
X96728Y94614D01*
X96354Y94944D01*
X95989Y95283D01*
X95632Y95632D01*
X95283Y95989D01*
X94944Y96354D01*
X94614Y96728D01*
X94292Y97109D01*
X93981Y97498D01*
X93679Y97895D01*
X93387Y98300D01*
X93105Y98711D01*
X92833Y99129D01*
X92571Y99553D01*
X92320Y99984D01*
X92079Y100421D01*
X91850Y100864D01*
X91631Y101312D01*
X91423Y101765D01*
X91227Y102224D01*
X91042Y102687D01*
X90868Y103154D01*
X90706Y103626D01*
X90555Y104101D01*
X90416Y104580D01*
X90289Y105063D01*
X90174Y105548D01*
X90070Y106036D01*
X89979Y106526D01*
X89900Y107018D01*
X89833Y107513D01*
X89778Y108008D01*
X89735Y108505D01*
X89704Y109003D01*
X89686Y109501D01*
X89680Y110000D01*
X279680Y110000D02*
X279686Y110499D01*
X279704Y110997D01*
X279735Y111495D01*
X279778Y111992D01*
X279833Y112487D01*
X279900Y112982D01*
X279979Y113474D01*
X280070Y113964D01*
X280174Y114452D01*
X280289Y114937D01*
X280416Y115420D01*
X280555Y115899D01*
X280706Y116374D01*
X280868Y116846D01*
X281042Y117313D01*
X281227Y117776D01*
X281423Y118235D01*
X281631Y118688D01*
X281850Y119136D01*
X282079Y119579D01*
X282320Y120016D01*
X282571Y120447D01*
X282833Y120871D01*
X283105Y121289D01*
X283387Y121700D01*
X283679Y122105D01*
X283981Y122502D01*
X284292Y122891D01*
X284614Y123272D01*
X284944Y123646D01*
X285283Y124011D01*
X285632Y124368D01*
X285989Y124717D01*
X286354Y125056D01*
X286728Y125386D01*
X287109Y125708D01*
X287498Y126019D01*
X287895Y126321D01*
X288300Y126613D01*
X288711Y126895D01*
X289129Y127167D01*
X289553Y127429D01*
X289984Y127680D01*
X290421Y127921D01*
X290864Y128150D01*
X291312Y128369D01*
X291765Y128577D01*
X292224Y128773D01*
X292687Y128958D01*
X293154Y129132D01*
X293626Y129294D01*
X294101Y129445D01*
X294580Y129584D01*
X295063Y129711D01*
X295548Y129826D01*
X296036Y129930D01*
X296526Y130021D01*
X297018Y130100D01*
X297513Y130167D01*
X298008Y130222D01*
X298505Y130265D01*
X299003Y130296D01*
X299501Y130314D01*
X300000Y130320D01*
X300499Y130314D01*
X300997Y130296D01*
X301495Y130265D01*
X301992Y130222D01*
X302487Y130167D01*
X302982Y130100D01*
X303474Y130021D01*
X303964Y129930D01*
X304452Y129826D01*
X304937Y129711D01*
X305420Y129584D01*
X305899Y129445D01*
X306374Y129294D01*
X306846Y129132D01*
X307313Y128958D01*
X307776Y128773D01*
X308235Y128577D01*
X308688Y128369D01*
X309136Y128150D01*
X309579Y127921D01*
X310016Y127680D01*
X310447Y127429D01*
X310871Y127167D01*
X311289Y126895D01*
X311700Y126613D01*
X312105Y126321D01*
X312502Y126019D01*
X312891Y125708D01*
X313272Y125386D01*
X313646Y125056D01*
X314011Y124717D01*
X314368Y124368D01*
X314717Y124011D01*
X315056Y123646D01*
X315386Y123272D01*
X315708Y122891D01*
X316019Y122502D01*
X316321Y122105D01*
X316613Y121700D01*
X316895Y121289D01*
X317167Y120871D01*
X317429Y120447D01*
X317680Y120016D01*
X317921Y119579D01*
X318150Y119136D01*
X318369Y118688D01*
X318577Y118235D01*
X318773Y117776D01*
X318958Y117313D01*
X319132Y116846D01*
X319294Y116374D01*
X319445Y115899D01*
X319584Y115420D01*
X319711Y114937D01*
X319826Y114452D01*
X319930Y113964D01*
X320021Y113474D01*
X320100Y112982D01*
X320167Y112487D01*
X320222Y111992D01*
X320265Y111495D01*
X320296Y110997D01*
X320314Y110499D01*
X320320Y110000D01*
X320314Y109501D01*
X320296Y109003D01*
X320265Y108505D01*
X320222Y108008D01*
X320167Y107513D01*
X320100Y107018D01*
X320021Y106526D01*
X319930Y106036D01*
X319826Y105548D01*
X319711Y105063D01*
X319584Y104580D01*
X319445Y104101D01*
X319294Y103626D01*
X319132Y103154D01*
X318958Y102687D01*
X318773Y102224D01*
X318577Y101765D01*
X318369Y101312D01*
X318150Y100864D01*
X317921Y100421D01*
X317680Y99984D01*
X317429Y99553D01*
X317167Y99129D01*
X316895Y98711D01*
X316613Y98300D01*
X316321Y97895D01*
X316019Y97498D01*
X315708Y97109D01*
X315386Y96728D01*
X315056Y96354D01*
X314717Y95989D01*
X314368Y95632D01*
X314011Y95283D01*
X313646Y94944D01*
X313272Y94614D01*
X312891Y94292D01*
X312502Y93981D01*
X312105Y93679D01*
X311700Y93387D01*
X311289Y93105D01*
X310871Y92833D01*
X310447Y92571D01*
X310016Y92320D01*
X309579Y92079D01*
X309136Y91850D01*
X308688Y91631D01*
X308235Y91423D01*
X307776Y91227D01*
X307313Y91042D01*
X306846Y90868D01*
X306374Y90706D01*
X305899Y90555D01*
X305420Y90416D01*
X304937Y90289D01*
X304452Y90174D01*
X303964Y90070D01*
X303474Y89979D01*
X302982Y89900D01*
X302487Y89833D01*
X301992Y89778D01*
X301495Y89735D01*
X300997Y89704D01*
X300499Y89686D01*
X300000Y89680D01*
X299501Y89686D01*
X299003Y89704D01*
X298505Y89735D01*
X298008Y89778D01*
X297513Y89833D01*
X297018Y89900D01*
X296526Y89979D01*
X296036Y90070D01*
X295548Y90174D01*
X295063Y90289D01*
X294580Y90416D01*
X294101Y90555D01*
X293626Y90706D01*
X293154Y90868D01*
X292687Y91042D01*
X292224Y91227D01*
X291765Y91423D01*
X291312Y91631D01*
X290864Y91850D01*
X290421Y92079D01*
X289984Y92320D01*
X289553Y92571D01*
X289129Y92833D01*
X288711Y93105D01*
X288300Y93387D01*
X287895Y93679D01*
X287498Y93981D01*
X287109Y94292D01*
X286728Y94614D01*
X286354Y94944D01*
X285989Y95283D01*
X285632Y95632D01*
X285283Y95989D01*
X284944Y96354D01*
X284614Y96728D01*
X284292Y97109D01*
X283981Y97498D01*
X283679Y97895D01*
X283387Y98300D01*
X283105Y98711D01*
X282833Y99129D01*
X282571Y99553D01*
X282320Y99984D01*
X282079Y100421D01*
X281850Y100864D01*
X281631Y101312D01*
X281423Y101765D01*
X281227Y102224D01*
X281042Y102687D01*
X280868Y103154D01*
X280706Y103626D01*
X280555Y104101D01*
X280416Y104580D01*
X280289Y105063D01*
X280174Y105548D01*
X280070Y106036D01*
X279979Y106526D01*
X279900Y107018D01*
X279833Y107513D01*
X279778Y108008D01*
X279735Y108505D01*
X279704Y109003D01*
X279686Y109501D01*
X279680Y110000D01*
X469680Y110000D02*
X469686Y110499D01*
X469704Y110997D01*
X469735Y111495D01*
X469778Y111992D01*
X469833Y112487D01*
X469900Y112982D01*
X469979Y113474D01*
X470070Y113964D01*
X470174Y114452D01*
X470289Y114937D01*
X470416Y115420D01*
X470555Y115899D01*
X470706Y116374D01*
X470868Y116846D01*
X471042Y117313D01*
X471227Y117776D01*
X471423Y118235D01*
X471631Y118688D01*
X471850Y119136D01*
X472079Y119579D01*
X472320Y120016D01*
X472571Y120447D01*
X472833Y120871D01*
X473105Y121289D01*
X473387Y121700D01*
X473679Y122105D01*
X473981Y122502D01*
X474292Y122891D01*
X474614Y123272D01*
X474944Y123646D01*
X475283Y124011D01*
X475632Y124368D01*
X475989Y124717D01*
X476354Y125056D01*
X476728Y125386D01*
X477109Y125708D01*
X477498Y126019D01*
X477895Y126321D01*
X478300Y126613D01*
X478711Y126895D01*
X479129Y127167D01*
X479553Y127429D01*
X479984Y127680D01*
X480421Y127921D01*
X480864Y128150D01*
X481312Y128369D01*
X481765Y128577D01*
X482224Y128773D01*
X482687Y128958D01*
X483154Y129132D01*
X483626Y129294D01*
X484101Y129445D01*
X484580Y129584D01*
X485063Y129711D01*
X485548Y129826D01*
X486036Y129930D01*
X486526Y130021D01*
X487018Y130100D01*
X487513Y130167D01*
X488008Y130222D01*
X488505Y130265D01*
X489003Y130296D01*
X489501Y130314D01*
X490000Y130320D01*
X490499Y130314D01*
X490997Y130296D01*
X491495Y130265D01*
X491992Y130222D01*
X492487Y130167D01*
X492982Y130100D01*
X493474Y130021D01*
X493964Y129930D01*
X494452Y129826D01*
X494937Y129711D01*
X495420Y129584D01*
X495899Y129445D01*
X496374Y129294D01*
X496846Y129132D01*
X497313Y128958D01*
X497776Y128773D01*
X498235Y128577D01*
X498688Y128369D01*
X499136Y128150D01*
X499579Y127921D01*
X500016Y127680D01*
X500447Y127429D01*
X500871Y127167D01*
X501289Y126895D01*
X501700Y126613D01*
X502105Y126321D01*
X502502Y126019D01*
X502891Y125708D01*
X503272Y125386D01*
X503646Y125056D01*
X504011Y124717D01*
X504368Y124368D01*
X504717Y124011D01*
X505056Y123646D01*
X505386Y123272D01*
X505708Y122891D01*
X506019Y122502D01*
X506321Y122105D01*
X506613Y121700D01*
X506895Y121289D01*
X507167Y120871D01*
X507429Y120447D01*
X507680Y120016D01*
X507921Y119579D01*
X508150Y119136D01*
X508369Y118688D01*
X508577Y118235D01*
X508773Y117776D01*
X508958Y117313D01*
X509132Y116846D01*
X509294Y116374D01*
X509445Y115899D01*
X509584Y115420D01*
X509711Y114937D01*
X509826Y114452D01*
X509930Y113964D01*
X510021Y113474D01*
X510100Y112982D01*
X510167Y112487D01*
X510222Y111992D01*
X510265Y111495D01*
X510296Y110997D01*
X510314Y110499D01*
X510320Y110000D01*
X510314Y109501D01*
X510296Y109003D01*
X510265Y108505D01*
X510222Y108008D01*
X510167Y107513D01*
X510100Y107018D01*
X510021Y106526D01*
X509930Y106036D01*
X509826Y105548D01*
X509711Y105063D01*
X509584Y104580D01*
X509445Y104101D01*
X509294Y103626D01*
X509132Y103154D01*
X508958Y102687D01*
X508773Y102224D01*
X508577Y101765D01*
X508369Y101312D01*
X508150Y100864D01*
X507921Y100421D01*
X507680Y99984D01*
X507429Y99553D01*
X507167Y99129D01*
X506895Y98711D01*
X506613Y98300D01*
X506321Y97895D01*
X506019Y97498D01*
X505708Y97109D01*
X505386Y96728D01*
X505056Y96354D01*
X504717Y95989D01*
X504368Y95632D01*
X504011Y95283D01*
X503646Y94944D01*
X503272Y94614D01*
X502891Y94292D01*
X502502Y93981D01*
X502105Y93679D01*
X501700Y93387D01*
X501289Y93105D01*
X500871Y92833D01*
X500447Y92571D01*
X500016Y92320D01*
X499579Y92079D01*
X499136Y91850D01*
X498688Y91631D01*
X498235Y91423D01*
X497776Y91227D01*
X497313Y91042D01*
X496846Y90868D01*
X496374Y90706D01*
X495899Y90555D01*
X495420Y90416D01*
X494937Y90289D01*
X494452Y90174D01*
X493964Y90070D01*
X493474Y89979D01*
X492982Y89900D01*
X492487Y89833D01*
X491992Y89778D01*
X491495Y89735D01*
X490997Y89704D01*
X490499Y89686D01*
X490000Y89680D01*
X489501Y89686D01*
X489003Y89704D01*
X488505Y89735D01*
X488008Y89778D01*
X487513Y89833D01*
X487018Y89900D01*
X486526Y89979D01*
X486036Y90070D01*
X485548Y90174D01*
X485063Y90289D01*
X484580Y90416D01*
X484101Y90555D01*
X483626Y90706D01*
X483154Y90868D01*
X482687Y91042D01*
X482224Y91227D01*
X481765Y91423D01*
X481312Y91631D01*
X480864Y91850D01*
X480421Y92079D01*
X479984Y92320D01*
X479553Y92571D01*
X479129Y92833D01*
X478711Y93105D01*
X478300Y93387D01*
X477895Y93679D01*
X477498Y93981D01*
X477109Y94292D01*
X476728Y94614D01*
X476354Y94944D01*
X475989Y95283D01*
X475632Y95632D01*
X475283Y95989D01*
X474944Y96354D01*
X474614Y96728D01*
X474292Y97109D01*
X473981Y97498D01*
X473679Y97895D01*
X473387Y98300D01*
X473105Y98711D01*
X472833Y99129D01*
X472571Y99553D01*
X472320Y99984D01*
X472079Y100421D01*
X471850Y100864D01*
X471631Y101312D01*
X471423Y101765D01*
X471227Y102224D01*
X471042Y102687D01*
X470868Y103154D01*
X470706Y103626D01*
X470555Y104101D01*
X470416Y104580D01*
X470289Y105063D01*
X470174Y105548D01*
X470070Y106036D01*
X469979Y106526D01*
X469900Y107018D01*
X469833Y107513D01*
X469778Y108008D01*
X469735Y108505D01*
X469704Y109003D01*
X469686Y109501D01*
X469680Y110000D01*
X659680Y870000D02*
X659686Y870499D01*
X659704Y870997D01*
X659735Y871495D01*
X659778Y871992D01*
X659833Y872487D01*
X659900Y872982D01*
X659979Y873474D01*
X660070Y873964D01*
X660174Y874452D01*
X660289Y874937D01*
X660416Y875420D01*
X660555Y875899D01*
X660706Y876374D01*
X660868Y876846D01*
X661042Y877313D01*
X661227Y877776D01*
X661423Y878235D01*
X661631Y878688D01*
X661850Y879136D01*
X662079Y879579D01*
X662320Y880016D01*
X662571Y880447D01*
X662833Y880871D01*
X663105Y881289D01*
X663387Y881700D01*
X663679Y882105D01*
X663981Y882502D01*
X664292Y882891D01*
X664614Y883272D01*
X664944Y883646D01*
X665283Y884011D01*
X665632Y884368D01*
X665989Y884717D01*
X666354Y885056D01*
X666728Y885386D01*
X667109Y885708D01*
X667498Y886019D01*
X667895Y886321D01*
X668300Y886613D01*
X668711Y886895D01*
X669129Y887167D01*
X669553Y887429D01*
X669984Y887680D01*
X670421Y887921D01*
X670864Y888150D01*
X671312Y888369D01*
X671765Y888577D01*
X672224Y888773D01*
X672687Y888958D01*
X673154Y889132D01*
X673626Y889294D01*
X674101Y889445D01*
X674580Y889584D01*
X675063Y889711D01*
X675548Y889826D01*
X676036Y889930D01*
X676526Y890021D01*
X677018Y890100D01*
X677513Y890167D01*
X678008Y890222D01*
X678505Y890265D01*
X679003Y890296D01*
X679501Y890314D01*
X680000Y890320D01*
X680499Y890314D01*
X680997Y890296D01*
X681495Y890265D01*
X681992Y890222D01*
X682487Y890167D01*
X682982Y890100D01*
X683474Y890021D01*
X683964Y889930D01*
X684452Y889826D01*
X684937Y889711D01*
X685420Y889584D01*
X685899Y889445D01*
X686374Y889294D01*
X686846Y889132D01*
X687313Y888958D01*
X687776Y888773D01*
X688235Y888577D01*
X688688Y888369D01*
X689136Y888150D01*
X689579Y887921D01*
X690016Y887680D01*
X690447Y887429D01*
X690871Y887167D01*
X691289Y886895D01*
X691700Y886613D01*
X692105Y886321D01*
X692502Y886019D01*
X692891Y885708D01*
X693272Y885386D01*
X693646Y885056D01*
X694011Y884717D01*
X694368Y884368D01*
X694717Y884011D01*
X695056Y883646D01*
X695386Y883272D01*
X695708Y882891D01*
X696019Y882502D01*
X696321Y882105D01*
X696613Y881700D01*
X696895Y881289D01*
X697167Y880871D01*
X697429Y880447D01*
X697680Y880016D01*
X697921Y879579D01*
X698150Y879136D01*
X698369Y878688D01*
X698577Y878235D01*
X698773Y877776D01*
X698958Y877313D01*
X699132Y876846D01*
X699294Y876374D01*
X699445Y875899D01*
X699584Y875420D01*
X699711Y874937D01*
X699826Y874452D01*
X699930Y873964D01*
X700021Y873474D01*
X700100Y872982D01*
X700167Y872487D01*
X700222Y871992D01*
X700265Y871495D01*
X700296Y870997D01*
X700314Y870499D01*
X700320Y870000D01*
X700314Y869501D01*
X700296Y869003D01*
X700265Y868505D01*
X700222Y868008D01*
X700167Y867513D01*
X700100Y867018D01*
X700021Y866526D01*
X699930Y866036D01*
X699826Y865548D01*
X699711Y865063D01*
X699584Y864580D01*
X699445Y864101D01*
X699294Y863626D01*
X699132Y863154D01*
X698958Y862687D01*
X698773Y862224D01*
X698577Y861765D01*
X698369Y861312D01*
X698150Y860864D01*
X697921Y860421D01*
X697680Y859984D01*
X697429Y859553D01*
X697167Y859129D01*
X696895Y858711D01*
X696613Y858300D01*
X696321Y857895D01*
X696019Y857498D01*
X695708Y857109D01*
X695386Y856728D01*
X695056Y856354D01*
X694717Y855989D01*
X694368Y855632D01*
X694011Y855283D01*
X693646Y854944D01*
X693272Y854614D01*
X692891Y854292D01*
X692502Y853981D01*
X692105Y853679D01*
X691700Y853387D01*
X691289Y853105D01*
X690871Y852833D01*
X690447Y852571D01*
X690016Y852320D01*
X689579Y852079D01*
X689136Y851850D01*
X688688Y851631D01*
X688235Y851423D01*
X687776Y851227D01*
X687313Y851042D01*
X686846Y850868D01*
X686374Y850706D01*
X685899Y850555D01*
X685420Y850416D01*
X684937Y850289D01*
X684452Y850174D01*
X683964Y850070D01*
X683474Y849979D01*
X682982Y849900D01*
X682487Y849833D01*
X681992Y849778D01*
X681495Y849735D01*
X680997Y849704D01*
X680499Y849686D01*
X680000Y849680D01*
X679501Y849686D01*
X679003Y849704D01*
X678505Y849735D01*
X678008Y849778D01*
X677513Y849833D01*
X677018Y849900D01*
X676526Y849979D01*
X676036Y850070D01*
X675548Y850174D01*
X675063Y850289D01*
X674580Y850416D01*
X674101Y850555D01*
X673626Y850706D01*
X673154Y850868D01*
X672687Y851042D01*
X672224Y851227D01*
X671765Y851423D01*
X671312Y851631D01*
X670864Y851850D01*
X670421Y852079D01*
X669984Y852320D01*
X669553Y852571D01*
X669129Y852833D01*
X668711Y853105D01*
X668300Y853387D01*
X667895Y853679D01*
X667498Y853981D01*
X667109Y854292D01*
X666728Y854614D01*
X666354Y854944D01*
X665989Y855283D01*
X665632Y855632D01*
X665283Y855989D01*
X664944Y856354D01*
X664614Y856728D01*
X664292Y857109D01*
X663981Y857498D01*
X663679Y857895D01*
X663387Y858300D01*
X663105Y858711D01*
X662833Y859129D01*
X662571Y859553D01*
X662320Y859984D01*
X662079Y860421D01*
X661850Y860864D01*
X661631Y861312D01*
X661423Y861765D01*
X661227Y862224D01*
X661042Y862687D01*
X660868Y863154D01*
X660706Y863626D01*
X660555Y864101D01*
X660416Y864580D01*
X660289Y865063D01*
X660174Y865548D01*
X660070Y866036D01*
X659979Y866526D01*
X659900Y867018D01*
X659833Y867513D01*
X659778Y868008D01*
X659735Y868505D01*
X659704Y869003D01*
X659686Y869501D01*
X659680Y870000D01*
X659680Y680000D02*
X659686Y680499D01*
X659704Y680997D01*
X659735Y681495D01*
X659778Y681992D01*
X659833Y682487D01*
X659900Y682982D01*
X659979Y683474D01*
X660070Y683964D01*
X660174Y684452D01*
X660289Y684937D01*
X660416Y685420D01*
X660555Y685899D01*
X660706Y686374D01*
X660868Y686846D01*
X661042Y687313D01*
X661227Y687776D01*
X661423Y688235D01*
X661631Y688688D01*
X661850Y689136D01*
X662079Y689579D01*
X662320Y690016D01*
X662571Y690447D01*
X662833Y690871D01*
X663105Y691289D01*
X663387Y691700D01*
X663679Y692105D01*
X663981Y692502D01*
X664292Y692891D01*
X664614Y693272D01*
X664944Y693646D01*
X665283Y694011D01*
X665632Y694368D01*
X665989Y694717D01*
X666354Y695056D01*
X666728Y695386D01*
X667109Y695708D01*
X667498Y696019D01*
X667895Y696321D01*
X668300Y696613D01*
X668711Y696895D01*
X669129Y697167D01*
X669553Y697429D01*
X669984Y697680D01*
X670421Y697921D01*
X670864Y698150D01*
X671312Y698369D01*
X671765Y698577D01*
X672224Y698773D01*
X672687Y698958D01*
X673154Y699132D01*
X673626Y699294D01*
X674101Y699445D01*
X674580Y699584D01*
X675063Y699711D01*
X675548Y699826D01*
X676036Y699930D01*
X676526Y700021D01*
X677018Y700100D01*
X677513Y700167D01*
X678008Y700222D01*
X678505Y700265D01*
X679003Y700296D01*
X679501Y700314D01*
X680000Y700320D01*
X680499Y700314D01*
X680997Y700296D01*
X681495Y700265D01*
X681992Y700222D01*
X682487Y700167D01*
X682982Y700100D01*
X683474Y700021D01*
X683964Y699930D01*
X684452Y699826D01*
X684937Y699711D01*
X685420Y699584D01*
X685899Y699445D01*
X686374Y699294D01*
X686846Y699132D01*
X687313Y698958D01*
X687776Y698773D01*
X688235Y698577D01*
X688688Y698369D01*
X689136Y698150D01*
X689579Y697921D01*
X690016Y697680D01*
X690447Y697429D01*
X690871Y697167D01*
X691289Y696895D01*
X691700Y696613D01*
X692105Y696321D01*
X692502Y696019D01*
X692891Y695708D01*
X693272Y695386D01*
X693646Y695056D01*
X694011Y694717D01*
X694368Y694368D01*
X694717Y694011D01*
X695056Y693646D01*
X695386Y693272D01*
X695708Y692891D01*
X696019Y692502D01*
X696321Y692105D01*
X696613Y691700D01*
X696895Y691289D01*
X697167Y690871D01*
X697429Y690447D01*
X697680Y690016D01*
X697921Y689579D01*
X698150Y689136D01*
X698369Y688688D01*
X698577Y688235D01*
X698773Y687776D01*
X698958Y687313D01*
X699132Y686846D01*
X699294Y686374D01*
X699445Y685899D01*
X699584Y685420D01*
X699711Y684937D01*
X699826Y684452D01*
X699930Y683964D01*
X700021Y683474D01*
X700100Y682982D01*
X700167Y682487D01*
X700222Y681992D01*
X700265Y681495D01*
X700296Y680997D01*
X700314Y680499D01*
X700320Y680000D01*
X700314Y679501D01*
X700296Y679003D01*
X700265Y678505D01*
X700222Y678008D01*
X700167Y677513D01*
X700100Y677018D01*
X700021Y676526D01*
X699930Y676036D01*
X699826Y675548D01*
X699711Y675063D01*
X699584Y674580D01*
X699445Y674101D01*
X699294Y673626D01*
X699132Y673154D01*
X698958Y672687D01*
X698773Y672224D01*
X698577Y671765D01*
X698369Y671312D01*
X698150Y670864D01*
X697921Y670421D01*
X697680Y669984D01*
X697429Y669553D01*
X697167Y669129D01*
X696895Y668711D01*
X696613Y668300D01*
X696321Y667895D01*
X696019Y667498D01*
X695708Y667109D01*
X695386Y666728D01*
X695056Y666354D01*
X694717Y665989D01*
X694368Y665632D01*
X694011Y665283D01*
X693646Y664944D01*
X693272Y664614D01*
X692891Y664292D01*
X692502Y663981D01*
X692105Y663679D01*
X691700Y663387D01*
X691289Y663105D01*
X690871Y662833D01*
X690447Y662571D01*
X690016Y662320D01*
X689579Y662079D01*
X689136Y661850D01*
X688688Y661631D01*
X688235Y661423D01*
X687776Y661227D01*
X687313Y661042D01*
X686846Y660868D01*
X686374Y660706D01*
X685899Y660555D01*
X685420Y660416D01*
X684937Y660289D01*
X684452Y660174D01*
X683964Y660070D01*
X683474Y659979D01*
X682982Y659900D01*
X682487Y659833D01*
X681992Y659778D01*
X681495Y659735D01*
X680997Y659704D01*
X680499Y659686D01*
X680000Y659680D01*
X679501Y659686D01*
X679003Y659704D01*
X678505Y659735D01*
X678008Y659778D01*
X677513Y659833D01*
X677018Y659900D01*
X676526Y659979D01*
X676036Y660070D01*
X675548Y660174D01*
X675063Y660289D01*
X674580Y660416D01*
X674101Y660555D01*
X673626Y660706D01*
X673154Y660868D01*
X672687Y661042D01*
X672224Y661227D01*
X671765Y661423D01*
X671312Y661631D01*
X670864Y661850D01*
X670421Y662079D01*
X669984Y662320D01*
X669553Y662571D01*
X669129Y662833D01*
X668711Y663105D01*
X668300Y663387D01*
X667895Y663679D01*
X667498Y663981D01*
X667109Y664292D01*
X666728Y664614D01*
X666354Y664944D01*
X665989Y665283D01*
X665632Y665632D01*
X665283Y665989D01*
X664944Y666354D01*
X664614Y666728D01*
X664292Y667109D01*
X663981Y667498D01*
X663679Y667895D01*
X663387Y668300D01*
X663105Y668711D01*
X662833Y669129D01*
X662571Y669553D01*
X662320Y669984D01*
X662079Y670421D01*
X661850Y670864D01*
X661631Y671312D01*
X661423Y671765D01*
X661227Y672224D01*
X661042Y672687D01*
X660868Y673154D01*
X660706Y673626D01*
X660555Y674101D01*
X660416Y674580D01*
X660289Y675063D01*
X660174Y675548D01*
X660070Y676036D01*
X659979Y676526D01*
X659900Y677018D01*
X659833Y677513D01*
X659778Y678008D01*
X659735Y678505D01*
X659704Y679003D01*
X659686Y679501D01*
X659680Y680000D01*
X659680Y490000D02*
X659686Y490499D01*
X659704Y490997D01*
X659735Y491495D01*
X659778Y491992D01*
X659833Y492487D01*
X659900Y492982D01*
X659979Y493474D01*
X660070Y493964D01*
X660174Y494452D01*
X660289Y494937D01*
X660416Y495420D01*
X660555Y495899D01*
X660706Y496374D01*
X660868Y496846D01*
X661042Y497313D01*
X661227Y497776D01*
X661423Y498235D01*
X661631Y498688D01*
X661850Y499136D01*
X662079Y499579D01*
X662320Y500016D01*
X662571Y500447D01*
X662833Y500871D01*
X663105Y501289D01*
X663387Y501700D01*
X663679Y502105D01*
X663981Y502502D01*
X664292Y502891D01*
X664614Y503272D01*
X664944Y503646D01*
X665283Y504011D01*
X665632Y504368D01*
X665989Y504717D01*
X666354Y505056D01*
X666728Y505386D01*
X667109Y505708D01*
X667498Y506019D01*
X667895Y506321D01*
X668300Y506613D01*
X668711Y506895D01*
X669129Y507167D01*
X669553Y507429D01*
X669984Y507680D01*
X670421Y507921D01*
X670864Y508150D01*
X671312Y508369D01*
X671765Y508577D01*
X672224Y508773D01*
X672687Y508958D01*
X673154Y509132D01*
X673626Y509294D01*
X674101Y509445D01*
X674580Y509584D01*
X675063Y509711D01*
X675548Y509826D01*
X676036Y509930D01*
X676526Y510021D01*
X677018Y510100D01*
X677513Y510167D01*
X678008Y510222D01*
X678505Y510265D01*
X679003Y510296D01*
X679501Y510314D01*
X680000Y510320D01*
X680499Y510314D01*
X680997Y510296D01*
X681495Y510265D01*
X681992Y510222D01*
X682487Y510167D01*
X682982Y510100D01*
X683474Y510021D01*
X683964Y509930D01*
X684452Y509826D01*
X684937Y509711D01*
X685420Y509584D01*
X685899Y509445D01*
X686374Y509294D01*
X686846Y509132D01*
X687313Y508958D01*
X687776Y508773D01*
X688235Y508577D01*
X688688Y508369D01*
X689136Y508150D01*
X689579Y507921D01*
X690016Y507680D01*
X690447Y507429D01*
X690871Y507167D01*
X691289Y506895D01*
X691700Y506613D01*
X692105Y506321D01*
X692502Y506019D01*
X692891Y505708D01*
X693272Y505386D01*
X693646Y505056D01*
X694011Y504717D01*
X694368Y504368D01*
X694717Y504011D01*
X695056Y503646D01*
X695386Y503272D01*
X695708Y502891D01*
X696019Y502502D01*
X696321Y502105D01*
X696613Y501700D01*
X696895Y501289D01*
X697167Y500871D01*
X697429Y500447D01*
X697680Y500016D01*
X697921Y499579D01*
X698150Y499136D01*
X698369Y498688D01*
X698577Y498235D01*
X698773Y497776D01*
X698958Y497313D01*
X699132Y496846D01*
X699294Y496374D01*
X699445Y495899D01*
X699584Y495420D01*
X699711Y494937D01*
X699826Y494452D01*
X699930Y493964D01*
X700021Y493474D01*
X700100Y492982D01*
X700167Y492487D01*
X700222Y491992D01*
X700265Y491495D01*
X700296Y490997D01*
X700314Y490499D01*
X700320Y490000D01*
X700314Y489501D01*
X700296Y489003D01*
X700265Y488505D01*
X700222Y488008D01*
X700167Y487513D01*
X700100Y487018D01*
X700021Y486526D01*
X699930Y486036D01*
X699826Y485548D01*
X699711Y485063D01*
X699584Y484580D01*
X699445Y484101D01*
X699294Y483626D01*
X699132Y483154D01*
X698958Y482687D01*
X698773Y482224D01*
X698577Y481765D01*
X698369Y481312D01*
X698150Y480864D01*
X697921Y480421D01*
X697680Y479984D01*
X697429Y479553D01*
X697167Y479129D01*
X696895Y478711D01*
X696613Y478300D01*
X696321Y477895D01*
X696019Y477498D01*
X695708Y477109D01*
X695386Y476728D01*
X695056Y476354D01*
X694717Y475989D01*
X694368Y475632D01*
X694011Y475283D01*
X693646Y474944D01*
X693272Y474614D01*
X692891Y474292D01*
X692502Y473981D01*
X692105Y473679D01*
X691700Y473387D01*
X691289Y473105D01*
X690871Y472833D01*
X690447Y472571D01*
X690016Y472320D01*
X689579Y472079D01*
X689136Y471850D01*
X688688Y471631D01*
X688235Y471423D01*
X687776Y471227D01*
X687313Y471042D01*
X686846Y470868D01*
X686374Y470706D01*
X685899Y470555D01*
X685420Y470416D01*
X684937Y470289D01*
X684452Y470174D01*
X683964Y470070D01*
X683474Y469979D01*
X682982Y469900D01*
X682487Y469833D01*
X681992Y469778D01*
X681495Y469735D01*
X680997Y469704D01*
X680499Y469686D01*
X680000Y469680D01*
X679501Y469686D01*
X679003Y469704D01*
X678505Y469735D01*
X678008Y469778D01*
X677513Y469833D01*
X677018Y469900D01*
X676526Y469979D01*
X676036Y470070D01*
X675548Y470174D01*
X675063Y470289D01*
X674580Y470416D01*
X674101Y470555D01*
X673626Y470706D01*
X673154Y470868D01*
X672687Y471042D01*
X672224Y471227D01*
X671765Y471423D01*
X671312Y471631D01*
X670864Y471850D01*
X670421Y472079D01*
X669984Y472320D01*
X669553Y472571D01*
X669129Y472833D01*
X668711Y473105D01*
X668300Y473387D01*
X667895Y473679D01*
X667498Y473981D01*
X667109Y474292D01*
X666728Y474614D01*
X666354Y474944D01*
X665989Y475283D01*
X665632Y475632D01*
X665283Y475989D01*
X664944Y476354D01*
X664614Y476728D01*
X664292Y477109D01*
X663981Y477498D01*
X663679Y477895D01*
X663387Y478300D01*
X663105Y478711D01*
X662833Y479129D01*
X662571Y479553D01*
X662320Y479984D01*
X662079Y480421D01*
X661850Y480864D01*
X661631Y481312D01*
X661423Y481765D01*
X661227Y482224D01*
X661042Y482687D01*
X660868Y483154D01*
X660706Y483626D01*
X660555Y484101D01*
X660416Y484580D01*
X660289Y485063D01*
X660174Y485548D01*
X660070Y486036D01*
X659979Y486526D01*
X659900Y487018D01*
X659833Y487513D01*
X659778Y488008D01*
X659735Y488505D01*
X659704Y489003D01*
X659686Y489501D01*
X659680Y490000D01*
X659680Y205000D02*
X659686Y205499D01*
X659704Y205997D01*
X659735Y206495D01*
X659778Y206992D01*
X659833Y207487D01*
X659900Y207982D01*
X659979Y208474D01*
X660070Y208964D01*
X660174Y209452D01*
X660289Y209937D01*
X660416Y210420D01*
X660555Y210899D01*
X660706Y211374D01*
X660868Y211846D01*
X661042Y212313D01*
X661227Y212776D01*
X661423Y213235D01*
X661631Y213688D01*
X661850Y214136D01*
X662079Y214579D01*
X662320Y215016D01*
X662571Y215447D01*
X662833Y215871D01*
X663105Y216289D01*
X663387Y216700D01*
X663679Y217105D01*
X663981Y217502D01*
X664292Y217891D01*
X664614Y218272D01*
X664944Y218646D01*
X665283Y219011D01*
X665632Y219368D01*
X665989Y219717D01*
X666354Y220056D01*
X666728Y220386D01*
X667109Y220708D01*
X667498Y221019D01*
X667895Y221321D01*
X668300Y221613D01*
X668711Y221895D01*
X669129Y222167D01*
X669553Y222429D01*
X669984Y222680D01*
X670421Y222921D01*
X670864Y223150D01*
X671312Y223369D01*
X671765Y223577D01*
X672224Y223773D01*
X672687Y223958D01*
X673154Y224132D01*
X673626Y224294D01*
X674101Y224445D01*
X674580Y224584D01*
X675063Y224711D01*
X675548Y224826D01*
X676036Y224930D01*
X676526Y225021D01*
X677018Y225100D01*
X677513Y225167D01*
X678008Y225222D01*
X678505Y225265D01*
X679003Y225296D01*
X679501Y225314D01*
X680000Y225320D01*
X680499Y225314D01*
X680997Y225296D01*
X681495Y225265D01*
X681992Y225222D01*
X682487Y225167D01*
X682982Y225100D01*
X683474Y225021D01*
X683964Y224930D01*
X684452Y224826D01*
X684937Y224711D01*
X685420Y224584D01*
X685899Y224445D01*
X686374Y224294D01*
X686846Y224132D01*
X687313Y223958D01*
X687776Y223773D01*
X688235Y223577D01*
X688688Y223369D01*
X689136Y223150D01*
X689579Y222921D01*
X690016Y222680D01*
X690447Y222429D01*
X690871Y222167D01*
X691289Y221895D01*
X691700Y221613D01*
X692105Y221321D01*
X692502Y221019D01*
X692891Y220708D01*
X693272Y220386D01*
X693646Y220056D01*
X694011Y219717D01*
X694368Y219368D01*
X694717Y219011D01*
X695056Y218646D01*
X695386Y218272D01*
X695708Y217891D01*
X696019Y217502D01*
X696321Y217105D01*
X696613Y216700D01*
X696895Y216289D01*
X697167Y215871D01*
X697429Y215447D01*
X697680Y215016D01*
X697921Y214579D01*
X698150Y214136D01*
X698369Y213688D01*
X698577Y213235D01*
X698773Y212776D01*
X698958Y212313D01*
X699132Y211846D01*
X699294Y211374D01*
X699445Y210899D01*
X699584Y210420D01*
X699711Y209937D01*
X699826Y209452D01*
X699930Y208964D01*
X700021Y208474D01*
X700100Y207982D01*
X700167Y207487D01*
X700222Y206992D01*
X700265Y206495D01*
X700296Y205997D01*
X700314Y205499D01*
X700320Y205000D01*
X700314Y204501D01*
X700296Y204003D01*
X700265Y203505D01*
X700222Y203008D01*
X700167Y202513D01*
X700100Y202018D01*
X700021Y201526D01*
X699930Y201036D01*
X699826Y200548D01*
X699711Y200063D01*
X699584Y199580D01*
X699445Y199101D01*
X699294Y198626D01*
X699132Y198154D01*
X698958Y197687D01*
X698773Y197224D01*
X698577Y196765D01*
X698369Y196312D01*
X698150Y195864D01*
X697921Y195421D01*
X697680Y194984D01*
X697429Y194553D01*
X697167Y194129D01*
X696895Y193711D01*
X696613Y193300D01*
X696321Y192895D01*
X696019Y192498D01*
X695708Y192109D01*
X695386Y191728D01*
X695056Y191354D01*
X694717Y190989D01*
X694368Y190632D01*
X694011Y190283D01*
X693646Y189944D01*
X693272Y189614D01*
X692891Y189292D01*
X692502Y188981D01*
X692105Y188679D01*
X691700Y188387D01*
X691289Y188105D01*
X690871Y187833D01*
X690447Y187571D01*
X690016Y187320D01*
X689579Y187079D01*
X689136Y186850D01*
X688688Y186631D01*
X688235Y186423D01*
X687776Y186227D01*
X687313Y186042D01*
X686846Y185868D01*
X686374Y185706D01*
X685899Y185555D01*
X685420Y185416D01*
X684937Y185289D01*
X684452Y185174D01*
X683964Y185070D01*
X683474Y184979D01*
X682982Y184900D01*
X682487Y184833D01*
X681992Y184778D01*
X681495Y184735D01*
X680997Y184704D01*
X680499Y184686D01*
X680000Y184680D01*
X679501Y184686D01*
X679003Y184704D01*
X678505Y184735D01*
X678008Y184778D01*
X677513Y184833D01*
X677018Y184900D01*
X676526Y184979D01*
X676036Y185070D01*
X675548Y185174D01*
X675063Y185289D01*
X674580Y185416D01*
X674101Y185555D01*
X673626Y185706D01*
X673154Y185868D01*
X672687Y186042D01*
X672224Y186227D01*
X671765Y186423D01*
X671312Y186631D01*
X670864Y186850D01*
X670421Y187079D01*
X669984Y187320D01*
X669553Y187571D01*
X669129Y187833D01*
X668711Y188105D01*
X668300Y188387D01*
X667895Y188679D01*
X667498Y188981D01*
X667109Y189292D01*
X666728Y189614D01*
X666354Y189944D01*
X665989Y190283D01*
X665632Y190632D01*
X665283Y190989D01*
X664944Y191354D01*
X664614Y191728D01*
X664292Y192109D01*
X663981Y192498D01*
X663679Y192895D01*
X663387Y193300D01*
X663105Y193711D01*
X662833Y194129D01*
X662571Y194553D01*
X662320Y194984D01*
X662079Y195421D01*
X661850Y195864D01*
X661631Y196312D01*
X661423Y196765D01*
X661227Y197224D01*
X661042Y197687D01*
X660868Y198154D01*
X660706Y198626D01*
X660555Y199101D01*
X660416Y199580D01*
X660289Y200063D01*
X660174Y200548D01*
X660070Y201036D01*
X659979Y201526D01*
X659900Y202018D01*
X659833Y202513D01*
X659778Y203008D01*
X659735Y203505D01*
X659704Y204003D01*
X659686Y204501D01*
X659680Y205000D01*
D11*
X0Y10000D02*
X38Y9128D01*
X152Y8264D01*
X341Y7412D01*
X603Y6580D01*
X937Y5774D01*
X1340Y5000D01*
X1808Y4264D01*
X2340Y3572D01*
X2929Y2929D01*
X3572Y2340D01*
X4264Y1808D01*
X5000Y1340D01*
X5774Y937D01*
X6580Y603D01*
X7412Y341D01*
X8264Y152D01*
X9128Y38D01*
X10000Y0D01*
X100000Y0D01*
X100000Y5000D01*
X100019Y5436D01*
X100076Y5868D01*
X100170Y6294D01*
X100302Y6710D01*
X100468Y7113D01*
X100670Y7500D01*
X100904Y7868D01*
X101170Y8214D01*
X101464Y8536D01*
X101786Y8830D01*
X102132Y9096D01*
X102500Y9330D01*
X102887Y9532D01*
X103290Y9698D01*
X103706Y9830D01*
X104132Y9924D01*
X104564Y9981D01*
X105000Y10000D01*
X115000Y10000D01*
X115436Y9981D01*
X115868Y9924D01*
X116294Y9830D01*
X116710Y9698D01*
X117113Y9532D01*
X117500Y9330D01*
X117868Y9096D01*
X118214Y8830D01*
X118536Y8536D01*
X118830Y8214D01*
X119096Y7868D01*
X119330Y7500D01*
X119532Y7113D01*
X119698Y6710D01*
X119830Y6294D01*
X119924Y5868D01*
X119981Y5436D01*
X120000Y5000D01*
X120000Y0D01*
X860000Y0D01*
X860000Y5000D01*
X860019Y5436D01*
X860076Y5868D01*
X860170Y6294D01*
X860302Y6710D01*
X860468Y7113D01*
X860670Y7500D01*
X860904Y7868D01*
X861170Y8214D01*
X861464Y8536D01*
X861786Y8830D01*
X862132Y9096D01*
X862500Y9330D01*
X862887Y9532D01*
X863290Y9698D01*
X863706Y9830D01*
X864132Y9924D01*
X864564Y9981D01*
X865000Y10000D01*
X875000Y10000D01*
X875436Y9981D01*
X875868Y9924D01*
X876294Y9830D01*
X876710Y9698D01*
X877113Y9532D01*
X877500Y9330D01*
X877868Y9096D01*
X878214Y8830D01*
X878536Y8536D01*
X878830Y8214D01*
X879096Y7868D01*
X879330Y7500D01*
X879532Y7113D01*
X879698Y6710D01*
X879830Y6294D01*
X879924Y5868D01*
X879981Y5436D01*
X880000Y5000D01*
X880000Y0D01*
X970000Y0D01*
X970872Y38D01*
X971736Y152D01*
X972588Y341D01*
X973420Y603D01*
X974226Y937D01*
X975000Y1340D01*
X975736Y1808D01*
X976428Y2340D01*
X977071Y2929D01*
X977660Y3572D01*
X978192Y4264D01*
X978660Y5000D01*
X979063Y5774D01*
X979397Y6580D01*
X979659Y7412D01*
X979848Y8264D01*
X979962Y9128D01*
X980000Y10000D01*
X980000Y970000D01*
X979962Y970872D01*
X979848Y971736D01*
X979659Y972588D01*
X979397Y973420D01*
X979063Y974226D01*
X978660Y975000D01*
X978192Y975736D01*
X977660Y976428D01*
X977071Y977071D01*
X976428Y977660D01*
X975736Y978192D01*
X975000Y978660D01*
X974226Y979063D01*
X973420Y979397D01*
X972588Y979659D01*
X971736Y979848D01*
X970872Y979962D01*
X970000Y980000D01*
X880000Y980000D01*
X880000Y975000D01*
X879981Y974564D01*
X879924Y974132D01*
X879830Y973706D01*
X879698Y973290D01*
X879532Y972887D01*
X879330Y972500D01*
X879096Y972132D01*
X878830Y971786D01*
X878536Y971464D01*
X878214Y971170D01*
X877868Y970904D01*
X877500Y970670D01*
X877113Y970468D01*
X876710Y970302D01*
X876294Y970170D01*
X875868Y970076D01*
X875436Y970019D01*
X875000Y970000D01*
X865000Y970000D01*
X864564Y970019D01*
X864132Y970076D01*
X863706Y970170D01*
X863290Y970302D01*
X862887Y970468D01*
X862500Y970670D01*
X862132Y970904D01*
X861786Y971170D01*
X861464Y971464D01*
X861170Y971786D01*
X860904Y972132D01*
X860670Y972500D01*
X860468Y972887D01*
X860302Y973290D01*
X860170Y973706D01*
X860076Y974132D01*
X860019Y974564D01*
X860000Y975000D01*
X860000Y980000D01*
X120000Y980000D01*
X120000Y975000D01*
X119981Y974564D01*
X119924Y974132D01*
X119830Y973706D01*
X119698Y973290D01*
X119532Y972887D01*
X119330Y972500D01*
X119096Y972132D01*
X118830Y971786D01*
X118536Y971464D01*
X118214Y971170D01*
X117868Y970904D01*
X117500Y970670D01*
X117113Y970468D01*
X116710Y970302D01*
X116294Y970170D01*
X115868Y970076D01*
X115436Y970019D01*
X115000Y970000D01*
X105000Y970000D01*
X104564Y970019D01*
X104132Y970076D01*
X103706Y970170D01*
X103290Y970302D01*
X102887Y970468D01*
X102500Y970670D01*
X102132Y970904D01*
X101786Y971170D01*
X101464Y971464D01*
X101170Y971786D01*
X100904Y972132D01*
X100670Y972500D01*
X100468Y972887D01*
X100302Y973290D01*
X100170Y973706D01*
X100076Y974132D01*
X100019Y974564D01*
X100000Y975000D01*
X100000Y980000D01*
X10000Y980000D01*
X9128Y979962D01*
X8264Y979848D01*
X7412Y979659D01*
X6580Y979397D01*
X5774Y979063D01*
X5000Y978660D01*
X4264Y978192D01*
X3572Y977660D01*
X2929Y977071D01*
X2340Y976428D01*
X1808Y975736D01*
X1340Y975000D01*
X937Y974226D01*
X603Y973420D01*
X341Y972588D01*
X152Y971736D01*
X38Y970872D01*
X0Y970000D01*
X0Y10000D01*
X765500Y323446D02*
X765421Y322342D01*
X765263Y321246D01*
X765028Y320164D01*
X764716Y319102D01*
X764329Y318065D01*
X763869Y317058D01*
X763339Y316086D01*
X762740Y315154D01*
X762077Y314268D01*
X761352Y313431D01*
X760569Y312648D01*
X759732Y311923D01*
X758846Y311260D01*
X757914Y310661D01*
X756943Y310131D01*
X755935Y309671D01*
X754898Y309284D01*
X753836Y308972D01*
X752754Y308737D01*
X751658Y308579D01*
X750554Y308500D01*
X749446Y308500D01*
X748342Y308579D01*
X747246Y308737D01*
X746164Y308972D01*
X745102Y309284D01*
X744065Y309671D01*
X743058Y310131D01*
X742086Y310661D01*
X741154Y311260D01*
X740268Y311923D01*
X739431Y312648D01*
X738648Y313431D01*
X737923Y314268D01*
X737260Y315154D01*
X736661Y316086D01*
X736131Y317058D01*
X735671Y318065D01*
X735284Y319102D01*
X734972Y320164D01*
X734737Y321246D01*
X734579Y322342D01*
X734500Y323446D01*
X734500Y324554D01*
X734579Y325658D01*
X734737Y326754D01*
X734972Y327836D01*
X735284Y328898D01*
X735671Y329935D01*
X736131Y330943D01*
X736661Y331914D01*
X737260Y332846D01*
X737923Y333732D01*
X738648Y334569D01*
X739431Y335352D01*
X740268Y336077D01*
X741154Y336740D01*
X742086Y337339D01*
X743058Y337869D01*
X744065Y338329D01*
X745102Y338716D01*
X746164Y339028D01*
X747246Y339263D01*
X748342Y339421D01*
X749446Y339500D01*
X750554Y339500D01*
X751658Y339421D01*
X752754Y339263D01*
X753836Y339028D01*
X754898Y338716D01*
X755935Y338329D01*
X756943Y337869D01*
X757914Y337339D01*
X758846Y336740D01*
X759732Y336077D01*
X760569Y335352D01*
X761352Y334569D01*
X762077Y333732D01*
X762740Y332846D01*
X763339Y331914D01*
X763869Y330943D01*
X764329Y329935D01*
X764716Y328898D01*
X765028Y327836D01*
X765263Y326754D01*
X765421Y325658D01*
X765500Y324554D01*
X765500Y323446D01*
X765500Y85446D02*
X765421Y84342D01*
X765263Y83246D01*
X765028Y82164D01*
X764716Y81102D01*
X764329Y80065D01*
X763869Y79058D01*
X763339Y78086D01*
X762740Y77154D01*
X762077Y76268D01*
X761352Y75431D01*
X760569Y74648D01*
X759732Y73923D01*
X758846Y73260D01*
X757914Y72661D01*
X756943Y72131D01*
X755935Y71671D01*
X754898Y71284D01*
X753836Y70972D01*
X752754Y70737D01*
X751658Y70579D01*
X750554Y70500D01*
X749446Y70500D01*
X748342Y70579D01*
X747246Y70737D01*
X746164Y70972D01*
X745102Y71284D01*
X744065Y71671D01*
X743058Y72131D01*
X742086Y72661D01*
X741154Y73260D01*
X740268Y73923D01*
X739431Y74648D01*
X738648Y75431D01*
X737923Y76268D01*
X737260Y77154D01*
X736661Y78086D01*
X736131Y79058D01*
X735671Y80065D01*
X735284Y81102D01*
X734972Y82164D01*
X734737Y83246D01*
X734579Y84342D01*
X734500Y85446D01*
X734500Y86554D01*
X734579Y87658D01*
X734737Y88754D01*
X734972Y89836D01*
X735284Y90898D01*
X735671Y91935D01*
X736131Y92943D01*
X736661Y93914D01*
X737260Y94846D01*
X737923Y95732D01*
X738648Y96569D01*
X739431Y97352D01*
X740268Y98077D01*
X741154Y98740D01*
X742086Y99339D01*
X743058Y99869D01*
X744065Y100329D01*
X745102Y100716D01*
X746164Y101028D01*
X747246Y101263D01*
X748342Y101421D01*
X749446Y101500D01*
X750554Y101500D01*
X751658Y101421D01*
X752754Y101263D01*
X753836Y101028D01*
X754898Y100716D01*
X755935Y100329D01*
X756943Y99869D01*
X757914Y99339D01*
X758846Y98740D01*
X759732Y98077D01*
X760569Y97352D01*
X761352Y96569D01*
X762077Y95732D01*
X762740Y94846D01*
X763339Y93914D01*
X763869Y92943D01*
X764329Y91935D01*
X764716Y90898D01*
X765028Y89836D01*
X765263Y88754D01*
X765421Y87658D01*
X765500Y86554D01*
X765500Y85446D01*
X617500Y85396D02*
X617427Y84189D01*
X617281Y82989D01*
X617063Y81800D01*
X616774Y80627D01*
X616415Y79473D01*
X615986Y78343D01*
X615490Y77241D01*
X614928Y76170D01*
X614303Y75136D01*
X613616Y74141D01*
X612871Y73190D01*
X612069Y72285D01*
X611215Y71431D01*
X610310Y70629D01*
X609359Y69884D01*
X608364Y69197D01*
X607330Y68572D01*
X606259Y68010D01*
X605157Y67514D01*
X604027Y67085D01*
X602873Y66726D01*
X601700Y66437D01*
X600511Y66219D01*
X599311Y66073D01*
X598104Y66000D01*
X596896Y66000D01*
X595689Y66073D01*
X594489Y66219D01*
X593300Y66437D01*
X592127Y66726D01*
X590973Y67085D01*
X589843Y67514D01*
X588741Y68010D01*
X587670Y68572D01*
X586636Y69197D01*
X585641Y69884D01*
X584690Y70629D01*
X583785Y71431D01*
X582931Y72285D01*
X582129Y73190D01*
X581384Y74141D01*
X580697Y75136D01*
X580072Y76170D01*
X579510Y77241D01*
X579014Y78343D01*
X578585Y79473D01*
X578226Y80627D01*
X577937Y81800D01*
X577719Y82989D01*
X577573Y84189D01*
X577500Y85396D01*
X577500Y86604D01*
X577573Y87811D01*
X577719Y89011D01*
X577937Y90200D01*
X578226Y91373D01*
X578585Y92527D01*
X579014Y93657D01*
X579510Y94759D01*
X580072Y95830D01*
X580697Y96864D01*
X581384Y97859D01*
X582129Y98810D01*
X582931Y99715D01*
X583785Y100569D01*
X584690Y101371D01*
X585641Y102116D01*
X586636Y102803D01*
X587670Y103428D01*
X588741Y103990D01*
X589843Y104486D01*
X590973Y104915D01*
X592127Y105274D01*
X593300Y105563D01*
X594489Y105781D01*
X595689Y105927D01*
X596896Y106000D01*
X598104Y106000D01*
X599311Y105927D01*
X600511Y105781D01*
X601700Y105563D01*
X602873Y105274D01*
X604027Y104915D01*
X605157Y104486D01*
X606259Y103990D01*
X607330Y103428D01*
X608364Y102803D01*
X609359Y102116D01*
X610310Y101371D01*
X611215Y100569D01*
X612069Y99715D01*
X612871Y98810D01*
X613616Y97859D01*
X614303Y96864D01*
X614928Y95830D01*
X615490Y94759D01*
X615986Y93657D01*
X616415Y92527D01*
X616774Y91373D01*
X617063Y90200D01*
X617281Y89011D01*
X617427Y87811D01*
X617500Y86604D01*
X617500Y85396D01*
X617500Y323396D02*
X617427Y322189D01*
X617281Y320989D01*
X617063Y319800D01*
X616774Y318627D01*
X616415Y317473D01*
X615986Y316343D01*
X615490Y315241D01*
X614928Y314170D01*
X614303Y313136D01*
X613616Y312141D01*
X612871Y311190D01*
X612069Y310285D01*
X611215Y309431D01*
X610310Y308629D01*
X609359Y307884D01*
X608364Y307197D01*
X607330Y306572D01*
X606259Y306010D01*
X605157Y305514D01*
X604027Y305085D01*
X602873Y304726D01*
X601700Y304437D01*
X600511Y304219D01*
X599311Y304073D01*
X598104Y304000D01*
X596896Y304000D01*
X595689Y304073D01*
X594489Y304219D01*
X593300Y304437D01*
X592127Y304726D01*
X590973Y305085D01*
X589843Y305514D01*
X588741Y306010D01*
X587670Y306572D01*
X586636Y307197D01*
X585641Y307884D01*
X584690Y308629D01*
X583785Y309431D01*
X582931Y310285D01*
X582129Y311190D01*
X581384Y312141D01*
X580697Y313136D01*
X580072Y314170D01*
X579510Y315241D01*
X579014Y316343D01*
X578585Y317473D01*
X578226Y318627D01*
X577937Y319800D01*
X577719Y320989D01*
X577573Y322189D01*
X577500Y323396D01*
X577500Y324604D01*
X577573Y325811D01*
X577719Y327011D01*
X577937Y328200D01*
X578226Y329373D01*
X578585Y330527D01*
X579014Y331657D01*
X579510Y332759D01*
X580072Y333830D01*
X580697Y334864D01*
X581384Y335859D01*
X582129Y336810D01*
X582931Y337715D01*
X583785Y338569D01*
X584690Y339371D01*
X585641Y340116D01*
X586636Y340803D01*
X587670Y341428D01*
X588741Y341990D01*
X589843Y342486D01*
X590973Y342915D01*
X592127Y343274D01*
X593300Y343563D01*
X594489Y343781D01*
X595689Y343927D01*
X596896Y344000D01*
X598104Y344000D01*
X599311Y343927D01*
X600511Y343781D01*
X601700Y343563D01*
X602873Y343274D01*
X604027Y342915D01*
X605157Y342486D01*
X606259Y341990D01*
X607330Y341428D01*
X608364Y340803D01*
X609359Y340116D01*
X610310Y339371D01*
X611215Y338569D01*
X612069Y337715D01*
X612871Y336810D01*
X613616Y335859D01*
X614303Y334864D01*
X614928Y333830D01*
X615490Y332759D01*
X615986Y331657D01*
X616415Y330527D01*
X616774Y329373D01*
X617063Y328200D01*
X617281Y327011D01*
X617427Y325811D01*
X617500Y324604D01*
X617500Y323396D01*
X130320Y869386D02*
X130246Y868160D01*
X130098Y866941D01*
X129876Y865733D01*
X129583Y864541D01*
X129217Y863369D01*
X128782Y862220D01*
X128278Y861101D01*
X127707Y860013D01*
X127072Y858962D01*
X126374Y857952D01*
X125617Y856985D01*
X124803Y856066D01*
X123934Y855197D01*
X123015Y854383D01*
X122048Y853626D01*
X121038Y852928D01*
X119987Y852293D01*
X118900Y851722D01*
X117780Y851218D01*
X116631Y850783D01*
X115459Y850417D01*
X114267Y850124D01*
X113059Y849902D01*
X111840Y849754D01*
X110614Y849680D01*
X109386Y849680D01*
X108160Y849754D01*
X106941Y849902D01*
X105733Y850124D01*
X104541Y850417D01*
X103369Y850783D01*
X102220Y851218D01*
X101101Y851722D01*
X100013Y852293D01*
X98962Y852928D01*
X97952Y853626D01*
X96985Y854383D01*
X96066Y855197D01*
X95197Y856066D01*
X94383Y856985D01*
X93626Y857952D01*
X92928Y858962D01*
X92293Y860013D01*
X91722Y861101D01*
X91218Y862220D01*
X90783Y863369D01*
X90417Y864541D01*
X90124Y865733D01*
X89902Y866941D01*
X89754Y868160D01*
X89680Y869386D01*
X89680Y870614D01*
X89754Y871840D01*
X89902Y873059D01*
X90124Y874267D01*
X90417Y875459D01*
X90783Y876631D01*
X91218Y877780D01*
X91722Y878900D01*
X92293Y879987D01*
X92928Y881038D01*
X93626Y882048D01*
X94383Y883015D01*
X95197Y883934D01*
X96066Y884803D01*
X96985Y885617D01*
X97952Y886374D01*
X98962Y887072D01*
X100013Y887707D01*
X101101Y888278D01*
X102220Y888782D01*
X103369Y889217D01*
X104541Y889583D01*
X105733Y889876D01*
X106941Y890098D01*
X108160Y890246D01*
X109386Y890320D01*
X110614Y890320D01*
X111840Y890246D01*
X113059Y890098D01*
X114267Y889876D01*
X115459Y889583D01*
X116631Y889217D01*
X117780Y888782D01*
X118900Y888278D01*
X119987Y887707D01*
X121038Y887072D01*
X122048Y886374D01*
X123015Y885617D01*
X123934Y884803D01*
X124803Y883934D01*
X125617Y883015D01*
X126374Y882048D01*
X127072Y881038D01*
X127707Y879987D01*
X128278Y878900D01*
X128782Y877780D01*
X129217Y876631D01*
X129583Y875459D01*
X129876Y874267D01*
X130098Y873059D01*
X130246Y871840D01*
X130320Y870614D01*
X130320Y869386D01*
X320320Y869386D02*
X320246Y868160D01*
X320098Y866941D01*
X319876Y865733D01*
X319583Y864541D01*
X319217Y863369D01*
X318782Y862220D01*
X318278Y861101D01*
X317707Y860013D01*
X317072Y858962D01*
X316374Y857952D01*
X315617Y856985D01*
X314803Y856066D01*
X313934Y855197D01*
X313015Y854383D01*
X312048Y853626D01*
X311038Y852928D01*
X309987Y852293D01*
X308900Y851722D01*
X307780Y851218D01*
X306631Y850783D01*
X305459Y850417D01*
X304267Y850124D01*
X303059Y849902D01*
X301840Y849754D01*
X300614Y849680D01*
X299386Y849680D01*
X298160Y849754D01*
X296941Y849902D01*
X295733Y850124D01*
X294541Y850417D01*
X293369Y850783D01*
X292220Y851218D01*
X291101Y851722D01*
X290013Y852293D01*
X288962Y852928D01*
X287952Y853626D01*
X286985Y854383D01*
X286066Y855197D01*
X285197Y856066D01*
X284383Y856985D01*
X283626Y857952D01*
X282928Y858962D01*
X282293Y860013D01*
X281722Y861101D01*
X281218Y862220D01*
X280783Y863369D01*
X280417Y864541D01*
X280124Y865733D01*
X279902Y866941D01*
X279754Y868160D01*
X279680Y869386D01*
X279680Y870614D01*
X279754Y871840D01*
X279902Y873059D01*
X280124Y874267D01*
X280417Y875459D01*
X280783Y876631D01*
X281218Y877780D01*
X281722Y878900D01*
X282293Y879987D01*
X282928Y881038D01*
X283626Y882048D01*
X284383Y883015D01*
X285197Y883934D01*
X286066Y884803D01*
X286985Y885617D01*
X287952Y886374D01*
X288962Y887072D01*
X290013Y887707D01*
X291101Y888278D01*
X292220Y888782D01*
X293369Y889217D01*
X294541Y889583D01*
X295733Y889876D01*
X296941Y890098D01*
X298160Y890246D01*
X299386Y890320D01*
X300614Y890320D01*
X301840Y890246D01*
X303059Y890098D01*
X304267Y889876D01*
X305459Y889583D01*
X306631Y889217D01*
X307780Y888782D01*
X308900Y888278D01*
X309987Y887707D01*
X311038Y887072D01*
X312048Y886374D01*
X313015Y885617D01*
X313934Y884803D01*
X314803Y883934D01*
X315617Y883015D01*
X316374Y882048D01*
X317072Y881038D01*
X317707Y879987D01*
X318278Y878900D01*
X318782Y877780D01*
X319217Y876631D01*
X319583Y875459D01*
X319876Y874267D01*
X320098Y873059D01*
X320246Y871840D01*
X320320Y870614D01*
X320320Y869386D01*
X510320Y869386D02*
X510246Y868160D01*
X510098Y866941D01*
X509876Y865733D01*
X509583Y864541D01*
X509217Y863369D01*
X508782Y862220D01*
X508278Y861101D01*
X507707Y860013D01*
X507072Y858962D01*
X506374Y857952D01*
X505617Y856985D01*
X504803Y856066D01*
X503934Y855197D01*
X503015Y854383D01*
X502048Y853626D01*
X501038Y852928D01*
X499987Y852293D01*
X498900Y851722D01*
X497780Y851218D01*
X496631Y850783D01*
X495459Y850417D01*
X494267Y850124D01*
X493059Y849902D01*
X491840Y849754D01*
X490614Y849680D01*
X489386Y849680D01*
X488160Y849754D01*
X486941Y849902D01*
X485733Y850124D01*
X484541Y850417D01*
X483369Y850783D01*
X482220Y851218D01*
X481101Y851722D01*
X480013Y852293D01*
X478962Y852928D01*
X477952Y853626D01*
X476985Y854383D01*
X476066Y855197D01*
X475197Y856066D01*
X474383Y856985D01*
X473626Y857952D01*
X472928Y858962D01*
X472293Y860013D01*
X471722Y861101D01*
X471218Y862220D01*
X470783Y863369D01*
X470417Y864541D01*
X470124Y865733D01*
X469902Y866941D01*
X469754Y868160D01*
X469680Y869386D01*
X469680Y870614D01*
X469754Y871840D01*
X469902Y873059D01*
X470124Y874267D01*
X470417Y875459D01*
X470783Y876631D01*
X471218Y877780D01*
X471722Y878900D01*
X472293Y879987D01*
X472928Y881038D01*
X473626Y882048D01*
X474383Y883015D01*
X475197Y883934D01*
X476066Y884803D01*
X476985Y885617D01*
X477952Y886374D01*
X478962Y887072D01*
X480013Y887707D01*
X481101Y888278D01*
X482220Y888782D01*
X483369Y889217D01*
X484541Y889583D01*
X485733Y889876D01*
X486941Y890098D01*
X488160Y890246D01*
X489386Y890320D01*
X490614Y890320D01*
X491840Y890246D01*
X493059Y890098D01*
X494267Y889876D01*
X495459Y889583D01*
X496631Y889217D01*
X497780Y888782D01*
X498900Y888278D01*
X499987Y887707D01*
X501038Y887072D01*
X502048Y886374D01*
X503015Y885617D01*
X503934Y884803D01*
X504803Y883934D01*
X505617Y883015D01*
X506374Y882048D01*
X507072Y881038D01*
X507707Y879987D01*
X508278Y878900D01*
X508782Y877780D01*
X509217Y876631D01*
X509583Y875459D01*
X509876Y874267D01*
X510098Y873059D01*
X510246Y871840D01*
X510320Y870614D01*
X510320Y869386D01*
X130320Y679386D02*
X130246Y678160D01*
X130098Y676941D01*
X129876Y675733D01*
X129583Y674541D01*
X129217Y673369D01*
X128782Y672220D01*
X128278Y671101D01*
X127707Y670013D01*
X127072Y668962D01*
X126374Y667952D01*
X125617Y666985D01*
X124803Y666066D01*
X123934Y665197D01*
X123015Y664383D01*
X122048Y663626D01*
X121038Y662928D01*
X119987Y662293D01*
X118900Y661722D01*
X117780Y661218D01*
X116631Y660783D01*
X115459Y660417D01*
X114267Y660124D01*
X113059Y659902D01*
X111840Y659754D01*
X110614Y659680D01*
X109386Y659680D01*
X108160Y659754D01*
X106941Y659902D01*
X105733Y660124D01*
X104541Y660417D01*
X103369Y660783D01*
X102220Y661218D01*
X101101Y661722D01*
X100013Y662293D01*
X98962Y662928D01*
X97952Y663626D01*
X96985Y664383D01*
X96066Y665197D01*
X95197Y666066D01*
X94383Y666985D01*
X93626Y667952D01*
X92928Y668962D01*
X92293Y670013D01*
X91722Y671101D01*
X91218Y672220D01*
X90783Y673369D01*
X90417Y674541D01*
X90124Y675733D01*
X89902Y676941D01*
X89754Y678160D01*
X89680Y679386D01*
X89680Y680614D01*
X89754Y681840D01*
X89902Y683059D01*
X90124Y684267D01*
X90417Y685459D01*
X90783Y686631D01*
X91218Y687780D01*
X91722Y688900D01*
X92293Y689987D01*
X92928Y691038D01*
X93626Y692048D01*
X94383Y693015D01*
X95197Y693934D01*
X96066Y694803D01*
X96985Y695617D01*
X97952Y696374D01*
X98962Y697072D01*
X100013Y697707D01*
X101101Y698278D01*
X102220Y698782D01*
X103369Y699217D01*
X104541Y699583D01*
X105733Y699876D01*
X106941Y700098D01*
X108160Y700246D01*
X109386Y700320D01*
X110614Y700320D01*
X111840Y700246D01*
X113059Y700098D01*
X114267Y699876D01*
X115459Y699583D01*
X116631Y699217D01*
X117780Y698782D01*
X118900Y698278D01*
X119987Y697707D01*
X121038Y697072D01*
X122048Y696374D01*
X123015Y695617D01*
X123934Y694803D01*
X124803Y693934D01*
X125617Y693015D01*
X126374Y692048D01*
X127072Y691038D01*
X127707Y689987D01*
X128278Y688900D01*
X128782Y687780D01*
X129217Y686631D01*
X129583Y685459D01*
X129876Y684267D01*
X130098Y683059D01*
X130246Y681840D01*
X130320Y680614D01*
X130320Y679386D01*
X320320Y679386D02*
X320246Y678160D01*
X320098Y676941D01*
X319876Y675733D01*
X319583Y674541D01*
X319217Y673369D01*
X318782Y672220D01*
X318278Y671101D01*
X317707Y670013D01*
X317072Y668962D01*
X316374Y667952D01*
X315617Y666985D01*
X314803Y666066D01*
X313934Y665197D01*
X313015Y664383D01*
X312048Y663626D01*
X311038Y662928D01*
X309987Y662293D01*
X308900Y661722D01*
X307780Y661218D01*
X306631Y660783D01*
X305459Y660417D01*
X304267Y660124D01*
X303059Y659902D01*
X301840Y659754D01*
X300614Y659680D01*
X299386Y659680D01*
X298160Y659754D01*
X296941Y659902D01*
X295733Y660124D01*
X294541Y660417D01*
X293369Y660783D01*
X292220Y661218D01*
X291101Y661722D01*
X290013Y662293D01*
X288962Y662928D01*
X287952Y663626D01*
X286985Y664383D01*
X286066Y665197D01*
X285197Y666066D01*
X284383Y666985D01*
X283626Y667952D01*
X282928Y668962D01*
X282293Y670013D01*
X281722Y671101D01*
X281218Y672220D01*
X280783Y673369D01*
X280417Y674541D01*
X280124Y675733D01*
X279902Y676941D01*
X279754Y678160D01*
X279680Y679386D01*
X279680Y680614D01*
X279754Y681840D01*
X279902Y683059D01*
X280124Y684267D01*
X280417Y685459D01*
X280783Y686631D01*
X281218Y687780D01*
X281722Y688900D01*
X282293Y689987D01*
X282928Y691038D01*
X283626Y692048D01*
X284383Y693015D01*
X285197Y693934D01*
X286066Y694803D01*
X286985Y695617D01*
X287952Y696374D01*
X288962Y697072D01*
X290013Y697707D01*
X291101Y698278D01*
X292220Y698782D01*
X293369Y699217D01*
X294541Y699583D01*
X295733Y699876D01*
X296941Y700098D01*
X298160Y700246D01*
X299386Y700320D01*
X300614Y700320D01*
X301840Y700246D01*
X303059Y700098D01*
X304267Y699876D01*
X305459Y699583D01*
X306631Y699217D01*
X307780Y698782D01*
X308900Y698278D01*
X309987Y697707D01*
X311038Y697072D01*
X312048Y696374D01*
X313015Y695617D01*
X313934Y694803D01*
X314803Y693934D01*
X315617Y693015D01*
X316374Y692048D01*
X317072Y691038D01*
X317707Y689987D01*
X318278Y688900D01*
X318782Y687780D01*
X319217Y686631D01*
X319583Y685459D01*
X319876Y684267D01*
X320098Y683059D01*
X320246Y681840D01*
X320320Y680614D01*
X320320Y679386D01*
X510320Y679386D02*
X510246Y678160D01*
X510098Y676941D01*
X509876Y675733D01*
X509583Y674541D01*
X509217Y673369D01*
X508782Y672220D01*
X508278Y671101D01*
X507707Y670013D01*
X507072Y668962D01*
X506374Y667952D01*
X505617Y666985D01*
X504803Y666066D01*
X503934Y665197D01*
X503015Y664383D01*
X502048Y663626D01*
X501038Y662928D01*
X499987Y662293D01*
X498900Y661722D01*
X497780Y661218D01*
X496631Y660783D01*
X495459Y660417D01*
X494267Y660124D01*
X493059Y659902D01*
X491840Y659754D01*
X490614Y659680D01*
X489386Y659680D01*
X488160Y659754D01*
X486941Y659902D01*
X485733Y660124D01*
X484541Y660417D01*
X483369Y660783D01*
X482220Y661218D01*
X481101Y661722D01*
X480013Y662293D01*
X478962Y662928D01*
X477952Y663626D01*
X476985Y664383D01*
X476066Y665197D01*
X475197Y666066D01*
X474383Y666985D01*
X473626Y667952D01*
X472928Y668962D01*
X472293Y670013D01*
X471722Y671101D01*
X471218Y672220D01*
X470783Y673369D01*
X470417Y674541D01*
X470124Y675733D01*
X469902Y676941D01*
X469754Y678160D01*
X469680Y679386D01*
X469680Y680614D01*
X469754Y681840D01*
X469902Y683059D01*
X470124Y684267D01*
X470417Y685459D01*
X470783Y686631D01*
X471218Y687780D01*
X471722Y688900D01*
X472293Y689987D01*
X472928Y691038D01*
X473626Y692048D01*
X474383Y693015D01*
X475197Y693934D01*
X476066Y694803D01*
X476985Y695617D01*
X477952Y696374D01*
X478962Y697072D01*
X480013Y697707D01*
X481101Y698278D01*
X482220Y698782D01*
X483369Y699217D01*
X484541Y699583D01*
X485733Y699876D01*
X486941Y700098D01*
X488160Y700246D01*
X489386Y700320D01*
X490614Y700320D01*
X491840Y700246D01*
X493059Y700098D01*
X494267Y699876D01*
X495459Y699583D01*
X496631Y699217D01*
X497780Y698782D01*
X498900Y698278D01*
X499987Y697707D01*
X501038Y697072D01*
X502048Y696374D01*
X503015Y695617D01*
X503934Y694803D01*
X504803Y693934D01*
X505617Y693015D01*
X506374Y692048D01*
X507072Y691038D01*
X507707Y689987D01*
X508278Y688900D01*
X508782Y687780D01*
X509217Y686631D01*
X509583Y685459D01*
X509876Y684267D01*
X510098Y683059D01*
X510246Y681840D01*
X510320Y680614D01*
X510320Y679386D01*
X130320Y489386D02*
X130246Y488160D01*
X130098Y486941D01*
X129876Y485733D01*
X129583Y484541D01*
X129217Y483369D01*
X128782Y482220D01*
X128278Y481101D01*
X127707Y480013D01*
X127072Y478962D01*
X126374Y477952D01*
X125617Y476985D01*
X124803Y476066D01*
X123934Y475197D01*
X123015Y474383D01*
X122048Y473626D01*
X121038Y472928D01*
X119987Y472293D01*
X118900Y471722D01*
X117780Y471218D01*
X116631Y470783D01*
X115459Y470417D01*
X114267Y470124D01*
X113059Y469902D01*
X111840Y469754D01*
X110614Y469680D01*
X109386Y469680D01*
X108160Y469754D01*
X106941Y469902D01*
X105733Y470124D01*
X104541Y470417D01*
X103369Y470783D01*
X102220Y471218D01*
X101101Y471722D01*
X100013Y472293D01*
X98962Y472928D01*
X97952Y473626D01*
X96985Y474383D01*
X96066Y475197D01*
X95197Y476066D01*
X94383Y476985D01*
X93626Y477952D01*
X92928Y478962D01*
X92293Y480013D01*
X91722Y481101D01*
X91218Y482220D01*
X90783Y483369D01*
X90417Y484541D01*
X90124Y485733D01*
X89902Y486941D01*
X89754Y488160D01*
X89680Y489386D01*
X89680Y490614D01*
X89754Y491840D01*
X89902Y493059D01*
X90124Y494267D01*
X90417Y495459D01*
X90783Y496631D01*
X91218Y497780D01*
X91722Y498900D01*
X92293Y499987D01*
X92928Y501038D01*
X93626Y502048D01*
X94383Y503015D01*
X95197Y503934D01*
X96066Y504803D01*
X96985Y505617D01*
X97952Y506374D01*
X98962Y507072D01*
X100013Y507707D01*
X101101Y508278D01*
X102220Y508782D01*
X103369Y509217D01*
X104541Y509583D01*
X105733Y509876D01*
X106941Y510098D01*
X108160Y510246D01*
X109386Y510320D01*
X110614Y510320D01*
X111840Y510246D01*
X113059Y510098D01*
X114267Y509876D01*
X115459Y509583D01*
X116631Y509217D01*
X117780Y508782D01*
X118900Y508278D01*
X119987Y507707D01*
X121038Y507072D01*
X122048Y506374D01*
X123015Y505617D01*
X123934Y504803D01*
X124803Y503934D01*
X125617Y503015D01*
X126374Y502048D01*
X127072Y501038D01*
X127707Y499987D01*
X128278Y498900D01*
X128782Y497780D01*
X129217Y496631D01*
X129583Y495459D01*
X129876Y494267D01*
X130098Y493059D01*
X130246Y491840D01*
X130320Y490614D01*
X130320Y489386D01*
X320320Y489386D02*
X320246Y488160D01*
X320098Y486941D01*
X319876Y485733D01*
X319583Y484541D01*
X319217Y483369D01*
X318782Y482220D01*
X318278Y481101D01*
X317707Y480013D01*
X317072Y478962D01*
X316374Y477952D01*
X315617Y476985D01*
X314803Y476066D01*
X313934Y475197D01*
X313015Y474383D01*
X312048Y473626D01*
X311038Y472928D01*
X309987Y472293D01*
X308900Y471722D01*
X307780Y471218D01*
X306631Y470783D01*
X305459Y470417D01*
X304267Y470124D01*
X303059Y469902D01*
X301840Y469754D01*
X300614Y469680D01*
X299386Y469680D01*
X298160Y469754D01*
X296941Y469902D01*
X295733Y470124D01*
X294541Y470417D01*
X293369Y470783D01*
X292220Y471218D01*
X291101Y471722D01*
X290013Y472293D01*
X288962Y472928D01*
X287952Y473626D01*
X286985Y474383D01*
X286066Y475197D01*
X285197Y476066D01*
X284383Y476985D01*
X283626Y477952D01*
X282928Y478962D01*
X282293Y480013D01*
X281722Y481101D01*
X281218Y482220D01*
X280783Y483369D01*
X280417Y484541D01*
X280124Y485733D01*
X279902Y486941D01*
X279754Y488160D01*
X279680Y489386D01*
X279680Y490614D01*
X279754Y491840D01*
X279902Y493059D01*
X280124Y494267D01*
X280417Y495459D01*
X280783Y496631D01*
X281218Y497780D01*
X281722Y498900D01*
X282293Y499987D01*
X282928Y501038D01*
X283626Y502048D01*
X284383Y503015D01*
X285197Y503934D01*
X286066Y504803D01*
X286985Y505617D01*
X287952Y506374D01*
X288962Y507072D01*
X290013Y507707D01*
X291101Y508278D01*
X292220Y508782D01*
X293369Y509217D01*
X294541Y509583D01*
X295733Y509876D01*
X296941Y510098D01*
X298160Y510246D01*
X299386Y510320D01*
X300614Y510320D01*
X301840Y510246D01*
X303059Y510098D01*
X304267Y509876D01*
X305459Y509583D01*
X306631Y509217D01*
X307780Y508782D01*
X308900Y508278D01*
X309987Y507707D01*
X311038Y507072D01*
X312048Y506374D01*
X313015Y505617D01*
X313934Y504803D01*
X314803Y503934D01*
X315617Y503015D01*
X316374Y502048D01*
X317072Y501038D01*
X317707Y499987D01*
X318278Y498900D01*
X318782Y497780D01*
X319217Y496631D01*
X319583Y495459D01*
X319876Y494267D01*
X320098Y493059D01*
X320246Y491840D01*
X320320Y490614D01*
X320320Y489386D01*
X510320Y489386D02*
X510246Y488160D01*
X510098Y486941D01*
X509876Y485733D01*
X509583Y484541D01*
X509217Y483369D01*
X508782Y482220D01*
X508278Y481101D01*
X507707Y480013D01*
X507072Y478962D01*
X506374Y477952D01*
X505617Y476985D01*
X504803Y476066D01*
X503934Y475197D01*
X503015Y474383D01*
X502048Y473626D01*
X501038Y472928D01*
X499987Y472293D01*
X498900Y471722D01*
X497780Y471218D01*
X496631Y470783D01*
X495459Y470417D01*
X494267Y470124D01*
X493059Y469902D01*
X491840Y469754D01*
X490614Y469680D01*
X489386Y469680D01*
X488160Y469754D01*
X486941Y469902D01*
X485733Y470124D01*
X484541Y470417D01*
X483369Y470783D01*
X482220Y471218D01*
X481101Y471722D01*
X480013Y472293D01*
X478962Y472928D01*
X477952Y473626D01*
X476985Y474383D01*
X476066Y475197D01*
X475197Y476066D01*
X474383Y476985D01*
X473626Y477952D01*
X472928Y478962D01*
X472293Y480013D01*
X471722Y481101D01*
X471218Y482220D01*
X470783Y483369D01*
X470417Y484541D01*
X470124Y485733D01*
X469902Y486941D01*
X469754Y488160D01*
X469680Y489386D01*
X469680Y490614D01*
X469754Y491840D01*
X469902Y493059D01*
X470124Y494267D01*
X470417Y495459D01*
X470783Y496631D01*
X471218Y497780D01*
X471722Y498900D01*
X472293Y499987D01*
X472928Y501038D01*
X473626Y502048D01*
X474383Y503015D01*
X475197Y503934D01*
X476066Y504803D01*
X476985Y505617D01*
X477952Y506374D01*
X478962Y507072D01*
X480013Y507707D01*
X481101Y508278D01*
X482220Y508782D01*
X483369Y509217D01*
X484541Y509583D01*
X485733Y509876D01*
X486941Y510098D01*
X488160Y510246D01*
X489386Y510320D01*
X490614Y510320D01*
X491840Y510246D01*
X493059Y510098D01*
X494267Y509876D01*
X495459Y509583D01*
X496631Y509217D01*
X497780Y508782D01*
X498900Y508278D01*
X499987Y507707D01*
X501038Y507072D01*
X502048Y506374D01*
X503015Y505617D01*
X503934Y504803D01*
X504803Y503934D01*
X505617Y503015D01*
X506374Y502048D01*
X507072Y501038D01*
X507707Y499987D01*
X508278Y498900D01*
X508782Y497780D01*
X509217Y496631D01*
X509583Y495459D01*
X509876Y494267D01*
X510098Y493059D01*
X510246Y491840D01*
X510320Y490614D01*
X510320Y489386D01*
X130320Y299386D02*
X130246Y298160D01*
X130098Y296941D01*
X129876Y295733D01*
X129583Y294541D01*
X129217Y293369D01*
X128782Y292220D01*
X128278Y291101D01*
X127707Y290013D01*
X127072Y288962D01*
X126374Y287952D01*
X125617Y286985D01*
X124803Y286066D01*
X123934Y285197D01*
X123015Y284383D01*
X122048Y283626D01*
X121038Y282928D01*
X119987Y282293D01*
X118900Y281722D01*
X117780Y281218D01*
X116631Y280783D01*
X115459Y280417D01*
X114267Y280124D01*
X113059Y279902D01*
X111840Y279754D01*
X110614Y279680D01*
X109386Y279680D01*
X108160Y279754D01*
X106941Y279902D01*
X105733Y280124D01*
X104541Y280417D01*
X103369Y280783D01*
X102220Y281218D01*
X101101Y281722D01*
X100013Y282293D01*
X98962Y282928D01*
X97952Y283626D01*
X96985Y284383D01*
X96066Y285197D01*
X95197Y286066D01*
X94383Y286985D01*
X93626Y287952D01*
X92928Y288962D01*
X92293Y290013D01*
X91722Y291101D01*
X91218Y292220D01*
X90783Y293369D01*
X90417Y294541D01*
X90124Y295733D01*
X89902Y296941D01*
X89754Y298160D01*
X89680Y299386D01*
X89680Y300614D01*
X89754Y301840D01*
X89902Y303059D01*
X90124Y304267D01*
X90417Y305459D01*
X90783Y306631D01*
X91218Y307780D01*
X91722Y308900D01*
X92293Y309987D01*
X92928Y311038D01*
X93626Y312048D01*
X94383Y313015D01*
X95197Y313934D01*
X96066Y314803D01*
X96985Y315617D01*
X97952Y316374D01*
X98962Y317072D01*
X100013Y317707D01*
X101101Y318278D01*
X102220Y318782D01*
X103369Y319217D01*
X104541Y319583D01*
X105733Y319876D01*
X106941Y320098D01*
X108160Y320246D01*
X109386Y320320D01*
X110614Y320320D01*
X111840Y320246D01*
X113059Y320098D01*
X114267Y319876D01*
X115459Y319583D01*
X116631Y319217D01*
X117780Y318782D01*
X118900Y318278D01*
X119987Y317707D01*
X121038Y317072D01*
X122048Y316374D01*
X123015Y315617D01*
X123934Y314803D01*
X124803Y313934D01*
X125617Y313015D01*
X126374Y312048D01*
X127072Y311038D01*
X127707Y309987D01*
X128278Y308900D01*
X128782Y307780D01*
X129217Y306631D01*
X129583Y305459D01*
X129876Y304267D01*
X130098Y303059D01*
X130246Y301840D01*
X130320Y300614D01*
X130320Y299386D01*
X320320Y299386D02*
X320246Y298160D01*
X320098Y296941D01*
X319876Y295733D01*
X319583Y294541D01*
X319217Y293369D01*
X318782Y292220D01*
X318278Y291101D01*
X317707Y290013D01*
X317072Y288962D01*
X316374Y287952D01*
X315617Y286985D01*
X314803Y286066D01*
X313934Y285197D01*
X313015Y284383D01*
X312048Y283626D01*
X311038Y282928D01*
X309987Y282293D01*
X308900Y281722D01*
X307780Y281218D01*
X306631Y280783D01*
X305459Y280417D01*
X304267Y280124D01*
X303059Y279902D01*
X301840Y279754D01*
X300614Y279680D01*
X299386Y279680D01*
X298160Y279754D01*
X296941Y279902D01*
X295733Y280124D01*
X294541Y280417D01*
X293369Y280783D01*
X292220Y281218D01*
X291101Y281722D01*
X290013Y282293D01*
X288962Y282928D01*
X287952Y283626D01*
X286985Y284383D01*
X286066Y285197D01*
X285197Y286066D01*
X284383Y286985D01*
X283626Y287952D01*
X282928Y288962D01*
X282293Y290013D01*
X281722Y291101D01*
X281218Y292220D01*
X280783Y293369D01*
X280417Y294541D01*
X280124Y295733D01*
X279902Y296941D01*
X279754Y298160D01*
X279680Y299386D01*
X279680Y300614D01*
X279754Y301840D01*
X279902Y303059D01*
X280124Y304267D01*
X280417Y305459D01*
X280783Y306631D01*
X281218Y307780D01*
X281722Y308900D01*
X282293Y309987D01*
X282928Y311038D01*
X283626Y312048D01*
X284383Y313015D01*
X285197Y313934D01*
X286066Y314803D01*
X286985Y315617D01*
X287952Y316374D01*
X288962Y317072D01*
X290013Y317707D01*
X291101Y318278D01*
X292220Y318782D01*
X293369Y319217D01*
X294541Y319583D01*
X295733Y319876D01*
X296941Y320098D01*
X298160Y320246D01*
X299386Y320320D01*
X300614Y320320D01*
X301840Y320246D01*
X303059Y320098D01*
X304267Y319876D01*
X305459Y319583D01*
X306631Y319217D01*
X307780Y318782D01*
X308900Y318278D01*
X309987Y317707D01*
X311038Y317072D01*
X312048Y316374D01*
X313015Y315617D01*
X313934Y314803D01*
X314803Y313934D01*
X315617Y313015D01*
X316374Y312048D01*
X317072Y311038D01*
X317707Y309987D01*
X318278Y308900D01*
X318782Y307780D01*
X319217Y306631D01*
X319583Y305459D01*
X319876Y304267D01*
X320098Y303059D01*
X320246Y301840D01*
X320320Y300614D01*
X320320Y299386D01*
X510320Y299386D02*
X510246Y298160D01*
X510098Y296941D01*
X509876Y295733D01*
X509583Y294541D01*
X509217Y293369D01*
X508782Y292220D01*
X508278Y291101D01*
X507707Y290013D01*
X507072Y288962D01*
X506374Y287952D01*
X505617Y286985D01*
X504803Y286066D01*
X503934Y285197D01*
X503015Y284383D01*
X502048Y283626D01*
X501038Y282928D01*
X499987Y282293D01*
X498900Y281722D01*
X497780Y281218D01*
X496631Y280783D01*
X495459Y280417D01*
X494267Y280124D01*
X493059Y279902D01*
X491840Y279754D01*
X490614Y279680D01*
X489386Y279680D01*
X488160Y279754D01*
X486941Y279902D01*
X485733Y280124D01*
X484541Y280417D01*
X483369Y280783D01*
X482220Y281218D01*
X481101Y281722D01*
X480013Y282293D01*
X478962Y282928D01*
X477952Y283626D01*
X476985Y284383D01*
X476066Y285197D01*
X475197Y286066D01*
X474383Y286985D01*
X473626Y287952D01*
X472928Y288962D01*
X472293Y290013D01*
X471722Y291101D01*
X471218Y292220D01*
X470783Y293369D01*
X470417Y294541D01*
X470124Y295733D01*
X469902Y296941D01*
X469754Y298160D01*
X469680Y299386D01*
X469680Y300614D01*
X469754Y301840D01*
X469902Y303059D01*
X470124Y304267D01*
X470417Y305459D01*
X470783Y306631D01*
X471218Y307780D01*
X471722Y308900D01*
X472293Y309987D01*
X472928Y311038D01*
X473626Y312048D01*
X474383Y313015D01*
X475197Y313934D01*
X476066Y314803D01*
X476985Y315617D01*
X477952Y316374D01*
X478962Y317072D01*
X480013Y317707D01*
X481101Y318278D01*
X482220Y318782D01*
X483369Y319217D01*
X484541Y319583D01*
X485733Y319876D01*
X486941Y320098D01*
X488160Y320246D01*
X489386Y320320D01*
X490614Y320320D01*
X491840Y320246D01*
X493059Y320098D01*
X494267Y319876D01*
X495459Y319583D01*
X496631Y319217D01*
X497780Y318782D01*
X498900Y318278D01*
X499987Y317707D01*
X501038Y317072D01*
X502048Y316374D01*
X503015Y315617D01*
X503934Y314803D01*
X504803Y313934D01*
X505617Y313015D01*
X506374Y312048D01*
X507072Y311038D01*
X507707Y309987D01*
X508278Y308900D01*
X508782Y307780D01*
X509217Y306631D01*
X509583Y305459D01*
X509876Y304267D01*
X510098Y303059D01*
X510246Y301840D01*
X510320Y300614D01*
X510320Y299386D01*
X130320Y109386D02*
X130246Y108160D01*
X130098Y106941D01*
X129876Y105733D01*
X129583Y104541D01*
X129217Y103369D01*
X128782Y102220D01*
X128278Y101101D01*
X127707Y100013D01*
X127072Y98962D01*
X126374Y97952D01*
X125617Y96985D01*
X124803Y96066D01*
X123934Y95197D01*
X123015Y94383D01*
X122048Y93626D01*
X121038Y92928D01*
X119987Y92293D01*
X118900Y91722D01*
X117780Y91218D01*
X116631Y90783D01*
X115459Y90417D01*
X114267Y90124D01*
X113059Y89902D01*
X111840Y89754D01*
X110614Y89680D01*
X109386Y89680D01*
X108160Y89754D01*
X106941Y89902D01*
X105733Y90124D01*
X104541Y90417D01*
X103369Y90783D01*
X102220Y91218D01*
X101101Y91722D01*
X100013Y92293D01*
X98962Y92928D01*
X97952Y93626D01*
X96985Y94383D01*
X96066Y95197D01*
X95197Y96066D01*
X94383Y96985D01*
X93626Y97952D01*
X92928Y98962D01*
X92293Y100013D01*
X91722Y101101D01*
X91218Y102220D01*
X90783Y103369D01*
X90417Y104541D01*
X90124Y105733D01*
X89902Y106941D01*
X89754Y108160D01*
X89680Y109386D01*
X89680Y110614D01*
X89754Y111840D01*
X89902Y113059D01*
X90124Y114267D01*
X90417Y115459D01*
X90783Y116631D01*
X91218Y117780D01*
X91722Y118900D01*
X92293Y119987D01*
X92928Y121038D01*
X93626Y122048D01*
X94383Y123015D01*
X95197Y123934D01*
X96066Y124803D01*
X96985Y125617D01*
X97952Y126374D01*
X98962Y127072D01*
X100013Y127707D01*
X101101Y128278D01*
X102220Y128782D01*
X103369Y129217D01*
X104541Y129583D01*
X105733Y129876D01*
X106941Y130098D01*
X108160Y130246D01*
X109386Y130320D01*
X110614Y130320D01*
X111840Y130246D01*
X113059Y130098D01*
X114267Y129876D01*
X115459Y129583D01*
X116631Y129217D01*
X117780Y128782D01*
X118900Y128278D01*
X119987Y127707D01*
X121038Y127072D01*
X122048Y126374D01*
X123015Y125617D01*
X123934Y124803D01*
X124803Y123934D01*
X125617Y123015D01*
X126374Y122048D01*
X127072Y121038D01*
X127707Y119987D01*
X128278Y118900D01*
X128782Y117780D01*
X129217Y116631D01*
X129583Y115459D01*
X129876Y114267D01*
X130098Y113059D01*
X130246Y111840D01*
X130320Y110614D01*
X130320Y109386D01*
X320320Y109386D02*
X320246Y108160D01*
X320098Y106941D01*
X319876Y105733D01*
X319583Y104541D01*
X319217Y103369D01*
X318782Y102220D01*
X318278Y101101D01*
X317707Y100013D01*
X317072Y98962D01*
X316374Y97952D01*
X315617Y96985D01*
X314803Y96066D01*
X313934Y95197D01*
X313015Y94383D01*
X312048Y93626D01*
X311038Y92928D01*
X309987Y92293D01*
X308900Y91722D01*
X307780Y91218D01*
X306631Y90783D01*
X305459Y90417D01*
X304267Y90124D01*
X303059Y89902D01*
X301840Y89754D01*
X300614Y89680D01*
X299386Y89680D01*
X298160Y89754D01*
X296941Y89902D01*
X295733Y90124D01*
X294541Y90417D01*
X293369Y90783D01*
X292220Y91218D01*
X291101Y91722D01*
X290013Y92293D01*
X288962Y92928D01*
X287952Y93626D01*
X286985Y94383D01*
X286066Y95197D01*
X285197Y96066D01*
X284383Y96985D01*
X283626Y97952D01*
X282928Y98962D01*
X282293Y100013D01*
X281722Y101101D01*
X281218Y102220D01*
X280783Y103369D01*
X280417Y104541D01*
X280124Y105733D01*
X279902Y106941D01*
X279754Y108160D01*
X279680Y109386D01*
X279680Y110614D01*
X279754Y111840D01*
X279902Y113059D01*
X280124Y114267D01*
X280417Y115459D01*
X280783Y116631D01*
X281218Y117780D01*
X281722Y118900D01*
X282293Y119987D01*
X282928Y121038D01*
X283626Y122048D01*
X284383Y123015D01*
X285197Y123934D01*
X286066Y124803D01*
X286985Y125617D01*
X287952Y126374D01*
X288962Y127072D01*
X290013Y127707D01*
X291101Y128278D01*
X292220Y128782D01*
X293369Y129217D01*
X294541Y129583D01*
X295733Y129876D01*
X296941Y130098D01*
X298160Y130246D01*
X299386Y130320D01*
X300614Y130320D01*
X301840Y130246D01*
X303059Y130098D01*
X304267Y129876D01*
X305459Y129583D01*
X306631Y129217D01*
X307780Y128782D01*
X308900Y128278D01*
X309987Y127707D01*
X311038Y127072D01*
X312048Y126374D01*
X313015Y125617D01*
X313934Y124803D01*
X314803Y123934D01*
X315617Y123015D01*
X316374Y122048D01*
X317072Y121038D01*
X317707Y119987D01*
X318278Y118900D01*
X318782Y117780D01*
X319217Y116631D01*
X319583Y115459D01*
X319876Y114267D01*
X320098Y113059D01*
X320246Y111840D01*
X320320Y110614D01*
X320320Y109386D01*
X510320Y109386D02*
X510246Y108160D01*
X510098Y106941D01*
X509876Y105733D01*
X509583Y104541D01*
X509217Y103369D01*
X508782Y102220D01*
X508278Y101101D01*
X507707Y100013D01*
X507072Y98962D01*
X506374Y97952D01*
X505617Y96985D01*
X504803Y96066D01*
X503934Y95197D01*
X503015Y94383D01*
X502048Y93626D01*
X501038Y92928D01*
X499987Y92293D01*
X498900Y91722D01*
X497780Y91218D01*
X496631Y90783D01*
X495459Y90417D01*
X494267Y90124D01*
X493059Y89902D01*
X491840Y89754D01*
X490614Y89680D01*
X489386Y89680D01*
X488160Y89754D01*
X486941Y89902D01*
X485733Y90124D01*
X484541Y90417D01*
X483369Y90783D01*
X482220Y91218D01*
X481101Y91722D01*
X480013Y92293D01*
X478962Y92928D01*
X477952Y93626D01*
X476985Y94383D01*
X476066Y95197D01*
X475197Y96066D01*
X474383Y96985D01*
X473626Y97952D01*
X472928Y98962D01*
X472293Y100013D01*
X471722Y101101D01*
X471218Y102220D01*
X470783Y103369D01*
X470417Y104541D01*
X470124Y105733D01*
X469902Y106941D01*
X469754Y108160D01*
X469680Y109386D01*
X469680Y110614D01*
X469754Y111840D01*
X469902Y113059D01*
X470124Y114267D01*
X470417Y115459D01*
X470783Y116631D01*
X471218Y117780D01*
X471722Y118900D01*
X472293Y119987D01*
X472928Y121038D01*
X473626Y122048D01*
X474383Y123015D01*
X475197Y123934D01*
X476066Y124803D01*
X476985Y125617D01*
X477952Y126374D01*
X478962Y127072D01*
X480013Y127707D01*
X481101Y128278D01*
X482220Y128782D01*
X483369Y129217D01*
X484541Y129583D01*
X485733Y129876D01*
X486941Y130098D01*
X488160Y130246D01*
X489386Y130320D01*
X490614Y130320D01*
X491840Y130246D01*
X493059Y130098D01*
X494267Y129876D01*
X495459Y129583D01*
X496631Y129217D01*
X497780Y128782D01*
X498900Y128278D01*
X499987Y127707D01*
X501038Y127072D01*
X502048Y126374D01*
X503015Y125617D01*
X503934Y124803D01*
X504803Y123934D01*
X505617Y123015D01*
X506374Y122048D01*
X507072Y121038D01*
X507707Y119987D01*
X508278Y118900D01*
X508782Y117780D01*
X509217Y116631D01*
X509583Y115459D01*
X509876Y114267D01*
X510098Y113059D01*
X510246Y111840D01*
X510320Y110614D01*
X510320Y109386D01*
X700320Y869386D02*
X700246Y868160D01*
X700098Y866941D01*
X699876Y865733D01*
X699583Y864541D01*
X699217Y863369D01*
X698782Y862220D01*
X698278Y861101D01*
X697707Y860013D01*
X697072Y858962D01*
X696374Y857952D01*
X695617Y856985D01*
X694803Y856066D01*
X693934Y855197D01*
X693015Y854383D01*
X692048Y853626D01*
X691038Y852928D01*
X689987Y852293D01*
X688900Y851722D01*
X687780Y851218D01*
X686631Y850783D01*
X685459Y850417D01*
X684267Y850124D01*
X683059Y849902D01*
X681840Y849754D01*
X680614Y849680D01*
X679386Y849680D01*
X678160Y849754D01*
X676941Y849902D01*
X675733Y850124D01*
X674541Y850417D01*
X673369Y850783D01*
X672220Y851218D01*
X671101Y851722D01*
X670013Y852293D01*
X668962Y852928D01*
X667952Y853626D01*
X666985Y854383D01*
X666066Y855197D01*
X665197Y856066D01*
X664383Y856985D01*
X663626Y857952D01*
X662928Y858962D01*
X662293Y860013D01*
X661722Y861101D01*
X661218Y862220D01*
X660783Y863369D01*
X660417Y864541D01*
X660124Y865733D01*
X659902Y866941D01*
X659754Y868160D01*
X659680Y869386D01*
X659680Y870614D01*
X659754Y871840D01*
X659902Y873059D01*
X660124Y874267D01*
X660417Y875459D01*
X660783Y876631D01*
X661218Y877780D01*
X661722Y878900D01*
X662293Y879987D01*
X662928Y881038D01*
X663626Y882048D01*
X664383Y883015D01*
X665197Y883934D01*
X666066Y884803D01*
X666985Y885617D01*
X667952Y886374D01*
X668962Y887072D01*
X670013Y887707D01*
X671101Y888278D01*
X672220Y888782D01*
X673369Y889217D01*
X674541Y889583D01*
X675733Y889876D01*
X676941Y890098D01*
X678160Y890246D01*
X679386Y890320D01*
X680614Y890320D01*
X681840Y890246D01*
X683059Y890098D01*
X684267Y889876D01*
X685459Y889583D01*
X686631Y889217D01*
X687780Y888782D01*
X688900Y888278D01*
X689987Y887707D01*
X691038Y887072D01*
X692048Y886374D01*
X693015Y885617D01*
X693934Y884803D01*
X694803Y883934D01*
X695617Y883015D01*
X696374Y882048D01*
X697072Y881038D01*
X697707Y879987D01*
X698278Y878900D01*
X698782Y877780D01*
X699217Y876631D01*
X699583Y875459D01*
X699876Y874267D01*
X700098Y873059D01*
X700246Y871840D01*
X700320Y870614D01*
X700320Y869386D01*
X700320Y679386D02*
X700246Y678160D01*
X700098Y676941D01*
X699876Y675733D01*
X699583Y674541D01*
X699217Y673369D01*
X698782Y672220D01*
X698278Y671101D01*
X697707Y670013D01*
X697072Y668962D01*
X696374Y667952D01*
X695617Y666985D01*
X694803Y666066D01*
X693934Y665197D01*
X693015Y664383D01*
X692048Y663626D01*
X691038Y662928D01*
X689987Y662293D01*
X688900Y661722D01*
X687780Y661218D01*
X686631Y660783D01*
X685459Y660417D01*
X684267Y660124D01*
X683059Y659902D01*
X681840Y659754D01*
X680614Y659680D01*
X679386Y659680D01*
X678160Y659754D01*
X676941Y659902D01*
X675733Y660124D01*
X674541Y660417D01*
X673369Y660783D01*
X672220Y661218D01*
X671101Y661722D01*
X670013Y662293D01*
X668962Y662928D01*
X667952Y663626D01*
X666985Y664383D01*
X666066Y665197D01*
X665197Y666066D01*
X664383Y666985D01*
X663626Y667952D01*
X662928Y668962D01*
X662293Y670013D01*
X661722Y671101D01*
X661218Y672220D01*
X660783Y673369D01*
X660417Y674541D01*
X660124Y675733D01*
X659902Y676941D01*
X659754Y678160D01*
X659680Y679386D01*
X659680Y680614D01*
X659754Y681840D01*
X659902Y683059D01*
X660124Y684267D01*
X660417Y685459D01*
X660783Y686631D01*
X661218Y687780D01*
X661722Y688900D01*
X662293Y689987D01*
X662928Y691038D01*
X663626Y692048D01*
X664383Y693015D01*
X665197Y693934D01*
X666066Y694803D01*
X666985Y695617D01*
X667952Y696374D01*
X668962Y697072D01*
X670013Y697707D01*
X671101Y698278D01*
X672220Y698782D01*
X673369Y699217D01*
X674541Y699583D01*
X675733Y699876D01*
X676941Y700098D01*
X678160Y700246D01*
X679386Y700320D01*
X680614Y700320D01*
X681840Y700246D01*
X683059Y700098D01*
X684267Y699876D01*
X685459Y699583D01*
X686631Y699217D01*
X687780Y698782D01*
X688900Y698278D01*
X689987Y697707D01*
X691038Y697072D01*
X692048Y696374D01*
X693015Y695617D01*
X693934Y694803D01*
X694803Y693934D01*
X695617Y693015D01*
X696374Y692048D01*
X697072Y691038D01*
X697707Y689987D01*
X698278Y688900D01*
X698782Y687780D01*
X699217Y686631D01*
X699583Y685459D01*
X699876Y684267D01*
X700098Y683059D01*
X700246Y681840D01*
X700320Y680614D01*
X700320Y679386D01*
X700320Y489386D02*
X700246Y488160D01*
X700098Y486941D01*
X699876Y485733D01*
X699583Y484541D01*
X699217Y483369D01*
X698782Y482220D01*
X698278Y481101D01*
X697707Y480013D01*
X697072Y478962D01*
X696374Y477952D01*
X695617Y476985D01*
X694803Y476066D01*
X693934Y475197D01*
X693015Y474383D01*
X692048Y473626D01*
X691038Y472928D01*
X689987Y472293D01*
X688900Y471722D01*
X687780Y471218D01*
X686631Y470783D01*
X685459Y470417D01*
X684267Y470124D01*
X683059Y469902D01*
X681840Y469754D01*
X680614Y469680D01*
X679386Y469680D01*
X678160Y469754D01*
X676941Y469902D01*
X675733Y470124D01*
X674541Y470417D01*
X673369Y470783D01*
X672220Y471218D01*
X671101Y471722D01*
X670013Y472293D01*
X668962Y472928D01*
X667952Y473626D01*
X666985Y474383D01*
X666066Y475197D01*
X665197Y476066D01*
X664383Y476985D01*
X663626Y477952D01*
X662928Y478962D01*
X662293Y480013D01*
X661722Y481101D01*
X661218Y482220D01*
X660783Y483369D01*
X660417Y484541D01*
X660124Y485733D01*
X659902Y486941D01*
X659754Y488160D01*
X659680Y489386D01*
X659680Y490614D01*
X659754Y491840D01*
X659902Y493059D01*
X660124Y494267D01*
X660417Y495459D01*
X660783Y496631D01*
X661218Y497780D01*
X661722Y498900D01*
X662293Y499987D01*
X662928Y501038D01*
X663626Y502048D01*
X664383Y503015D01*
X665197Y503934D01*
X666066Y504803D01*
X666985Y505617D01*
X667952Y506374D01*
X668962Y507072D01*
X670013Y507707D01*
X671101Y508278D01*
X672220Y508782D01*
X673369Y509217D01*
X674541Y509583D01*
X675733Y509876D01*
X676941Y510098D01*
X678160Y510246D01*
X679386Y510320D01*
X680614Y510320D01*
X681840Y510246D01*
X683059Y510098D01*
X684267Y509876D01*
X685459Y509583D01*
X686631Y509217D01*
X687780Y508782D01*
X688900Y508278D01*
X689987Y507707D01*
X691038Y507072D01*
X692048Y506374D01*
X693015Y505617D01*
X693934Y504803D01*
X694803Y503934D01*
X695617Y503015D01*
X696374Y502048D01*
X697072Y501038D01*
X697707Y499987D01*
X698278Y498900D01*
X698782Y497780D01*
X699217Y496631D01*
X699583Y495459D01*
X699876Y494267D01*
X700098Y493059D01*
X700246Y491840D01*
X700320Y490614D01*
X700320Y489386D01*
X700320Y204386D02*
X700246Y203160D01*
X700098Y201941D01*
X699876Y200733D01*
X699583Y199541D01*
X699217Y198369D01*
X698782Y197220D01*
X698278Y196101D01*
X697707Y195013D01*
X697072Y193962D01*
X696374Y192952D01*
X695617Y191985D01*
X694803Y191066D01*
X693934Y190197D01*
X693015Y189383D01*
X692048Y188626D01*
X691038Y187928D01*
X689987Y187293D01*
X688900Y186722D01*
X687780Y186218D01*
X686631Y185783D01*
X685459Y185417D01*
X684267Y185124D01*
X683059Y184902D01*
X681840Y184754D01*
X680614Y184680D01*
X679386Y184680D01*
X678160Y184754D01*
X676941Y184902D01*
X675733Y185124D01*
X674541Y185417D01*
X673369Y185783D01*
X672220Y186218D01*
X671101Y186722D01*
X670013Y187293D01*
X668962Y187928D01*
X667952Y188626D01*
X666985Y189383D01*
X666066Y190197D01*
X665197Y191066D01*
X664383Y191985D01*
X663626Y192952D01*
X662928Y193962D01*
X662293Y195013D01*
X661722Y196101D01*
X661218Y197220D01*
X660783Y198369D01*
X660417Y199541D01*
X660124Y200733D01*
X659902Y201941D01*
X659754Y203160D01*
X659680Y204386D01*
X659680Y205614D01*
X659754Y206840D01*
X659902Y208059D01*
X660124Y209267D01*
X660417Y210459D01*
X660783Y211631D01*
X661218Y212780D01*
X661722Y213900D01*
X662293Y214987D01*
X662928Y216038D01*
X663626Y217048D01*
X664383Y218015D01*
X665197Y218934D01*
X666066Y219803D01*
X666985Y220617D01*
X667952Y221374D01*
X668962Y222072D01*
X670013Y222707D01*
X671101Y223278D01*
X672220Y223782D01*
X673369Y224217D01*
X674541Y224583D01*
X675733Y224876D01*
X676941Y225098D01*
X678160Y225246D01*
X679386Y225320D01*
X680614Y225320D01*
X681840Y225246D01*
X683059Y225098D01*
X684267Y224876D01*
X685459Y224583D01*
X686631Y224217D01*
X687780Y223782D01*
X688900Y223278D01*
X689987Y222707D01*
X691038Y222072D01*
X692048Y221374D01*
X693015Y220617D01*
X693934Y219803D01*
X694803Y218934D01*
X695617Y218015D01*
X696374Y217048D01*
X697072Y216038D01*
X697707Y214987D01*
X698278Y213900D01*
X698782Y212780D01*
X699217Y211631D01*
X699583Y210459D01*
X699876Y209267D01*
X700098Y208059D01*
X700246Y206840D01*
X700320Y205614D01*
X700320Y204386D01*
M02*
