G04 EAGLE Gerber RS-274X export*
G75*
%MOMM*%
%FSLAX34Y34*%
%LPD*%
%INBottom solder mask*%
%IPPOS*%
%AMOC8*
5,1,8,0,0,1.08239X$1,22.5*%
G01*
%ADD10C,0.000000*%
%ADD11C,0.254000*%
%ADD12C,3.250000*%
%ADD13C,4.150000*%
%ADD14C,2.436000*%
%ADD15C,2.264400*%
%ADD16C,4.214000*%
%ADD17C,1.928000*%
%ADD18R,1.550000X1.550000*%
%ADD19C,0.679900*%
%ADD20C,0.225000*%
%ADD21R,1.550000X1.550000*%
%ADD22R,2.750000X2.750000*%
%ADD23R,3.452000X1.674000*%
%ADD24R,4.064000X7.366000*%
%ADD25R,1.150000X1.250000*%
%ADD26R,1.250000X1.450000*%
%ADD27R,1.250000X1.150000*%
%ADD28R,2.450000X2.450000*%
%ADD29C,0.330000*%
%ADD30P,1.475081X8X22.500000*%
%ADD31R,0.500000X1.550000*%
%ADD32R,1.950000X2.050000*%
%ADD33R,2.050000X2.050000*%
%ADD34C,1.566000*%
%ADD35C,6.150000*%
%ADD36C,5.150000*%


D10*
X970000Y980000D02*
X880000Y980000D01*
X880000Y975000D01*
X879998Y974860D01*
X879992Y974720D01*
X879982Y974580D01*
X879969Y974440D01*
X879951Y974301D01*
X879929Y974162D01*
X879904Y974025D01*
X879875Y973887D01*
X879842Y973751D01*
X879805Y973616D01*
X879764Y973482D01*
X879719Y973349D01*
X879671Y973217D01*
X879619Y973087D01*
X879564Y972958D01*
X879505Y972831D01*
X879442Y972705D01*
X879376Y972581D01*
X879307Y972460D01*
X879234Y972340D01*
X879157Y972222D01*
X879078Y972107D01*
X878995Y971993D01*
X878909Y971883D01*
X878820Y971774D01*
X878728Y971668D01*
X878633Y971565D01*
X878536Y971464D01*
X878435Y971367D01*
X878332Y971272D01*
X878226Y971180D01*
X878117Y971091D01*
X878007Y971005D01*
X877893Y970922D01*
X877778Y970843D01*
X877660Y970766D01*
X877540Y970693D01*
X877419Y970624D01*
X877295Y970558D01*
X877169Y970495D01*
X877042Y970436D01*
X876913Y970381D01*
X876783Y970329D01*
X876651Y970281D01*
X876518Y970236D01*
X876384Y970195D01*
X876249Y970158D01*
X876113Y970125D01*
X875975Y970096D01*
X875838Y970071D01*
X875699Y970049D01*
X875560Y970031D01*
X875420Y970018D01*
X875280Y970008D01*
X875140Y970002D01*
X875000Y970000D01*
X865000Y970000D01*
X864860Y970002D01*
X864720Y970008D01*
X864580Y970018D01*
X864440Y970031D01*
X864301Y970049D01*
X864162Y970071D01*
X864025Y970096D01*
X863887Y970125D01*
X863751Y970158D01*
X863616Y970195D01*
X863482Y970236D01*
X863349Y970281D01*
X863217Y970329D01*
X863087Y970381D01*
X862958Y970436D01*
X862831Y970495D01*
X862705Y970558D01*
X862581Y970624D01*
X862460Y970693D01*
X862340Y970766D01*
X862222Y970843D01*
X862107Y970922D01*
X861993Y971005D01*
X861883Y971091D01*
X861774Y971180D01*
X861668Y971272D01*
X861565Y971367D01*
X861464Y971464D01*
X861367Y971565D01*
X861272Y971668D01*
X861180Y971774D01*
X861091Y971883D01*
X861005Y971993D01*
X860922Y972107D01*
X860843Y972222D01*
X860766Y972340D01*
X860693Y972460D01*
X860624Y972581D01*
X860558Y972705D01*
X860495Y972831D01*
X860436Y972958D01*
X860381Y973087D01*
X860329Y973217D01*
X860281Y973349D01*
X860236Y973482D01*
X860195Y973616D01*
X860158Y973751D01*
X860125Y973887D01*
X860096Y974025D01*
X860071Y974162D01*
X860049Y974301D01*
X860031Y974440D01*
X860018Y974580D01*
X860008Y974720D01*
X860002Y974860D01*
X860000Y975000D01*
X860000Y980000D01*
X120000Y980000D01*
X120000Y975000D01*
X119998Y974860D01*
X119992Y974720D01*
X119982Y974580D01*
X119969Y974440D01*
X119951Y974301D01*
X119929Y974162D01*
X119904Y974025D01*
X119875Y973887D01*
X119842Y973751D01*
X119805Y973616D01*
X119764Y973482D01*
X119719Y973349D01*
X119671Y973217D01*
X119619Y973087D01*
X119564Y972958D01*
X119505Y972831D01*
X119442Y972705D01*
X119376Y972581D01*
X119307Y972460D01*
X119234Y972340D01*
X119157Y972222D01*
X119078Y972107D01*
X118995Y971993D01*
X118909Y971883D01*
X118820Y971774D01*
X118728Y971668D01*
X118633Y971565D01*
X118536Y971464D01*
X118435Y971367D01*
X118332Y971272D01*
X118226Y971180D01*
X118117Y971091D01*
X118007Y971005D01*
X117893Y970922D01*
X117778Y970843D01*
X117660Y970766D01*
X117540Y970693D01*
X117419Y970624D01*
X117295Y970558D01*
X117169Y970495D01*
X117042Y970436D01*
X116913Y970381D01*
X116783Y970329D01*
X116651Y970281D01*
X116518Y970236D01*
X116384Y970195D01*
X116249Y970158D01*
X116113Y970125D01*
X115975Y970096D01*
X115838Y970071D01*
X115699Y970049D01*
X115560Y970031D01*
X115420Y970018D01*
X115280Y970008D01*
X115140Y970002D01*
X115000Y970000D01*
X105000Y970000D01*
X104860Y970002D01*
X104720Y970008D01*
X104580Y970018D01*
X104440Y970031D01*
X104301Y970049D01*
X104162Y970071D01*
X104025Y970096D01*
X103887Y970125D01*
X103751Y970158D01*
X103616Y970195D01*
X103482Y970236D01*
X103349Y970281D01*
X103217Y970329D01*
X103087Y970381D01*
X102958Y970436D01*
X102831Y970495D01*
X102705Y970558D01*
X102581Y970624D01*
X102460Y970693D01*
X102340Y970766D01*
X102222Y970843D01*
X102107Y970922D01*
X101993Y971005D01*
X101883Y971091D01*
X101774Y971180D01*
X101668Y971272D01*
X101565Y971367D01*
X101464Y971464D01*
X101367Y971565D01*
X101272Y971668D01*
X101180Y971774D01*
X101091Y971883D01*
X101005Y971993D01*
X100922Y972107D01*
X100843Y972222D01*
X100766Y972340D01*
X100693Y972460D01*
X100624Y972581D01*
X100558Y972705D01*
X100495Y972831D01*
X100436Y972958D01*
X100381Y973087D01*
X100329Y973217D01*
X100281Y973349D01*
X100236Y973482D01*
X100195Y973616D01*
X100158Y973751D01*
X100125Y973887D01*
X100096Y974025D01*
X100071Y974162D01*
X100049Y974301D01*
X100031Y974440D01*
X100018Y974580D01*
X100008Y974720D01*
X100002Y974860D01*
X100000Y975000D01*
X100000Y980000D01*
X10000Y980000D01*
X9758Y979997D01*
X9517Y979988D01*
X9276Y979974D01*
X9035Y979953D01*
X8795Y979927D01*
X8555Y979895D01*
X8316Y979857D01*
X8079Y979814D01*
X7842Y979764D01*
X7607Y979709D01*
X7373Y979649D01*
X7141Y979582D01*
X6910Y979511D01*
X6681Y979433D01*
X6454Y979350D01*
X6229Y979262D01*
X6006Y979168D01*
X5786Y979069D01*
X5568Y978964D01*
X5353Y978855D01*
X5140Y978740D01*
X4930Y978620D01*
X4724Y978495D01*
X4520Y978365D01*
X4319Y978230D01*
X4122Y978090D01*
X3928Y977946D01*
X3738Y977797D01*
X3552Y977643D01*
X3369Y977485D01*
X3190Y977323D01*
X3015Y977156D01*
X2844Y976985D01*
X2677Y976810D01*
X2515Y976631D01*
X2357Y976448D01*
X2203Y976262D01*
X2054Y976072D01*
X1910Y975878D01*
X1770Y975681D01*
X1635Y975480D01*
X1505Y975276D01*
X1380Y975070D01*
X1260Y974860D01*
X1145Y974647D01*
X1036Y974432D01*
X931Y974214D01*
X832Y973994D01*
X738Y973771D01*
X650Y973546D01*
X567Y973319D01*
X489Y973090D01*
X418Y972859D01*
X351Y972627D01*
X291Y972393D01*
X236Y972158D01*
X186Y971921D01*
X143Y971684D01*
X105Y971445D01*
X73Y971205D01*
X47Y970965D01*
X26Y970724D01*
X12Y970483D01*
X3Y970242D01*
X0Y970000D01*
X0Y10000D01*
X3Y9758D01*
X12Y9517D01*
X26Y9276D01*
X47Y9035D01*
X73Y8795D01*
X105Y8555D01*
X143Y8316D01*
X186Y8079D01*
X236Y7842D01*
X291Y7607D01*
X351Y7373D01*
X418Y7141D01*
X489Y6910D01*
X567Y6681D01*
X650Y6454D01*
X738Y6229D01*
X832Y6006D01*
X931Y5786D01*
X1036Y5568D01*
X1145Y5353D01*
X1260Y5140D01*
X1380Y4930D01*
X1505Y4724D01*
X1635Y4520D01*
X1770Y4319D01*
X1910Y4122D01*
X2054Y3928D01*
X2203Y3738D01*
X2357Y3552D01*
X2515Y3369D01*
X2677Y3190D01*
X2844Y3015D01*
X3015Y2844D01*
X3190Y2677D01*
X3369Y2515D01*
X3552Y2357D01*
X3738Y2203D01*
X3928Y2054D01*
X4122Y1910D01*
X4319Y1770D01*
X4520Y1635D01*
X4724Y1505D01*
X4930Y1380D01*
X5140Y1260D01*
X5353Y1145D01*
X5568Y1036D01*
X5786Y931D01*
X6006Y832D01*
X6229Y738D01*
X6454Y650D01*
X6681Y567D01*
X6910Y489D01*
X7141Y418D01*
X7373Y351D01*
X7607Y291D01*
X7842Y236D01*
X8079Y186D01*
X8316Y143D01*
X8555Y105D01*
X8795Y73D01*
X9035Y47D01*
X9276Y26D01*
X9517Y12D01*
X9758Y3D01*
X10000Y0D01*
X100000Y0D01*
X100000Y5000D01*
X100002Y5140D01*
X100008Y5280D01*
X100018Y5420D01*
X100031Y5560D01*
X100049Y5699D01*
X100071Y5838D01*
X100096Y5975D01*
X100125Y6113D01*
X100158Y6249D01*
X100195Y6384D01*
X100236Y6518D01*
X100281Y6651D01*
X100329Y6783D01*
X100381Y6913D01*
X100436Y7042D01*
X100495Y7169D01*
X100558Y7295D01*
X100624Y7419D01*
X100693Y7540D01*
X100766Y7660D01*
X100843Y7778D01*
X100922Y7893D01*
X101005Y8007D01*
X101091Y8117D01*
X101180Y8226D01*
X101272Y8332D01*
X101367Y8435D01*
X101464Y8536D01*
X101565Y8633D01*
X101668Y8728D01*
X101774Y8820D01*
X101883Y8909D01*
X101993Y8995D01*
X102107Y9078D01*
X102222Y9157D01*
X102340Y9234D01*
X102460Y9307D01*
X102581Y9376D01*
X102705Y9442D01*
X102831Y9505D01*
X102958Y9564D01*
X103087Y9619D01*
X103217Y9671D01*
X103349Y9719D01*
X103482Y9764D01*
X103616Y9805D01*
X103751Y9842D01*
X103887Y9875D01*
X104025Y9904D01*
X104162Y9929D01*
X104301Y9951D01*
X104440Y9969D01*
X104580Y9982D01*
X104720Y9992D01*
X104860Y9998D01*
X105000Y10000D01*
X115000Y10000D01*
X115140Y9998D01*
X115280Y9992D01*
X115420Y9982D01*
X115560Y9969D01*
X115699Y9951D01*
X115838Y9929D01*
X115975Y9904D01*
X116113Y9875D01*
X116249Y9842D01*
X116384Y9805D01*
X116518Y9764D01*
X116651Y9719D01*
X116783Y9671D01*
X116913Y9619D01*
X117042Y9564D01*
X117169Y9505D01*
X117295Y9442D01*
X117419Y9376D01*
X117540Y9307D01*
X117660Y9234D01*
X117778Y9157D01*
X117893Y9078D01*
X118007Y8995D01*
X118117Y8909D01*
X118226Y8820D01*
X118332Y8728D01*
X118435Y8633D01*
X118536Y8536D01*
X118633Y8435D01*
X118728Y8332D01*
X118820Y8226D01*
X118909Y8117D01*
X118995Y8007D01*
X119078Y7893D01*
X119157Y7778D01*
X119234Y7660D01*
X119307Y7540D01*
X119376Y7419D01*
X119442Y7295D01*
X119505Y7169D01*
X119564Y7042D01*
X119619Y6913D01*
X119671Y6783D01*
X119719Y6651D01*
X119764Y6518D01*
X119805Y6384D01*
X119842Y6249D01*
X119875Y6113D01*
X119904Y5975D01*
X119929Y5838D01*
X119951Y5699D01*
X119969Y5560D01*
X119982Y5420D01*
X119992Y5280D01*
X119998Y5140D01*
X120000Y5000D01*
X120000Y0D01*
X860000Y0D01*
X860000Y5000D01*
X860002Y5140D01*
X860008Y5280D01*
X860018Y5420D01*
X860031Y5560D01*
X860049Y5699D01*
X860071Y5838D01*
X860096Y5975D01*
X860125Y6113D01*
X860158Y6249D01*
X860195Y6384D01*
X860236Y6518D01*
X860281Y6651D01*
X860329Y6783D01*
X860381Y6913D01*
X860436Y7042D01*
X860495Y7169D01*
X860558Y7295D01*
X860624Y7419D01*
X860693Y7540D01*
X860766Y7660D01*
X860843Y7778D01*
X860922Y7893D01*
X861005Y8007D01*
X861091Y8117D01*
X861180Y8226D01*
X861272Y8332D01*
X861367Y8435D01*
X861464Y8536D01*
X861565Y8633D01*
X861668Y8728D01*
X861774Y8820D01*
X861883Y8909D01*
X861993Y8995D01*
X862107Y9078D01*
X862222Y9157D01*
X862340Y9234D01*
X862460Y9307D01*
X862581Y9376D01*
X862705Y9442D01*
X862831Y9505D01*
X862958Y9564D01*
X863087Y9619D01*
X863217Y9671D01*
X863349Y9719D01*
X863482Y9764D01*
X863616Y9805D01*
X863751Y9842D01*
X863887Y9875D01*
X864025Y9904D01*
X864162Y9929D01*
X864301Y9951D01*
X864440Y9969D01*
X864580Y9982D01*
X864720Y9992D01*
X864860Y9998D01*
X865000Y10000D01*
X875000Y10000D01*
X875140Y9998D01*
X875280Y9992D01*
X875420Y9982D01*
X875560Y9969D01*
X875699Y9951D01*
X875838Y9929D01*
X875975Y9904D01*
X876113Y9875D01*
X876249Y9842D01*
X876384Y9805D01*
X876518Y9764D01*
X876651Y9719D01*
X876783Y9671D01*
X876913Y9619D01*
X877042Y9564D01*
X877169Y9505D01*
X877295Y9442D01*
X877419Y9376D01*
X877540Y9307D01*
X877660Y9234D01*
X877778Y9157D01*
X877893Y9078D01*
X878007Y8995D01*
X878117Y8909D01*
X878226Y8820D01*
X878332Y8728D01*
X878435Y8633D01*
X878536Y8536D01*
X878633Y8435D01*
X878728Y8332D01*
X878820Y8226D01*
X878909Y8117D01*
X878995Y8007D01*
X879078Y7893D01*
X879157Y7778D01*
X879234Y7660D01*
X879307Y7540D01*
X879376Y7419D01*
X879442Y7295D01*
X879505Y7169D01*
X879564Y7042D01*
X879619Y6913D01*
X879671Y6783D01*
X879719Y6651D01*
X879764Y6518D01*
X879805Y6384D01*
X879842Y6249D01*
X879875Y6113D01*
X879904Y5975D01*
X879929Y5838D01*
X879951Y5699D01*
X879969Y5560D01*
X879982Y5420D01*
X879992Y5280D01*
X879998Y5140D01*
X880000Y5000D01*
X880000Y0D01*
X970000Y0D01*
X970242Y3D01*
X970483Y12D01*
X970724Y26D01*
X970965Y47D01*
X971205Y73D01*
X971445Y105D01*
X971684Y143D01*
X971921Y186D01*
X972158Y236D01*
X972393Y291D01*
X972627Y351D01*
X972859Y418D01*
X973090Y489D01*
X973319Y567D01*
X973546Y650D01*
X973771Y738D01*
X973994Y832D01*
X974214Y931D01*
X974432Y1036D01*
X974647Y1145D01*
X974860Y1260D01*
X975070Y1380D01*
X975276Y1505D01*
X975480Y1635D01*
X975681Y1770D01*
X975878Y1910D01*
X976072Y2054D01*
X976262Y2203D01*
X976448Y2357D01*
X976631Y2515D01*
X976810Y2677D01*
X976985Y2844D01*
X977156Y3015D01*
X977323Y3190D01*
X977485Y3369D01*
X977643Y3552D01*
X977797Y3738D01*
X977946Y3928D01*
X978090Y4122D01*
X978230Y4319D01*
X978365Y4520D01*
X978495Y4724D01*
X978620Y4930D01*
X978740Y5140D01*
X978855Y5353D01*
X978964Y5568D01*
X979069Y5786D01*
X979168Y6006D01*
X979262Y6229D01*
X979350Y6454D01*
X979433Y6681D01*
X979511Y6910D01*
X979582Y7141D01*
X979649Y7373D01*
X979709Y7607D01*
X979764Y7842D01*
X979814Y8079D01*
X979857Y8316D01*
X979895Y8555D01*
X979927Y8795D01*
X979953Y9035D01*
X979974Y9276D01*
X979988Y9517D01*
X979997Y9758D01*
X980000Y10000D01*
X980000Y970000D01*
X979997Y970242D01*
X979988Y970483D01*
X979974Y970724D01*
X979953Y970965D01*
X979927Y971205D01*
X979895Y971445D01*
X979857Y971684D01*
X979814Y971921D01*
X979764Y972158D01*
X979709Y972393D01*
X979649Y972627D01*
X979582Y972859D01*
X979511Y973090D01*
X979433Y973319D01*
X979350Y973546D01*
X979262Y973771D01*
X979168Y973994D01*
X979069Y974214D01*
X978964Y974432D01*
X978855Y974647D01*
X978740Y974860D01*
X978620Y975070D01*
X978495Y975276D01*
X978365Y975480D01*
X978230Y975681D01*
X978090Y975878D01*
X977946Y976072D01*
X977797Y976262D01*
X977643Y976448D01*
X977485Y976631D01*
X977323Y976810D01*
X977156Y976985D01*
X976985Y977156D01*
X976810Y977323D01*
X976631Y977485D01*
X976448Y977643D01*
X976262Y977797D01*
X976072Y977946D01*
X975878Y978090D01*
X975681Y978230D01*
X975480Y978365D01*
X975276Y978495D01*
X975070Y978620D01*
X974860Y978740D01*
X974647Y978855D01*
X974432Y978964D01*
X974214Y979069D01*
X973994Y979168D01*
X973771Y979262D01*
X973546Y979350D01*
X973319Y979433D01*
X973090Y979511D01*
X972859Y979582D01*
X972627Y979649D01*
X972393Y979709D01*
X972158Y979764D01*
X971921Y979814D01*
X971684Y979857D01*
X971445Y979895D01*
X971205Y979927D01*
X970965Y979953D01*
X970724Y979974D01*
X970483Y979988D01*
X970242Y979997D01*
X970000Y980000D01*
D11*
X909716Y30080D02*
X912538Y27822D01*
X909716Y30080D02*
X909716Y19920D01*
X912538Y19920D02*
X906893Y19920D01*
X901108Y25000D02*
X901106Y25200D01*
X901098Y25400D01*
X901087Y25599D01*
X901070Y25798D01*
X901048Y25997D01*
X901022Y26195D01*
X900991Y26393D01*
X900956Y26589D01*
X900915Y26785D01*
X900871Y26980D01*
X900821Y27174D01*
X900767Y27366D01*
X900708Y27557D01*
X900645Y27747D01*
X900577Y27935D01*
X900505Y28121D01*
X900428Y28306D01*
X900347Y28488D01*
X900261Y28669D01*
X900230Y28753D01*
X900196Y28835D01*
X900158Y28916D01*
X900117Y28996D01*
X900072Y29073D01*
X900025Y29148D01*
X899974Y29222D01*
X899919Y29293D01*
X899862Y29361D01*
X899802Y29428D01*
X899739Y29491D01*
X899674Y29552D01*
X899606Y29610D01*
X899536Y29665D01*
X899463Y29717D01*
X899388Y29765D01*
X899311Y29811D01*
X899233Y29853D01*
X899152Y29892D01*
X899070Y29927D01*
X898987Y29959D01*
X898902Y29987D01*
X898816Y30012D01*
X898729Y30032D01*
X898642Y30050D01*
X898553Y30063D01*
X898464Y30072D01*
X898375Y30078D01*
X898286Y30080D01*
X898197Y30078D01*
X898108Y30072D01*
X898019Y30063D01*
X897930Y30050D01*
X897843Y30032D01*
X897756Y30012D01*
X897670Y29987D01*
X897585Y29959D01*
X897502Y29927D01*
X897420Y29892D01*
X897339Y29853D01*
X897261Y29811D01*
X897184Y29765D01*
X897109Y29717D01*
X897036Y29665D01*
X896966Y29610D01*
X896898Y29552D01*
X896833Y29491D01*
X896770Y29428D01*
X896710Y29361D01*
X896653Y29293D01*
X896598Y29222D01*
X896547Y29148D01*
X896500Y29073D01*
X896455Y28996D01*
X896414Y28916D01*
X896376Y28835D01*
X896342Y28753D01*
X896311Y28669D01*
X896225Y28488D01*
X896144Y28305D01*
X896067Y28121D01*
X895995Y27934D01*
X895927Y27746D01*
X895864Y27557D01*
X895805Y27366D01*
X895751Y27173D01*
X895701Y26980D01*
X895657Y26785D01*
X895616Y26589D01*
X895581Y26393D01*
X895550Y26195D01*
X895524Y25997D01*
X895502Y25798D01*
X895485Y25599D01*
X895474Y25400D01*
X895466Y25200D01*
X895464Y25000D01*
X901108Y25000D02*
X901106Y24800D01*
X901098Y24600D01*
X901087Y24401D01*
X901070Y24202D01*
X901048Y24003D01*
X901022Y23805D01*
X900991Y23607D01*
X900956Y23411D01*
X900915Y23215D01*
X900871Y23020D01*
X900821Y22826D01*
X900767Y22634D01*
X900708Y22443D01*
X900645Y22253D01*
X900577Y22065D01*
X900505Y21879D01*
X900428Y21694D01*
X900347Y21512D01*
X900261Y21331D01*
X900230Y21247D01*
X900196Y21165D01*
X900158Y21084D01*
X900117Y21004D01*
X900072Y20927D01*
X900025Y20852D01*
X899973Y20778D01*
X899919Y20707D01*
X899862Y20639D01*
X899802Y20572D01*
X899739Y20509D01*
X899674Y20448D01*
X899606Y20390D01*
X899536Y20335D01*
X899463Y20283D01*
X899388Y20235D01*
X899311Y20189D01*
X899233Y20147D01*
X899152Y20108D01*
X899070Y20073D01*
X898987Y20041D01*
X898902Y20013D01*
X898816Y19988D01*
X898729Y19968D01*
X898642Y19950D01*
X898553Y19937D01*
X898464Y19928D01*
X898375Y19922D01*
X898286Y19920D01*
X896310Y21331D02*
X896224Y21512D01*
X896143Y21694D01*
X896066Y21879D01*
X895994Y22065D01*
X895926Y22253D01*
X895863Y22443D01*
X895804Y22634D01*
X895750Y22826D01*
X895700Y23020D01*
X895656Y23215D01*
X895615Y23411D01*
X895580Y23607D01*
X895549Y23805D01*
X895523Y24003D01*
X895501Y24202D01*
X895484Y24401D01*
X895473Y24600D01*
X895465Y24800D01*
X895463Y25000D01*
X896311Y21331D02*
X896342Y21247D01*
X896376Y21165D01*
X896414Y21084D01*
X896455Y21004D01*
X896500Y20927D01*
X896547Y20852D01*
X896599Y20778D01*
X896653Y20707D01*
X896710Y20639D01*
X896770Y20572D01*
X896833Y20509D01*
X896898Y20448D01*
X896966Y20390D01*
X897036Y20335D01*
X897109Y20283D01*
X897184Y20235D01*
X897261Y20189D01*
X897339Y20147D01*
X897420Y20108D01*
X897502Y20073D01*
X897585Y20041D01*
X897670Y20013D01*
X897756Y19988D01*
X897843Y19968D01*
X897930Y19950D01*
X898019Y19937D01*
X898108Y19928D01*
X898197Y19922D01*
X898286Y19920D01*
X900543Y22178D02*
X896028Y27822D01*
X889678Y27822D02*
X886856Y30080D01*
X886856Y19920D01*
X889678Y19920D02*
X884033Y19920D01*
X878248Y27822D02*
X875426Y30080D01*
X875426Y19920D01*
X878248Y19920D02*
X872603Y19920D01*
X866818Y27822D02*
X863996Y30080D01*
X863996Y19920D01*
X866818Y19920D02*
X861173Y19920D01*
X853130Y24436D02*
X849743Y24436D01*
X853130Y24435D02*
X853223Y24437D01*
X853316Y24443D01*
X853409Y24452D01*
X853502Y24466D01*
X853593Y24483D01*
X853684Y24504D01*
X853774Y24529D01*
X853863Y24557D01*
X853951Y24589D01*
X854037Y24625D01*
X854122Y24664D01*
X854205Y24707D01*
X854286Y24753D01*
X854365Y24803D01*
X854442Y24855D01*
X854517Y24911D01*
X854589Y24970D01*
X854659Y25032D01*
X854727Y25096D01*
X854791Y25164D01*
X854853Y25234D01*
X854912Y25306D01*
X854968Y25381D01*
X855020Y25458D01*
X855070Y25537D01*
X855116Y25618D01*
X855159Y25701D01*
X855198Y25786D01*
X855234Y25872D01*
X855266Y25960D01*
X855294Y26049D01*
X855319Y26139D01*
X855340Y26230D01*
X855357Y26321D01*
X855371Y26414D01*
X855380Y26507D01*
X855386Y26600D01*
X855388Y26693D01*
X855388Y27258D01*
X855386Y27364D01*
X855380Y27469D01*
X855370Y27574D01*
X855356Y27679D01*
X855339Y27783D01*
X855317Y27886D01*
X855292Y27988D01*
X855263Y28090D01*
X855230Y28190D01*
X855193Y28289D01*
X855153Y28386D01*
X855109Y28482D01*
X855061Y28577D01*
X855010Y28669D01*
X854955Y28759D01*
X854898Y28848D01*
X854837Y28934D01*
X854772Y29017D01*
X854705Y29099D01*
X854635Y29177D01*
X854561Y29253D01*
X854485Y29327D01*
X854407Y29397D01*
X854325Y29464D01*
X854242Y29529D01*
X854156Y29590D01*
X854067Y29647D01*
X853977Y29702D01*
X853885Y29753D01*
X853790Y29801D01*
X853694Y29845D01*
X853597Y29885D01*
X853498Y29922D01*
X853398Y29955D01*
X853296Y29984D01*
X853194Y30009D01*
X853091Y30031D01*
X852987Y30048D01*
X852882Y30062D01*
X852777Y30072D01*
X852672Y30078D01*
X852566Y30080D01*
X852460Y30078D01*
X852355Y30072D01*
X852250Y30062D01*
X852145Y30048D01*
X852041Y30031D01*
X851938Y30009D01*
X851836Y29984D01*
X851734Y29955D01*
X851634Y29922D01*
X851535Y29885D01*
X851438Y29845D01*
X851342Y29801D01*
X851247Y29753D01*
X851155Y29702D01*
X851065Y29647D01*
X850976Y29590D01*
X850890Y29529D01*
X850807Y29464D01*
X850725Y29397D01*
X850647Y29327D01*
X850571Y29253D01*
X850497Y29177D01*
X850427Y29099D01*
X850360Y29017D01*
X850295Y28934D01*
X850234Y28848D01*
X850177Y28759D01*
X850122Y28669D01*
X850071Y28577D01*
X850023Y28482D01*
X849979Y28386D01*
X849939Y28289D01*
X849902Y28190D01*
X849869Y28090D01*
X849840Y27988D01*
X849815Y27886D01*
X849793Y27783D01*
X849776Y27679D01*
X849762Y27574D01*
X849752Y27469D01*
X849746Y27364D01*
X849744Y27258D01*
X849743Y27258D02*
X849743Y24436D01*
X849745Y24305D01*
X849751Y24173D01*
X849760Y24042D01*
X849774Y23912D01*
X849791Y23781D01*
X849812Y23652D01*
X849836Y23523D01*
X849865Y23395D01*
X849897Y23267D01*
X849933Y23141D01*
X849972Y23016D01*
X850015Y22891D01*
X850062Y22769D01*
X850112Y22647D01*
X850166Y22527D01*
X850223Y22409D01*
X850284Y22293D01*
X850348Y22178D01*
X850415Y22065D01*
X850486Y21954D01*
X850560Y21846D01*
X850637Y21739D01*
X850717Y21635D01*
X850800Y21533D01*
X850885Y21434D01*
X850974Y21337D01*
X851066Y21243D01*
X851160Y21151D01*
X851257Y21062D01*
X851356Y20977D01*
X851458Y20894D01*
X851562Y20814D01*
X851669Y20737D01*
X851777Y20663D01*
X851888Y20592D01*
X852001Y20525D01*
X852116Y20461D01*
X852232Y20400D01*
X852350Y20343D01*
X852470Y20289D01*
X852592Y20239D01*
X852714Y20192D01*
X852839Y20149D01*
X852964Y20110D01*
X853090Y20074D01*
X853218Y20042D01*
X853346Y20013D01*
X853475Y19989D01*
X853604Y19968D01*
X853735Y19951D01*
X853865Y19937D01*
X853996Y19928D01*
X854128Y19922D01*
X854259Y19920D01*
X843537Y19920D02*
X843537Y30080D01*
X839022Y26693D02*
X843537Y23307D01*
X841562Y24718D02*
X839022Y19920D01*
X832542Y19920D02*
X834235Y26693D01*
X830849Y24436D02*
X832542Y19920D01*
X829155Y19920D02*
X830849Y24436D01*
X827462Y26693D02*
X829155Y19920D01*
X115356Y894920D02*
X113098Y894920D01*
X115356Y894920D02*
X115449Y894922D01*
X115542Y894928D01*
X115635Y894937D01*
X115728Y894951D01*
X115819Y894968D01*
X115910Y894989D01*
X116000Y895014D01*
X116089Y895042D01*
X116177Y895074D01*
X116263Y895110D01*
X116348Y895149D01*
X116431Y895192D01*
X116512Y895238D01*
X116591Y895288D01*
X116668Y895340D01*
X116743Y895396D01*
X116815Y895455D01*
X116885Y895517D01*
X116953Y895581D01*
X117017Y895649D01*
X117079Y895719D01*
X117138Y895791D01*
X117194Y895866D01*
X117246Y895943D01*
X117296Y896022D01*
X117342Y896103D01*
X117385Y896186D01*
X117424Y896271D01*
X117460Y896357D01*
X117492Y896445D01*
X117520Y896534D01*
X117545Y896624D01*
X117566Y896715D01*
X117583Y896806D01*
X117597Y896899D01*
X117606Y896992D01*
X117612Y897085D01*
X117614Y897178D01*
X117614Y902822D01*
X117612Y902915D01*
X117606Y903008D01*
X117597Y903101D01*
X117583Y903194D01*
X117566Y903285D01*
X117545Y903376D01*
X117520Y903466D01*
X117492Y903555D01*
X117460Y903643D01*
X117424Y903729D01*
X117385Y903814D01*
X117342Y903897D01*
X117296Y903978D01*
X117246Y904057D01*
X117194Y904134D01*
X117138Y904209D01*
X117079Y904281D01*
X117017Y904351D01*
X116953Y904419D01*
X116885Y904483D01*
X116815Y904545D01*
X116743Y904604D01*
X116668Y904660D01*
X116591Y904712D01*
X116512Y904762D01*
X116431Y904808D01*
X116348Y904851D01*
X116263Y904890D01*
X116177Y904926D01*
X116089Y904958D01*
X116000Y904986D01*
X115910Y905011D01*
X115819Y905032D01*
X115728Y905049D01*
X115635Y905063D01*
X115542Y905072D01*
X115449Y905078D01*
X115356Y905080D01*
X113098Y905080D01*
X108031Y902822D02*
X105208Y905080D01*
X105208Y894920D01*
X102386Y894920D02*
X108031Y894920D01*
X303098Y894920D02*
X305356Y894920D01*
X305449Y894922D01*
X305542Y894928D01*
X305635Y894937D01*
X305728Y894951D01*
X305819Y894968D01*
X305910Y894989D01*
X306000Y895014D01*
X306089Y895042D01*
X306177Y895074D01*
X306263Y895110D01*
X306348Y895149D01*
X306431Y895192D01*
X306512Y895238D01*
X306591Y895288D01*
X306668Y895340D01*
X306743Y895396D01*
X306815Y895455D01*
X306885Y895517D01*
X306953Y895581D01*
X307017Y895649D01*
X307079Y895719D01*
X307138Y895791D01*
X307194Y895866D01*
X307246Y895943D01*
X307296Y896022D01*
X307342Y896103D01*
X307385Y896186D01*
X307424Y896271D01*
X307460Y896357D01*
X307492Y896445D01*
X307520Y896534D01*
X307545Y896624D01*
X307566Y896715D01*
X307583Y896806D01*
X307597Y896899D01*
X307606Y896992D01*
X307612Y897085D01*
X307614Y897178D01*
X307614Y902822D01*
X307612Y902915D01*
X307606Y903008D01*
X307597Y903101D01*
X307583Y903194D01*
X307566Y903285D01*
X307545Y903376D01*
X307520Y903466D01*
X307492Y903555D01*
X307460Y903643D01*
X307424Y903729D01*
X307385Y903814D01*
X307342Y903897D01*
X307296Y903978D01*
X307246Y904057D01*
X307194Y904134D01*
X307138Y904209D01*
X307079Y904281D01*
X307017Y904351D01*
X306953Y904419D01*
X306885Y904483D01*
X306815Y904545D01*
X306743Y904604D01*
X306668Y904660D01*
X306591Y904712D01*
X306512Y904762D01*
X306431Y904808D01*
X306348Y904851D01*
X306263Y904890D01*
X306177Y904926D01*
X306089Y904958D01*
X306000Y904986D01*
X305910Y905011D01*
X305819Y905032D01*
X305728Y905049D01*
X305635Y905063D01*
X305542Y905072D01*
X305449Y905078D01*
X305356Y905080D01*
X303098Y905080D01*
X294926Y905080D02*
X294826Y905078D01*
X294727Y905072D01*
X294627Y905062D01*
X294529Y905049D01*
X294430Y905031D01*
X294333Y905010D01*
X294237Y904985D01*
X294141Y904956D01*
X294047Y904923D01*
X293954Y904887D01*
X293863Y904847D01*
X293773Y904803D01*
X293685Y904756D01*
X293599Y904706D01*
X293515Y904652D01*
X293433Y904595D01*
X293354Y904535D01*
X293276Y904471D01*
X293202Y904405D01*
X293130Y904336D01*
X293061Y904264D01*
X292995Y904190D01*
X292931Y904112D01*
X292871Y904033D01*
X292814Y903951D01*
X292760Y903867D01*
X292710Y903781D01*
X292663Y903693D01*
X292619Y903603D01*
X292579Y903512D01*
X292543Y903419D01*
X292510Y903325D01*
X292481Y903229D01*
X292456Y903133D01*
X292435Y903036D01*
X292417Y902937D01*
X292404Y902839D01*
X292394Y902739D01*
X292388Y902640D01*
X292386Y902540D01*
X294926Y905080D02*
X295037Y905078D01*
X295148Y905072D01*
X295258Y905063D01*
X295368Y905050D01*
X295478Y905033D01*
X295587Y905012D01*
X295695Y904988D01*
X295802Y904960D01*
X295909Y904929D01*
X296014Y904893D01*
X296118Y904855D01*
X296220Y904812D01*
X296321Y904767D01*
X296421Y904717D01*
X296518Y904665D01*
X296614Y904609D01*
X296708Y904550D01*
X296800Y904488D01*
X296890Y904423D01*
X296977Y904355D01*
X297062Y904283D01*
X297145Y904209D01*
X297225Y904133D01*
X297302Y904053D01*
X297377Y903971D01*
X297449Y903887D01*
X297518Y903800D01*
X297583Y903711D01*
X297646Y903619D01*
X297706Y903526D01*
X297762Y903430D01*
X297816Y903333D01*
X297865Y903234D01*
X297912Y903133D01*
X297955Y903031D01*
X297994Y902927D01*
X298030Y902822D01*
X293233Y900565D02*
X293161Y900635D01*
X293092Y900708D01*
X293026Y900784D01*
X292963Y900862D01*
X292903Y900942D01*
X292846Y901025D01*
X292791Y901109D01*
X292740Y901196D01*
X292692Y901284D01*
X292648Y901374D01*
X292607Y901465D01*
X292569Y901558D01*
X292534Y901653D01*
X292503Y901748D01*
X292476Y901845D01*
X292452Y901942D01*
X292432Y902041D01*
X292416Y902140D01*
X292403Y902239D01*
X292393Y902339D01*
X292388Y902440D01*
X292386Y902540D01*
X293233Y900564D02*
X298031Y894920D01*
X292386Y894920D01*
X493098Y894920D02*
X495356Y894920D01*
X495449Y894922D01*
X495542Y894928D01*
X495635Y894937D01*
X495728Y894951D01*
X495819Y894968D01*
X495910Y894989D01*
X496000Y895014D01*
X496089Y895042D01*
X496177Y895074D01*
X496263Y895110D01*
X496348Y895149D01*
X496431Y895192D01*
X496512Y895238D01*
X496591Y895288D01*
X496668Y895340D01*
X496743Y895396D01*
X496815Y895455D01*
X496885Y895517D01*
X496953Y895581D01*
X497017Y895649D01*
X497079Y895719D01*
X497138Y895791D01*
X497194Y895866D01*
X497246Y895943D01*
X497296Y896022D01*
X497342Y896103D01*
X497385Y896186D01*
X497424Y896271D01*
X497460Y896357D01*
X497492Y896445D01*
X497520Y896534D01*
X497545Y896624D01*
X497566Y896715D01*
X497583Y896806D01*
X497597Y896899D01*
X497606Y896992D01*
X497612Y897085D01*
X497614Y897178D01*
X497614Y902822D01*
X497612Y902915D01*
X497606Y903008D01*
X497597Y903101D01*
X497583Y903194D01*
X497566Y903285D01*
X497545Y903376D01*
X497520Y903466D01*
X497492Y903555D01*
X497460Y903643D01*
X497424Y903729D01*
X497385Y903814D01*
X497342Y903897D01*
X497296Y903978D01*
X497246Y904057D01*
X497194Y904134D01*
X497138Y904209D01*
X497079Y904281D01*
X497017Y904351D01*
X496953Y904419D01*
X496885Y904483D01*
X496815Y904545D01*
X496743Y904604D01*
X496668Y904660D01*
X496591Y904712D01*
X496512Y904762D01*
X496431Y904808D01*
X496348Y904851D01*
X496263Y904890D01*
X496177Y904926D01*
X496089Y904958D01*
X496000Y904986D01*
X495910Y905011D01*
X495819Y905032D01*
X495728Y905049D01*
X495635Y905063D01*
X495542Y905072D01*
X495449Y905078D01*
X495356Y905080D01*
X493098Y905080D01*
X488031Y894920D02*
X485208Y894920D01*
X485102Y894922D01*
X484997Y894928D01*
X484892Y894938D01*
X484787Y894952D01*
X484683Y894969D01*
X484580Y894991D01*
X484478Y895016D01*
X484376Y895045D01*
X484276Y895078D01*
X484177Y895115D01*
X484080Y895155D01*
X483984Y895199D01*
X483889Y895247D01*
X483797Y895298D01*
X483707Y895353D01*
X483618Y895410D01*
X483532Y895471D01*
X483449Y895536D01*
X483367Y895603D01*
X483289Y895673D01*
X483213Y895747D01*
X483139Y895823D01*
X483069Y895901D01*
X483002Y895983D01*
X482937Y896066D01*
X482876Y896152D01*
X482819Y896241D01*
X482764Y896331D01*
X482713Y896423D01*
X482665Y896518D01*
X482621Y896614D01*
X482581Y896711D01*
X482544Y896810D01*
X482511Y896910D01*
X482482Y897012D01*
X482457Y897114D01*
X482435Y897217D01*
X482418Y897321D01*
X482404Y897426D01*
X482394Y897531D01*
X482388Y897636D01*
X482386Y897742D01*
X482388Y897848D01*
X482394Y897953D01*
X482404Y898058D01*
X482418Y898163D01*
X482435Y898267D01*
X482457Y898370D01*
X482482Y898472D01*
X482511Y898574D01*
X482544Y898674D01*
X482581Y898773D01*
X482621Y898870D01*
X482665Y898966D01*
X482713Y899061D01*
X482764Y899153D01*
X482819Y899243D01*
X482876Y899332D01*
X482937Y899418D01*
X483002Y899501D01*
X483069Y899583D01*
X483139Y899661D01*
X483213Y899737D01*
X483289Y899811D01*
X483367Y899881D01*
X483449Y899948D01*
X483532Y900013D01*
X483618Y900074D01*
X483707Y900131D01*
X483797Y900186D01*
X483889Y900237D01*
X483984Y900285D01*
X484080Y900329D01*
X484177Y900369D01*
X484276Y900406D01*
X484376Y900439D01*
X484478Y900468D01*
X484580Y900493D01*
X484683Y900515D01*
X484787Y900532D01*
X484892Y900546D01*
X484997Y900556D01*
X485102Y900562D01*
X485208Y900564D01*
X484644Y905080D02*
X488031Y905080D01*
X484644Y905080D02*
X484551Y905078D01*
X484458Y905072D01*
X484365Y905063D01*
X484272Y905049D01*
X484181Y905032D01*
X484090Y905011D01*
X484000Y904986D01*
X483911Y904958D01*
X483823Y904926D01*
X483737Y904890D01*
X483652Y904851D01*
X483569Y904808D01*
X483488Y904762D01*
X483409Y904712D01*
X483332Y904660D01*
X483257Y904604D01*
X483185Y904545D01*
X483115Y904483D01*
X483047Y904419D01*
X482983Y904351D01*
X482921Y904281D01*
X482862Y904209D01*
X482806Y904134D01*
X482754Y904057D01*
X482704Y903978D01*
X482658Y903897D01*
X482615Y903814D01*
X482576Y903729D01*
X482540Y903643D01*
X482508Y903555D01*
X482480Y903466D01*
X482455Y903376D01*
X482434Y903285D01*
X482417Y903194D01*
X482403Y903101D01*
X482394Y903008D01*
X482388Y902915D01*
X482386Y902822D01*
X482388Y902729D01*
X482394Y902636D01*
X482403Y902543D01*
X482417Y902450D01*
X482434Y902359D01*
X482455Y902268D01*
X482480Y902178D01*
X482508Y902089D01*
X482540Y902001D01*
X482576Y901915D01*
X482615Y901830D01*
X482658Y901747D01*
X482704Y901666D01*
X482754Y901587D01*
X482806Y901510D01*
X482862Y901435D01*
X482921Y901363D01*
X482983Y901293D01*
X483047Y901225D01*
X483115Y901161D01*
X483185Y901099D01*
X483257Y901040D01*
X483332Y900984D01*
X483409Y900932D01*
X483488Y900882D01*
X483569Y900836D01*
X483652Y900793D01*
X483737Y900754D01*
X483823Y900718D01*
X483911Y900686D01*
X484000Y900658D01*
X484090Y900633D01*
X484181Y900612D01*
X484272Y900595D01*
X484365Y900581D01*
X484458Y900572D01*
X484551Y900566D01*
X484644Y900564D01*
X486902Y900564D01*
X683098Y895920D02*
X685356Y895920D01*
X685449Y895922D01*
X685542Y895928D01*
X685635Y895937D01*
X685728Y895951D01*
X685819Y895968D01*
X685910Y895989D01*
X686000Y896014D01*
X686089Y896042D01*
X686177Y896074D01*
X686263Y896110D01*
X686348Y896149D01*
X686431Y896192D01*
X686512Y896238D01*
X686591Y896288D01*
X686668Y896340D01*
X686743Y896396D01*
X686815Y896455D01*
X686885Y896517D01*
X686953Y896581D01*
X687017Y896649D01*
X687079Y896719D01*
X687138Y896791D01*
X687194Y896866D01*
X687246Y896943D01*
X687296Y897022D01*
X687342Y897103D01*
X687385Y897186D01*
X687424Y897271D01*
X687460Y897357D01*
X687492Y897445D01*
X687520Y897534D01*
X687545Y897624D01*
X687566Y897715D01*
X687583Y897806D01*
X687597Y897899D01*
X687606Y897992D01*
X687612Y898085D01*
X687614Y898178D01*
X687614Y903822D01*
X687612Y903915D01*
X687606Y904008D01*
X687597Y904101D01*
X687583Y904194D01*
X687566Y904285D01*
X687545Y904376D01*
X687520Y904466D01*
X687492Y904555D01*
X687460Y904643D01*
X687424Y904729D01*
X687385Y904814D01*
X687342Y904897D01*
X687296Y904978D01*
X687246Y905057D01*
X687194Y905134D01*
X687138Y905209D01*
X687079Y905281D01*
X687017Y905351D01*
X686953Y905419D01*
X686885Y905483D01*
X686815Y905545D01*
X686743Y905604D01*
X686668Y905660D01*
X686591Y905712D01*
X686512Y905762D01*
X686431Y905808D01*
X686348Y905851D01*
X686263Y905890D01*
X686177Y905926D01*
X686089Y905958D01*
X686000Y905986D01*
X685910Y906011D01*
X685819Y906032D01*
X685728Y906049D01*
X685635Y906063D01*
X685542Y906072D01*
X685449Y906078D01*
X685356Y906080D01*
X683098Y906080D01*
X675773Y906080D02*
X678031Y898178D01*
X672386Y898178D01*
X674080Y900436D02*
X674080Y895920D01*
X873098Y884920D02*
X875356Y884920D01*
X875449Y884922D01*
X875542Y884928D01*
X875635Y884937D01*
X875728Y884951D01*
X875819Y884968D01*
X875910Y884989D01*
X876000Y885014D01*
X876089Y885042D01*
X876177Y885074D01*
X876263Y885110D01*
X876348Y885149D01*
X876431Y885192D01*
X876512Y885238D01*
X876591Y885288D01*
X876668Y885340D01*
X876743Y885396D01*
X876815Y885455D01*
X876885Y885517D01*
X876953Y885581D01*
X877017Y885649D01*
X877079Y885719D01*
X877138Y885791D01*
X877194Y885866D01*
X877246Y885943D01*
X877296Y886022D01*
X877342Y886103D01*
X877385Y886186D01*
X877424Y886271D01*
X877460Y886357D01*
X877492Y886445D01*
X877520Y886534D01*
X877545Y886624D01*
X877566Y886715D01*
X877583Y886806D01*
X877597Y886899D01*
X877606Y886992D01*
X877612Y887085D01*
X877614Y887178D01*
X877614Y892822D01*
X877612Y892915D01*
X877606Y893008D01*
X877597Y893101D01*
X877583Y893194D01*
X877566Y893285D01*
X877545Y893376D01*
X877520Y893466D01*
X877492Y893555D01*
X877460Y893643D01*
X877424Y893729D01*
X877385Y893814D01*
X877342Y893897D01*
X877296Y893978D01*
X877246Y894057D01*
X877194Y894134D01*
X877138Y894209D01*
X877079Y894281D01*
X877017Y894351D01*
X876953Y894419D01*
X876885Y894483D01*
X876815Y894545D01*
X876743Y894604D01*
X876668Y894660D01*
X876591Y894712D01*
X876512Y894762D01*
X876431Y894808D01*
X876348Y894851D01*
X876263Y894890D01*
X876177Y894926D01*
X876089Y894958D01*
X876000Y894986D01*
X875910Y895011D01*
X875819Y895032D01*
X875728Y895049D01*
X875635Y895063D01*
X875542Y895072D01*
X875449Y895078D01*
X875356Y895080D01*
X873098Y895080D01*
X868031Y884920D02*
X864644Y884920D01*
X864551Y884922D01*
X864458Y884928D01*
X864365Y884937D01*
X864272Y884951D01*
X864181Y884968D01*
X864090Y884989D01*
X864000Y885014D01*
X863911Y885042D01*
X863823Y885074D01*
X863737Y885110D01*
X863652Y885149D01*
X863569Y885192D01*
X863488Y885238D01*
X863409Y885288D01*
X863332Y885340D01*
X863257Y885396D01*
X863185Y885455D01*
X863115Y885517D01*
X863047Y885581D01*
X862983Y885649D01*
X862921Y885719D01*
X862862Y885791D01*
X862806Y885866D01*
X862754Y885943D01*
X862704Y886022D01*
X862658Y886103D01*
X862615Y886186D01*
X862576Y886271D01*
X862540Y886357D01*
X862508Y886445D01*
X862480Y886534D01*
X862455Y886624D01*
X862434Y886715D01*
X862417Y886806D01*
X862403Y886899D01*
X862394Y886991D01*
X862388Y887085D01*
X862386Y887178D01*
X862386Y888307D01*
X862388Y888400D01*
X862394Y888493D01*
X862403Y888586D01*
X862417Y888679D01*
X862434Y888770D01*
X862455Y888861D01*
X862480Y888951D01*
X862508Y889040D01*
X862540Y889128D01*
X862576Y889214D01*
X862615Y889299D01*
X862658Y889382D01*
X862704Y889463D01*
X862754Y889542D01*
X862806Y889619D01*
X862862Y889694D01*
X862921Y889766D01*
X862983Y889836D01*
X863047Y889904D01*
X863115Y889968D01*
X863185Y890030D01*
X863257Y890089D01*
X863332Y890145D01*
X863409Y890197D01*
X863488Y890247D01*
X863569Y890293D01*
X863652Y890336D01*
X863737Y890375D01*
X863823Y890411D01*
X863911Y890443D01*
X864000Y890471D01*
X864090Y890496D01*
X864181Y890517D01*
X864272Y890534D01*
X864365Y890548D01*
X864458Y890557D01*
X864551Y890563D01*
X864644Y890565D01*
X864644Y890564D02*
X868031Y890564D01*
X868031Y895080D01*
X862386Y895080D01*
X23473Y875080D02*
X23473Y864920D01*
X23473Y875080D02*
X20651Y875080D01*
X20545Y875078D01*
X20440Y875072D01*
X20335Y875062D01*
X20230Y875048D01*
X20126Y875031D01*
X20023Y875009D01*
X19921Y874984D01*
X19819Y874955D01*
X19719Y874922D01*
X19620Y874885D01*
X19523Y874845D01*
X19427Y874801D01*
X19332Y874753D01*
X19240Y874702D01*
X19150Y874647D01*
X19061Y874590D01*
X18975Y874529D01*
X18892Y874464D01*
X18810Y874397D01*
X18732Y874327D01*
X18656Y874253D01*
X18582Y874177D01*
X18512Y874099D01*
X18445Y874017D01*
X18380Y873934D01*
X18319Y873848D01*
X18262Y873759D01*
X18207Y873669D01*
X18156Y873577D01*
X18108Y873482D01*
X18064Y873386D01*
X18024Y873289D01*
X17987Y873190D01*
X17954Y873090D01*
X17925Y872988D01*
X17900Y872886D01*
X17878Y872783D01*
X17861Y872679D01*
X17847Y872574D01*
X17837Y872469D01*
X17831Y872364D01*
X17829Y872258D01*
X17831Y872152D01*
X17837Y872047D01*
X17847Y871942D01*
X17861Y871837D01*
X17878Y871733D01*
X17900Y871630D01*
X17925Y871528D01*
X17954Y871426D01*
X17987Y871326D01*
X18024Y871227D01*
X18064Y871130D01*
X18108Y871034D01*
X18156Y870939D01*
X18207Y870847D01*
X18262Y870757D01*
X18319Y870668D01*
X18380Y870582D01*
X18445Y870499D01*
X18512Y870417D01*
X18582Y870339D01*
X18656Y870263D01*
X18732Y870189D01*
X18810Y870119D01*
X18892Y870052D01*
X18975Y869987D01*
X19061Y869926D01*
X19150Y869869D01*
X19240Y869814D01*
X19332Y869763D01*
X19427Y869715D01*
X19523Y869671D01*
X19620Y869631D01*
X19719Y869594D01*
X19819Y869561D01*
X19921Y869532D01*
X20023Y869507D01*
X20126Y869485D01*
X20230Y869468D01*
X20335Y869454D01*
X20440Y869444D01*
X20545Y869438D01*
X20651Y869436D01*
X23473Y869436D01*
X20086Y869436D02*
X17828Y864920D01*
X12172Y872822D02*
X9349Y875080D01*
X9349Y864920D01*
X6527Y864920D02*
X12172Y864920D01*
X23473Y685080D02*
X23473Y674920D01*
X23473Y685080D02*
X20651Y685080D01*
X20545Y685078D01*
X20440Y685072D01*
X20335Y685062D01*
X20230Y685048D01*
X20126Y685031D01*
X20023Y685009D01*
X19921Y684984D01*
X19819Y684955D01*
X19719Y684922D01*
X19620Y684885D01*
X19523Y684845D01*
X19427Y684801D01*
X19332Y684753D01*
X19240Y684702D01*
X19150Y684647D01*
X19061Y684590D01*
X18975Y684529D01*
X18892Y684464D01*
X18810Y684397D01*
X18732Y684327D01*
X18656Y684253D01*
X18582Y684177D01*
X18512Y684099D01*
X18445Y684017D01*
X18380Y683934D01*
X18319Y683848D01*
X18262Y683759D01*
X18207Y683669D01*
X18156Y683577D01*
X18108Y683482D01*
X18064Y683386D01*
X18024Y683289D01*
X17987Y683190D01*
X17954Y683090D01*
X17925Y682988D01*
X17900Y682886D01*
X17878Y682783D01*
X17861Y682679D01*
X17847Y682574D01*
X17837Y682469D01*
X17831Y682364D01*
X17829Y682258D01*
X17831Y682152D01*
X17837Y682047D01*
X17847Y681942D01*
X17861Y681837D01*
X17878Y681733D01*
X17900Y681630D01*
X17925Y681528D01*
X17954Y681426D01*
X17987Y681326D01*
X18024Y681227D01*
X18064Y681130D01*
X18108Y681034D01*
X18156Y680939D01*
X18207Y680847D01*
X18262Y680757D01*
X18319Y680668D01*
X18380Y680582D01*
X18445Y680499D01*
X18512Y680417D01*
X18582Y680339D01*
X18656Y680263D01*
X18732Y680189D01*
X18810Y680119D01*
X18892Y680052D01*
X18975Y679987D01*
X19061Y679926D01*
X19150Y679869D01*
X19240Y679814D01*
X19332Y679763D01*
X19427Y679715D01*
X19523Y679671D01*
X19620Y679631D01*
X19719Y679594D01*
X19819Y679561D01*
X19921Y679532D01*
X20023Y679507D01*
X20126Y679485D01*
X20230Y679468D01*
X20335Y679454D01*
X20440Y679444D01*
X20545Y679438D01*
X20651Y679436D01*
X23473Y679436D01*
X20086Y679436D02*
X17828Y674920D01*
X9067Y685080D02*
X8967Y685078D01*
X8868Y685072D01*
X8768Y685062D01*
X8670Y685049D01*
X8571Y685031D01*
X8474Y685010D01*
X8378Y684985D01*
X8282Y684956D01*
X8188Y684923D01*
X8095Y684887D01*
X8004Y684847D01*
X7914Y684803D01*
X7826Y684756D01*
X7740Y684706D01*
X7656Y684652D01*
X7574Y684595D01*
X7495Y684535D01*
X7417Y684471D01*
X7343Y684405D01*
X7271Y684336D01*
X7202Y684264D01*
X7136Y684190D01*
X7072Y684112D01*
X7012Y684033D01*
X6955Y683951D01*
X6901Y683867D01*
X6851Y683781D01*
X6804Y683693D01*
X6760Y683603D01*
X6720Y683512D01*
X6684Y683419D01*
X6651Y683325D01*
X6622Y683229D01*
X6597Y683133D01*
X6576Y683036D01*
X6558Y682937D01*
X6545Y682839D01*
X6535Y682739D01*
X6529Y682640D01*
X6527Y682540D01*
X9067Y685080D02*
X9178Y685078D01*
X9289Y685072D01*
X9399Y685063D01*
X9509Y685050D01*
X9619Y685033D01*
X9728Y685012D01*
X9836Y684988D01*
X9943Y684960D01*
X10050Y684929D01*
X10155Y684893D01*
X10259Y684855D01*
X10361Y684812D01*
X10462Y684767D01*
X10562Y684717D01*
X10659Y684665D01*
X10755Y684609D01*
X10849Y684550D01*
X10941Y684488D01*
X11031Y684423D01*
X11118Y684355D01*
X11203Y684283D01*
X11286Y684209D01*
X11366Y684133D01*
X11443Y684053D01*
X11518Y683971D01*
X11590Y683887D01*
X11659Y683800D01*
X11724Y683711D01*
X11787Y683619D01*
X11847Y683526D01*
X11903Y683430D01*
X11957Y683333D01*
X12006Y683234D01*
X12053Y683133D01*
X12096Y683031D01*
X12135Y682927D01*
X12171Y682822D01*
X7374Y680565D02*
X7302Y680635D01*
X7233Y680708D01*
X7167Y680784D01*
X7104Y680862D01*
X7044Y680942D01*
X6987Y681025D01*
X6932Y681109D01*
X6881Y681196D01*
X6833Y681284D01*
X6789Y681374D01*
X6748Y681465D01*
X6710Y681558D01*
X6675Y681653D01*
X6644Y681748D01*
X6617Y681845D01*
X6593Y681942D01*
X6573Y682041D01*
X6557Y682140D01*
X6544Y682239D01*
X6534Y682339D01*
X6529Y682440D01*
X6527Y682540D01*
X7374Y680564D02*
X12172Y674920D01*
X6527Y674920D01*
X23473Y496080D02*
X23473Y485920D01*
X23473Y496080D02*
X20651Y496080D01*
X20545Y496078D01*
X20440Y496072D01*
X20335Y496062D01*
X20230Y496048D01*
X20126Y496031D01*
X20023Y496009D01*
X19921Y495984D01*
X19819Y495955D01*
X19719Y495922D01*
X19620Y495885D01*
X19523Y495845D01*
X19427Y495801D01*
X19332Y495753D01*
X19240Y495702D01*
X19150Y495647D01*
X19061Y495590D01*
X18975Y495529D01*
X18892Y495464D01*
X18810Y495397D01*
X18732Y495327D01*
X18656Y495253D01*
X18582Y495177D01*
X18512Y495099D01*
X18445Y495017D01*
X18380Y494934D01*
X18319Y494848D01*
X18262Y494759D01*
X18207Y494669D01*
X18156Y494577D01*
X18108Y494482D01*
X18064Y494386D01*
X18024Y494289D01*
X17987Y494190D01*
X17954Y494090D01*
X17925Y493988D01*
X17900Y493886D01*
X17878Y493783D01*
X17861Y493679D01*
X17847Y493574D01*
X17837Y493469D01*
X17831Y493364D01*
X17829Y493258D01*
X17831Y493152D01*
X17837Y493047D01*
X17847Y492942D01*
X17861Y492837D01*
X17878Y492733D01*
X17900Y492630D01*
X17925Y492528D01*
X17954Y492426D01*
X17987Y492326D01*
X18024Y492227D01*
X18064Y492130D01*
X18108Y492034D01*
X18156Y491939D01*
X18207Y491847D01*
X18262Y491757D01*
X18319Y491668D01*
X18380Y491582D01*
X18445Y491499D01*
X18512Y491417D01*
X18582Y491339D01*
X18656Y491263D01*
X18732Y491189D01*
X18810Y491119D01*
X18892Y491052D01*
X18975Y490987D01*
X19061Y490926D01*
X19150Y490869D01*
X19240Y490814D01*
X19332Y490763D01*
X19427Y490715D01*
X19523Y490671D01*
X19620Y490631D01*
X19719Y490594D01*
X19819Y490561D01*
X19921Y490532D01*
X20023Y490507D01*
X20126Y490485D01*
X20230Y490468D01*
X20335Y490454D01*
X20440Y490444D01*
X20545Y490438D01*
X20651Y490436D01*
X23473Y490436D01*
X20086Y490436D02*
X17828Y485920D01*
X12172Y485920D02*
X9349Y485920D01*
X9243Y485922D01*
X9138Y485928D01*
X9033Y485938D01*
X8928Y485952D01*
X8824Y485969D01*
X8721Y485991D01*
X8619Y486016D01*
X8517Y486045D01*
X8417Y486078D01*
X8318Y486115D01*
X8221Y486155D01*
X8125Y486199D01*
X8030Y486247D01*
X7938Y486298D01*
X7848Y486353D01*
X7759Y486410D01*
X7673Y486471D01*
X7590Y486536D01*
X7508Y486603D01*
X7430Y486673D01*
X7354Y486747D01*
X7280Y486823D01*
X7210Y486901D01*
X7143Y486983D01*
X7078Y487066D01*
X7017Y487152D01*
X6960Y487241D01*
X6905Y487331D01*
X6854Y487423D01*
X6806Y487518D01*
X6762Y487614D01*
X6722Y487711D01*
X6685Y487810D01*
X6652Y487910D01*
X6623Y488012D01*
X6598Y488114D01*
X6576Y488217D01*
X6559Y488321D01*
X6545Y488426D01*
X6535Y488531D01*
X6529Y488636D01*
X6527Y488742D01*
X6529Y488848D01*
X6535Y488953D01*
X6545Y489058D01*
X6559Y489163D01*
X6576Y489267D01*
X6598Y489370D01*
X6623Y489472D01*
X6652Y489574D01*
X6685Y489674D01*
X6722Y489773D01*
X6762Y489870D01*
X6806Y489966D01*
X6854Y490061D01*
X6905Y490153D01*
X6960Y490243D01*
X7017Y490332D01*
X7078Y490418D01*
X7143Y490501D01*
X7210Y490583D01*
X7280Y490661D01*
X7354Y490737D01*
X7430Y490811D01*
X7508Y490881D01*
X7590Y490948D01*
X7673Y491013D01*
X7759Y491074D01*
X7848Y491131D01*
X7938Y491186D01*
X8030Y491237D01*
X8125Y491285D01*
X8221Y491329D01*
X8318Y491369D01*
X8417Y491406D01*
X8517Y491439D01*
X8619Y491468D01*
X8721Y491493D01*
X8824Y491515D01*
X8928Y491532D01*
X9033Y491546D01*
X9138Y491556D01*
X9243Y491562D01*
X9349Y491564D01*
X8785Y496080D02*
X12172Y496080D01*
X8785Y496080D02*
X8692Y496078D01*
X8599Y496072D01*
X8506Y496063D01*
X8413Y496049D01*
X8322Y496032D01*
X8231Y496011D01*
X8141Y495986D01*
X8052Y495958D01*
X7964Y495926D01*
X7878Y495890D01*
X7793Y495851D01*
X7710Y495808D01*
X7629Y495762D01*
X7550Y495712D01*
X7473Y495660D01*
X7398Y495604D01*
X7326Y495545D01*
X7256Y495483D01*
X7188Y495419D01*
X7124Y495351D01*
X7062Y495281D01*
X7003Y495209D01*
X6947Y495134D01*
X6895Y495057D01*
X6845Y494978D01*
X6799Y494897D01*
X6756Y494814D01*
X6717Y494729D01*
X6681Y494643D01*
X6649Y494555D01*
X6621Y494466D01*
X6596Y494376D01*
X6575Y494285D01*
X6558Y494194D01*
X6544Y494101D01*
X6535Y494008D01*
X6529Y493915D01*
X6527Y493822D01*
X6529Y493729D01*
X6535Y493636D01*
X6544Y493543D01*
X6558Y493450D01*
X6575Y493359D01*
X6596Y493268D01*
X6621Y493178D01*
X6649Y493089D01*
X6681Y493001D01*
X6717Y492915D01*
X6756Y492830D01*
X6799Y492747D01*
X6845Y492666D01*
X6895Y492587D01*
X6947Y492510D01*
X7003Y492435D01*
X7062Y492363D01*
X7124Y492293D01*
X7188Y492225D01*
X7256Y492161D01*
X7326Y492099D01*
X7398Y492040D01*
X7473Y491984D01*
X7550Y491932D01*
X7629Y491882D01*
X7710Y491836D01*
X7793Y491793D01*
X7878Y491754D01*
X7964Y491718D01*
X8052Y491686D01*
X8141Y491658D01*
X8231Y491633D01*
X8322Y491612D01*
X8413Y491595D01*
X8506Y491581D01*
X8599Y491572D01*
X8692Y491566D01*
X8785Y491564D01*
X11043Y491564D01*
X22473Y305080D02*
X22473Y294920D01*
X22473Y305080D02*
X19651Y305080D01*
X19545Y305078D01*
X19440Y305072D01*
X19335Y305062D01*
X19230Y305048D01*
X19126Y305031D01*
X19023Y305009D01*
X18921Y304984D01*
X18819Y304955D01*
X18719Y304922D01*
X18620Y304885D01*
X18523Y304845D01*
X18427Y304801D01*
X18332Y304753D01*
X18240Y304702D01*
X18150Y304647D01*
X18061Y304590D01*
X17975Y304529D01*
X17892Y304464D01*
X17810Y304397D01*
X17732Y304327D01*
X17656Y304253D01*
X17582Y304177D01*
X17512Y304099D01*
X17445Y304017D01*
X17380Y303934D01*
X17319Y303848D01*
X17262Y303759D01*
X17207Y303669D01*
X17156Y303577D01*
X17108Y303482D01*
X17064Y303386D01*
X17024Y303289D01*
X16987Y303190D01*
X16954Y303090D01*
X16925Y302988D01*
X16900Y302886D01*
X16878Y302783D01*
X16861Y302679D01*
X16847Y302574D01*
X16837Y302469D01*
X16831Y302364D01*
X16829Y302258D01*
X16831Y302152D01*
X16837Y302047D01*
X16847Y301942D01*
X16861Y301837D01*
X16878Y301733D01*
X16900Y301630D01*
X16925Y301528D01*
X16954Y301426D01*
X16987Y301326D01*
X17024Y301227D01*
X17064Y301130D01*
X17108Y301034D01*
X17156Y300939D01*
X17207Y300847D01*
X17262Y300757D01*
X17319Y300668D01*
X17380Y300582D01*
X17445Y300499D01*
X17512Y300417D01*
X17582Y300339D01*
X17656Y300263D01*
X17732Y300189D01*
X17810Y300119D01*
X17892Y300052D01*
X17975Y299987D01*
X18061Y299926D01*
X18150Y299869D01*
X18240Y299814D01*
X18332Y299763D01*
X18427Y299715D01*
X18523Y299671D01*
X18620Y299631D01*
X18719Y299594D01*
X18819Y299561D01*
X18921Y299532D01*
X19023Y299507D01*
X19126Y299485D01*
X19230Y299468D01*
X19335Y299454D01*
X19440Y299444D01*
X19545Y299438D01*
X19651Y299436D01*
X22473Y299436D01*
X19086Y299436D02*
X16828Y294920D01*
X11172Y297178D02*
X8914Y305080D01*
X11172Y297178D02*
X5527Y297178D01*
X7221Y299436D02*
X7221Y294920D01*
X23473Y115080D02*
X23473Y104920D01*
X23473Y115080D02*
X20651Y115080D01*
X20545Y115078D01*
X20440Y115072D01*
X20335Y115062D01*
X20230Y115048D01*
X20126Y115031D01*
X20023Y115009D01*
X19921Y114984D01*
X19819Y114955D01*
X19719Y114922D01*
X19620Y114885D01*
X19523Y114845D01*
X19427Y114801D01*
X19332Y114753D01*
X19240Y114702D01*
X19150Y114647D01*
X19061Y114590D01*
X18975Y114529D01*
X18892Y114464D01*
X18810Y114397D01*
X18732Y114327D01*
X18656Y114253D01*
X18582Y114177D01*
X18512Y114099D01*
X18445Y114017D01*
X18380Y113934D01*
X18319Y113848D01*
X18262Y113759D01*
X18207Y113669D01*
X18156Y113577D01*
X18108Y113482D01*
X18064Y113386D01*
X18024Y113289D01*
X17987Y113190D01*
X17954Y113090D01*
X17925Y112988D01*
X17900Y112886D01*
X17878Y112783D01*
X17861Y112679D01*
X17847Y112574D01*
X17837Y112469D01*
X17831Y112364D01*
X17829Y112258D01*
X17831Y112152D01*
X17837Y112047D01*
X17847Y111942D01*
X17861Y111837D01*
X17878Y111733D01*
X17900Y111630D01*
X17925Y111528D01*
X17954Y111426D01*
X17987Y111326D01*
X18024Y111227D01*
X18064Y111130D01*
X18108Y111034D01*
X18156Y110939D01*
X18207Y110847D01*
X18262Y110757D01*
X18319Y110668D01*
X18380Y110582D01*
X18445Y110499D01*
X18512Y110417D01*
X18582Y110339D01*
X18656Y110263D01*
X18732Y110189D01*
X18810Y110119D01*
X18892Y110052D01*
X18975Y109987D01*
X19061Y109926D01*
X19150Y109869D01*
X19240Y109814D01*
X19332Y109763D01*
X19427Y109715D01*
X19523Y109671D01*
X19620Y109631D01*
X19719Y109594D01*
X19819Y109561D01*
X19921Y109532D01*
X20023Y109507D01*
X20126Y109485D01*
X20230Y109468D01*
X20335Y109454D01*
X20440Y109444D01*
X20545Y109438D01*
X20651Y109436D01*
X23473Y109436D01*
X20086Y109436D02*
X17828Y104920D01*
X12172Y104920D02*
X8785Y104920D01*
X8692Y104922D01*
X8599Y104928D01*
X8506Y104937D01*
X8413Y104951D01*
X8322Y104968D01*
X8231Y104989D01*
X8141Y105014D01*
X8052Y105042D01*
X7964Y105074D01*
X7878Y105110D01*
X7793Y105149D01*
X7710Y105192D01*
X7629Y105238D01*
X7550Y105288D01*
X7473Y105340D01*
X7398Y105396D01*
X7326Y105455D01*
X7256Y105517D01*
X7188Y105581D01*
X7124Y105649D01*
X7062Y105719D01*
X7003Y105791D01*
X6947Y105866D01*
X6895Y105943D01*
X6845Y106022D01*
X6799Y106103D01*
X6756Y106186D01*
X6717Y106271D01*
X6681Y106357D01*
X6649Y106445D01*
X6621Y106534D01*
X6596Y106624D01*
X6575Y106715D01*
X6558Y106806D01*
X6544Y106899D01*
X6535Y106991D01*
X6529Y107085D01*
X6527Y107178D01*
X6527Y108307D01*
X6529Y108400D01*
X6535Y108493D01*
X6544Y108586D01*
X6558Y108679D01*
X6575Y108770D01*
X6596Y108861D01*
X6621Y108951D01*
X6649Y109040D01*
X6681Y109128D01*
X6717Y109214D01*
X6756Y109299D01*
X6799Y109382D01*
X6845Y109463D01*
X6895Y109542D01*
X6947Y109619D01*
X7003Y109694D01*
X7062Y109766D01*
X7124Y109836D01*
X7188Y109904D01*
X7256Y109968D01*
X7326Y110030D01*
X7398Y110089D01*
X7473Y110145D01*
X7550Y110197D01*
X7629Y110247D01*
X7710Y110293D01*
X7793Y110336D01*
X7878Y110375D01*
X7964Y110411D01*
X8052Y110443D01*
X8141Y110471D01*
X8231Y110496D01*
X8322Y110517D01*
X8413Y110534D01*
X8506Y110548D01*
X8599Y110557D01*
X8692Y110563D01*
X8785Y110565D01*
X8785Y110564D02*
X12172Y110564D01*
X12172Y115080D01*
X6527Y115080D01*
D10*
X734500Y324000D02*
X734505Y324380D01*
X734519Y324761D01*
X734542Y325140D01*
X734575Y325519D01*
X734617Y325897D01*
X734668Y326274D01*
X734728Y326650D01*
X734798Y327024D01*
X734877Y327396D01*
X734965Y327766D01*
X735061Y328134D01*
X735167Y328499D01*
X735282Y328862D01*
X735406Y329222D01*
X735539Y329578D01*
X735680Y329932D01*
X735830Y330281D01*
X735988Y330627D01*
X736155Y330969D01*
X736330Y331307D01*
X736514Y331640D01*
X736705Y331969D01*
X736905Y332292D01*
X737112Y332611D01*
X737327Y332925D01*
X737550Y333233D01*
X737781Y333536D01*
X738018Y333833D01*
X738263Y334124D01*
X738515Y334409D01*
X738774Y334688D01*
X739040Y334960D01*
X739312Y335226D01*
X739591Y335485D01*
X739876Y335737D01*
X740167Y335982D01*
X740464Y336219D01*
X740767Y336450D01*
X741075Y336673D01*
X741389Y336888D01*
X741708Y337095D01*
X742031Y337295D01*
X742360Y337486D01*
X742693Y337670D01*
X743031Y337845D01*
X743373Y338012D01*
X743719Y338170D01*
X744068Y338320D01*
X744422Y338461D01*
X744778Y338594D01*
X745138Y338718D01*
X745501Y338833D01*
X745866Y338939D01*
X746234Y339035D01*
X746604Y339123D01*
X746976Y339202D01*
X747350Y339272D01*
X747726Y339332D01*
X748103Y339383D01*
X748481Y339425D01*
X748860Y339458D01*
X749239Y339481D01*
X749620Y339495D01*
X750000Y339500D01*
X750380Y339495D01*
X750761Y339481D01*
X751140Y339458D01*
X751519Y339425D01*
X751897Y339383D01*
X752274Y339332D01*
X752650Y339272D01*
X753024Y339202D01*
X753396Y339123D01*
X753766Y339035D01*
X754134Y338939D01*
X754499Y338833D01*
X754862Y338718D01*
X755222Y338594D01*
X755578Y338461D01*
X755932Y338320D01*
X756281Y338170D01*
X756627Y338012D01*
X756969Y337845D01*
X757307Y337670D01*
X757640Y337486D01*
X757969Y337295D01*
X758292Y337095D01*
X758611Y336888D01*
X758925Y336673D01*
X759233Y336450D01*
X759536Y336219D01*
X759833Y335982D01*
X760124Y335737D01*
X760409Y335485D01*
X760688Y335226D01*
X760960Y334960D01*
X761226Y334688D01*
X761485Y334409D01*
X761737Y334124D01*
X761982Y333833D01*
X762219Y333536D01*
X762450Y333233D01*
X762673Y332925D01*
X762888Y332611D01*
X763095Y332292D01*
X763295Y331969D01*
X763486Y331640D01*
X763670Y331307D01*
X763845Y330969D01*
X764012Y330627D01*
X764170Y330281D01*
X764320Y329932D01*
X764461Y329578D01*
X764594Y329222D01*
X764718Y328862D01*
X764833Y328499D01*
X764939Y328134D01*
X765035Y327766D01*
X765123Y327396D01*
X765202Y327024D01*
X765272Y326650D01*
X765332Y326274D01*
X765383Y325897D01*
X765425Y325519D01*
X765458Y325140D01*
X765481Y324761D01*
X765495Y324380D01*
X765500Y324000D01*
X765495Y323620D01*
X765481Y323239D01*
X765458Y322860D01*
X765425Y322481D01*
X765383Y322103D01*
X765332Y321726D01*
X765272Y321350D01*
X765202Y320976D01*
X765123Y320604D01*
X765035Y320234D01*
X764939Y319866D01*
X764833Y319501D01*
X764718Y319138D01*
X764594Y318778D01*
X764461Y318422D01*
X764320Y318068D01*
X764170Y317719D01*
X764012Y317373D01*
X763845Y317031D01*
X763670Y316693D01*
X763486Y316360D01*
X763295Y316031D01*
X763095Y315708D01*
X762888Y315389D01*
X762673Y315075D01*
X762450Y314767D01*
X762219Y314464D01*
X761982Y314167D01*
X761737Y313876D01*
X761485Y313591D01*
X761226Y313312D01*
X760960Y313040D01*
X760688Y312774D01*
X760409Y312515D01*
X760124Y312263D01*
X759833Y312018D01*
X759536Y311781D01*
X759233Y311550D01*
X758925Y311327D01*
X758611Y311112D01*
X758292Y310905D01*
X757969Y310705D01*
X757640Y310514D01*
X757307Y310330D01*
X756969Y310155D01*
X756627Y309988D01*
X756281Y309830D01*
X755932Y309680D01*
X755578Y309539D01*
X755222Y309406D01*
X754862Y309282D01*
X754499Y309167D01*
X754134Y309061D01*
X753766Y308965D01*
X753396Y308877D01*
X753024Y308798D01*
X752650Y308728D01*
X752274Y308668D01*
X751897Y308617D01*
X751519Y308575D01*
X751140Y308542D01*
X750761Y308519D01*
X750380Y308505D01*
X750000Y308500D01*
X749620Y308505D01*
X749239Y308519D01*
X748860Y308542D01*
X748481Y308575D01*
X748103Y308617D01*
X747726Y308668D01*
X747350Y308728D01*
X746976Y308798D01*
X746604Y308877D01*
X746234Y308965D01*
X745866Y309061D01*
X745501Y309167D01*
X745138Y309282D01*
X744778Y309406D01*
X744422Y309539D01*
X744068Y309680D01*
X743719Y309830D01*
X743373Y309988D01*
X743031Y310155D01*
X742693Y310330D01*
X742360Y310514D01*
X742031Y310705D01*
X741708Y310905D01*
X741389Y311112D01*
X741075Y311327D01*
X740767Y311550D01*
X740464Y311781D01*
X740167Y312018D01*
X739876Y312263D01*
X739591Y312515D01*
X739312Y312774D01*
X739040Y313040D01*
X738774Y313312D01*
X738515Y313591D01*
X738263Y313876D01*
X738018Y314167D01*
X737781Y314464D01*
X737550Y314767D01*
X737327Y315075D01*
X737112Y315389D01*
X736905Y315708D01*
X736705Y316031D01*
X736514Y316360D01*
X736330Y316693D01*
X736155Y317031D01*
X735988Y317373D01*
X735830Y317719D01*
X735680Y318068D01*
X735539Y318422D01*
X735406Y318778D01*
X735282Y319138D01*
X735167Y319501D01*
X735061Y319866D01*
X734965Y320234D01*
X734877Y320604D01*
X734798Y320976D01*
X734728Y321350D01*
X734668Y321726D01*
X734617Y322103D01*
X734575Y322481D01*
X734542Y322860D01*
X734519Y323239D01*
X734505Y323620D01*
X734500Y324000D01*
D12*
X750000Y324000D03*
D10*
X734500Y86000D02*
X734505Y86380D01*
X734519Y86761D01*
X734542Y87140D01*
X734575Y87519D01*
X734617Y87897D01*
X734668Y88274D01*
X734728Y88650D01*
X734798Y89024D01*
X734877Y89396D01*
X734965Y89766D01*
X735061Y90134D01*
X735167Y90499D01*
X735282Y90862D01*
X735406Y91222D01*
X735539Y91578D01*
X735680Y91932D01*
X735830Y92281D01*
X735988Y92627D01*
X736155Y92969D01*
X736330Y93307D01*
X736514Y93640D01*
X736705Y93969D01*
X736905Y94292D01*
X737112Y94611D01*
X737327Y94925D01*
X737550Y95233D01*
X737781Y95536D01*
X738018Y95833D01*
X738263Y96124D01*
X738515Y96409D01*
X738774Y96688D01*
X739040Y96960D01*
X739312Y97226D01*
X739591Y97485D01*
X739876Y97737D01*
X740167Y97982D01*
X740464Y98219D01*
X740767Y98450D01*
X741075Y98673D01*
X741389Y98888D01*
X741708Y99095D01*
X742031Y99295D01*
X742360Y99486D01*
X742693Y99670D01*
X743031Y99845D01*
X743373Y100012D01*
X743719Y100170D01*
X744068Y100320D01*
X744422Y100461D01*
X744778Y100594D01*
X745138Y100718D01*
X745501Y100833D01*
X745866Y100939D01*
X746234Y101035D01*
X746604Y101123D01*
X746976Y101202D01*
X747350Y101272D01*
X747726Y101332D01*
X748103Y101383D01*
X748481Y101425D01*
X748860Y101458D01*
X749239Y101481D01*
X749620Y101495D01*
X750000Y101500D01*
X750380Y101495D01*
X750761Y101481D01*
X751140Y101458D01*
X751519Y101425D01*
X751897Y101383D01*
X752274Y101332D01*
X752650Y101272D01*
X753024Y101202D01*
X753396Y101123D01*
X753766Y101035D01*
X754134Y100939D01*
X754499Y100833D01*
X754862Y100718D01*
X755222Y100594D01*
X755578Y100461D01*
X755932Y100320D01*
X756281Y100170D01*
X756627Y100012D01*
X756969Y99845D01*
X757307Y99670D01*
X757640Y99486D01*
X757969Y99295D01*
X758292Y99095D01*
X758611Y98888D01*
X758925Y98673D01*
X759233Y98450D01*
X759536Y98219D01*
X759833Y97982D01*
X760124Y97737D01*
X760409Y97485D01*
X760688Y97226D01*
X760960Y96960D01*
X761226Y96688D01*
X761485Y96409D01*
X761737Y96124D01*
X761982Y95833D01*
X762219Y95536D01*
X762450Y95233D01*
X762673Y94925D01*
X762888Y94611D01*
X763095Y94292D01*
X763295Y93969D01*
X763486Y93640D01*
X763670Y93307D01*
X763845Y92969D01*
X764012Y92627D01*
X764170Y92281D01*
X764320Y91932D01*
X764461Y91578D01*
X764594Y91222D01*
X764718Y90862D01*
X764833Y90499D01*
X764939Y90134D01*
X765035Y89766D01*
X765123Y89396D01*
X765202Y89024D01*
X765272Y88650D01*
X765332Y88274D01*
X765383Y87897D01*
X765425Y87519D01*
X765458Y87140D01*
X765481Y86761D01*
X765495Y86380D01*
X765500Y86000D01*
X765495Y85620D01*
X765481Y85239D01*
X765458Y84860D01*
X765425Y84481D01*
X765383Y84103D01*
X765332Y83726D01*
X765272Y83350D01*
X765202Y82976D01*
X765123Y82604D01*
X765035Y82234D01*
X764939Y81866D01*
X764833Y81501D01*
X764718Y81138D01*
X764594Y80778D01*
X764461Y80422D01*
X764320Y80068D01*
X764170Y79719D01*
X764012Y79373D01*
X763845Y79031D01*
X763670Y78693D01*
X763486Y78360D01*
X763295Y78031D01*
X763095Y77708D01*
X762888Y77389D01*
X762673Y77075D01*
X762450Y76767D01*
X762219Y76464D01*
X761982Y76167D01*
X761737Y75876D01*
X761485Y75591D01*
X761226Y75312D01*
X760960Y75040D01*
X760688Y74774D01*
X760409Y74515D01*
X760124Y74263D01*
X759833Y74018D01*
X759536Y73781D01*
X759233Y73550D01*
X758925Y73327D01*
X758611Y73112D01*
X758292Y72905D01*
X757969Y72705D01*
X757640Y72514D01*
X757307Y72330D01*
X756969Y72155D01*
X756627Y71988D01*
X756281Y71830D01*
X755932Y71680D01*
X755578Y71539D01*
X755222Y71406D01*
X754862Y71282D01*
X754499Y71167D01*
X754134Y71061D01*
X753766Y70965D01*
X753396Y70877D01*
X753024Y70798D01*
X752650Y70728D01*
X752274Y70668D01*
X751897Y70617D01*
X751519Y70575D01*
X751140Y70542D01*
X750761Y70519D01*
X750380Y70505D01*
X750000Y70500D01*
X749620Y70505D01*
X749239Y70519D01*
X748860Y70542D01*
X748481Y70575D01*
X748103Y70617D01*
X747726Y70668D01*
X747350Y70728D01*
X746976Y70798D01*
X746604Y70877D01*
X746234Y70965D01*
X745866Y71061D01*
X745501Y71167D01*
X745138Y71282D01*
X744778Y71406D01*
X744422Y71539D01*
X744068Y71680D01*
X743719Y71830D01*
X743373Y71988D01*
X743031Y72155D01*
X742693Y72330D01*
X742360Y72514D01*
X742031Y72705D01*
X741708Y72905D01*
X741389Y73112D01*
X741075Y73327D01*
X740767Y73550D01*
X740464Y73781D01*
X740167Y74018D01*
X739876Y74263D01*
X739591Y74515D01*
X739312Y74774D01*
X739040Y75040D01*
X738774Y75312D01*
X738515Y75591D01*
X738263Y75876D01*
X738018Y76167D01*
X737781Y76464D01*
X737550Y76767D01*
X737327Y77075D01*
X737112Y77389D01*
X736905Y77708D01*
X736705Y78031D01*
X736514Y78360D01*
X736330Y78693D01*
X736155Y79031D01*
X735988Y79373D01*
X735830Y79719D01*
X735680Y80068D01*
X735539Y80422D01*
X735406Y80778D01*
X735282Y81138D01*
X735167Y81501D01*
X735061Y81866D01*
X734965Y82234D01*
X734877Y82604D01*
X734798Y82976D01*
X734728Y83350D01*
X734668Y83726D01*
X734617Y84103D01*
X734575Y84481D01*
X734542Y84860D01*
X734519Y85239D01*
X734505Y85620D01*
X734500Y86000D01*
D12*
X750000Y86000D03*
D10*
X577500Y86000D02*
X577506Y86491D01*
X577524Y86981D01*
X577554Y87471D01*
X577596Y87960D01*
X577650Y88448D01*
X577716Y88935D01*
X577794Y89419D01*
X577884Y89902D01*
X577986Y90382D01*
X578099Y90860D01*
X578224Y91334D01*
X578361Y91806D01*
X578509Y92274D01*
X578669Y92738D01*
X578840Y93198D01*
X579022Y93654D01*
X579216Y94105D01*
X579420Y94551D01*
X579636Y94992D01*
X579862Y95428D01*
X580098Y95858D01*
X580345Y96282D01*
X580603Y96700D01*
X580871Y97111D01*
X581148Y97516D01*
X581436Y97914D01*
X581733Y98305D01*
X582040Y98688D01*
X582356Y99063D01*
X582681Y99431D01*
X583015Y99791D01*
X583358Y100142D01*
X583709Y100485D01*
X584069Y100819D01*
X584437Y101144D01*
X584812Y101460D01*
X585195Y101767D01*
X585586Y102064D01*
X585984Y102352D01*
X586389Y102629D01*
X586800Y102897D01*
X587218Y103155D01*
X587642Y103402D01*
X588072Y103638D01*
X588508Y103864D01*
X588949Y104080D01*
X589395Y104284D01*
X589846Y104478D01*
X590302Y104660D01*
X590762Y104831D01*
X591226Y104991D01*
X591694Y105139D01*
X592166Y105276D01*
X592640Y105401D01*
X593118Y105514D01*
X593598Y105616D01*
X594081Y105706D01*
X594565Y105784D01*
X595052Y105850D01*
X595540Y105904D01*
X596029Y105946D01*
X596519Y105976D01*
X597009Y105994D01*
X597500Y106000D01*
X597991Y105994D01*
X598481Y105976D01*
X598971Y105946D01*
X599460Y105904D01*
X599948Y105850D01*
X600435Y105784D01*
X600919Y105706D01*
X601402Y105616D01*
X601882Y105514D01*
X602360Y105401D01*
X602834Y105276D01*
X603306Y105139D01*
X603774Y104991D01*
X604238Y104831D01*
X604698Y104660D01*
X605154Y104478D01*
X605605Y104284D01*
X606051Y104080D01*
X606492Y103864D01*
X606928Y103638D01*
X607358Y103402D01*
X607782Y103155D01*
X608200Y102897D01*
X608611Y102629D01*
X609016Y102352D01*
X609414Y102064D01*
X609805Y101767D01*
X610188Y101460D01*
X610563Y101144D01*
X610931Y100819D01*
X611291Y100485D01*
X611642Y100142D01*
X611985Y99791D01*
X612319Y99431D01*
X612644Y99063D01*
X612960Y98688D01*
X613267Y98305D01*
X613564Y97914D01*
X613852Y97516D01*
X614129Y97111D01*
X614397Y96700D01*
X614655Y96282D01*
X614902Y95858D01*
X615138Y95428D01*
X615364Y94992D01*
X615580Y94551D01*
X615784Y94105D01*
X615978Y93654D01*
X616160Y93198D01*
X616331Y92738D01*
X616491Y92274D01*
X616639Y91806D01*
X616776Y91334D01*
X616901Y90860D01*
X617014Y90382D01*
X617116Y89902D01*
X617206Y89419D01*
X617284Y88935D01*
X617350Y88448D01*
X617404Y87960D01*
X617446Y87471D01*
X617476Y86981D01*
X617494Y86491D01*
X617500Y86000D01*
X617494Y85509D01*
X617476Y85019D01*
X617446Y84529D01*
X617404Y84040D01*
X617350Y83552D01*
X617284Y83065D01*
X617206Y82581D01*
X617116Y82098D01*
X617014Y81618D01*
X616901Y81140D01*
X616776Y80666D01*
X616639Y80194D01*
X616491Y79726D01*
X616331Y79262D01*
X616160Y78802D01*
X615978Y78346D01*
X615784Y77895D01*
X615580Y77449D01*
X615364Y77008D01*
X615138Y76572D01*
X614902Y76142D01*
X614655Y75718D01*
X614397Y75300D01*
X614129Y74889D01*
X613852Y74484D01*
X613564Y74086D01*
X613267Y73695D01*
X612960Y73312D01*
X612644Y72937D01*
X612319Y72569D01*
X611985Y72209D01*
X611642Y71858D01*
X611291Y71515D01*
X610931Y71181D01*
X610563Y70856D01*
X610188Y70540D01*
X609805Y70233D01*
X609414Y69936D01*
X609016Y69648D01*
X608611Y69371D01*
X608200Y69103D01*
X607782Y68845D01*
X607358Y68598D01*
X606928Y68362D01*
X606492Y68136D01*
X606051Y67920D01*
X605605Y67716D01*
X605154Y67522D01*
X604698Y67340D01*
X604238Y67169D01*
X603774Y67009D01*
X603306Y66861D01*
X602834Y66724D01*
X602360Y66599D01*
X601882Y66486D01*
X601402Y66384D01*
X600919Y66294D01*
X600435Y66216D01*
X599948Y66150D01*
X599460Y66096D01*
X598971Y66054D01*
X598481Y66024D01*
X597991Y66006D01*
X597500Y66000D01*
X597009Y66006D01*
X596519Y66024D01*
X596029Y66054D01*
X595540Y66096D01*
X595052Y66150D01*
X594565Y66216D01*
X594081Y66294D01*
X593598Y66384D01*
X593118Y66486D01*
X592640Y66599D01*
X592166Y66724D01*
X591694Y66861D01*
X591226Y67009D01*
X590762Y67169D01*
X590302Y67340D01*
X589846Y67522D01*
X589395Y67716D01*
X588949Y67920D01*
X588508Y68136D01*
X588072Y68362D01*
X587642Y68598D01*
X587218Y68845D01*
X586800Y69103D01*
X586389Y69371D01*
X585984Y69648D01*
X585586Y69936D01*
X585195Y70233D01*
X584812Y70540D01*
X584437Y70856D01*
X584069Y71181D01*
X583709Y71515D01*
X583358Y71858D01*
X583015Y72209D01*
X582681Y72569D01*
X582356Y72937D01*
X582040Y73312D01*
X581733Y73695D01*
X581436Y74086D01*
X581148Y74484D01*
X580871Y74889D01*
X580603Y75300D01*
X580345Y75718D01*
X580098Y76142D01*
X579862Y76572D01*
X579636Y77008D01*
X579420Y77449D01*
X579216Y77895D01*
X579022Y78346D01*
X578840Y78802D01*
X578669Y79262D01*
X578509Y79726D01*
X578361Y80194D01*
X578224Y80666D01*
X578099Y81140D01*
X577986Y81618D01*
X577884Y82098D01*
X577794Y82581D01*
X577716Y83065D01*
X577650Y83552D01*
X577596Y84040D01*
X577554Y84529D01*
X577524Y85019D01*
X577506Y85509D01*
X577500Y86000D01*
D13*
X597500Y86000D03*
D10*
X577500Y324000D02*
X577506Y324491D01*
X577524Y324981D01*
X577554Y325471D01*
X577596Y325960D01*
X577650Y326448D01*
X577716Y326935D01*
X577794Y327419D01*
X577884Y327902D01*
X577986Y328382D01*
X578099Y328860D01*
X578224Y329334D01*
X578361Y329806D01*
X578509Y330274D01*
X578669Y330738D01*
X578840Y331198D01*
X579022Y331654D01*
X579216Y332105D01*
X579420Y332551D01*
X579636Y332992D01*
X579862Y333428D01*
X580098Y333858D01*
X580345Y334282D01*
X580603Y334700D01*
X580871Y335111D01*
X581148Y335516D01*
X581436Y335914D01*
X581733Y336305D01*
X582040Y336688D01*
X582356Y337063D01*
X582681Y337431D01*
X583015Y337791D01*
X583358Y338142D01*
X583709Y338485D01*
X584069Y338819D01*
X584437Y339144D01*
X584812Y339460D01*
X585195Y339767D01*
X585586Y340064D01*
X585984Y340352D01*
X586389Y340629D01*
X586800Y340897D01*
X587218Y341155D01*
X587642Y341402D01*
X588072Y341638D01*
X588508Y341864D01*
X588949Y342080D01*
X589395Y342284D01*
X589846Y342478D01*
X590302Y342660D01*
X590762Y342831D01*
X591226Y342991D01*
X591694Y343139D01*
X592166Y343276D01*
X592640Y343401D01*
X593118Y343514D01*
X593598Y343616D01*
X594081Y343706D01*
X594565Y343784D01*
X595052Y343850D01*
X595540Y343904D01*
X596029Y343946D01*
X596519Y343976D01*
X597009Y343994D01*
X597500Y344000D01*
X597991Y343994D01*
X598481Y343976D01*
X598971Y343946D01*
X599460Y343904D01*
X599948Y343850D01*
X600435Y343784D01*
X600919Y343706D01*
X601402Y343616D01*
X601882Y343514D01*
X602360Y343401D01*
X602834Y343276D01*
X603306Y343139D01*
X603774Y342991D01*
X604238Y342831D01*
X604698Y342660D01*
X605154Y342478D01*
X605605Y342284D01*
X606051Y342080D01*
X606492Y341864D01*
X606928Y341638D01*
X607358Y341402D01*
X607782Y341155D01*
X608200Y340897D01*
X608611Y340629D01*
X609016Y340352D01*
X609414Y340064D01*
X609805Y339767D01*
X610188Y339460D01*
X610563Y339144D01*
X610931Y338819D01*
X611291Y338485D01*
X611642Y338142D01*
X611985Y337791D01*
X612319Y337431D01*
X612644Y337063D01*
X612960Y336688D01*
X613267Y336305D01*
X613564Y335914D01*
X613852Y335516D01*
X614129Y335111D01*
X614397Y334700D01*
X614655Y334282D01*
X614902Y333858D01*
X615138Y333428D01*
X615364Y332992D01*
X615580Y332551D01*
X615784Y332105D01*
X615978Y331654D01*
X616160Y331198D01*
X616331Y330738D01*
X616491Y330274D01*
X616639Y329806D01*
X616776Y329334D01*
X616901Y328860D01*
X617014Y328382D01*
X617116Y327902D01*
X617206Y327419D01*
X617284Y326935D01*
X617350Y326448D01*
X617404Y325960D01*
X617446Y325471D01*
X617476Y324981D01*
X617494Y324491D01*
X617500Y324000D01*
X617494Y323509D01*
X617476Y323019D01*
X617446Y322529D01*
X617404Y322040D01*
X617350Y321552D01*
X617284Y321065D01*
X617206Y320581D01*
X617116Y320098D01*
X617014Y319618D01*
X616901Y319140D01*
X616776Y318666D01*
X616639Y318194D01*
X616491Y317726D01*
X616331Y317262D01*
X616160Y316802D01*
X615978Y316346D01*
X615784Y315895D01*
X615580Y315449D01*
X615364Y315008D01*
X615138Y314572D01*
X614902Y314142D01*
X614655Y313718D01*
X614397Y313300D01*
X614129Y312889D01*
X613852Y312484D01*
X613564Y312086D01*
X613267Y311695D01*
X612960Y311312D01*
X612644Y310937D01*
X612319Y310569D01*
X611985Y310209D01*
X611642Y309858D01*
X611291Y309515D01*
X610931Y309181D01*
X610563Y308856D01*
X610188Y308540D01*
X609805Y308233D01*
X609414Y307936D01*
X609016Y307648D01*
X608611Y307371D01*
X608200Y307103D01*
X607782Y306845D01*
X607358Y306598D01*
X606928Y306362D01*
X606492Y306136D01*
X606051Y305920D01*
X605605Y305716D01*
X605154Y305522D01*
X604698Y305340D01*
X604238Y305169D01*
X603774Y305009D01*
X603306Y304861D01*
X602834Y304724D01*
X602360Y304599D01*
X601882Y304486D01*
X601402Y304384D01*
X600919Y304294D01*
X600435Y304216D01*
X599948Y304150D01*
X599460Y304096D01*
X598971Y304054D01*
X598481Y304024D01*
X597991Y304006D01*
X597500Y304000D01*
X597009Y304006D01*
X596519Y304024D01*
X596029Y304054D01*
X595540Y304096D01*
X595052Y304150D01*
X594565Y304216D01*
X594081Y304294D01*
X593598Y304384D01*
X593118Y304486D01*
X592640Y304599D01*
X592166Y304724D01*
X591694Y304861D01*
X591226Y305009D01*
X590762Y305169D01*
X590302Y305340D01*
X589846Y305522D01*
X589395Y305716D01*
X588949Y305920D01*
X588508Y306136D01*
X588072Y306362D01*
X587642Y306598D01*
X587218Y306845D01*
X586800Y307103D01*
X586389Y307371D01*
X585984Y307648D01*
X585586Y307936D01*
X585195Y308233D01*
X584812Y308540D01*
X584437Y308856D01*
X584069Y309181D01*
X583709Y309515D01*
X583358Y309858D01*
X583015Y310209D01*
X582681Y310569D01*
X582356Y310937D01*
X582040Y311312D01*
X581733Y311695D01*
X581436Y312086D01*
X581148Y312484D01*
X580871Y312889D01*
X580603Y313300D01*
X580345Y313718D01*
X580098Y314142D01*
X579862Y314572D01*
X579636Y315008D01*
X579420Y315449D01*
X579216Y315895D01*
X579022Y316346D01*
X578840Y316802D01*
X578669Y317262D01*
X578509Y317726D01*
X578361Y318194D01*
X578224Y318666D01*
X578099Y319140D01*
X577986Y319618D01*
X577884Y320098D01*
X577794Y320581D01*
X577716Y321065D01*
X577650Y321552D01*
X577596Y322040D01*
X577554Y322529D01*
X577524Y323019D01*
X577506Y323509D01*
X577500Y324000D01*
D13*
X597500Y324000D03*
D14*
X71900Y895400D03*
X135400Y920800D03*
D15*
X59200Y870000D03*
X160800Y870000D03*
D10*
X89680Y870000D02*
X89686Y870499D01*
X89704Y870997D01*
X89735Y871495D01*
X89778Y871992D01*
X89833Y872487D01*
X89900Y872982D01*
X89979Y873474D01*
X90070Y873964D01*
X90174Y874452D01*
X90289Y874937D01*
X90416Y875420D01*
X90555Y875899D01*
X90706Y876374D01*
X90868Y876846D01*
X91042Y877313D01*
X91227Y877776D01*
X91423Y878235D01*
X91631Y878688D01*
X91850Y879136D01*
X92079Y879579D01*
X92320Y880016D01*
X92571Y880447D01*
X92833Y880871D01*
X93105Y881289D01*
X93387Y881700D01*
X93679Y882105D01*
X93981Y882502D01*
X94292Y882891D01*
X94614Y883272D01*
X94944Y883646D01*
X95283Y884011D01*
X95632Y884368D01*
X95989Y884717D01*
X96354Y885056D01*
X96728Y885386D01*
X97109Y885708D01*
X97498Y886019D01*
X97895Y886321D01*
X98300Y886613D01*
X98711Y886895D01*
X99129Y887167D01*
X99553Y887429D01*
X99984Y887680D01*
X100421Y887921D01*
X100864Y888150D01*
X101312Y888369D01*
X101765Y888577D01*
X102224Y888773D01*
X102687Y888958D01*
X103154Y889132D01*
X103626Y889294D01*
X104101Y889445D01*
X104580Y889584D01*
X105063Y889711D01*
X105548Y889826D01*
X106036Y889930D01*
X106526Y890021D01*
X107018Y890100D01*
X107513Y890167D01*
X108008Y890222D01*
X108505Y890265D01*
X109003Y890296D01*
X109501Y890314D01*
X110000Y890320D01*
X110499Y890314D01*
X110997Y890296D01*
X111495Y890265D01*
X111992Y890222D01*
X112487Y890167D01*
X112982Y890100D01*
X113474Y890021D01*
X113964Y889930D01*
X114452Y889826D01*
X114937Y889711D01*
X115420Y889584D01*
X115899Y889445D01*
X116374Y889294D01*
X116846Y889132D01*
X117313Y888958D01*
X117776Y888773D01*
X118235Y888577D01*
X118688Y888369D01*
X119136Y888150D01*
X119579Y887921D01*
X120016Y887680D01*
X120447Y887429D01*
X120871Y887167D01*
X121289Y886895D01*
X121700Y886613D01*
X122105Y886321D01*
X122502Y886019D01*
X122891Y885708D01*
X123272Y885386D01*
X123646Y885056D01*
X124011Y884717D01*
X124368Y884368D01*
X124717Y884011D01*
X125056Y883646D01*
X125386Y883272D01*
X125708Y882891D01*
X126019Y882502D01*
X126321Y882105D01*
X126613Y881700D01*
X126895Y881289D01*
X127167Y880871D01*
X127429Y880447D01*
X127680Y880016D01*
X127921Y879579D01*
X128150Y879136D01*
X128369Y878688D01*
X128577Y878235D01*
X128773Y877776D01*
X128958Y877313D01*
X129132Y876846D01*
X129294Y876374D01*
X129445Y875899D01*
X129584Y875420D01*
X129711Y874937D01*
X129826Y874452D01*
X129930Y873964D01*
X130021Y873474D01*
X130100Y872982D01*
X130167Y872487D01*
X130222Y871992D01*
X130265Y871495D01*
X130296Y870997D01*
X130314Y870499D01*
X130320Y870000D01*
X130314Y869501D01*
X130296Y869003D01*
X130265Y868505D01*
X130222Y868008D01*
X130167Y867513D01*
X130100Y867018D01*
X130021Y866526D01*
X129930Y866036D01*
X129826Y865548D01*
X129711Y865063D01*
X129584Y864580D01*
X129445Y864101D01*
X129294Y863626D01*
X129132Y863154D01*
X128958Y862687D01*
X128773Y862224D01*
X128577Y861765D01*
X128369Y861312D01*
X128150Y860864D01*
X127921Y860421D01*
X127680Y859984D01*
X127429Y859553D01*
X127167Y859129D01*
X126895Y858711D01*
X126613Y858300D01*
X126321Y857895D01*
X126019Y857498D01*
X125708Y857109D01*
X125386Y856728D01*
X125056Y856354D01*
X124717Y855989D01*
X124368Y855632D01*
X124011Y855283D01*
X123646Y854944D01*
X123272Y854614D01*
X122891Y854292D01*
X122502Y853981D01*
X122105Y853679D01*
X121700Y853387D01*
X121289Y853105D01*
X120871Y852833D01*
X120447Y852571D01*
X120016Y852320D01*
X119579Y852079D01*
X119136Y851850D01*
X118688Y851631D01*
X118235Y851423D01*
X117776Y851227D01*
X117313Y851042D01*
X116846Y850868D01*
X116374Y850706D01*
X115899Y850555D01*
X115420Y850416D01*
X114937Y850289D01*
X114452Y850174D01*
X113964Y850070D01*
X113474Y849979D01*
X112982Y849900D01*
X112487Y849833D01*
X111992Y849778D01*
X111495Y849735D01*
X110997Y849704D01*
X110499Y849686D01*
X110000Y849680D01*
X109501Y849686D01*
X109003Y849704D01*
X108505Y849735D01*
X108008Y849778D01*
X107513Y849833D01*
X107018Y849900D01*
X106526Y849979D01*
X106036Y850070D01*
X105548Y850174D01*
X105063Y850289D01*
X104580Y850416D01*
X104101Y850555D01*
X103626Y850706D01*
X103154Y850868D01*
X102687Y851042D01*
X102224Y851227D01*
X101765Y851423D01*
X101312Y851631D01*
X100864Y851850D01*
X100421Y852079D01*
X99984Y852320D01*
X99553Y852571D01*
X99129Y852833D01*
X98711Y853105D01*
X98300Y853387D01*
X97895Y853679D01*
X97498Y853981D01*
X97109Y854292D01*
X96728Y854614D01*
X96354Y854944D01*
X95989Y855283D01*
X95632Y855632D01*
X95283Y855989D01*
X94944Y856354D01*
X94614Y856728D01*
X94292Y857109D01*
X93981Y857498D01*
X93679Y857895D01*
X93387Y858300D01*
X93105Y858711D01*
X92833Y859129D01*
X92571Y859553D01*
X92320Y859984D01*
X92079Y860421D01*
X91850Y860864D01*
X91631Y861312D01*
X91423Y861765D01*
X91227Y862224D01*
X91042Y862687D01*
X90868Y863154D01*
X90706Y863626D01*
X90555Y864101D01*
X90416Y864580D01*
X90289Y865063D01*
X90174Y865548D01*
X90070Y866036D01*
X89979Y866526D01*
X89900Y867018D01*
X89833Y867513D01*
X89778Y868008D01*
X89735Y868505D01*
X89704Y869003D01*
X89686Y869501D01*
X89680Y870000D01*
D16*
X110000Y870000D03*
D17*
X97300Y819200D03*
X122700Y819200D03*
D14*
X261900Y895400D03*
X325400Y920800D03*
D15*
X249200Y870000D03*
X350800Y870000D03*
D10*
X279680Y870000D02*
X279686Y870499D01*
X279704Y870997D01*
X279735Y871495D01*
X279778Y871992D01*
X279833Y872487D01*
X279900Y872982D01*
X279979Y873474D01*
X280070Y873964D01*
X280174Y874452D01*
X280289Y874937D01*
X280416Y875420D01*
X280555Y875899D01*
X280706Y876374D01*
X280868Y876846D01*
X281042Y877313D01*
X281227Y877776D01*
X281423Y878235D01*
X281631Y878688D01*
X281850Y879136D01*
X282079Y879579D01*
X282320Y880016D01*
X282571Y880447D01*
X282833Y880871D01*
X283105Y881289D01*
X283387Y881700D01*
X283679Y882105D01*
X283981Y882502D01*
X284292Y882891D01*
X284614Y883272D01*
X284944Y883646D01*
X285283Y884011D01*
X285632Y884368D01*
X285989Y884717D01*
X286354Y885056D01*
X286728Y885386D01*
X287109Y885708D01*
X287498Y886019D01*
X287895Y886321D01*
X288300Y886613D01*
X288711Y886895D01*
X289129Y887167D01*
X289553Y887429D01*
X289984Y887680D01*
X290421Y887921D01*
X290864Y888150D01*
X291312Y888369D01*
X291765Y888577D01*
X292224Y888773D01*
X292687Y888958D01*
X293154Y889132D01*
X293626Y889294D01*
X294101Y889445D01*
X294580Y889584D01*
X295063Y889711D01*
X295548Y889826D01*
X296036Y889930D01*
X296526Y890021D01*
X297018Y890100D01*
X297513Y890167D01*
X298008Y890222D01*
X298505Y890265D01*
X299003Y890296D01*
X299501Y890314D01*
X300000Y890320D01*
X300499Y890314D01*
X300997Y890296D01*
X301495Y890265D01*
X301992Y890222D01*
X302487Y890167D01*
X302982Y890100D01*
X303474Y890021D01*
X303964Y889930D01*
X304452Y889826D01*
X304937Y889711D01*
X305420Y889584D01*
X305899Y889445D01*
X306374Y889294D01*
X306846Y889132D01*
X307313Y888958D01*
X307776Y888773D01*
X308235Y888577D01*
X308688Y888369D01*
X309136Y888150D01*
X309579Y887921D01*
X310016Y887680D01*
X310447Y887429D01*
X310871Y887167D01*
X311289Y886895D01*
X311700Y886613D01*
X312105Y886321D01*
X312502Y886019D01*
X312891Y885708D01*
X313272Y885386D01*
X313646Y885056D01*
X314011Y884717D01*
X314368Y884368D01*
X314717Y884011D01*
X315056Y883646D01*
X315386Y883272D01*
X315708Y882891D01*
X316019Y882502D01*
X316321Y882105D01*
X316613Y881700D01*
X316895Y881289D01*
X317167Y880871D01*
X317429Y880447D01*
X317680Y880016D01*
X317921Y879579D01*
X318150Y879136D01*
X318369Y878688D01*
X318577Y878235D01*
X318773Y877776D01*
X318958Y877313D01*
X319132Y876846D01*
X319294Y876374D01*
X319445Y875899D01*
X319584Y875420D01*
X319711Y874937D01*
X319826Y874452D01*
X319930Y873964D01*
X320021Y873474D01*
X320100Y872982D01*
X320167Y872487D01*
X320222Y871992D01*
X320265Y871495D01*
X320296Y870997D01*
X320314Y870499D01*
X320320Y870000D01*
X320314Y869501D01*
X320296Y869003D01*
X320265Y868505D01*
X320222Y868008D01*
X320167Y867513D01*
X320100Y867018D01*
X320021Y866526D01*
X319930Y866036D01*
X319826Y865548D01*
X319711Y865063D01*
X319584Y864580D01*
X319445Y864101D01*
X319294Y863626D01*
X319132Y863154D01*
X318958Y862687D01*
X318773Y862224D01*
X318577Y861765D01*
X318369Y861312D01*
X318150Y860864D01*
X317921Y860421D01*
X317680Y859984D01*
X317429Y859553D01*
X317167Y859129D01*
X316895Y858711D01*
X316613Y858300D01*
X316321Y857895D01*
X316019Y857498D01*
X315708Y857109D01*
X315386Y856728D01*
X315056Y856354D01*
X314717Y855989D01*
X314368Y855632D01*
X314011Y855283D01*
X313646Y854944D01*
X313272Y854614D01*
X312891Y854292D01*
X312502Y853981D01*
X312105Y853679D01*
X311700Y853387D01*
X311289Y853105D01*
X310871Y852833D01*
X310447Y852571D01*
X310016Y852320D01*
X309579Y852079D01*
X309136Y851850D01*
X308688Y851631D01*
X308235Y851423D01*
X307776Y851227D01*
X307313Y851042D01*
X306846Y850868D01*
X306374Y850706D01*
X305899Y850555D01*
X305420Y850416D01*
X304937Y850289D01*
X304452Y850174D01*
X303964Y850070D01*
X303474Y849979D01*
X302982Y849900D01*
X302487Y849833D01*
X301992Y849778D01*
X301495Y849735D01*
X300997Y849704D01*
X300499Y849686D01*
X300000Y849680D01*
X299501Y849686D01*
X299003Y849704D01*
X298505Y849735D01*
X298008Y849778D01*
X297513Y849833D01*
X297018Y849900D01*
X296526Y849979D01*
X296036Y850070D01*
X295548Y850174D01*
X295063Y850289D01*
X294580Y850416D01*
X294101Y850555D01*
X293626Y850706D01*
X293154Y850868D01*
X292687Y851042D01*
X292224Y851227D01*
X291765Y851423D01*
X291312Y851631D01*
X290864Y851850D01*
X290421Y852079D01*
X289984Y852320D01*
X289553Y852571D01*
X289129Y852833D01*
X288711Y853105D01*
X288300Y853387D01*
X287895Y853679D01*
X287498Y853981D01*
X287109Y854292D01*
X286728Y854614D01*
X286354Y854944D01*
X285989Y855283D01*
X285632Y855632D01*
X285283Y855989D01*
X284944Y856354D01*
X284614Y856728D01*
X284292Y857109D01*
X283981Y857498D01*
X283679Y857895D01*
X283387Y858300D01*
X283105Y858711D01*
X282833Y859129D01*
X282571Y859553D01*
X282320Y859984D01*
X282079Y860421D01*
X281850Y860864D01*
X281631Y861312D01*
X281423Y861765D01*
X281227Y862224D01*
X281042Y862687D01*
X280868Y863154D01*
X280706Y863626D01*
X280555Y864101D01*
X280416Y864580D01*
X280289Y865063D01*
X280174Y865548D01*
X280070Y866036D01*
X279979Y866526D01*
X279900Y867018D01*
X279833Y867513D01*
X279778Y868008D01*
X279735Y868505D01*
X279704Y869003D01*
X279686Y869501D01*
X279680Y870000D01*
D16*
X300000Y870000D03*
D17*
X287300Y819200D03*
X312700Y819200D03*
D14*
X451900Y895400D03*
X515400Y920800D03*
D15*
X439200Y870000D03*
X540800Y870000D03*
D10*
X469680Y870000D02*
X469686Y870499D01*
X469704Y870997D01*
X469735Y871495D01*
X469778Y871992D01*
X469833Y872487D01*
X469900Y872982D01*
X469979Y873474D01*
X470070Y873964D01*
X470174Y874452D01*
X470289Y874937D01*
X470416Y875420D01*
X470555Y875899D01*
X470706Y876374D01*
X470868Y876846D01*
X471042Y877313D01*
X471227Y877776D01*
X471423Y878235D01*
X471631Y878688D01*
X471850Y879136D01*
X472079Y879579D01*
X472320Y880016D01*
X472571Y880447D01*
X472833Y880871D01*
X473105Y881289D01*
X473387Y881700D01*
X473679Y882105D01*
X473981Y882502D01*
X474292Y882891D01*
X474614Y883272D01*
X474944Y883646D01*
X475283Y884011D01*
X475632Y884368D01*
X475989Y884717D01*
X476354Y885056D01*
X476728Y885386D01*
X477109Y885708D01*
X477498Y886019D01*
X477895Y886321D01*
X478300Y886613D01*
X478711Y886895D01*
X479129Y887167D01*
X479553Y887429D01*
X479984Y887680D01*
X480421Y887921D01*
X480864Y888150D01*
X481312Y888369D01*
X481765Y888577D01*
X482224Y888773D01*
X482687Y888958D01*
X483154Y889132D01*
X483626Y889294D01*
X484101Y889445D01*
X484580Y889584D01*
X485063Y889711D01*
X485548Y889826D01*
X486036Y889930D01*
X486526Y890021D01*
X487018Y890100D01*
X487513Y890167D01*
X488008Y890222D01*
X488505Y890265D01*
X489003Y890296D01*
X489501Y890314D01*
X490000Y890320D01*
X490499Y890314D01*
X490997Y890296D01*
X491495Y890265D01*
X491992Y890222D01*
X492487Y890167D01*
X492982Y890100D01*
X493474Y890021D01*
X493964Y889930D01*
X494452Y889826D01*
X494937Y889711D01*
X495420Y889584D01*
X495899Y889445D01*
X496374Y889294D01*
X496846Y889132D01*
X497313Y888958D01*
X497776Y888773D01*
X498235Y888577D01*
X498688Y888369D01*
X499136Y888150D01*
X499579Y887921D01*
X500016Y887680D01*
X500447Y887429D01*
X500871Y887167D01*
X501289Y886895D01*
X501700Y886613D01*
X502105Y886321D01*
X502502Y886019D01*
X502891Y885708D01*
X503272Y885386D01*
X503646Y885056D01*
X504011Y884717D01*
X504368Y884368D01*
X504717Y884011D01*
X505056Y883646D01*
X505386Y883272D01*
X505708Y882891D01*
X506019Y882502D01*
X506321Y882105D01*
X506613Y881700D01*
X506895Y881289D01*
X507167Y880871D01*
X507429Y880447D01*
X507680Y880016D01*
X507921Y879579D01*
X508150Y879136D01*
X508369Y878688D01*
X508577Y878235D01*
X508773Y877776D01*
X508958Y877313D01*
X509132Y876846D01*
X509294Y876374D01*
X509445Y875899D01*
X509584Y875420D01*
X509711Y874937D01*
X509826Y874452D01*
X509930Y873964D01*
X510021Y873474D01*
X510100Y872982D01*
X510167Y872487D01*
X510222Y871992D01*
X510265Y871495D01*
X510296Y870997D01*
X510314Y870499D01*
X510320Y870000D01*
X510314Y869501D01*
X510296Y869003D01*
X510265Y868505D01*
X510222Y868008D01*
X510167Y867513D01*
X510100Y867018D01*
X510021Y866526D01*
X509930Y866036D01*
X509826Y865548D01*
X509711Y865063D01*
X509584Y864580D01*
X509445Y864101D01*
X509294Y863626D01*
X509132Y863154D01*
X508958Y862687D01*
X508773Y862224D01*
X508577Y861765D01*
X508369Y861312D01*
X508150Y860864D01*
X507921Y860421D01*
X507680Y859984D01*
X507429Y859553D01*
X507167Y859129D01*
X506895Y858711D01*
X506613Y858300D01*
X506321Y857895D01*
X506019Y857498D01*
X505708Y857109D01*
X505386Y856728D01*
X505056Y856354D01*
X504717Y855989D01*
X504368Y855632D01*
X504011Y855283D01*
X503646Y854944D01*
X503272Y854614D01*
X502891Y854292D01*
X502502Y853981D01*
X502105Y853679D01*
X501700Y853387D01*
X501289Y853105D01*
X500871Y852833D01*
X500447Y852571D01*
X500016Y852320D01*
X499579Y852079D01*
X499136Y851850D01*
X498688Y851631D01*
X498235Y851423D01*
X497776Y851227D01*
X497313Y851042D01*
X496846Y850868D01*
X496374Y850706D01*
X495899Y850555D01*
X495420Y850416D01*
X494937Y850289D01*
X494452Y850174D01*
X493964Y850070D01*
X493474Y849979D01*
X492982Y849900D01*
X492487Y849833D01*
X491992Y849778D01*
X491495Y849735D01*
X490997Y849704D01*
X490499Y849686D01*
X490000Y849680D01*
X489501Y849686D01*
X489003Y849704D01*
X488505Y849735D01*
X488008Y849778D01*
X487513Y849833D01*
X487018Y849900D01*
X486526Y849979D01*
X486036Y850070D01*
X485548Y850174D01*
X485063Y850289D01*
X484580Y850416D01*
X484101Y850555D01*
X483626Y850706D01*
X483154Y850868D01*
X482687Y851042D01*
X482224Y851227D01*
X481765Y851423D01*
X481312Y851631D01*
X480864Y851850D01*
X480421Y852079D01*
X479984Y852320D01*
X479553Y852571D01*
X479129Y852833D01*
X478711Y853105D01*
X478300Y853387D01*
X477895Y853679D01*
X477498Y853981D01*
X477109Y854292D01*
X476728Y854614D01*
X476354Y854944D01*
X475989Y855283D01*
X475632Y855632D01*
X475283Y855989D01*
X474944Y856354D01*
X474614Y856728D01*
X474292Y857109D01*
X473981Y857498D01*
X473679Y857895D01*
X473387Y858300D01*
X473105Y858711D01*
X472833Y859129D01*
X472571Y859553D01*
X472320Y859984D01*
X472079Y860421D01*
X471850Y860864D01*
X471631Y861312D01*
X471423Y861765D01*
X471227Y862224D01*
X471042Y862687D01*
X470868Y863154D01*
X470706Y863626D01*
X470555Y864101D01*
X470416Y864580D01*
X470289Y865063D01*
X470174Y865548D01*
X470070Y866036D01*
X469979Y866526D01*
X469900Y867018D01*
X469833Y867513D01*
X469778Y868008D01*
X469735Y868505D01*
X469704Y869003D01*
X469686Y869501D01*
X469680Y870000D01*
D16*
X490000Y870000D03*
D17*
X477300Y819200D03*
X502700Y819200D03*
D14*
X71900Y705400D03*
X135400Y730800D03*
D15*
X59200Y680000D03*
X160800Y680000D03*
D10*
X89680Y680000D02*
X89686Y680499D01*
X89704Y680997D01*
X89735Y681495D01*
X89778Y681992D01*
X89833Y682487D01*
X89900Y682982D01*
X89979Y683474D01*
X90070Y683964D01*
X90174Y684452D01*
X90289Y684937D01*
X90416Y685420D01*
X90555Y685899D01*
X90706Y686374D01*
X90868Y686846D01*
X91042Y687313D01*
X91227Y687776D01*
X91423Y688235D01*
X91631Y688688D01*
X91850Y689136D01*
X92079Y689579D01*
X92320Y690016D01*
X92571Y690447D01*
X92833Y690871D01*
X93105Y691289D01*
X93387Y691700D01*
X93679Y692105D01*
X93981Y692502D01*
X94292Y692891D01*
X94614Y693272D01*
X94944Y693646D01*
X95283Y694011D01*
X95632Y694368D01*
X95989Y694717D01*
X96354Y695056D01*
X96728Y695386D01*
X97109Y695708D01*
X97498Y696019D01*
X97895Y696321D01*
X98300Y696613D01*
X98711Y696895D01*
X99129Y697167D01*
X99553Y697429D01*
X99984Y697680D01*
X100421Y697921D01*
X100864Y698150D01*
X101312Y698369D01*
X101765Y698577D01*
X102224Y698773D01*
X102687Y698958D01*
X103154Y699132D01*
X103626Y699294D01*
X104101Y699445D01*
X104580Y699584D01*
X105063Y699711D01*
X105548Y699826D01*
X106036Y699930D01*
X106526Y700021D01*
X107018Y700100D01*
X107513Y700167D01*
X108008Y700222D01*
X108505Y700265D01*
X109003Y700296D01*
X109501Y700314D01*
X110000Y700320D01*
X110499Y700314D01*
X110997Y700296D01*
X111495Y700265D01*
X111992Y700222D01*
X112487Y700167D01*
X112982Y700100D01*
X113474Y700021D01*
X113964Y699930D01*
X114452Y699826D01*
X114937Y699711D01*
X115420Y699584D01*
X115899Y699445D01*
X116374Y699294D01*
X116846Y699132D01*
X117313Y698958D01*
X117776Y698773D01*
X118235Y698577D01*
X118688Y698369D01*
X119136Y698150D01*
X119579Y697921D01*
X120016Y697680D01*
X120447Y697429D01*
X120871Y697167D01*
X121289Y696895D01*
X121700Y696613D01*
X122105Y696321D01*
X122502Y696019D01*
X122891Y695708D01*
X123272Y695386D01*
X123646Y695056D01*
X124011Y694717D01*
X124368Y694368D01*
X124717Y694011D01*
X125056Y693646D01*
X125386Y693272D01*
X125708Y692891D01*
X126019Y692502D01*
X126321Y692105D01*
X126613Y691700D01*
X126895Y691289D01*
X127167Y690871D01*
X127429Y690447D01*
X127680Y690016D01*
X127921Y689579D01*
X128150Y689136D01*
X128369Y688688D01*
X128577Y688235D01*
X128773Y687776D01*
X128958Y687313D01*
X129132Y686846D01*
X129294Y686374D01*
X129445Y685899D01*
X129584Y685420D01*
X129711Y684937D01*
X129826Y684452D01*
X129930Y683964D01*
X130021Y683474D01*
X130100Y682982D01*
X130167Y682487D01*
X130222Y681992D01*
X130265Y681495D01*
X130296Y680997D01*
X130314Y680499D01*
X130320Y680000D01*
X130314Y679501D01*
X130296Y679003D01*
X130265Y678505D01*
X130222Y678008D01*
X130167Y677513D01*
X130100Y677018D01*
X130021Y676526D01*
X129930Y676036D01*
X129826Y675548D01*
X129711Y675063D01*
X129584Y674580D01*
X129445Y674101D01*
X129294Y673626D01*
X129132Y673154D01*
X128958Y672687D01*
X128773Y672224D01*
X128577Y671765D01*
X128369Y671312D01*
X128150Y670864D01*
X127921Y670421D01*
X127680Y669984D01*
X127429Y669553D01*
X127167Y669129D01*
X126895Y668711D01*
X126613Y668300D01*
X126321Y667895D01*
X126019Y667498D01*
X125708Y667109D01*
X125386Y666728D01*
X125056Y666354D01*
X124717Y665989D01*
X124368Y665632D01*
X124011Y665283D01*
X123646Y664944D01*
X123272Y664614D01*
X122891Y664292D01*
X122502Y663981D01*
X122105Y663679D01*
X121700Y663387D01*
X121289Y663105D01*
X120871Y662833D01*
X120447Y662571D01*
X120016Y662320D01*
X119579Y662079D01*
X119136Y661850D01*
X118688Y661631D01*
X118235Y661423D01*
X117776Y661227D01*
X117313Y661042D01*
X116846Y660868D01*
X116374Y660706D01*
X115899Y660555D01*
X115420Y660416D01*
X114937Y660289D01*
X114452Y660174D01*
X113964Y660070D01*
X113474Y659979D01*
X112982Y659900D01*
X112487Y659833D01*
X111992Y659778D01*
X111495Y659735D01*
X110997Y659704D01*
X110499Y659686D01*
X110000Y659680D01*
X109501Y659686D01*
X109003Y659704D01*
X108505Y659735D01*
X108008Y659778D01*
X107513Y659833D01*
X107018Y659900D01*
X106526Y659979D01*
X106036Y660070D01*
X105548Y660174D01*
X105063Y660289D01*
X104580Y660416D01*
X104101Y660555D01*
X103626Y660706D01*
X103154Y660868D01*
X102687Y661042D01*
X102224Y661227D01*
X101765Y661423D01*
X101312Y661631D01*
X100864Y661850D01*
X100421Y662079D01*
X99984Y662320D01*
X99553Y662571D01*
X99129Y662833D01*
X98711Y663105D01*
X98300Y663387D01*
X97895Y663679D01*
X97498Y663981D01*
X97109Y664292D01*
X96728Y664614D01*
X96354Y664944D01*
X95989Y665283D01*
X95632Y665632D01*
X95283Y665989D01*
X94944Y666354D01*
X94614Y666728D01*
X94292Y667109D01*
X93981Y667498D01*
X93679Y667895D01*
X93387Y668300D01*
X93105Y668711D01*
X92833Y669129D01*
X92571Y669553D01*
X92320Y669984D01*
X92079Y670421D01*
X91850Y670864D01*
X91631Y671312D01*
X91423Y671765D01*
X91227Y672224D01*
X91042Y672687D01*
X90868Y673154D01*
X90706Y673626D01*
X90555Y674101D01*
X90416Y674580D01*
X90289Y675063D01*
X90174Y675548D01*
X90070Y676036D01*
X89979Y676526D01*
X89900Y677018D01*
X89833Y677513D01*
X89778Y678008D01*
X89735Y678505D01*
X89704Y679003D01*
X89686Y679501D01*
X89680Y680000D01*
D16*
X110000Y680000D03*
D17*
X97300Y629200D03*
X122700Y629200D03*
D14*
X261900Y705400D03*
X325400Y730800D03*
D15*
X249200Y680000D03*
X350800Y680000D03*
D10*
X279680Y680000D02*
X279686Y680499D01*
X279704Y680997D01*
X279735Y681495D01*
X279778Y681992D01*
X279833Y682487D01*
X279900Y682982D01*
X279979Y683474D01*
X280070Y683964D01*
X280174Y684452D01*
X280289Y684937D01*
X280416Y685420D01*
X280555Y685899D01*
X280706Y686374D01*
X280868Y686846D01*
X281042Y687313D01*
X281227Y687776D01*
X281423Y688235D01*
X281631Y688688D01*
X281850Y689136D01*
X282079Y689579D01*
X282320Y690016D01*
X282571Y690447D01*
X282833Y690871D01*
X283105Y691289D01*
X283387Y691700D01*
X283679Y692105D01*
X283981Y692502D01*
X284292Y692891D01*
X284614Y693272D01*
X284944Y693646D01*
X285283Y694011D01*
X285632Y694368D01*
X285989Y694717D01*
X286354Y695056D01*
X286728Y695386D01*
X287109Y695708D01*
X287498Y696019D01*
X287895Y696321D01*
X288300Y696613D01*
X288711Y696895D01*
X289129Y697167D01*
X289553Y697429D01*
X289984Y697680D01*
X290421Y697921D01*
X290864Y698150D01*
X291312Y698369D01*
X291765Y698577D01*
X292224Y698773D01*
X292687Y698958D01*
X293154Y699132D01*
X293626Y699294D01*
X294101Y699445D01*
X294580Y699584D01*
X295063Y699711D01*
X295548Y699826D01*
X296036Y699930D01*
X296526Y700021D01*
X297018Y700100D01*
X297513Y700167D01*
X298008Y700222D01*
X298505Y700265D01*
X299003Y700296D01*
X299501Y700314D01*
X300000Y700320D01*
X300499Y700314D01*
X300997Y700296D01*
X301495Y700265D01*
X301992Y700222D01*
X302487Y700167D01*
X302982Y700100D01*
X303474Y700021D01*
X303964Y699930D01*
X304452Y699826D01*
X304937Y699711D01*
X305420Y699584D01*
X305899Y699445D01*
X306374Y699294D01*
X306846Y699132D01*
X307313Y698958D01*
X307776Y698773D01*
X308235Y698577D01*
X308688Y698369D01*
X309136Y698150D01*
X309579Y697921D01*
X310016Y697680D01*
X310447Y697429D01*
X310871Y697167D01*
X311289Y696895D01*
X311700Y696613D01*
X312105Y696321D01*
X312502Y696019D01*
X312891Y695708D01*
X313272Y695386D01*
X313646Y695056D01*
X314011Y694717D01*
X314368Y694368D01*
X314717Y694011D01*
X315056Y693646D01*
X315386Y693272D01*
X315708Y692891D01*
X316019Y692502D01*
X316321Y692105D01*
X316613Y691700D01*
X316895Y691289D01*
X317167Y690871D01*
X317429Y690447D01*
X317680Y690016D01*
X317921Y689579D01*
X318150Y689136D01*
X318369Y688688D01*
X318577Y688235D01*
X318773Y687776D01*
X318958Y687313D01*
X319132Y686846D01*
X319294Y686374D01*
X319445Y685899D01*
X319584Y685420D01*
X319711Y684937D01*
X319826Y684452D01*
X319930Y683964D01*
X320021Y683474D01*
X320100Y682982D01*
X320167Y682487D01*
X320222Y681992D01*
X320265Y681495D01*
X320296Y680997D01*
X320314Y680499D01*
X320320Y680000D01*
X320314Y679501D01*
X320296Y679003D01*
X320265Y678505D01*
X320222Y678008D01*
X320167Y677513D01*
X320100Y677018D01*
X320021Y676526D01*
X319930Y676036D01*
X319826Y675548D01*
X319711Y675063D01*
X319584Y674580D01*
X319445Y674101D01*
X319294Y673626D01*
X319132Y673154D01*
X318958Y672687D01*
X318773Y672224D01*
X318577Y671765D01*
X318369Y671312D01*
X318150Y670864D01*
X317921Y670421D01*
X317680Y669984D01*
X317429Y669553D01*
X317167Y669129D01*
X316895Y668711D01*
X316613Y668300D01*
X316321Y667895D01*
X316019Y667498D01*
X315708Y667109D01*
X315386Y666728D01*
X315056Y666354D01*
X314717Y665989D01*
X314368Y665632D01*
X314011Y665283D01*
X313646Y664944D01*
X313272Y664614D01*
X312891Y664292D01*
X312502Y663981D01*
X312105Y663679D01*
X311700Y663387D01*
X311289Y663105D01*
X310871Y662833D01*
X310447Y662571D01*
X310016Y662320D01*
X309579Y662079D01*
X309136Y661850D01*
X308688Y661631D01*
X308235Y661423D01*
X307776Y661227D01*
X307313Y661042D01*
X306846Y660868D01*
X306374Y660706D01*
X305899Y660555D01*
X305420Y660416D01*
X304937Y660289D01*
X304452Y660174D01*
X303964Y660070D01*
X303474Y659979D01*
X302982Y659900D01*
X302487Y659833D01*
X301992Y659778D01*
X301495Y659735D01*
X300997Y659704D01*
X300499Y659686D01*
X300000Y659680D01*
X299501Y659686D01*
X299003Y659704D01*
X298505Y659735D01*
X298008Y659778D01*
X297513Y659833D01*
X297018Y659900D01*
X296526Y659979D01*
X296036Y660070D01*
X295548Y660174D01*
X295063Y660289D01*
X294580Y660416D01*
X294101Y660555D01*
X293626Y660706D01*
X293154Y660868D01*
X292687Y661042D01*
X292224Y661227D01*
X291765Y661423D01*
X291312Y661631D01*
X290864Y661850D01*
X290421Y662079D01*
X289984Y662320D01*
X289553Y662571D01*
X289129Y662833D01*
X288711Y663105D01*
X288300Y663387D01*
X287895Y663679D01*
X287498Y663981D01*
X287109Y664292D01*
X286728Y664614D01*
X286354Y664944D01*
X285989Y665283D01*
X285632Y665632D01*
X285283Y665989D01*
X284944Y666354D01*
X284614Y666728D01*
X284292Y667109D01*
X283981Y667498D01*
X283679Y667895D01*
X283387Y668300D01*
X283105Y668711D01*
X282833Y669129D01*
X282571Y669553D01*
X282320Y669984D01*
X282079Y670421D01*
X281850Y670864D01*
X281631Y671312D01*
X281423Y671765D01*
X281227Y672224D01*
X281042Y672687D01*
X280868Y673154D01*
X280706Y673626D01*
X280555Y674101D01*
X280416Y674580D01*
X280289Y675063D01*
X280174Y675548D01*
X280070Y676036D01*
X279979Y676526D01*
X279900Y677018D01*
X279833Y677513D01*
X279778Y678008D01*
X279735Y678505D01*
X279704Y679003D01*
X279686Y679501D01*
X279680Y680000D01*
D16*
X300000Y680000D03*
D17*
X287300Y629200D03*
X312700Y629200D03*
D14*
X451900Y705400D03*
X515400Y730800D03*
D15*
X439200Y680000D03*
X540800Y680000D03*
D10*
X469680Y680000D02*
X469686Y680499D01*
X469704Y680997D01*
X469735Y681495D01*
X469778Y681992D01*
X469833Y682487D01*
X469900Y682982D01*
X469979Y683474D01*
X470070Y683964D01*
X470174Y684452D01*
X470289Y684937D01*
X470416Y685420D01*
X470555Y685899D01*
X470706Y686374D01*
X470868Y686846D01*
X471042Y687313D01*
X471227Y687776D01*
X471423Y688235D01*
X471631Y688688D01*
X471850Y689136D01*
X472079Y689579D01*
X472320Y690016D01*
X472571Y690447D01*
X472833Y690871D01*
X473105Y691289D01*
X473387Y691700D01*
X473679Y692105D01*
X473981Y692502D01*
X474292Y692891D01*
X474614Y693272D01*
X474944Y693646D01*
X475283Y694011D01*
X475632Y694368D01*
X475989Y694717D01*
X476354Y695056D01*
X476728Y695386D01*
X477109Y695708D01*
X477498Y696019D01*
X477895Y696321D01*
X478300Y696613D01*
X478711Y696895D01*
X479129Y697167D01*
X479553Y697429D01*
X479984Y697680D01*
X480421Y697921D01*
X480864Y698150D01*
X481312Y698369D01*
X481765Y698577D01*
X482224Y698773D01*
X482687Y698958D01*
X483154Y699132D01*
X483626Y699294D01*
X484101Y699445D01*
X484580Y699584D01*
X485063Y699711D01*
X485548Y699826D01*
X486036Y699930D01*
X486526Y700021D01*
X487018Y700100D01*
X487513Y700167D01*
X488008Y700222D01*
X488505Y700265D01*
X489003Y700296D01*
X489501Y700314D01*
X490000Y700320D01*
X490499Y700314D01*
X490997Y700296D01*
X491495Y700265D01*
X491992Y700222D01*
X492487Y700167D01*
X492982Y700100D01*
X493474Y700021D01*
X493964Y699930D01*
X494452Y699826D01*
X494937Y699711D01*
X495420Y699584D01*
X495899Y699445D01*
X496374Y699294D01*
X496846Y699132D01*
X497313Y698958D01*
X497776Y698773D01*
X498235Y698577D01*
X498688Y698369D01*
X499136Y698150D01*
X499579Y697921D01*
X500016Y697680D01*
X500447Y697429D01*
X500871Y697167D01*
X501289Y696895D01*
X501700Y696613D01*
X502105Y696321D01*
X502502Y696019D01*
X502891Y695708D01*
X503272Y695386D01*
X503646Y695056D01*
X504011Y694717D01*
X504368Y694368D01*
X504717Y694011D01*
X505056Y693646D01*
X505386Y693272D01*
X505708Y692891D01*
X506019Y692502D01*
X506321Y692105D01*
X506613Y691700D01*
X506895Y691289D01*
X507167Y690871D01*
X507429Y690447D01*
X507680Y690016D01*
X507921Y689579D01*
X508150Y689136D01*
X508369Y688688D01*
X508577Y688235D01*
X508773Y687776D01*
X508958Y687313D01*
X509132Y686846D01*
X509294Y686374D01*
X509445Y685899D01*
X509584Y685420D01*
X509711Y684937D01*
X509826Y684452D01*
X509930Y683964D01*
X510021Y683474D01*
X510100Y682982D01*
X510167Y682487D01*
X510222Y681992D01*
X510265Y681495D01*
X510296Y680997D01*
X510314Y680499D01*
X510320Y680000D01*
X510314Y679501D01*
X510296Y679003D01*
X510265Y678505D01*
X510222Y678008D01*
X510167Y677513D01*
X510100Y677018D01*
X510021Y676526D01*
X509930Y676036D01*
X509826Y675548D01*
X509711Y675063D01*
X509584Y674580D01*
X509445Y674101D01*
X509294Y673626D01*
X509132Y673154D01*
X508958Y672687D01*
X508773Y672224D01*
X508577Y671765D01*
X508369Y671312D01*
X508150Y670864D01*
X507921Y670421D01*
X507680Y669984D01*
X507429Y669553D01*
X507167Y669129D01*
X506895Y668711D01*
X506613Y668300D01*
X506321Y667895D01*
X506019Y667498D01*
X505708Y667109D01*
X505386Y666728D01*
X505056Y666354D01*
X504717Y665989D01*
X504368Y665632D01*
X504011Y665283D01*
X503646Y664944D01*
X503272Y664614D01*
X502891Y664292D01*
X502502Y663981D01*
X502105Y663679D01*
X501700Y663387D01*
X501289Y663105D01*
X500871Y662833D01*
X500447Y662571D01*
X500016Y662320D01*
X499579Y662079D01*
X499136Y661850D01*
X498688Y661631D01*
X498235Y661423D01*
X497776Y661227D01*
X497313Y661042D01*
X496846Y660868D01*
X496374Y660706D01*
X495899Y660555D01*
X495420Y660416D01*
X494937Y660289D01*
X494452Y660174D01*
X493964Y660070D01*
X493474Y659979D01*
X492982Y659900D01*
X492487Y659833D01*
X491992Y659778D01*
X491495Y659735D01*
X490997Y659704D01*
X490499Y659686D01*
X490000Y659680D01*
X489501Y659686D01*
X489003Y659704D01*
X488505Y659735D01*
X488008Y659778D01*
X487513Y659833D01*
X487018Y659900D01*
X486526Y659979D01*
X486036Y660070D01*
X485548Y660174D01*
X485063Y660289D01*
X484580Y660416D01*
X484101Y660555D01*
X483626Y660706D01*
X483154Y660868D01*
X482687Y661042D01*
X482224Y661227D01*
X481765Y661423D01*
X481312Y661631D01*
X480864Y661850D01*
X480421Y662079D01*
X479984Y662320D01*
X479553Y662571D01*
X479129Y662833D01*
X478711Y663105D01*
X478300Y663387D01*
X477895Y663679D01*
X477498Y663981D01*
X477109Y664292D01*
X476728Y664614D01*
X476354Y664944D01*
X475989Y665283D01*
X475632Y665632D01*
X475283Y665989D01*
X474944Y666354D01*
X474614Y666728D01*
X474292Y667109D01*
X473981Y667498D01*
X473679Y667895D01*
X473387Y668300D01*
X473105Y668711D01*
X472833Y669129D01*
X472571Y669553D01*
X472320Y669984D01*
X472079Y670421D01*
X471850Y670864D01*
X471631Y671312D01*
X471423Y671765D01*
X471227Y672224D01*
X471042Y672687D01*
X470868Y673154D01*
X470706Y673626D01*
X470555Y674101D01*
X470416Y674580D01*
X470289Y675063D01*
X470174Y675548D01*
X470070Y676036D01*
X469979Y676526D01*
X469900Y677018D01*
X469833Y677513D01*
X469778Y678008D01*
X469735Y678505D01*
X469704Y679003D01*
X469686Y679501D01*
X469680Y680000D01*
D16*
X490000Y680000D03*
D17*
X477300Y629200D03*
X502700Y629200D03*
D14*
X71900Y515400D03*
X135400Y540800D03*
D15*
X59200Y490000D03*
X160800Y490000D03*
D10*
X89680Y490000D02*
X89686Y490499D01*
X89704Y490997D01*
X89735Y491495D01*
X89778Y491992D01*
X89833Y492487D01*
X89900Y492982D01*
X89979Y493474D01*
X90070Y493964D01*
X90174Y494452D01*
X90289Y494937D01*
X90416Y495420D01*
X90555Y495899D01*
X90706Y496374D01*
X90868Y496846D01*
X91042Y497313D01*
X91227Y497776D01*
X91423Y498235D01*
X91631Y498688D01*
X91850Y499136D01*
X92079Y499579D01*
X92320Y500016D01*
X92571Y500447D01*
X92833Y500871D01*
X93105Y501289D01*
X93387Y501700D01*
X93679Y502105D01*
X93981Y502502D01*
X94292Y502891D01*
X94614Y503272D01*
X94944Y503646D01*
X95283Y504011D01*
X95632Y504368D01*
X95989Y504717D01*
X96354Y505056D01*
X96728Y505386D01*
X97109Y505708D01*
X97498Y506019D01*
X97895Y506321D01*
X98300Y506613D01*
X98711Y506895D01*
X99129Y507167D01*
X99553Y507429D01*
X99984Y507680D01*
X100421Y507921D01*
X100864Y508150D01*
X101312Y508369D01*
X101765Y508577D01*
X102224Y508773D01*
X102687Y508958D01*
X103154Y509132D01*
X103626Y509294D01*
X104101Y509445D01*
X104580Y509584D01*
X105063Y509711D01*
X105548Y509826D01*
X106036Y509930D01*
X106526Y510021D01*
X107018Y510100D01*
X107513Y510167D01*
X108008Y510222D01*
X108505Y510265D01*
X109003Y510296D01*
X109501Y510314D01*
X110000Y510320D01*
X110499Y510314D01*
X110997Y510296D01*
X111495Y510265D01*
X111992Y510222D01*
X112487Y510167D01*
X112982Y510100D01*
X113474Y510021D01*
X113964Y509930D01*
X114452Y509826D01*
X114937Y509711D01*
X115420Y509584D01*
X115899Y509445D01*
X116374Y509294D01*
X116846Y509132D01*
X117313Y508958D01*
X117776Y508773D01*
X118235Y508577D01*
X118688Y508369D01*
X119136Y508150D01*
X119579Y507921D01*
X120016Y507680D01*
X120447Y507429D01*
X120871Y507167D01*
X121289Y506895D01*
X121700Y506613D01*
X122105Y506321D01*
X122502Y506019D01*
X122891Y505708D01*
X123272Y505386D01*
X123646Y505056D01*
X124011Y504717D01*
X124368Y504368D01*
X124717Y504011D01*
X125056Y503646D01*
X125386Y503272D01*
X125708Y502891D01*
X126019Y502502D01*
X126321Y502105D01*
X126613Y501700D01*
X126895Y501289D01*
X127167Y500871D01*
X127429Y500447D01*
X127680Y500016D01*
X127921Y499579D01*
X128150Y499136D01*
X128369Y498688D01*
X128577Y498235D01*
X128773Y497776D01*
X128958Y497313D01*
X129132Y496846D01*
X129294Y496374D01*
X129445Y495899D01*
X129584Y495420D01*
X129711Y494937D01*
X129826Y494452D01*
X129930Y493964D01*
X130021Y493474D01*
X130100Y492982D01*
X130167Y492487D01*
X130222Y491992D01*
X130265Y491495D01*
X130296Y490997D01*
X130314Y490499D01*
X130320Y490000D01*
X130314Y489501D01*
X130296Y489003D01*
X130265Y488505D01*
X130222Y488008D01*
X130167Y487513D01*
X130100Y487018D01*
X130021Y486526D01*
X129930Y486036D01*
X129826Y485548D01*
X129711Y485063D01*
X129584Y484580D01*
X129445Y484101D01*
X129294Y483626D01*
X129132Y483154D01*
X128958Y482687D01*
X128773Y482224D01*
X128577Y481765D01*
X128369Y481312D01*
X128150Y480864D01*
X127921Y480421D01*
X127680Y479984D01*
X127429Y479553D01*
X127167Y479129D01*
X126895Y478711D01*
X126613Y478300D01*
X126321Y477895D01*
X126019Y477498D01*
X125708Y477109D01*
X125386Y476728D01*
X125056Y476354D01*
X124717Y475989D01*
X124368Y475632D01*
X124011Y475283D01*
X123646Y474944D01*
X123272Y474614D01*
X122891Y474292D01*
X122502Y473981D01*
X122105Y473679D01*
X121700Y473387D01*
X121289Y473105D01*
X120871Y472833D01*
X120447Y472571D01*
X120016Y472320D01*
X119579Y472079D01*
X119136Y471850D01*
X118688Y471631D01*
X118235Y471423D01*
X117776Y471227D01*
X117313Y471042D01*
X116846Y470868D01*
X116374Y470706D01*
X115899Y470555D01*
X115420Y470416D01*
X114937Y470289D01*
X114452Y470174D01*
X113964Y470070D01*
X113474Y469979D01*
X112982Y469900D01*
X112487Y469833D01*
X111992Y469778D01*
X111495Y469735D01*
X110997Y469704D01*
X110499Y469686D01*
X110000Y469680D01*
X109501Y469686D01*
X109003Y469704D01*
X108505Y469735D01*
X108008Y469778D01*
X107513Y469833D01*
X107018Y469900D01*
X106526Y469979D01*
X106036Y470070D01*
X105548Y470174D01*
X105063Y470289D01*
X104580Y470416D01*
X104101Y470555D01*
X103626Y470706D01*
X103154Y470868D01*
X102687Y471042D01*
X102224Y471227D01*
X101765Y471423D01*
X101312Y471631D01*
X100864Y471850D01*
X100421Y472079D01*
X99984Y472320D01*
X99553Y472571D01*
X99129Y472833D01*
X98711Y473105D01*
X98300Y473387D01*
X97895Y473679D01*
X97498Y473981D01*
X97109Y474292D01*
X96728Y474614D01*
X96354Y474944D01*
X95989Y475283D01*
X95632Y475632D01*
X95283Y475989D01*
X94944Y476354D01*
X94614Y476728D01*
X94292Y477109D01*
X93981Y477498D01*
X93679Y477895D01*
X93387Y478300D01*
X93105Y478711D01*
X92833Y479129D01*
X92571Y479553D01*
X92320Y479984D01*
X92079Y480421D01*
X91850Y480864D01*
X91631Y481312D01*
X91423Y481765D01*
X91227Y482224D01*
X91042Y482687D01*
X90868Y483154D01*
X90706Y483626D01*
X90555Y484101D01*
X90416Y484580D01*
X90289Y485063D01*
X90174Y485548D01*
X90070Y486036D01*
X89979Y486526D01*
X89900Y487018D01*
X89833Y487513D01*
X89778Y488008D01*
X89735Y488505D01*
X89704Y489003D01*
X89686Y489501D01*
X89680Y490000D01*
D16*
X110000Y490000D03*
D17*
X97300Y439200D03*
X122700Y439200D03*
D14*
X261900Y515400D03*
X325400Y540800D03*
D15*
X249200Y490000D03*
X350800Y490000D03*
D10*
X279680Y490000D02*
X279686Y490499D01*
X279704Y490997D01*
X279735Y491495D01*
X279778Y491992D01*
X279833Y492487D01*
X279900Y492982D01*
X279979Y493474D01*
X280070Y493964D01*
X280174Y494452D01*
X280289Y494937D01*
X280416Y495420D01*
X280555Y495899D01*
X280706Y496374D01*
X280868Y496846D01*
X281042Y497313D01*
X281227Y497776D01*
X281423Y498235D01*
X281631Y498688D01*
X281850Y499136D01*
X282079Y499579D01*
X282320Y500016D01*
X282571Y500447D01*
X282833Y500871D01*
X283105Y501289D01*
X283387Y501700D01*
X283679Y502105D01*
X283981Y502502D01*
X284292Y502891D01*
X284614Y503272D01*
X284944Y503646D01*
X285283Y504011D01*
X285632Y504368D01*
X285989Y504717D01*
X286354Y505056D01*
X286728Y505386D01*
X287109Y505708D01*
X287498Y506019D01*
X287895Y506321D01*
X288300Y506613D01*
X288711Y506895D01*
X289129Y507167D01*
X289553Y507429D01*
X289984Y507680D01*
X290421Y507921D01*
X290864Y508150D01*
X291312Y508369D01*
X291765Y508577D01*
X292224Y508773D01*
X292687Y508958D01*
X293154Y509132D01*
X293626Y509294D01*
X294101Y509445D01*
X294580Y509584D01*
X295063Y509711D01*
X295548Y509826D01*
X296036Y509930D01*
X296526Y510021D01*
X297018Y510100D01*
X297513Y510167D01*
X298008Y510222D01*
X298505Y510265D01*
X299003Y510296D01*
X299501Y510314D01*
X300000Y510320D01*
X300499Y510314D01*
X300997Y510296D01*
X301495Y510265D01*
X301992Y510222D01*
X302487Y510167D01*
X302982Y510100D01*
X303474Y510021D01*
X303964Y509930D01*
X304452Y509826D01*
X304937Y509711D01*
X305420Y509584D01*
X305899Y509445D01*
X306374Y509294D01*
X306846Y509132D01*
X307313Y508958D01*
X307776Y508773D01*
X308235Y508577D01*
X308688Y508369D01*
X309136Y508150D01*
X309579Y507921D01*
X310016Y507680D01*
X310447Y507429D01*
X310871Y507167D01*
X311289Y506895D01*
X311700Y506613D01*
X312105Y506321D01*
X312502Y506019D01*
X312891Y505708D01*
X313272Y505386D01*
X313646Y505056D01*
X314011Y504717D01*
X314368Y504368D01*
X314717Y504011D01*
X315056Y503646D01*
X315386Y503272D01*
X315708Y502891D01*
X316019Y502502D01*
X316321Y502105D01*
X316613Y501700D01*
X316895Y501289D01*
X317167Y500871D01*
X317429Y500447D01*
X317680Y500016D01*
X317921Y499579D01*
X318150Y499136D01*
X318369Y498688D01*
X318577Y498235D01*
X318773Y497776D01*
X318958Y497313D01*
X319132Y496846D01*
X319294Y496374D01*
X319445Y495899D01*
X319584Y495420D01*
X319711Y494937D01*
X319826Y494452D01*
X319930Y493964D01*
X320021Y493474D01*
X320100Y492982D01*
X320167Y492487D01*
X320222Y491992D01*
X320265Y491495D01*
X320296Y490997D01*
X320314Y490499D01*
X320320Y490000D01*
X320314Y489501D01*
X320296Y489003D01*
X320265Y488505D01*
X320222Y488008D01*
X320167Y487513D01*
X320100Y487018D01*
X320021Y486526D01*
X319930Y486036D01*
X319826Y485548D01*
X319711Y485063D01*
X319584Y484580D01*
X319445Y484101D01*
X319294Y483626D01*
X319132Y483154D01*
X318958Y482687D01*
X318773Y482224D01*
X318577Y481765D01*
X318369Y481312D01*
X318150Y480864D01*
X317921Y480421D01*
X317680Y479984D01*
X317429Y479553D01*
X317167Y479129D01*
X316895Y478711D01*
X316613Y478300D01*
X316321Y477895D01*
X316019Y477498D01*
X315708Y477109D01*
X315386Y476728D01*
X315056Y476354D01*
X314717Y475989D01*
X314368Y475632D01*
X314011Y475283D01*
X313646Y474944D01*
X313272Y474614D01*
X312891Y474292D01*
X312502Y473981D01*
X312105Y473679D01*
X311700Y473387D01*
X311289Y473105D01*
X310871Y472833D01*
X310447Y472571D01*
X310016Y472320D01*
X309579Y472079D01*
X309136Y471850D01*
X308688Y471631D01*
X308235Y471423D01*
X307776Y471227D01*
X307313Y471042D01*
X306846Y470868D01*
X306374Y470706D01*
X305899Y470555D01*
X305420Y470416D01*
X304937Y470289D01*
X304452Y470174D01*
X303964Y470070D01*
X303474Y469979D01*
X302982Y469900D01*
X302487Y469833D01*
X301992Y469778D01*
X301495Y469735D01*
X300997Y469704D01*
X300499Y469686D01*
X300000Y469680D01*
X299501Y469686D01*
X299003Y469704D01*
X298505Y469735D01*
X298008Y469778D01*
X297513Y469833D01*
X297018Y469900D01*
X296526Y469979D01*
X296036Y470070D01*
X295548Y470174D01*
X295063Y470289D01*
X294580Y470416D01*
X294101Y470555D01*
X293626Y470706D01*
X293154Y470868D01*
X292687Y471042D01*
X292224Y471227D01*
X291765Y471423D01*
X291312Y471631D01*
X290864Y471850D01*
X290421Y472079D01*
X289984Y472320D01*
X289553Y472571D01*
X289129Y472833D01*
X288711Y473105D01*
X288300Y473387D01*
X287895Y473679D01*
X287498Y473981D01*
X287109Y474292D01*
X286728Y474614D01*
X286354Y474944D01*
X285989Y475283D01*
X285632Y475632D01*
X285283Y475989D01*
X284944Y476354D01*
X284614Y476728D01*
X284292Y477109D01*
X283981Y477498D01*
X283679Y477895D01*
X283387Y478300D01*
X283105Y478711D01*
X282833Y479129D01*
X282571Y479553D01*
X282320Y479984D01*
X282079Y480421D01*
X281850Y480864D01*
X281631Y481312D01*
X281423Y481765D01*
X281227Y482224D01*
X281042Y482687D01*
X280868Y483154D01*
X280706Y483626D01*
X280555Y484101D01*
X280416Y484580D01*
X280289Y485063D01*
X280174Y485548D01*
X280070Y486036D01*
X279979Y486526D01*
X279900Y487018D01*
X279833Y487513D01*
X279778Y488008D01*
X279735Y488505D01*
X279704Y489003D01*
X279686Y489501D01*
X279680Y490000D01*
D16*
X300000Y490000D03*
D17*
X287300Y439200D03*
X312700Y439200D03*
D14*
X451900Y515400D03*
X515400Y540800D03*
D15*
X439200Y490000D03*
X540800Y490000D03*
D10*
X469680Y490000D02*
X469686Y490499D01*
X469704Y490997D01*
X469735Y491495D01*
X469778Y491992D01*
X469833Y492487D01*
X469900Y492982D01*
X469979Y493474D01*
X470070Y493964D01*
X470174Y494452D01*
X470289Y494937D01*
X470416Y495420D01*
X470555Y495899D01*
X470706Y496374D01*
X470868Y496846D01*
X471042Y497313D01*
X471227Y497776D01*
X471423Y498235D01*
X471631Y498688D01*
X471850Y499136D01*
X472079Y499579D01*
X472320Y500016D01*
X472571Y500447D01*
X472833Y500871D01*
X473105Y501289D01*
X473387Y501700D01*
X473679Y502105D01*
X473981Y502502D01*
X474292Y502891D01*
X474614Y503272D01*
X474944Y503646D01*
X475283Y504011D01*
X475632Y504368D01*
X475989Y504717D01*
X476354Y505056D01*
X476728Y505386D01*
X477109Y505708D01*
X477498Y506019D01*
X477895Y506321D01*
X478300Y506613D01*
X478711Y506895D01*
X479129Y507167D01*
X479553Y507429D01*
X479984Y507680D01*
X480421Y507921D01*
X480864Y508150D01*
X481312Y508369D01*
X481765Y508577D01*
X482224Y508773D01*
X482687Y508958D01*
X483154Y509132D01*
X483626Y509294D01*
X484101Y509445D01*
X484580Y509584D01*
X485063Y509711D01*
X485548Y509826D01*
X486036Y509930D01*
X486526Y510021D01*
X487018Y510100D01*
X487513Y510167D01*
X488008Y510222D01*
X488505Y510265D01*
X489003Y510296D01*
X489501Y510314D01*
X490000Y510320D01*
X490499Y510314D01*
X490997Y510296D01*
X491495Y510265D01*
X491992Y510222D01*
X492487Y510167D01*
X492982Y510100D01*
X493474Y510021D01*
X493964Y509930D01*
X494452Y509826D01*
X494937Y509711D01*
X495420Y509584D01*
X495899Y509445D01*
X496374Y509294D01*
X496846Y509132D01*
X497313Y508958D01*
X497776Y508773D01*
X498235Y508577D01*
X498688Y508369D01*
X499136Y508150D01*
X499579Y507921D01*
X500016Y507680D01*
X500447Y507429D01*
X500871Y507167D01*
X501289Y506895D01*
X501700Y506613D01*
X502105Y506321D01*
X502502Y506019D01*
X502891Y505708D01*
X503272Y505386D01*
X503646Y505056D01*
X504011Y504717D01*
X504368Y504368D01*
X504717Y504011D01*
X505056Y503646D01*
X505386Y503272D01*
X505708Y502891D01*
X506019Y502502D01*
X506321Y502105D01*
X506613Y501700D01*
X506895Y501289D01*
X507167Y500871D01*
X507429Y500447D01*
X507680Y500016D01*
X507921Y499579D01*
X508150Y499136D01*
X508369Y498688D01*
X508577Y498235D01*
X508773Y497776D01*
X508958Y497313D01*
X509132Y496846D01*
X509294Y496374D01*
X509445Y495899D01*
X509584Y495420D01*
X509711Y494937D01*
X509826Y494452D01*
X509930Y493964D01*
X510021Y493474D01*
X510100Y492982D01*
X510167Y492487D01*
X510222Y491992D01*
X510265Y491495D01*
X510296Y490997D01*
X510314Y490499D01*
X510320Y490000D01*
X510314Y489501D01*
X510296Y489003D01*
X510265Y488505D01*
X510222Y488008D01*
X510167Y487513D01*
X510100Y487018D01*
X510021Y486526D01*
X509930Y486036D01*
X509826Y485548D01*
X509711Y485063D01*
X509584Y484580D01*
X509445Y484101D01*
X509294Y483626D01*
X509132Y483154D01*
X508958Y482687D01*
X508773Y482224D01*
X508577Y481765D01*
X508369Y481312D01*
X508150Y480864D01*
X507921Y480421D01*
X507680Y479984D01*
X507429Y479553D01*
X507167Y479129D01*
X506895Y478711D01*
X506613Y478300D01*
X506321Y477895D01*
X506019Y477498D01*
X505708Y477109D01*
X505386Y476728D01*
X505056Y476354D01*
X504717Y475989D01*
X504368Y475632D01*
X504011Y475283D01*
X503646Y474944D01*
X503272Y474614D01*
X502891Y474292D01*
X502502Y473981D01*
X502105Y473679D01*
X501700Y473387D01*
X501289Y473105D01*
X500871Y472833D01*
X500447Y472571D01*
X500016Y472320D01*
X499579Y472079D01*
X499136Y471850D01*
X498688Y471631D01*
X498235Y471423D01*
X497776Y471227D01*
X497313Y471042D01*
X496846Y470868D01*
X496374Y470706D01*
X495899Y470555D01*
X495420Y470416D01*
X494937Y470289D01*
X494452Y470174D01*
X493964Y470070D01*
X493474Y469979D01*
X492982Y469900D01*
X492487Y469833D01*
X491992Y469778D01*
X491495Y469735D01*
X490997Y469704D01*
X490499Y469686D01*
X490000Y469680D01*
X489501Y469686D01*
X489003Y469704D01*
X488505Y469735D01*
X488008Y469778D01*
X487513Y469833D01*
X487018Y469900D01*
X486526Y469979D01*
X486036Y470070D01*
X485548Y470174D01*
X485063Y470289D01*
X484580Y470416D01*
X484101Y470555D01*
X483626Y470706D01*
X483154Y470868D01*
X482687Y471042D01*
X482224Y471227D01*
X481765Y471423D01*
X481312Y471631D01*
X480864Y471850D01*
X480421Y472079D01*
X479984Y472320D01*
X479553Y472571D01*
X479129Y472833D01*
X478711Y473105D01*
X478300Y473387D01*
X477895Y473679D01*
X477498Y473981D01*
X477109Y474292D01*
X476728Y474614D01*
X476354Y474944D01*
X475989Y475283D01*
X475632Y475632D01*
X475283Y475989D01*
X474944Y476354D01*
X474614Y476728D01*
X474292Y477109D01*
X473981Y477498D01*
X473679Y477895D01*
X473387Y478300D01*
X473105Y478711D01*
X472833Y479129D01*
X472571Y479553D01*
X472320Y479984D01*
X472079Y480421D01*
X471850Y480864D01*
X471631Y481312D01*
X471423Y481765D01*
X471227Y482224D01*
X471042Y482687D01*
X470868Y483154D01*
X470706Y483626D01*
X470555Y484101D01*
X470416Y484580D01*
X470289Y485063D01*
X470174Y485548D01*
X470070Y486036D01*
X469979Y486526D01*
X469900Y487018D01*
X469833Y487513D01*
X469778Y488008D01*
X469735Y488505D01*
X469704Y489003D01*
X469686Y489501D01*
X469680Y490000D01*
D16*
X490000Y490000D03*
D17*
X477300Y439200D03*
X502700Y439200D03*
D14*
X71900Y325400D03*
X135400Y350800D03*
D15*
X59200Y300000D03*
X160800Y300000D03*
D10*
X89680Y300000D02*
X89686Y300499D01*
X89704Y300997D01*
X89735Y301495D01*
X89778Y301992D01*
X89833Y302487D01*
X89900Y302982D01*
X89979Y303474D01*
X90070Y303964D01*
X90174Y304452D01*
X90289Y304937D01*
X90416Y305420D01*
X90555Y305899D01*
X90706Y306374D01*
X90868Y306846D01*
X91042Y307313D01*
X91227Y307776D01*
X91423Y308235D01*
X91631Y308688D01*
X91850Y309136D01*
X92079Y309579D01*
X92320Y310016D01*
X92571Y310447D01*
X92833Y310871D01*
X93105Y311289D01*
X93387Y311700D01*
X93679Y312105D01*
X93981Y312502D01*
X94292Y312891D01*
X94614Y313272D01*
X94944Y313646D01*
X95283Y314011D01*
X95632Y314368D01*
X95989Y314717D01*
X96354Y315056D01*
X96728Y315386D01*
X97109Y315708D01*
X97498Y316019D01*
X97895Y316321D01*
X98300Y316613D01*
X98711Y316895D01*
X99129Y317167D01*
X99553Y317429D01*
X99984Y317680D01*
X100421Y317921D01*
X100864Y318150D01*
X101312Y318369D01*
X101765Y318577D01*
X102224Y318773D01*
X102687Y318958D01*
X103154Y319132D01*
X103626Y319294D01*
X104101Y319445D01*
X104580Y319584D01*
X105063Y319711D01*
X105548Y319826D01*
X106036Y319930D01*
X106526Y320021D01*
X107018Y320100D01*
X107513Y320167D01*
X108008Y320222D01*
X108505Y320265D01*
X109003Y320296D01*
X109501Y320314D01*
X110000Y320320D01*
X110499Y320314D01*
X110997Y320296D01*
X111495Y320265D01*
X111992Y320222D01*
X112487Y320167D01*
X112982Y320100D01*
X113474Y320021D01*
X113964Y319930D01*
X114452Y319826D01*
X114937Y319711D01*
X115420Y319584D01*
X115899Y319445D01*
X116374Y319294D01*
X116846Y319132D01*
X117313Y318958D01*
X117776Y318773D01*
X118235Y318577D01*
X118688Y318369D01*
X119136Y318150D01*
X119579Y317921D01*
X120016Y317680D01*
X120447Y317429D01*
X120871Y317167D01*
X121289Y316895D01*
X121700Y316613D01*
X122105Y316321D01*
X122502Y316019D01*
X122891Y315708D01*
X123272Y315386D01*
X123646Y315056D01*
X124011Y314717D01*
X124368Y314368D01*
X124717Y314011D01*
X125056Y313646D01*
X125386Y313272D01*
X125708Y312891D01*
X126019Y312502D01*
X126321Y312105D01*
X126613Y311700D01*
X126895Y311289D01*
X127167Y310871D01*
X127429Y310447D01*
X127680Y310016D01*
X127921Y309579D01*
X128150Y309136D01*
X128369Y308688D01*
X128577Y308235D01*
X128773Y307776D01*
X128958Y307313D01*
X129132Y306846D01*
X129294Y306374D01*
X129445Y305899D01*
X129584Y305420D01*
X129711Y304937D01*
X129826Y304452D01*
X129930Y303964D01*
X130021Y303474D01*
X130100Y302982D01*
X130167Y302487D01*
X130222Y301992D01*
X130265Y301495D01*
X130296Y300997D01*
X130314Y300499D01*
X130320Y300000D01*
X130314Y299501D01*
X130296Y299003D01*
X130265Y298505D01*
X130222Y298008D01*
X130167Y297513D01*
X130100Y297018D01*
X130021Y296526D01*
X129930Y296036D01*
X129826Y295548D01*
X129711Y295063D01*
X129584Y294580D01*
X129445Y294101D01*
X129294Y293626D01*
X129132Y293154D01*
X128958Y292687D01*
X128773Y292224D01*
X128577Y291765D01*
X128369Y291312D01*
X128150Y290864D01*
X127921Y290421D01*
X127680Y289984D01*
X127429Y289553D01*
X127167Y289129D01*
X126895Y288711D01*
X126613Y288300D01*
X126321Y287895D01*
X126019Y287498D01*
X125708Y287109D01*
X125386Y286728D01*
X125056Y286354D01*
X124717Y285989D01*
X124368Y285632D01*
X124011Y285283D01*
X123646Y284944D01*
X123272Y284614D01*
X122891Y284292D01*
X122502Y283981D01*
X122105Y283679D01*
X121700Y283387D01*
X121289Y283105D01*
X120871Y282833D01*
X120447Y282571D01*
X120016Y282320D01*
X119579Y282079D01*
X119136Y281850D01*
X118688Y281631D01*
X118235Y281423D01*
X117776Y281227D01*
X117313Y281042D01*
X116846Y280868D01*
X116374Y280706D01*
X115899Y280555D01*
X115420Y280416D01*
X114937Y280289D01*
X114452Y280174D01*
X113964Y280070D01*
X113474Y279979D01*
X112982Y279900D01*
X112487Y279833D01*
X111992Y279778D01*
X111495Y279735D01*
X110997Y279704D01*
X110499Y279686D01*
X110000Y279680D01*
X109501Y279686D01*
X109003Y279704D01*
X108505Y279735D01*
X108008Y279778D01*
X107513Y279833D01*
X107018Y279900D01*
X106526Y279979D01*
X106036Y280070D01*
X105548Y280174D01*
X105063Y280289D01*
X104580Y280416D01*
X104101Y280555D01*
X103626Y280706D01*
X103154Y280868D01*
X102687Y281042D01*
X102224Y281227D01*
X101765Y281423D01*
X101312Y281631D01*
X100864Y281850D01*
X100421Y282079D01*
X99984Y282320D01*
X99553Y282571D01*
X99129Y282833D01*
X98711Y283105D01*
X98300Y283387D01*
X97895Y283679D01*
X97498Y283981D01*
X97109Y284292D01*
X96728Y284614D01*
X96354Y284944D01*
X95989Y285283D01*
X95632Y285632D01*
X95283Y285989D01*
X94944Y286354D01*
X94614Y286728D01*
X94292Y287109D01*
X93981Y287498D01*
X93679Y287895D01*
X93387Y288300D01*
X93105Y288711D01*
X92833Y289129D01*
X92571Y289553D01*
X92320Y289984D01*
X92079Y290421D01*
X91850Y290864D01*
X91631Y291312D01*
X91423Y291765D01*
X91227Y292224D01*
X91042Y292687D01*
X90868Y293154D01*
X90706Y293626D01*
X90555Y294101D01*
X90416Y294580D01*
X90289Y295063D01*
X90174Y295548D01*
X90070Y296036D01*
X89979Y296526D01*
X89900Y297018D01*
X89833Y297513D01*
X89778Y298008D01*
X89735Y298505D01*
X89704Y299003D01*
X89686Y299501D01*
X89680Y300000D01*
D16*
X110000Y300000D03*
D17*
X97300Y249200D03*
X122700Y249200D03*
D14*
X261900Y325400D03*
X325400Y350800D03*
D15*
X249200Y300000D03*
X350800Y300000D03*
D10*
X279680Y300000D02*
X279686Y300499D01*
X279704Y300997D01*
X279735Y301495D01*
X279778Y301992D01*
X279833Y302487D01*
X279900Y302982D01*
X279979Y303474D01*
X280070Y303964D01*
X280174Y304452D01*
X280289Y304937D01*
X280416Y305420D01*
X280555Y305899D01*
X280706Y306374D01*
X280868Y306846D01*
X281042Y307313D01*
X281227Y307776D01*
X281423Y308235D01*
X281631Y308688D01*
X281850Y309136D01*
X282079Y309579D01*
X282320Y310016D01*
X282571Y310447D01*
X282833Y310871D01*
X283105Y311289D01*
X283387Y311700D01*
X283679Y312105D01*
X283981Y312502D01*
X284292Y312891D01*
X284614Y313272D01*
X284944Y313646D01*
X285283Y314011D01*
X285632Y314368D01*
X285989Y314717D01*
X286354Y315056D01*
X286728Y315386D01*
X287109Y315708D01*
X287498Y316019D01*
X287895Y316321D01*
X288300Y316613D01*
X288711Y316895D01*
X289129Y317167D01*
X289553Y317429D01*
X289984Y317680D01*
X290421Y317921D01*
X290864Y318150D01*
X291312Y318369D01*
X291765Y318577D01*
X292224Y318773D01*
X292687Y318958D01*
X293154Y319132D01*
X293626Y319294D01*
X294101Y319445D01*
X294580Y319584D01*
X295063Y319711D01*
X295548Y319826D01*
X296036Y319930D01*
X296526Y320021D01*
X297018Y320100D01*
X297513Y320167D01*
X298008Y320222D01*
X298505Y320265D01*
X299003Y320296D01*
X299501Y320314D01*
X300000Y320320D01*
X300499Y320314D01*
X300997Y320296D01*
X301495Y320265D01*
X301992Y320222D01*
X302487Y320167D01*
X302982Y320100D01*
X303474Y320021D01*
X303964Y319930D01*
X304452Y319826D01*
X304937Y319711D01*
X305420Y319584D01*
X305899Y319445D01*
X306374Y319294D01*
X306846Y319132D01*
X307313Y318958D01*
X307776Y318773D01*
X308235Y318577D01*
X308688Y318369D01*
X309136Y318150D01*
X309579Y317921D01*
X310016Y317680D01*
X310447Y317429D01*
X310871Y317167D01*
X311289Y316895D01*
X311700Y316613D01*
X312105Y316321D01*
X312502Y316019D01*
X312891Y315708D01*
X313272Y315386D01*
X313646Y315056D01*
X314011Y314717D01*
X314368Y314368D01*
X314717Y314011D01*
X315056Y313646D01*
X315386Y313272D01*
X315708Y312891D01*
X316019Y312502D01*
X316321Y312105D01*
X316613Y311700D01*
X316895Y311289D01*
X317167Y310871D01*
X317429Y310447D01*
X317680Y310016D01*
X317921Y309579D01*
X318150Y309136D01*
X318369Y308688D01*
X318577Y308235D01*
X318773Y307776D01*
X318958Y307313D01*
X319132Y306846D01*
X319294Y306374D01*
X319445Y305899D01*
X319584Y305420D01*
X319711Y304937D01*
X319826Y304452D01*
X319930Y303964D01*
X320021Y303474D01*
X320100Y302982D01*
X320167Y302487D01*
X320222Y301992D01*
X320265Y301495D01*
X320296Y300997D01*
X320314Y300499D01*
X320320Y300000D01*
X320314Y299501D01*
X320296Y299003D01*
X320265Y298505D01*
X320222Y298008D01*
X320167Y297513D01*
X320100Y297018D01*
X320021Y296526D01*
X319930Y296036D01*
X319826Y295548D01*
X319711Y295063D01*
X319584Y294580D01*
X319445Y294101D01*
X319294Y293626D01*
X319132Y293154D01*
X318958Y292687D01*
X318773Y292224D01*
X318577Y291765D01*
X318369Y291312D01*
X318150Y290864D01*
X317921Y290421D01*
X317680Y289984D01*
X317429Y289553D01*
X317167Y289129D01*
X316895Y288711D01*
X316613Y288300D01*
X316321Y287895D01*
X316019Y287498D01*
X315708Y287109D01*
X315386Y286728D01*
X315056Y286354D01*
X314717Y285989D01*
X314368Y285632D01*
X314011Y285283D01*
X313646Y284944D01*
X313272Y284614D01*
X312891Y284292D01*
X312502Y283981D01*
X312105Y283679D01*
X311700Y283387D01*
X311289Y283105D01*
X310871Y282833D01*
X310447Y282571D01*
X310016Y282320D01*
X309579Y282079D01*
X309136Y281850D01*
X308688Y281631D01*
X308235Y281423D01*
X307776Y281227D01*
X307313Y281042D01*
X306846Y280868D01*
X306374Y280706D01*
X305899Y280555D01*
X305420Y280416D01*
X304937Y280289D01*
X304452Y280174D01*
X303964Y280070D01*
X303474Y279979D01*
X302982Y279900D01*
X302487Y279833D01*
X301992Y279778D01*
X301495Y279735D01*
X300997Y279704D01*
X300499Y279686D01*
X300000Y279680D01*
X299501Y279686D01*
X299003Y279704D01*
X298505Y279735D01*
X298008Y279778D01*
X297513Y279833D01*
X297018Y279900D01*
X296526Y279979D01*
X296036Y280070D01*
X295548Y280174D01*
X295063Y280289D01*
X294580Y280416D01*
X294101Y280555D01*
X293626Y280706D01*
X293154Y280868D01*
X292687Y281042D01*
X292224Y281227D01*
X291765Y281423D01*
X291312Y281631D01*
X290864Y281850D01*
X290421Y282079D01*
X289984Y282320D01*
X289553Y282571D01*
X289129Y282833D01*
X288711Y283105D01*
X288300Y283387D01*
X287895Y283679D01*
X287498Y283981D01*
X287109Y284292D01*
X286728Y284614D01*
X286354Y284944D01*
X285989Y285283D01*
X285632Y285632D01*
X285283Y285989D01*
X284944Y286354D01*
X284614Y286728D01*
X284292Y287109D01*
X283981Y287498D01*
X283679Y287895D01*
X283387Y288300D01*
X283105Y288711D01*
X282833Y289129D01*
X282571Y289553D01*
X282320Y289984D01*
X282079Y290421D01*
X281850Y290864D01*
X281631Y291312D01*
X281423Y291765D01*
X281227Y292224D01*
X281042Y292687D01*
X280868Y293154D01*
X280706Y293626D01*
X280555Y294101D01*
X280416Y294580D01*
X280289Y295063D01*
X280174Y295548D01*
X280070Y296036D01*
X279979Y296526D01*
X279900Y297018D01*
X279833Y297513D01*
X279778Y298008D01*
X279735Y298505D01*
X279704Y299003D01*
X279686Y299501D01*
X279680Y300000D01*
D16*
X300000Y300000D03*
D17*
X287300Y249200D03*
X312700Y249200D03*
D14*
X451900Y325400D03*
X515400Y350800D03*
D15*
X439200Y300000D03*
X540800Y300000D03*
D10*
X469680Y300000D02*
X469686Y300499D01*
X469704Y300997D01*
X469735Y301495D01*
X469778Y301992D01*
X469833Y302487D01*
X469900Y302982D01*
X469979Y303474D01*
X470070Y303964D01*
X470174Y304452D01*
X470289Y304937D01*
X470416Y305420D01*
X470555Y305899D01*
X470706Y306374D01*
X470868Y306846D01*
X471042Y307313D01*
X471227Y307776D01*
X471423Y308235D01*
X471631Y308688D01*
X471850Y309136D01*
X472079Y309579D01*
X472320Y310016D01*
X472571Y310447D01*
X472833Y310871D01*
X473105Y311289D01*
X473387Y311700D01*
X473679Y312105D01*
X473981Y312502D01*
X474292Y312891D01*
X474614Y313272D01*
X474944Y313646D01*
X475283Y314011D01*
X475632Y314368D01*
X475989Y314717D01*
X476354Y315056D01*
X476728Y315386D01*
X477109Y315708D01*
X477498Y316019D01*
X477895Y316321D01*
X478300Y316613D01*
X478711Y316895D01*
X479129Y317167D01*
X479553Y317429D01*
X479984Y317680D01*
X480421Y317921D01*
X480864Y318150D01*
X481312Y318369D01*
X481765Y318577D01*
X482224Y318773D01*
X482687Y318958D01*
X483154Y319132D01*
X483626Y319294D01*
X484101Y319445D01*
X484580Y319584D01*
X485063Y319711D01*
X485548Y319826D01*
X486036Y319930D01*
X486526Y320021D01*
X487018Y320100D01*
X487513Y320167D01*
X488008Y320222D01*
X488505Y320265D01*
X489003Y320296D01*
X489501Y320314D01*
X490000Y320320D01*
X490499Y320314D01*
X490997Y320296D01*
X491495Y320265D01*
X491992Y320222D01*
X492487Y320167D01*
X492982Y320100D01*
X493474Y320021D01*
X493964Y319930D01*
X494452Y319826D01*
X494937Y319711D01*
X495420Y319584D01*
X495899Y319445D01*
X496374Y319294D01*
X496846Y319132D01*
X497313Y318958D01*
X497776Y318773D01*
X498235Y318577D01*
X498688Y318369D01*
X499136Y318150D01*
X499579Y317921D01*
X500016Y317680D01*
X500447Y317429D01*
X500871Y317167D01*
X501289Y316895D01*
X501700Y316613D01*
X502105Y316321D01*
X502502Y316019D01*
X502891Y315708D01*
X503272Y315386D01*
X503646Y315056D01*
X504011Y314717D01*
X504368Y314368D01*
X504717Y314011D01*
X505056Y313646D01*
X505386Y313272D01*
X505708Y312891D01*
X506019Y312502D01*
X506321Y312105D01*
X506613Y311700D01*
X506895Y311289D01*
X507167Y310871D01*
X507429Y310447D01*
X507680Y310016D01*
X507921Y309579D01*
X508150Y309136D01*
X508369Y308688D01*
X508577Y308235D01*
X508773Y307776D01*
X508958Y307313D01*
X509132Y306846D01*
X509294Y306374D01*
X509445Y305899D01*
X509584Y305420D01*
X509711Y304937D01*
X509826Y304452D01*
X509930Y303964D01*
X510021Y303474D01*
X510100Y302982D01*
X510167Y302487D01*
X510222Y301992D01*
X510265Y301495D01*
X510296Y300997D01*
X510314Y300499D01*
X510320Y300000D01*
X510314Y299501D01*
X510296Y299003D01*
X510265Y298505D01*
X510222Y298008D01*
X510167Y297513D01*
X510100Y297018D01*
X510021Y296526D01*
X509930Y296036D01*
X509826Y295548D01*
X509711Y295063D01*
X509584Y294580D01*
X509445Y294101D01*
X509294Y293626D01*
X509132Y293154D01*
X508958Y292687D01*
X508773Y292224D01*
X508577Y291765D01*
X508369Y291312D01*
X508150Y290864D01*
X507921Y290421D01*
X507680Y289984D01*
X507429Y289553D01*
X507167Y289129D01*
X506895Y288711D01*
X506613Y288300D01*
X506321Y287895D01*
X506019Y287498D01*
X505708Y287109D01*
X505386Y286728D01*
X505056Y286354D01*
X504717Y285989D01*
X504368Y285632D01*
X504011Y285283D01*
X503646Y284944D01*
X503272Y284614D01*
X502891Y284292D01*
X502502Y283981D01*
X502105Y283679D01*
X501700Y283387D01*
X501289Y283105D01*
X500871Y282833D01*
X500447Y282571D01*
X500016Y282320D01*
X499579Y282079D01*
X499136Y281850D01*
X498688Y281631D01*
X498235Y281423D01*
X497776Y281227D01*
X497313Y281042D01*
X496846Y280868D01*
X496374Y280706D01*
X495899Y280555D01*
X495420Y280416D01*
X494937Y280289D01*
X494452Y280174D01*
X493964Y280070D01*
X493474Y279979D01*
X492982Y279900D01*
X492487Y279833D01*
X491992Y279778D01*
X491495Y279735D01*
X490997Y279704D01*
X490499Y279686D01*
X490000Y279680D01*
X489501Y279686D01*
X489003Y279704D01*
X488505Y279735D01*
X488008Y279778D01*
X487513Y279833D01*
X487018Y279900D01*
X486526Y279979D01*
X486036Y280070D01*
X485548Y280174D01*
X485063Y280289D01*
X484580Y280416D01*
X484101Y280555D01*
X483626Y280706D01*
X483154Y280868D01*
X482687Y281042D01*
X482224Y281227D01*
X481765Y281423D01*
X481312Y281631D01*
X480864Y281850D01*
X480421Y282079D01*
X479984Y282320D01*
X479553Y282571D01*
X479129Y282833D01*
X478711Y283105D01*
X478300Y283387D01*
X477895Y283679D01*
X477498Y283981D01*
X477109Y284292D01*
X476728Y284614D01*
X476354Y284944D01*
X475989Y285283D01*
X475632Y285632D01*
X475283Y285989D01*
X474944Y286354D01*
X474614Y286728D01*
X474292Y287109D01*
X473981Y287498D01*
X473679Y287895D01*
X473387Y288300D01*
X473105Y288711D01*
X472833Y289129D01*
X472571Y289553D01*
X472320Y289984D01*
X472079Y290421D01*
X471850Y290864D01*
X471631Y291312D01*
X471423Y291765D01*
X471227Y292224D01*
X471042Y292687D01*
X470868Y293154D01*
X470706Y293626D01*
X470555Y294101D01*
X470416Y294580D01*
X470289Y295063D01*
X470174Y295548D01*
X470070Y296036D01*
X469979Y296526D01*
X469900Y297018D01*
X469833Y297513D01*
X469778Y298008D01*
X469735Y298505D01*
X469704Y299003D01*
X469686Y299501D01*
X469680Y300000D01*
D16*
X490000Y300000D03*
D17*
X477300Y249200D03*
X502700Y249200D03*
D18*
G36*
X167475Y923435D02*
X178435Y934395D01*
X189395Y923435D01*
X178435Y912475D01*
X167475Y923435D01*
G37*
G36*
X140605Y896565D02*
X151565Y907525D01*
X162525Y896565D01*
X151565Y885605D01*
X140605Y896565D01*
G37*
G36*
X167475Y733435D02*
X178435Y744395D01*
X189395Y733435D01*
X178435Y722475D01*
X167475Y733435D01*
G37*
G36*
X140605Y706565D02*
X151565Y717525D01*
X162525Y706565D01*
X151565Y695605D01*
X140605Y706565D01*
G37*
G36*
X167475Y543435D02*
X178435Y554395D01*
X189395Y543435D01*
X178435Y532475D01*
X167475Y543435D01*
G37*
G36*
X140605Y516565D02*
X151565Y527525D01*
X162525Y516565D01*
X151565Y505605D01*
X140605Y516565D01*
G37*
G36*
X167475Y353435D02*
X178435Y364395D01*
X189395Y353435D01*
X178435Y342475D01*
X167475Y353435D01*
G37*
G36*
X140605Y326565D02*
X151565Y337525D01*
X162525Y326565D01*
X151565Y315605D01*
X140605Y326565D01*
G37*
G36*
X357475Y923435D02*
X368435Y934395D01*
X379395Y923435D01*
X368435Y912475D01*
X357475Y923435D01*
G37*
G36*
X330605Y896565D02*
X341565Y907525D01*
X352525Y896565D01*
X341565Y885605D01*
X330605Y896565D01*
G37*
G36*
X357475Y733435D02*
X368435Y744395D01*
X379395Y733435D01*
X368435Y722475D01*
X357475Y733435D01*
G37*
G36*
X330605Y706565D02*
X341565Y717525D01*
X352525Y706565D01*
X341565Y695605D01*
X330605Y706565D01*
G37*
G36*
X357475Y543435D02*
X368435Y554395D01*
X379395Y543435D01*
X368435Y532475D01*
X357475Y543435D01*
G37*
G36*
X330605Y516565D02*
X341565Y527525D01*
X352525Y516565D01*
X341565Y505605D01*
X330605Y516565D01*
G37*
G36*
X357475Y353435D02*
X368435Y364395D01*
X379395Y353435D01*
X368435Y342475D01*
X357475Y353435D01*
G37*
G36*
X330605Y326565D02*
X341565Y337525D01*
X352525Y326565D01*
X341565Y315605D01*
X330605Y326565D01*
G37*
G36*
X547475Y923435D02*
X558435Y934395D01*
X569395Y923435D01*
X558435Y912475D01*
X547475Y923435D01*
G37*
G36*
X520605Y896565D02*
X531565Y907525D01*
X542525Y896565D01*
X531565Y885605D01*
X520605Y896565D01*
G37*
G36*
X547475Y733435D02*
X558435Y744395D01*
X569395Y733435D01*
X558435Y722475D01*
X547475Y733435D01*
G37*
G36*
X520605Y706565D02*
X531565Y717525D01*
X542525Y706565D01*
X531565Y695605D01*
X520605Y706565D01*
G37*
G36*
X547475Y543435D02*
X558435Y554395D01*
X569395Y543435D01*
X558435Y532475D01*
X547475Y543435D01*
G37*
G36*
X520605Y516565D02*
X531565Y527525D01*
X542525Y516565D01*
X531565Y505605D01*
X520605Y516565D01*
G37*
G36*
X547475Y353435D02*
X558435Y364395D01*
X569395Y353435D01*
X558435Y342475D01*
X547475Y353435D01*
G37*
G36*
X520605Y326565D02*
X531565Y337525D01*
X542525Y326565D01*
X531565Y315605D01*
X520605Y326565D01*
G37*
D19*
X847249Y282751D02*
X892751Y282751D01*
X892751Y237249D01*
X847249Y237249D01*
X847249Y282751D01*
X847249Y243708D02*
X892751Y243708D01*
X892751Y250167D02*
X847249Y250167D01*
X847249Y256626D02*
X892751Y256626D01*
X892751Y263085D02*
X847249Y263085D01*
X847249Y269544D02*
X892751Y269544D01*
X892751Y276003D02*
X847249Y276003D01*
X847249Y282462D02*
X892751Y282462D01*
D20*
X898875Y283875D02*
X908125Y283875D01*
X898875Y283875D02*
X898875Y286125D01*
X908125Y286125D01*
X908125Y283875D01*
X908125Y286012D02*
X898875Y286012D01*
X898875Y278875D02*
X908125Y278875D01*
X898875Y278875D02*
X898875Y281125D01*
X908125Y281125D01*
X908125Y278875D01*
X908125Y281012D02*
X898875Y281012D01*
X898875Y273875D02*
X908125Y273875D01*
X898875Y273875D02*
X898875Y276125D01*
X908125Y276125D01*
X908125Y273875D01*
X908125Y276012D02*
X898875Y276012D01*
X898875Y268875D02*
X908125Y268875D01*
X898875Y268875D02*
X898875Y271125D01*
X908125Y271125D01*
X908125Y268875D01*
X908125Y271012D02*
X898875Y271012D01*
X898875Y263875D02*
X908125Y263875D01*
X898875Y263875D02*
X898875Y266125D01*
X908125Y266125D01*
X908125Y263875D01*
X908125Y266012D02*
X898875Y266012D01*
X898875Y258875D02*
X908125Y258875D01*
X898875Y258875D02*
X898875Y261125D01*
X908125Y261125D01*
X908125Y258875D01*
X908125Y261012D02*
X898875Y261012D01*
X898875Y253875D02*
X908125Y253875D01*
X898875Y253875D02*
X898875Y256125D01*
X908125Y256125D01*
X908125Y253875D01*
X908125Y256012D02*
X898875Y256012D01*
X898875Y248875D02*
X908125Y248875D01*
X898875Y248875D02*
X898875Y251125D01*
X908125Y251125D01*
X908125Y248875D01*
X908125Y251012D02*
X898875Y251012D01*
X898875Y243875D02*
X908125Y243875D01*
X898875Y243875D02*
X898875Y246125D01*
X908125Y246125D01*
X908125Y243875D01*
X908125Y246012D02*
X898875Y246012D01*
X898875Y238875D02*
X908125Y238875D01*
X898875Y238875D02*
X898875Y241125D01*
X908125Y241125D01*
X908125Y238875D01*
X908125Y241012D02*
X898875Y241012D01*
X898875Y233875D02*
X908125Y233875D01*
X898875Y233875D02*
X898875Y236125D01*
X908125Y236125D01*
X908125Y233875D01*
X908125Y236012D02*
X898875Y236012D01*
X893875Y231125D02*
X893875Y221875D01*
X893875Y231125D02*
X896125Y231125D01*
X896125Y221875D01*
X893875Y221875D01*
X893875Y224012D02*
X896125Y224012D01*
X896125Y226149D02*
X893875Y226149D01*
X893875Y228286D02*
X896125Y228286D01*
X896125Y230423D02*
X893875Y230423D01*
X888875Y231125D02*
X888875Y221875D01*
X888875Y231125D02*
X891125Y231125D01*
X891125Y221875D01*
X888875Y221875D01*
X888875Y224012D02*
X891125Y224012D01*
X891125Y226149D02*
X888875Y226149D01*
X888875Y228286D02*
X891125Y228286D01*
X891125Y230423D02*
X888875Y230423D01*
X883875Y231125D02*
X883875Y221875D01*
X883875Y231125D02*
X886125Y231125D01*
X886125Y221875D01*
X883875Y221875D01*
X883875Y224012D02*
X886125Y224012D01*
X886125Y226149D02*
X883875Y226149D01*
X883875Y228286D02*
X886125Y228286D01*
X886125Y230423D02*
X883875Y230423D01*
X878875Y231125D02*
X878875Y221875D01*
X878875Y231125D02*
X881125Y231125D01*
X881125Y221875D01*
X878875Y221875D01*
X878875Y224012D02*
X881125Y224012D01*
X881125Y226149D02*
X878875Y226149D01*
X878875Y228286D02*
X881125Y228286D01*
X881125Y230423D02*
X878875Y230423D01*
X873875Y231125D02*
X873875Y221875D01*
X873875Y231125D02*
X876125Y231125D01*
X876125Y221875D01*
X873875Y221875D01*
X873875Y224012D02*
X876125Y224012D01*
X876125Y226149D02*
X873875Y226149D01*
X873875Y228286D02*
X876125Y228286D01*
X876125Y230423D02*
X873875Y230423D01*
X868875Y231125D02*
X868875Y221875D01*
X868875Y231125D02*
X871125Y231125D01*
X871125Y221875D01*
X868875Y221875D01*
X868875Y224012D02*
X871125Y224012D01*
X871125Y226149D02*
X868875Y226149D01*
X868875Y228286D02*
X871125Y228286D01*
X871125Y230423D02*
X868875Y230423D01*
X863875Y231125D02*
X863875Y221875D01*
X863875Y231125D02*
X866125Y231125D01*
X866125Y221875D01*
X863875Y221875D01*
X863875Y224012D02*
X866125Y224012D01*
X866125Y226149D02*
X863875Y226149D01*
X863875Y228286D02*
X866125Y228286D01*
X866125Y230423D02*
X863875Y230423D01*
X858875Y231125D02*
X858875Y221875D01*
X858875Y231125D02*
X861125Y231125D01*
X861125Y221875D01*
X858875Y221875D01*
X858875Y224012D02*
X861125Y224012D01*
X861125Y226149D02*
X858875Y226149D01*
X858875Y228286D02*
X861125Y228286D01*
X861125Y230423D02*
X858875Y230423D01*
X853875Y231125D02*
X853875Y221875D01*
X853875Y231125D02*
X856125Y231125D01*
X856125Y221875D01*
X853875Y221875D01*
X853875Y224012D02*
X856125Y224012D01*
X856125Y226149D02*
X853875Y226149D01*
X853875Y228286D02*
X856125Y228286D01*
X856125Y230423D02*
X853875Y230423D01*
X848875Y231125D02*
X848875Y221875D01*
X848875Y231125D02*
X851125Y231125D01*
X851125Y221875D01*
X848875Y221875D01*
X848875Y224012D02*
X851125Y224012D01*
X851125Y226149D02*
X848875Y226149D01*
X848875Y228286D02*
X851125Y228286D01*
X851125Y230423D02*
X848875Y230423D01*
X843875Y231125D02*
X843875Y221875D01*
X843875Y231125D02*
X846125Y231125D01*
X846125Y221875D01*
X843875Y221875D01*
X843875Y224012D02*
X846125Y224012D01*
X846125Y226149D02*
X843875Y226149D01*
X843875Y228286D02*
X846125Y228286D01*
X846125Y230423D02*
X843875Y230423D01*
X841125Y236125D02*
X831875Y236125D01*
X841125Y236125D02*
X841125Y233875D01*
X831875Y233875D01*
X831875Y236125D01*
X831875Y236012D02*
X841125Y236012D01*
X841125Y241125D02*
X831875Y241125D01*
X841125Y241125D02*
X841125Y238875D01*
X831875Y238875D01*
X831875Y241125D01*
X831875Y241012D02*
X841125Y241012D01*
X841125Y246125D02*
X831875Y246125D01*
X841125Y246125D02*
X841125Y243875D01*
X831875Y243875D01*
X831875Y246125D01*
X831875Y246012D02*
X841125Y246012D01*
X841125Y251125D02*
X831875Y251125D01*
X841125Y251125D02*
X841125Y248875D01*
X831875Y248875D01*
X831875Y251125D01*
X831875Y251012D02*
X841125Y251012D01*
X841125Y256125D02*
X831875Y256125D01*
X841125Y256125D02*
X841125Y253875D01*
X831875Y253875D01*
X831875Y256125D01*
X831875Y256012D02*
X841125Y256012D01*
X841125Y261125D02*
X831875Y261125D01*
X841125Y261125D02*
X841125Y258875D01*
X831875Y258875D01*
X831875Y261125D01*
X831875Y261012D02*
X841125Y261012D01*
X841125Y266125D02*
X831875Y266125D01*
X841125Y266125D02*
X841125Y263875D01*
X831875Y263875D01*
X831875Y266125D01*
X831875Y266012D02*
X841125Y266012D01*
X841125Y271125D02*
X831875Y271125D01*
X841125Y271125D02*
X841125Y268875D01*
X831875Y268875D01*
X831875Y271125D01*
X831875Y271012D02*
X841125Y271012D01*
X841125Y276125D02*
X831875Y276125D01*
X841125Y276125D02*
X841125Y273875D01*
X831875Y273875D01*
X831875Y276125D01*
X831875Y276012D02*
X841125Y276012D01*
X841125Y281125D02*
X831875Y281125D01*
X841125Y281125D02*
X841125Y278875D01*
X831875Y278875D01*
X831875Y281125D01*
X831875Y281012D02*
X841125Y281012D01*
X841125Y286125D02*
X831875Y286125D01*
X841125Y286125D02*
X841125Y283875D01*
X831875Y283875D01*
X831875Y286125D01*
X831875Y286012D02*
X841125Y286012D01*
X846125Y288875D02*
X846125Y298125D01*
X846125Y288875D02*
X843875Y288875D01*
X843875Y298125D01*
X846125Y298125D01*
X846125Y291012D02*
X843875Y291012D01*
X843875Y293149D02*
X846125Y293149D01*
X846125Y295286D02*
X843875Y295286D01*
X843875Y297423D02*
X846125Y297423D01*
X851125Y298125D02*
X851125Y288875D01*
X848875Y288875D01*
X848875Y298125D01*
X851125Y298125D01*
X851125Y291012D02*
X848875Y291012D01*
X848875Y293149D02*
X851125Y293149D01*
X851125Y295286D02*
X848875Y295286D01*
X848875Y297423D02*
X851125Y297423D01*
X856125Y298125D02*
X856125Y288875D01*
X853875Y288875D01*
X853875Y298125D01*
X856125Y298125D01*
X856125Y291012D02*
X853875Y291012D01*
X853875Y293149D02*
X856125Y293149D01*
X856125Y295286D02*
X853875Y295286D01*
X853875Y297423D02*
X856125Y297423D01*
X861125Y298125D02*
X861125Y288875D01*
X858875Y288875D01*
X858875Y298125D01*
X861125Y298125D01*
X861125Y291012D02*
X858875Y291012D01*
X858875Y293149D02*
X861125Y293149D01*
X861125Y295286D02*
X858875Y295286D01*
X858875Y297423D02*
X861125Y297423D01*
X866125Y298125D02*
X866125Y288875D01*
X863875Y288875D01*
X863875Y298125D01*
X866125Y298125D01*
X866125Y291012D02*
X863875Y291012D01*
X863875Y293149D02*
X866125Y293149D01*
X866125Y295286D02*
X863875Y295286D01*
X863875Y297423D02*
X866125Y297423D01*
X871125Y298125D02*
X871125Y288875D01*
X868875Y288875D01*
X868875Y298125D01*
X871125Y298125D01*
X871125Y291012D02*
X868875Y291012D01*
X868875Y293149D02*
X871125Y293149D01*
X871125Y295286D02*
X868875Y295286D01*
X868875Y297423D02*
X871125Y297423D01*
X876125Y298125D02*
X876125Y288875D01*
X873875Y288875D01*
X873875Y298125D01*
X876125Y298125D01*
X876125Y291012D02*
X873875Y291012D01*
X873875Y293149D02*
X876125Y293149D01*
X876125Y295286D02*
X873875Y295286D01*
X873875Y297423D02*
X876125Y297423D01*
X881125Y298125D02*
X881125Y288875D01*
X878875Y288875D01*
X878875Y298125D01*
X881125Y298125D01*
X881125Y291012D02*
X878875Y291012D01*
X878875Y293149D02*
X881125Y293149D01*
X881125Y295286D02*
X878875Y295286D01*
X878875Y297423D02*
X881125Y297423D01*
X886125Y298125D02*
X886125Y288875D01*
X883875Y288875D01*
X883875Y298125D01*
X886125Y298125D01*
X886125Y291012D02*
X883875Y291012D01*
X883875Y293149D02*
X886125Y293149D01*
X886125Y295286D02*
X883875Y295286D01*
X883875Y297423D02*
X886125Y297423D01*
X891125Y298125D02*
X891125Y288875D01*
X888875Y288875D01*
X888875Y298125D01*
X891125Y298125D01*
X891125Y291012D02*
X888875Y291012D01*
X888875Y293149D02*
X891125Y293149D01*
X891125Y295286D02*
X888875Y295286D01*
X888875Y297423D02*
X891125Y297423D01*
X896125Y298125D02*
X896125Y288875D01*
X893875Y288875D01*
X893875Y298125D01*
X896125Y298125D01*
X896125Y291012D02*
X893875Y291012D01*
X893875Y293149D02*
X896125Y293149D01*
X896125Y295286D02*
X893875Y295286D01*
X893875Y297423D02*
X896125Y297423D01*
D21*
X845000Y415000D03*
X870000Y415000D03*
X895000Y415000D03*
X845000Y560000D03*
X895000Y560000D03*
D22*
X809000Y490000D03*
X931000Y490000D03*
D21*
X845000Y795000D03*
X870000Y795000D03*
X895000Y795000D03*
X845000Y940000D03*
X895000Y940000D03*
D22*
X809000Y870000D03*
X931000Y870000D03*
D23*
X962000Y129600D03*
X962000Y155000D03*
X962000Y180400D03*
D24*
X962000Y155000D03*
D25*
X791500Y960000D03*
X808500Y960000D03*
X791500Y946000D03*
X808500Y946000D03*
D26*
X861000Y181500D03*
X879000Y158500D03*
X861000Y158500D03*
X879000Y181500D03*
D25*
X894000Y178500D03*
X894000Y161500D03*
D27*
X861500Y141000D03*
X878500Y141000D03*
X947500Y244000D03*
X930500Y244000D03*
X894000Y196500D03*
X894000Y213500D03*
D21*
X851000Y530000D03*
X889000Y530000D03*
X851000Y910000D03*
X889000Y910000D03*
D28*
X870000Y670000D03*
D29*
X887900Y682000D02*
X892100Y682000D01*
X892100Y678000D02*
X887900Y678000D01*
X887900Y674000D02*
X892100Y674000D01*
X892100Y670000D02*
X887900Y670000D01*
X887900Y666000D02*
X892100Y666000D01*
X892100Y662000D02*
X887900Y662000D01*
X887900Y658000D02*
X892100Y658000D01*
X882000Y652100D02*
X882000Y647900D01*
X878000Y647900D02*
X878000Y652100D01*
X874000Y652100D02*
X874000Y647900D01*
X870000Y647900D02*
X870000Y652100D01*
X866000Y652100D02*
X866000Y647900D01*
X862000Y647900D02*
X862000Y652100D01*
X858000Y652100D02*
X858000Y647900D01*
X852100Y658000D02*
X847900Y658000D01*
X847900Y662000D02*
X852100Y662000D01*
X852100Y666000D02*
X847900Y666000D01*
X847900Y670000D02*
X852100Y670000D01*
X852100Y674000D02*
X847900Y674000D01*
X847900Y678000D02*
X852100Y678000D01*
X852100Y682000D02*
X847900Y682000D01*
X858000Y687900D02*
X858000Y692100D01*
X862000Y692100D02*
X862000Y687900D01*
X866000Y687900D02*
X866000Y692100D01*
X870000Y692100D02*
X870000Y687900D01*
X874000Y687900D02*
X874000Y692100D01*
X878000Y692100D02*
X878000Y687900D01*
X882000Y687900D02*
X882000Y692100D01*
D25*
X916500Y645000D03*
X933500Y645000D03*
X933500Y615000D03*
X916500Y615000D03*
X933500Y600000D03*
X916500Y600000D03*
D27*
X933500Y630000D03*
X916500Y630000D03*
D25*
X933500Y660000D03*
X916500Y660000D03*
D27*
X916500Y690000D03*
X933500Y690000D03*
D30*
X857300Y600000D03*
X882700Y600000D03*
X857300Y759000D03*
X882700Y759000D03*
D27*
X831000Y448500D03*
X831000Y431500D03*
X909000Y448500D03*
X909000Y431500D03*
X832000Y828500D03*
X832000Y811500D03*
X908000Y828500D03*
X908000Y811500D03*
D25*
X895000Y858500D03*
X895000Y841500D03*
X845000Y858500D03*
X845000Y841500D03*
X895000Y478500D03*
X895000Y461500D03*
X845000Y478500D03*
X845000Y461500D03*
D27*
X845000Y828500D03*
X845000Y811500D03*
X895000Y811500D03*
X895000Y828500D03*
X895000Y431500D03*
X895000Y448500D03*
X845000Y448500D03*
X845000Y431500D03*
X916500Y675000D03*
X933500Y675000D03*
X808500Y900000D03*
X791500Y900000D03*
D21*
X819000Y920000D03*
X781000Y920000D03*
D14*
X71900Y135400D03*
X135400Y160800D03*
D15*
X59200Y110000D03*
X160800Y110000D03*
D10*
X89680Y110000D02*
X89686Y110499D01*
X89704Y110997D01*
X89735Y111495D01*
X89778Y111992D01*
X89833Y112487D01*
X89900Y112982D01*
X89979Y113474D01*
X90070Y113964D01*
X90174Y114452D01*
X90289Y114937D01*
X90416Y115420D01*
X90555Y115899D01*
X90706Y116374D01*
X90868Y116846D01*
X91042Y117313D01*
X91227Y117776D01*
X91423Y118235D01*
X91631Y118688D01*
X91850Y119136D01*
X92079Y119579D01*
X92320Y120016D01*
X92571Y120447D01*
X92833Y120871D01*
X93105Y121289D01*
X93387Y121700D01*
X93679Y122105D01*
X93981Y122502D01*
X94292Y122891D01*
X94614Y123272D01*
X94944Y123646D01*
X95283Y124011D01*
X95632Y124368D01*
X95989Y124717D01*
X96354Y125056D01*
X96728Y125386D01*
X97109Y125708D01*
X97498Y126019D01*
X97895Y126321D01*
X98300Y126613D01*
X98711Y126895D01*
X99129Y127167D01*
X99553Y127429D01*
X99984Y127680D01*
X100421Y127921D01*
X100864Y128150D01*
X101312Y128369D01*
X101765Y128577D01*
X102224Y128773D01*
X102687Y128958D01*
X103154Y129132D01*
X103626Y129294D01*
X104101Y129445D01*
X104580Y129584D01*
X105063Y129711D01*
X105548Y129826D01*
X106036Y129930D01*
X106526Y130021D01*
X107018Y130100D01*
X107513Y130167D01*
X108008Y130222D01*
X108505Y130265D01*
X109003Y130296D01*
X109501Y130314D01*
X110000Y130320D01*
X110499Y130314D01*
X110997Y130296D01*
X111495Y130265D01*
X111992Y130222D01*
X112487Y130167D01*
X112982Y130100D01*
X113474Y130021D01*
X113964Y129930D01*
X114452Y129826D01*
X114937Y129711D01*
X115420Y129584D01*
X115899Y129445D01*
X116374Y129294D01*
X116846Y129132D01*
X117313Y128958D01*
X117776Y128773D01*
X118235Y128577D01*
X118688Y128369D01*
X119136Y128150D01*
X119579Y127921D01*
X120016Y127680D01*
X120447Y127429D01*
X120871Y127167D01*
X121289Y126895D01*
X121700Y126613D01*
X122105Y126321D01*
X122502Y126019D01*
X122891Y125708D01*
X123272Y125386D01*
X123646Y125056D01*
X124011Y124717D01*
X124368Y124368D01*
X124717Y124011D01*
X125056Y123646D01*
X125386Y123272D01*
X125708Y122891D01*
X126019Y122502D01*
X126321Y122105D01*
X126613Y121700D01*
X126895Y121289D01*
X127167Y120871D01*
X127429Y120447D01*
X127680Y120016D01*
X127921Y119579D01*
X128150Y119136D01*
X128369Y118688D01*
X128577Y118235D01*
X128773Y117776D01*
X128958Y117313D01*
X129132Y116846D01*
X129294Y116374D01*
X129445Y115899D01*
X129584Y115420D01*
X129711Y114937D01*
X129826Y114452D01*
X129930Y113964D01*
X130021Y113474D01*
X130100Y112982D01*
X130167Y112487D01*
X130222Y111992D01*
X130265Y111495D01*
X130296Y110997D01*
X130314Y110499D01*
X130320Y110000D01*
X130314Y109501D01*
X130296Y109003D01*
X130265Y108505D01*
X130222Y108008D01*
X130167Y107513D01*
X130100Y107018D01*
X130021Y106526D01*
X129930Y106036D01*
X129826Y105548D01*
X129711Y105063D01*
X129584Y104580D01*
X129445Y104101D01*
X129294Y103626D01*
X129132Y103154D01*
X128958Y102687D01*
X128773Y102224D01*
X128577Y101765D01*
X128369Y101312D01*
X128150Y100864D01*
X127921Y100421D01*
X127680Y99984D01*
X127429Y99553D01*
X127167Y99129D01*
X126895Y98711D01*
X126613Y98300D01*
X126321Y97895D01*
X126019Y97498D01*
X125708Y97109D01*
X125386Y96728D01*
X125056Y96354D01*
X124717Y95989D01*
X124368Y95632D01*
X124011Y95283D01*
X123646Y94944D01*
X123272Y94614D01*
X122891Y94292D01*
X122502Y93981D01*
X122105Y93679D01*
X121700Y93387D01*
X121289Y93105D01*
X120871Y92833D01*
X120447Y92571D01*
X120016Y92320D01*
X119579Y92079D01*
X119136Y91850D01*
X118688Y91631D01*
X118235Y91423D01*
X117776Y91227D01*
X117313Y91042D01*
X116846Y90868D01*
X116374Y90706D01*
X115899Y90555D01*
X115420Y90416D01*
X114937Y90289D01*
X114452Y90174D01*
X113964Y90070D01*
X113474Y89979D01*
X112982Y89900D01*
X112487Y89833D01*
X111992Y89778D01*
X111495Y89735D01*
X110997Y89704D01*
X110499Y89686D01*
X110000Y89680D01*
X109501Y89686D01*
X109003Y89704D01*
X108505Y89735D01*
X108008Y89778D01*
X107513Y89833D01*
X107018Y89900D01*
X106526Y89979D01*
X106036Y90070D01*
X105548Y90174D01*
X105063Y90289D01*
X104580Y90416D01*
X104101Y90555D01*
X103626Y90706D01*
X103154Y90868D01*
X102687Y91042D01*
X102224Y91227D01*
X101765Y91423D01*
X101312Y91631D01*
X100864Y91850D01*
X100421Y92079D01*
X99984Y92320D01*
X99553Y92571D01*
X99129Y92833D01*
X98711Y93105D01*
X98300Y93387D01*
X97895Y93679D01*
X97498Y93981D01*
X97109Y94292D01*
X96728Y94614D01*
X96354Y94944D01*
X95989Y95283D01*
X95632Y95632D01*
X95283Y95989D01*
X94944Y96354D01*
X94614Y96728D01*
X94292Y97109D01*
X93981Y97498D01*
X93679Y97895D01*
X93387Y98300D01*
X93105Y98711D01*
X92833Y99129D01*
X92571Y99553D01*
X92320Y99984D01*
X92079Y100421D01*
X91850Y100864D01*
X91631Y101312D01*
X91423Y101765D01*
X91227Y102224D01*
X91042Y102687D01*
X90868Y103154D01*
X90706Y103626D01*
X90555Y104101D01*
X90416Y104580D01*
X90289Y105063D01*
X90174Y105548D01*
X90070Y106036D01*
X89979Y106526D01*
X89900Y107018D01*
X89833Y107513D01*
X89778Y108008D01*
X89735Y108505D01*
X89704Y109003D01*
X89686Y109501D01*
X89680Y110000D01*
D16*
X110000Y110000D03*
D17*
X97300Y59200D03*
X122700Y59200D03*
D14*
X261900Y135400D03*
X325400Y160800D03*
D15*
X249200Y110000D03*
X350800Y110000D03*
D10*
X279680Y110000D02*
X279686Y110499D01*
X279704Y110997D01*
X279735Y111495D01*
X279778Y111992D01*
X279833Y112487D01*
X279900Y112982D01*
X279979Y113474D01*
X280070Y113964D01*
X280174Y114452D01*
X280289Y114937D01*
X280416Y115420D01*
X280555Y115899D01*
X280706Y116374D01*
X280868Y116846D01*
X281042Y117313D01*
X281227Y117776D01*
X281423Y118235D01*
X281631Y118688D01*
X281850Y119136D01*
X282079Y119579D01*
X282320Y120016D01*
X282571Y120447D01*
X282833Y120871D01*
X283105Y121289D01*
X283387Y121700D01*
X283679Y122105D01*
X283981Y122502D01*
X284292Y122891D01*
X284614Y123272D01*
X284944Y123646D01*
X285283Y124011D01*
X285632Y124368D01*
X285989Y124717D01*
X286354Y125056D01*
X286728Y125386D01*
X287109Y125708D01*
X287498Y126019D01*
X287895Y126321D01*
X288300Y126613D01*
X288711Y126895D01*
X289129Y127167D01*
X289553Y127429D01*
X289984Y127680D01*
X290421Y127921D01*
X290864Y128150D01*
X291312Y128369D01*
X291765Y128577D01*
X292224Y128773D01*
X292687Y128958D01*
X293154Y129132D01*
X293626Y129294D01*
X294101Y129445D01*
X294580Y129584D01*
X295063Y129711D01*
X295548Y129826D01*
X296036Y129930D01*
X296526Y130021D01*
X297018Y130100D01*
X297513Y130167D01*
X298008Y130222D01*
X298505Y130265D01*
X299003Y130296D01*
X299501Y130314D01*
X300000Y130320D01*
X300499Y130314D01*
X300997Y130296D01*
X301495Y130265D01*
X301992Y130222D01*
X302487Y130167D01*
X302982Y130100D01*
X303474Y130021D01*
X303964Y129930D01*
X304452Y129826D01*
X304937Y129711D01*
X305420Y129584D01*
X305899Y129445D01*
X306374Y129294D01*
X306846Y129132D01*
X307313Y128958D01*
X307776Y128773D01*
X308235Y128577D01*
X308688Y128369D01*
X309136Y128150D01*
X309579Y127921D01*
X310016Y127680D01*
X310447Y127429D01*
X310871Y127167D01*
X311289Y126895D01*
X311700Y126613D01*
X312105Y126321D01*
X312502Y126019D01*
X312891Y125708D01*
X313272Y125386D01*
X313646Y125056D01*
X314011Y124717D01*
X314368Y124368D01*
X314717Y124011D01*
X315056Y123646D01*
X315386Y123272D01*
X315708Y122891D01*
X316019Y122502D01*
X316321Y122105D01*
X316613Y121700D01*
X316895Y121289D01*
X317167Y120871D01*
X317429Y120447D01*
X317680Y120016D01*
X317921Y119579D01*
X318150Y119136D01*
X318369Y118688D01*
X318577Y118235D01*
X318773Y117776D01*
X318958Y117313D01*
X319132Y116846D01*
X319294Y116374D01*
X319445Y115899D01*
X319584Y115420D01*
X319711Y114937D01*
X319826Y114452D01*
X319930Y113964D01*
X320021Y113474D01*
X320100Y112982D01*
X320167Y112487D01*
X320222Y111992D01*
X320265Y111495D01*
X320296Y110997D01*
X320314Y110499D01*
X320320Y110000D01*
X320314Y109501D01*
X320296Y109003D01*
X320265Y108505D01*
X320222Y108008D01*
X320167Y107513D01*
X320100Y107018D01*
X320021Y106526D01*
X319930Y106036D01*
X319826Y105548D01*
X319711Y105063D01*
X319584Y104580D01*
X319445Y104101D01*
X319294Y103626D01*
X319132Y103154D01*
X318958Y102687D01*
X318773Y102224D01*
X318577Y101765D01*
X318369Y101312D01*
X318150Y100864D01*
X317921Y100421D01*
X317680Y99984D01*
X317429Y99553D01*
X317167Y99129D01*
X316895Y98711D01*
X316613Y98300D01*
X316321Y97895D01*
X316019Y97498D01*
X315708Y97109D01*
X315386Y96728D01*
X315056Y96354D01*
X314717Y95989D01*
X314368Y95632D01*
X314011Y95283D01*
X313646Y94944D01*
X313272Y94614D01*
X312891Y94292D01*
X312502Y93981D01*
X312105Y93679D01*
X311700Y93387D01*
X311289Y93105D01*
X310871Y92833D01*
X310447Y92571D01*
X310016Y92320D01*
X309579Y92079D01*
X309136Y91850D01*
X308688Y91631D01*
X308235Y91423D01*
X307776Y91227D01*
X307313Y91042D01*
X306846Y90868D01*
X306374Y90706D01*
X305899Y90555D01*
X305420Y90416D01*
X304937Y90289D01*
X304452Y90174D01*
X303964Y90070D01*
X303474Y89979D01*
X302982Y89900D01*
X302487Y89833D01*
X301992Y89778D01*
X301495Y89735D01*
X300997Y89704D01*
X300499Y89686D01*
X300000Y89680D01*
X299501Y89686D01*
X299003Y89704D01*
X298505Y89735D01*
X298008Y89778D01*
X297513Y89833D01*
X297018Y89900D01*
X296526Y89979D01*
X296036Y90070D01*
X295548Y90174D01*
X295063Y90289D01*
X294580Y90416D01*
X294101Y90555D01*
X293626Y90706D01*
X293154Y90868D01*
X292687Y91042D01*
X292224Y91227D01*
X291765Y91423D01*
X291312Y91631D01*
X290864Y91850D01*
X290421Y92079D01*
X289984Y92320D01*
X289553Y92571D01*
X289129Y92833D01*
X288711Y93105D01*
X288300Y93387D01*
X287895Y93679D01*
X287498Y93981D01*
X287109Y94292D01*
X286728Y94614D01*
X286354Y94944D01*
X285989Y95283D01*
X285632Y95632D01*
X285283Y95989D01*
X284944Y96354D01*
X284614Y96728D01*
X284292Y97109D01*
X283981Y97498D01*
X283679Y97895D01*
X283387Y98300D01*
X283105Y98711D01*
X282833Y99129D01*
X282571Y99553D01*
X282320Y99984D01*
X282079Y100421D01*
X281850Y100864D01*
X281631Y101312D01*
X281423Y101765D01*
X281227Y102224D01*
X281042Y102687D01*
X280868Y103154D01*
X280706Y103626D01*
X280555Y104101D01*
X280416Y104580D01*
X280289Y105063D01*
X280174Y105548D01*
X280070Y106036D01*
X279979Y106526D01*
X279900Y107018D01*
X279833Y107513D01*
X279778Y108008D01*
X279735Y108505D01*
X279704Y109003D01*
X279686Y109501D01*
X279680Y110000D01*
D16*
X300000Y110000D03*
D17*
X287300Y59200D03*
X312700Y59200D03*
D14*
X451900Y135400D03*
X515400Y160800D03*
D15*
X439200Y110000D03*
X540800Y110000D03*
D10*
X469680Y110000D02*
X469686Y110499D01*
X469704Y110997D01*
X469735Y111495D01*
X469778Y111992D01*
X469833Y112487D01*
X469900Y112982D01*
X469979Y113474D01*
X470070Y113964D01*
X470174Y114452D01*
X470289Y114937D01*
X470416Y115420D01*
X470555Y115899D01*
X470706Y116374D01*
X470868Y116846D01*
X471042Y117313D01*
X471227Y117776D01*
X471423Y118235D01*
X471631Y118688D01*
X471850Y119136D01*
X472079Y119579D01*
X472320Y120016D01*
X472571Y120447D01*
X472833Y120871D01*
X473105Y121289D01*
X473387Y121700D01*
X473679Y122105D01*
X473981Y122502D01*
X474292Y122891D01*
X474614Y123272D01*
X474944Y123646D01*
X475283Y124011D01*
X475632Y124368D01*
X475989Y124717D01*
X476354Y125056D01*
X476728Y125386D01*
X477109Y125708D01*
X477498Y126019D01*
X477895Y126321D01*
X478300Y126613D01*
X478711Y126895D01*
X479129Y127167D01*
X479553Y127429D01*
X479984Y127680D01*
X480421Y127921D01*
X480864Y128150D01*
X481312Y128369D01*
X481765Y128577D01*
X482224Y128773D01*
X482687Y128958D01*
X483154Y129132D01*
X483626Y129294D01*
X484101Y129445D01*
X484580Y129584D01*
X485063Y129711D01*
X485548Y129826D01*
X486036Y129930D01*
X486526Y130021D01*
X487018Y130100D01*
X487513Y130167D01*
X488008Y130222D01*
X488505Y130265D01*
X489003Y130296D01*
X489501Y130314D01*
X490000Y130320D01*
X490499Y130314D01*
X490997Y130296D01*
X491495Y130265D01*
X491992Y130222D01*
X492487Y130167D01*
X492982Y130100D01*
X493474Y130021D01*
X493964Y129930D01*
X494452Y129826D01*
X494937Y129711D01*
X495420Y129584D01*
X495899Y129445D01*
X496374Y129294D01*
X496846Y129132D01*
X497313Y128958D01*
X497776Y128773D01*
X498235Y128577D01*
X498688Y128369D01*
X499136Y128150D01*
X499579Y127921D01*
X500016Y127680D01*
X500447Y127429D01*
X500871Y127167D01*
X501289Y126895D01*
X501700Y126613D01*
X502105Y126321D01*
X502502Y126019D01*
X502891Y125708D01*
X503272Y125386D01*
X503646Y125056D01*
X504011Y124717D01*
X504368Y124368D01*
X504717Y124011D01*
X505056Y123646D01*
X505386Y123272D01*
X505708Y122891D01*
X506019Y122502D01*
X506321Y122105D01*
X506613Y121700D01*
X506895Y121289D01*
X507167Y120871D01*
X507429Y120447D01*
X507680Y120016D01*
X507921Y119579D01*
X508150Y119136D01*
X508369Y118688D01*
X508577Y118235D01*
X508773Y117776D01*
X508958Y117313D01*
X509132Y116846D01*
X509294Y116374D01*
X509445Y115899D01*
X509584Y115420D01*
X509711Y114937D01*
X509826Y114452D01*
X509930Y113964D01*
X510021Y113474D01*
X510100Y112982D01*
X510167Y112487D01*
X510222Y111992D01*
X510265Y111495D01*
X510296Y110997D01*
X510314Y110499D01*
X510320Y110000D01*
X510314Y109501D01*
X510296Y109003D01*
X510265Y108505D01*
X510222Y108008D01*
X510167Y107513D01*
X510100Y107018D01*
X510021Y106526D01*
X509930Y106036D01*
X509826Y105548D01*
X509711Y105063D01*
X509584Y104580D01*
X509445Y104101D01*
X509294Y103626D01*
X509132Y103154D01*
X508958Y102687D01*
X508773Y102224D01*
X508577Y101765D01*
X508369Y101312D01*
X508150Y100864D01*
X507921Y100421D01*
X507680Y99984D01*
X507429Y99553D01*
X507167Y99129D01*
X506895Y98711D01*
X506613Y98300D01*
X506321Y97895D01*
X506019Y97498D01*
X505708Y97109D01*
X505386Y96728D01*
X505056Y96354D01*
X504717Y95989D01*
X504368Y95632D01*
X504011Y95283D01*
X503646Y94944D01*
X503272Y94614D01*
X502891Y94292D01*
X502502Y93981D01*
X502105Y93679D01*
X501700Y93387D01*
X501289Y93105D01*
X500871Y92833D01*
X500447Y92571D01*
X500016Y92320D01*
X499579Y92079D01*
X499136Y91850D01*
X498688Y91631D01*
X498235Y91423D01*
X497776Y91227D01*
X497313Y91042D01*
X496846Y90868D01*
X496374Y90706D01*
X495899Y90555D01*
X495420Y90416D01*
X494937Y90289D01*
X494452Y90174D01*
X493964Y90070D01*
X493474Y89979D01*
X492982Y89900D01*
X492487Y89833D01*
X491992Y89778D01*
X491495Y89735D01*
X490997Y89704D01*
X490499Y89686D01*
X490000Y89680D01*
X489501Y89686D01*
X489003Y89704D01*
X488505Y89735D01*
X488008Y89778D01*
X487513Y89833D01*
X487018Y89900D01*
X486526Y89979D01*
X486036Y90070D01*
X485548Y90174D01*
X485063Y90289D01*
X484580Y90416D01*
X484101Y90555D01*
X483626Y90706D01*
X483154Y90868D01*
X482687Y91042D01*
X482224Y91227D01*
X481765Y91423D01*
X481312Y91631D01*
X480864Y91850D01*
X480421Y92079D01*
X479984Y92320D01*
X479553Y92571D01*
X479129Y92833D01*
X478711Y93105D01*
X478300Y93387D01*
X477895Y93679D01*
X477498Y93981D01*
X477109Y94292D01*
X476728Y94614D01*
X476354Y94944D01*
X475989Y95283D01*
X475632Y95632D01*
X475283Y95989D01*
X474944Y96354D01*
X474614Y96728D01*
X474292Y97109D01*
X473981Y97498D01*
X473679Y97895D01*
X473387Y98300D01*
X473105Y98711D01*
X472833Y99129D01*
X472571Y99553D01*
X472320Y99984D01*
X472079Y100421D01*
X471850Y100864D01*
X471631Y101312D01*
X471423Y101765D01*
X471227Y102224D01*
X471042Y102687D01*
X470868Y103154D01*
X470706Y103626D01*
X470555Y104101D01*
X470416Y104580D01*
X470289Y105063D01*
X470174Y105548D01*
X470070Y106036D01*
X469979Y106526D01*
X469900Y107018D01*
X469833Y107513D01*
X469778Y108008D01*
X469735Y108505D01*
X469704Y109003D01*
X469686Y109501D01*
X469680Y110000D01*
D16*
X490000Y110000D03*
D17*
X477300Y59200D03*
X502700Y59200D03*
D18*
G36*
X167475Y203435D02*
X178435Y214395D01*
X189395Y203435D01*
X178435Y192475D01*
X167475Y203435D01*
G37*
G36*
X140605Y176565D02*
X151565Y187525D01*
X162525Y176565D01*
X151565Y165605D01*
X140605Y176565D01*
G37*
G36*
X357475Y163435D02*
X368435Y174395D01*
X379395Y163435D01*
X368435Y152475D01*
X357475Y163435D01*
G37*
G36*
X330605Y136565D02*
X341565Y147525D01*
X352525Y136565D01*
X341565Y125605D01*
X330605Y136565D01*
G37*
G36*
X547475Y163435D02*
X558435Y174395D01*
X569395Y163435D01*
X558435Y152475D01*
X547475Y163435D01*
G37*
G36*
X520605Y136565D02*
X531565Y147525D01*
X542525Y136565D01*
X531565Y125605D01*
X520605Y136565D01*
G37*
D14*
X641900Y895400D03*
X705400Y920800D03*
D15*
X629200Y870000D03*
X730800Y870000D03*
D10*
X659680Y870000D02*
X659686Y870499D01*
X659704Y870997D01*
X659735Y871495D01*
X659778Y871992D01*
X659833Y872487D01*
X659900Y872982D01*
X659979Y873474D01*
X660070Y873964D01*
X660174Y874452D01*
X660289Y874937D01*
X660416Y875420D01*
X660555Y875899D01*
X660706Y876374D01*
X660868Y876846D01*
X661042Y877313D01*
X661227Y877776D01*
X661423Y878235D01*
X661631Y878688D01*
X661850Y879136D01*
X662079Y879579D01*
X662320Y880016D01*
X662571Y880447D01*
X662833Y880871D01*
X663105Y881289D01*
X663387Y881700D01*
X663679Y882105D01*
X663981Y882502D01*
X664292Y882891D01*
X664614Y883272D01*
X664944Y883646D01*
X665283Y884011D01*
X665632Y884368D01*
X665989Y884717D01*
X666354Y885056D01*
X666728Y885386D01*
X667109Y885708D01*
X667498Y886019D01*
X667895Y886321D01*
X668300Y886613D01*
X668711Y886895D01*
X669129Y887167D01*
X669553Y887429D01*
X669984Y887680D01*
X670421Y887921D01*
X670864Y888150D01*
X671312Y888369D01*
X671765Y888577D01*
X672224Y888773D01*
X672687Y888958D01*
X673154Y889132D01*
X673626Y889294D01*
X674101Y889445D01*
X674580Y889584D01*
X675063Y889711D01*
X675548Y889826D01*
X676036Y889930D01*
X676526Y890021D01*
X677018Y890100D01*
X677513Y890167D01*
X678008Y890222D01*
X678505Y890265D01*
X679003Y890296D01*
X679501Y890314D01*
X680000Y890320D01*
X680499Y890314D01*
X680997Y890296D01*
X681495Y890265D01*
X681992Y890222D01*
X682487Y890167D01*
X682982Y890100D01*
X683474Y890021D01*
X683964Y889930D01*
X684452Y889826D01*
X684937Y889711D01*
X685420Y889584D01*
X685899Y889445D01*
X686374Y889294D01*
X686846Y889132D01*
X687313Y888958D01*
X687776Y888773D01*
X688235Y888577D01*
X688688Y888369D01*
X689136Y888150D01*
X689579Y887921D01*
X690016Y887680D01*
X690447Y887429D01*
X690871Y887167D01*
X691289Y886895D01*
X691700Y886613D01*
X692105Y886321D01*
X692502Y886019D01*
X692891Y885708D01*
X693272Y885386D01*
X693646Y885056D01*
X694011Y884717D01*
X694368Y884368D01*
X694717Y884011D01*
X695056Y883646D01*
X695386Y883272D01*
X695708Y882891D01*
X696019Y882502D01*
X696321Y882105D01*
X696613Y881700D01*
X696895Y881289D01*
X697167Y880871D01*
X697429Y880447D01*
X697680Y880016D01*
X697921Y879579D01*
X698150Y879136D01*
X698369Y878688D01*
X698577Y878235D01*
X698773Y877776D01*
X698958Y877313D01*
X699132Y876846D01*
X699294Y876374D01*
X699445Y875899D01*
X699584Y875420D01*
X699711Y874937D01*
X699826Y874452D01*
X699930Y873964D01*
X700021Y873474D01*
X700100Y872982D01*
X700167Y872487D01*
X700222Y871992D01*
X700265Y871495D01*
X700296Y870997D01*
X700314Y870499D01*
X700320Y870000D01*
X700314Y869501D01*
X700296Y869003D01*
X700265Y868505D01*
X700222Y868008D01*
X700167Y867513D01*
X700100Y867018D01*
X700021Y866526D01*
X699930Y866036D01*
X699826Y865548D01*
X699711Y865063D01*
X699584Y864580D01*
X699445Y864101D01*
X699294Y863626D01*
X699132Y863154D01*
X698958Y862687D01*
X698773Y862224D01*
X698577Y861765D01*
X698369Y861312D01*
X698150Y860864D01*
X697921Y860421D01*
X697680Y859984D01*
X697429Y859553D01*
X697167Y859129D01*
X696895Y858711D01*
X696613Y858300D01*
X696321Y857895D01*
X696019Y857498D01*
X695708Y857109D01*
X695386Y856728D01*
X695056Y856354D01*
X694717Y855989D01*
X694368Y855632D01*
X694011Y855283D01*
X693646Y854944D01*
X693272Y854614D01*
X692891Y854292D01*
X692502Y853981D01*
X692105Y853679D01*
X691700Y853387D01*
X691289Y853105D01*
X690871Y852833D01*
X690447Y852571D01*
X690016Y852320D01*
X689579Y852079D01*
X689136Y851850D01*
X688688Y851631D01*
X688235Y851423D01*
X687776Y851227D01*
X687313Y851042D01*
X686846Y850868D01*
X686374Y850706D01*
X685899Y850555D01*
X685420Y850416D01*
X684937Y850289D01*
X684452Y850174D01*
X683964Y850070D01*
X683474Y849979D01*
X682982Y849900D01*
X682487Y849833D01*
X681992Y849778D01*
X681495Y849735D01*
X680997Y849704D01*
X680499Y849686D01*
X680000Y849680D01*
X679501Y849686D01*
X679003Y849704D01*
X678505Y849735D01*
X678008Y849778D01*
X677513Y849833D01*
X677018Y849900D01*
X676526Y849979D01*
X676036Y850070D01*
X675548Y850174D01*
X675063Y850289D01*
X674580Y850416D01*
X674101Y850555D01*
X673626Y850706D01*
X673154Y850868D01*
X672687Y851042D01*
X672224Y851227D01*
X671765Y851423D01*
X671312Y851631D01*
X670864Y851850D01*
X670421Y852079D01*
X669984Y852320D01*
X669553Y852571D01*
X669129Y852833D01*
X668711Y853105D01*
X668300Y853387D01*
X667895Y853679D01*
X667498Y853981D01*
X667109Y854292D01*
X666728Y854614D01*
X666354Y854944D01*
X665989Y855283D01*
X665632Y855632D01*
X665283Y855989D01*
X664944Y856354D01*
X664614Y856728D01*
X664292Y857109D01*
X663981Y857498D01*
X663679Y857895D01*
X663387Y858300D01*
X663105Y858711D01*
X662833Y859129D01*
X662571Y859553D01*
X662320Y859984D01*
X662079Y860421D01*
X661850Y860864D01*
X661631Y861312D01*
X661423Y861765D01*
X661227Y862224D01*
X661042Y862687D01*
X660868Y863154D01*
X660706Y863626D01*
X660555Y864101D01*
X660416Y864580D01*
X660289Y865063D01*
X660174Y865548D01*
X660070Y866036D01*
X659979Y866526D01*
X659900Y867018D01*
X659833Y867513D01*
X659778Y868008D01*
X659735Y868505D01*
X659704Y869003D01*
X659686Y869501D01*
X659680Y870000D01*
D16*
X680000Y870000D03*
D17*
X667300Y819200D03*
X692700Y819200D03*
D14*
X641900Y705400D03*
X705400Y730800D03*
D15*
X629200Y680000D03*
X730800Y680000D03*
D10*
X659680Y680000D02*
X659686Y680499D01*
X659704Y680997D01*
X659735Y681495D01*
X659778Y681992D01*
X659833Y682487D01*
X659900Y682982D01*
X659979Y683474D01*
X660070Y683964D01*
X660174Y684452D01*
X660289Y684937D01*
X660416Y685420D01*
X660555Y685899D01*
X660706Y686374D01*
X660868Y686846D01*
X661042Y687313D01*
X661227Y687776D01*
X661423Y688235D01*
X661631Y688688D01*
X661850Y689136D01*
X662079Y689579D01*
X662320Y690016D01*
X662571Y690447D01*
X662833Y690871D01*
X663105Y691289D01*
X663387Y691700D01*
X663679Y692105D01*
X663981Y692502D01*
X664292Y692891D01*
X664614Y693272D01*
X664944Y693646D01*
X665283Y694011D01*
X665632Y694368D01*
X665989Y694717D01*
X666354Y695056D01*
X666728Y695386D01*
X667109Y695708D01*
X667498Y696019D01*
X667895Y696321D01*
X668300Y696613D01*
X668711Y696895D01*
X669129Y697167D01*
X669553Y697429D01*
X669984Y697680D01*
X670421Y697921D01*
X670864Y698150D01*
X671312Y698369D01*
X671765Y698577D01*
X672224Y698773D01*
X672687Y698958D01*
X673154Y699132D01*
X673626Y699294D01*
X674101Y699445D01*
X674580Y699584D01*
X675063Y699711D01*
X675548Y699826D01*
X676036Y699930D01*
X676526Y700021D01*
X677018Y700100D01*
X677513Y700167D01*
X678008Y700222D01*
X678505Y700265D01*
X679003Y700296D01*
X679501Y700314D01*
X680000Y700320D01*
X680499Y700314D01*
X680997Y700296D01*
X681495Y700265D01*
X681992Y700222D01*
X682487Y700167D01*
X682982Y700100D01*
X683474Y700021D01*
X683964Y699930D01*
X684452Y699826D01*
X684937Y699711D01*
X685420Y699584D01*
X685899Y699445D01*
X686374Y699294D01*
X686846Y699132D01*
X687313Y698958D01*
X687776Y698773D01*
X688235Y698577D01*
X688688Y698369D01*
X689136Y698150D01*
X689579Y697921D01*
X690016Y697680D01*
X690447Y697429D01*
X690871Y697167D01*
X691289Y696895D01*
X691700Y696613D01*
X692105Y696321D01*
X692502Y696019D01*
X692891Y695708D01*
X693272Y695386D01*
X693646Y695056D01*
X694011Y694717D01*
X694368Y694368D01*
X694717Y694011D01*
X695056Y693646D01*
X695386Y693272D01*
X695708Y692891D01*
X696019Y692502D01*
X696321Y692105D01*
X696613Y691700D01*
X696895Y691289D01*
X697167Y690871D01*
X697429Y690447D01*
X697680Y690016D01*
X697921Y689579D01*
X698150Y689136D01*
X698369Y688688D01*
X698577Y688235D01*
X698773Y687776D01*
X698958Y687313D01*
X699132Y686846D01*
X699294Y686374D01*
X699445Y685899D01*
X699584Y685420D01*
X699711Y684937D01*
X699826Y684452D01*
X699930Y683964D01*
X700021Y683474D01*
X700100Y682982D01*
X700167Y682487D01*
X700222Y681992D01*
X700265Y681495D01*
X700296Y680997D01*
X700314Y680499D01*
X700320Y680000D01*
X700314Y679501D01*
X700296Y679003D01*
X700265Y678505D01*
X700222Y678008D01*
X700167Y677513D01*
X700100Y677018D01*
X700021Y676526D01*
X699930Y676036D01*
X699826Y675548D01*
X699711Y675063D01*
X699584Y674580D01*
X699445Y674101D01*
X699294Y673626D01*
X699132Y673154D01*
X698958Y672687D01*
X698773Y672224D01*
X698577Y671765D01*
X698369Y671312D01*
X698150Y670864D01*
X697921Y670421D01*
X697680Y669984D01*
X697429Y669553D01*
X697167Y669129D01*
X696895Y668711D01*
X696613Y668300D01*
X696321Y667895D01*
X696019Y667498D01*
X695708Y667109D01*
X695386Y666728D01*
X695056Y666354D01*
X694717Y665989D01*
X694368Y665632D01*
X694011Y665283D01*
X693646Y664944D01*
X693272Y664614D01*
X692891Y664292D01*
X692502Y663981D01*
X692105Y663679D01*
X691700Y663387D01*
X691289Y663105D01*
X690871Y662833D01*
X690447Y662571D01*
X690016Y662320D01*
X689579Y662079D01*
X689136Y661850D01*
X688688Y661631D01*
X688235Y661423D01*
X687776Y661227D01*
X687313Y661042D01*
X686846Y660868D01*
X686374Y660706D01*
X685899Y660555D01*
X685420Y660416D01*
X684937Y660289D01*
X684452Y660174D01*
X683964Y660070D01*
X683474Y659979D01*
X682982Y659900D01*
X682487Y659833D01*
X681992Y659778D01*
X681495Y659735D01*
X680997Y659704D01*
X680499Y659686D01*
X680000Y659680D01*
X679501Y659686D01*
X679003Y659704D01*
X678505Y659735D01*
X678008Y659778D01*
X677513Y659833D01*
X677018Y659900D01*
X676526Y659979D01*
X676036Y660070D01*
X675548Y660174D01*
X675063Y660289D01*
X674580Y660416D01*
X674101Y660555D01*
X673626Y660706D01*
X673154Y660868D01*
X672687Y661042D01*
X672224Y661227D01*
X671765Y661423D01*
X671312Y661631D01*
X670864Y661850D01*
X670421Y662079D01*
X669984Y662320D01*
X669553Y662571D01*
X669129Y662833D01*
X668711Y663105D01*
X668300Y663387D01*
X667895Y663679D01*
X667498Y663981D01*
X667109Y664292D01*
X666728Y664614D01*
X666354Y664944D01*
X665989Y665283D01*
X665632Y665632D01*
X665283Y665989D01*
X664944Y666354D01*
X664614Y666728D01*
X664292Y667109D01*
X663981Y667498D01*
X663679Y667895D01*
X663387Y668300D01*
X663105Y668711D01*
X662833Y669129D01*
X662571Y669553D01*
X662320Y669984D01*
X662079Y670421D01*
X661850Y670864D01*
X661631Y671312D01*
X661423Y671765D01*
X661227Y672224D01*
X661042Y672687D01*
X660868Y673154D01*
X660706Y673626D01*
X660555Y674101D01*
X660416Y674580D01*
X660289Y675063D01*
X660174Y675548D01*
X660070Y676036D01*
X659979Y676526D01*
X659900Y677018D01*
X659833Y677513D01*
X659778Y678008D01*
X659735Y678505D01*
X659704Y679003D01*
X659686Y679501D01*
X659680Y680000D01*
D16*
X680000Y680000D03*
D17*
X667300Y629200D03*
X692700Y629200D03*
D14*
X641900Y515400D03*
X705400Y540800D03*
D15*
X629200Y490000D03*
X730800Y490000D03*
D10*
X659680Y490000D02*
X659686Y490499D01*
X659704Y490997D01*
X659735Y491495D01*
X659778Y491992D01*
X659833Y492487D01*
X659900Y492982D01*
X659979Y493474D01*
X660070Y493964D01*
X660174Y494452D01*
X660289Y494937D01*
X660416Y495420D01*
X660555Y495899D01*
X660706Y496374D01*
X660868Y496846D01*
X661042Y497313D01*
X661227Y497776D01*
X661423Y498235D01*
X661631Y498688D01*
X661850Y499136D01*
X662079Y499579D01*
X662320Y500016D01*
X662571Y500447D01*
X662833Y500871D01*
X663105Y501289D01*
X663387Y501700D01*
X663679Y502105D01*
X663981Y502502D01*
X664292Y502891D01*
X664614Y503272D01*
X664944Y503646D01*
X665283Y504011D01*
X665632Y504368D01*
X665989Y504717D01*
X666354Y505056D01*
X666728Y505386D01*
X667109Y505708D01*
X667498Y506019D01*
X667895Y506321D01*
X668300Y506613D01*
X668711Y506895D01*
X669129Y507167D01*
X669553Y507429D01*
X669984Y507680D01*
X670421Y507921D01*
X670864Y508150D01*
X671312Y508369D01*
X671765Y508577D01*
X672224Y508773D01*
X672687Y508958D01*
X673154Y509132D01*
X673626Y509294D01*
X674101Y509445D01*
X674580Y509584D01*
X675063Y509711D01*
X675548Y509826D01*
X676036Y509930D01*
X676526Y510021D01*
X677018Y510100D01*
X677513Y510167D01*
X678008Y510222D01*
X678505Y510265D01*
X679003Y510296D01*
X679501Y510314D01*
X680000Y510320D01*
X680499Y510314D01*
X680997Y510296D01*
X681495Y510265D01*
X681992Y510222D01*
X682487Y510167D01*
X682982Y510100D01*
X683474Y510021D01*
X683964Y509930D01*
X684452Y509826D01*
X684937Y509711D01*
X685420Y509584D01*
X685899Y509445D01*
X686374Y509294D01*
X686846Y509132D01*
X687313Y508958D01*
X687776Y508773D01*
X688235Y508577D01*
X688688Y508369D01*
X689136Y508150D01*
X689579Y507921D01*
X690016Y507680D01*
X690447Y507429D01*
X690871Y507167D01*
X691289Y506895D01*
X691700Y506613D01*
X692105Y506321D01*
X692502Y506019D01*
X692891Y505708D01*
X693272Y505386D01*
X693646Y505056D01*
X694011Y504717D01*
X694368Y504368D01*
X694717Y504011D01*
X695056Y503646D01*
X695386Y503272D01*
X695708Y502891D01*
X696019Y502502D01*
X696321Y502105D01*
X696613Y501700D01*
X696895Y501289D01*
X697167Y500871D01*
X697429Y500447D01*
X697680Y500016D01*
X697921Y499579D01*
X698150Y499136D01*
X698369Y498688D01*
X698577Y498235D01*
X698773Y497776D01*
X698958Y497313D01*
X699132Y496846D01*
X699294Y496374D01*
X699445Y495899D01*
X699584Y495420D01*
X699711Y494937D01*
X699826Y494452D01*
X699930Y493964D01*
X700021Y493474D01*
X700100Y492982D01*
X700167Y492487D01*
X700222Y491992D01*
X700265Y491495D01*
X700296Y490997D01*
X700314Y490499D01*
X700320Y490000D01*
X700314Y489501D01*
X700296Y489003D01*
X700265Y488505D01*
X700222Y488008D01*
X700167Y487513D01*
X700100Y487018D01*
X700021Y486526D01*
X699930Y486036D01*
X699826Y485548D01*
X699711Y485063D01*
X699584Y484580D01*
X699445Y484101D01*
X699294Y483626D01*
X699132Y483154D01*
X698958Y482687D01*
X698773Y482224D01*
X698577Y481765D01*
X698369Y481312D01*
X698150Y480864D01*
X697921Y480421D01*
X697680Y479984D01*
X697429Y479553D01*
X697167Y479129D01*
X696895Y478711D01*
X696613Y478300D01*
X696321Y477895D01*
X696019Y477498D01*
X695708Y477109D01*
X695386Y476728D01*
X695056Y476354D01*
X694717Y475989D01*
X694368Y475632D01*
X694011Y475283D01*
X693646Y474944D01*
X693272Y474614D01*
X692891Y474292D01*
X692502Y473981D01*
X692105Y473679D01*
X691700Y473387D01*
X691289Y473105D01*
X690871Y472833D01*
X690447Y472571D01*
X690016Y472320D01*
X689579Y472079D01*
X689136Y471850D01*
X688688Y471631D01*
X688235Y471423D01*
X687776Y471227D01*
X687313Y471042D01*
X686846Y470868D01*
X686374Y470706D01*
X685899Y470555D01*
X685420Y470416D01*
X684937Y470289D01*
X684452Y470174D01*
X683964Y470070D01*
X683474Y469979D01*
X682982Y469900D01*
X682487Y469833D01*
X681992Y469778D01*
X681495Y469735D01*
X680997Y469704D01*
X680499Y469686D01*
X680000Y469680D01*
X679501Y469686D01*
X679003Y469704D01*
X678505Y469735D01*
X678008Y469778D01*
X677513Y469833D01*
X677018Y469900D01*
X676526Y469979D01*
X676036Y470070D01*
X675548Y470174D01*
X675063Y470289D01*
X674580Y470416D01*
X674101Y470555D01*
X673626Y470706D01*
X673154Y470868D01*
X672687Y471042D01*
X672224Y471227D01*
X671765Y471423D01*
X671312Y471631D01*
X670864Y471850D01*
X670421Y472079D01*
X669984Y472320D01*
X669553Y472571D01*
X669129Y472833D01*
X668711Y473105D01*
X668300Y473387D01*
X667895Y473679D01*
X667498Y473981D01*
X667109Y474292D01*
X666728Y474614D01*
X666354Y474944D01*
X665989Y475283D01*
X665632Y475632D01*
X665283Y475989D01*
X664944Y476354D01*
X664614Y476728D01*
X664292Y477109D01*
X663981Y477498D01*
X663679Y477895D01*
X663387Y478300D01*
X663105Y478711D01*
X662833Y479129D01*
X662571Y479553D01*
X662320Y479984D01*
X662079Y480421D01*
X661850Y480864D01*
X661631Y481312D01*
X661423Y481765D01*
X661227Y482224D01*
X661042Y482687D01*
X660868Y483154D01*
X660706Y483626D01*
X660555Y484101D01*
X660416Y484580D01*
X660289Y485063D01*
X660174Y485548D01*
X660070Y486036D01*
X659979Y486526D01*
X659900Y487018D01*
X659833Y487513D01*
X659778Y488008D01*
X659735Y488505D01*
X659704Y489003D01*
X659686Y489501D01*
X659680Y490000D01*
D16*
X680000Y490000D03*
D17*
X667300Y439200D03*
X692700Y439200D03*
D14*
X705400Y243100D03*
X730800Y179600D03*
D10*
X659680Y205000D02*
X659686Y205499D01*
X659704Y205997D01*
X659735Y206495D01*
X659778Y206992D01*
X659833Y207487D01*
X659900Y207982D01*
X659979Y208474D01*
X660070Y208964D01*
X660174Y209452D01*
X660289Y209937D01*
X660416Y210420D01*
X660555Y210899D01*
X660706Y211374D01*
X660868Y211846D01*
X661042Y212313D01*
X661227Y212776D01*
X661423Y213235D01*
X661631Y213688D01*
X661850Y214136D01*
X662079Y214579D01*
X662320Y215016D01*
X662571Y215447D01*
X662833Y215871D01*
X663105Y216289D01*
X663387Y216700D01*
X663679Y217105D01*
X663981Y217502D01*
X664292Y217891D01*
X664614Y218272D01*
X664944Y218646D01*
X665283Y219011D01*
X665632Y219368D01*
X665989Y219717D01*
X666354Y220056D01*
X666728Y220386D01*
X667109Y220708D01*
X667498Y221019D01*
X667895Y221321D01*
X668300Y221613D01*
X668711Y221895D01*
X669129Y222167D01*
X669553Y222429D01*
X669984Y222680D01*
X670421Y222921D01*
X670864Y223150D01*
X671312Y223369D01*
X671765Y223577D01*
X672224Y223773D01*
X672687Y223958D01*
X673154Y224132D01*
X673626Y224294D01*
X674101Y224445D01*
X674580Y224584D01*
X675063Y224711D01*
X675548Y224826D01*
X676036Y224930D01*
X676526Y225021D01*
X677018Y225100D01*
X677513Y225167D01*
X678008Y225222D01*
X678505Y225265D01*
X679003Y225296D01*
X679501Y225314D01*
X680000Y225320D01*
X680499Y225314D01*
X680997Y225296D01*
X681495Y225265D01*
X681992Y225222D01*
X682487Y225167D01*
X682982Y225100D01*
X683474Y225021D01*
X683964Y224930D01*
X684452Y224826D01*
X684937Y224711D01*
X685420Y224584D01*
X685899Y224445D01*
X686374Y224294D01*
X686846Y224132D01*
X687313Y223958D01*
X687776Y223773D01*
X688235Y223577D01*
X688688Y223369D01*
X689136Y223150D01*
X689579Y222921D01*
X690016Y222680D01*
X690447Y222429D01*
X690871Y222167D01*
X691289Y221895D01*
X691700Y221613D01*
X692105Y221321D01*
X692502Y221019D01*
X692891Y220708D01*
X693272Y220386D01*
X693646Y220056D01*
X694011Y219717D01*
X694368Y219368D01*
X694717Y219011D01*
X695056Y218646D01*
X695386Y218272D01*
X695708Y217891D01*
X696019Y217502D01*
X696321Y217105D01*
X696613Y216700D01*
X696895Y216289D01*
X697167Y215871D01*
X697429Y215447D01*
X697680Y215016D01*
X697921Y214579D01*
X698150Y214136D01*
X698369Y213688D01*
X698577Y213235D01*
X698773Y212776D01*
X698958Y212313D01*
X699132Y211846D01*
X699294Y211374D01*
X699445Y210899D01*
X699584Y210420D01*
X699711Y209937D01*
X699826Y209452D01*
X699930Y208964D01*
X700021Y208474D01*
X700100Y207982D01*
X700167Y207487D01*
X700222Y206992D01*
X700265Y206495D01*
X700296Y205997D01*
X700314Y205499D01*
X700320Y205000D01*
X700314Y204501D01*
X700296Y204003D01*
X700265Y203505D01*
X700222Y203008D01*
X700167Y202513D01*
X700100Y202018D01*
X700021Y201526D01*
X699930Y201036D01*
X699826Y200548D01*
X699711Y200063D01*
X699584Y199580D01*
X699445Y199101D01*
X699294Y198626D01*
X699132Y198154D01*
X698958Y197687D01*
X698773Y197224D01*
X698577Y196765D01*
X698369Y196312D01*
X698150Y195864D01*
X697921Y195421D01*
X697680Y194984D01*
X697429Y194553D01*
X697167Y194129D01*
X696895Y193711D01*
X696613Y193300D01*
X696321Y192895D01*
X696019Y192498D01*
X695708Y192109D01*
X695386Y191728D01*
X695056Y191354D01*
X694717Y190989D01*
X694368Y190632D01*
X694011Y190283D01*
X693646Y189944D01*
X693272Y189614D01*
X692891Y189292D01*
X692502Y188981D01*
X692105Y188679D01*
X691700Y188387D01*
X691289Y188105D01*
X690871Y187833D01*
X690447Y187571D01*
X690016Y187320D01*
X689579Y187079D01*
X689136Y186850D01*
X688688Y186631D01*
X688235Y186423D01*
X687776Y186227D01*
X687313Y186042D01*
X686846Y185868D01*
X686374Y185706D01*
X685899Y185555D01*
X685420Y185416D01*
X684937Y185289D01*
X684452Y185174D01*
X683964Y185070D01*
X683474Y184979D01*
X682982Y184900D01*
X682487Y184833D01*
X681992Y184778D01*
X681495Y184735D01*
X680997Y184704D01*
X680499Y184686D01*
X680000Y184680D01*
X679501Y184686D01*
X679003Y184704D01*
X678505Y184735D01*
X678008Y184778D01*
X677513Y184833D01*
X677018Y184900D01*
X676526Y184979D01*
X676036Y185070D01*
X675548Y185174D01*
X675063Y185289D01*
X674580Y185416D01*
X674101Y185555D01*
X673626Y185706D01*
X673154Y185868D01*
X672687Y186042D01*
X672224Y186227D01*
X671765Y186423D01*
X671312Y186631D01*
X670864Y186850D01*
X670421Y187079D01*
X669984Y187320D01*
X669553Y187571D01*
X669129Y187833D01*
X668711Y188105D01*
X668300Y188387D01*
X667895Y188679D01*
X667498Y188981D01*
X667109Y189292D01*
X666728Y189614D01*
X666354Y189944D01*
X665989Y190283D01*
X665632Y190632D01*
X665283Y190989D01*
X664944Y191354D01*
X664614Y191728D01*
X664292Y192109D01*
X663981Y192498D01*
X663679Y192895D01*
X663387Y193300D01*
X663105Y193711D01*
X662833Y194129D01*
X662571Y194553D01*
X662320Y194984D01*
X662079Y195421D01*
X661850Y195864D01*
X661631Y196312D01*
X661423Y196765D01*
X661227Y197224D01*
X661042Y197687D01*
X660868Y198154D01*
X660706Y198626D01*
X660555Y199101D01*
X660416Y199580D01*
X660289Y200063D01*
X660174Y200548D01*
X660070Y201036D01*
X659979Y201526D01*
X659900Y202018D01*
X659833Y202513D01*
X659778Y203008D01*
X659735Y203505D01*
X659704Y204003D01*
X659686Y204501D01*
X659680Y205000D01*
D16*
X680000Y205000D03*
D17*
X629200Y217700D03*
X629200Y192300D03*
D18*
G36*
X737475Y923435D02*
X748435Y934395D01*
X759395Y923435D01*
X748435Y912475D01*
X737475Y923435D01*
G37*
G36*
X710605Y896565D02*
X721565Y907525D01*
X732525Y896565D01*
X721565Y885605D01*
X710605Y896565D01*
G37*
G36*
X737475Y733435D02*
X748435Y744395D01*
X759395Y733435D01*
X748435Y722475D01*
X737475Y733435D01*
G37*
G36*
X710605Y706565D02*
X721565Y717525D01*
X732525Y706565D01*
X721565Y695605D01*
X710605Y706565D01*
G37*
G36*
X737475Y543435D02*
X748435Y554395D01*
X759395Y543435D01*
X748435Y532475D01*
X737475Y543435D01*
G37*
G36*
X710605Y516565D02*
X721565Y527525D01*
X732525Y516565D01*
X721565Y505605D01*
X710605Y516565D01*
G37*
D21*
X769000Y220000D03*
X731000Y220000D03*
D31*
X617000Y939500D03*
X643000Y939500D03*
X623500Y939500D03*
X630000Y939500D03*
X636500Y939500D03*
D32*
X590000Y966000D03*
X670000Y966000D03*
D33*
X617300Y966000D03*
X642700Y966000D03*
D34*
X830900Y387080D02*
X830900Y372920D01*
X856300Y372920D02*
X856300Y387080D01*
X881700Y387080D02*
X881700Y372920D01*
X907100Y372920D02*
X907100Y387080D01*
D27*
X831500Y355000D03*
X848500Y355000D03*
X879500Y355000D03*
X862500Y355000D03*
X541500Y945000D03*
X558500Y945000D03*
D25*
X558500Y960000D03*
X541500Y960000D03*
D14*
X705400Y338100D03*
X730800Y274600D03*
D15*
X680000Y350800D03*
X680000Y249200D03*
D10*
X659680Y300000D02*
X659686Y300499D01*
X659704Y300997D01*
X659735Y301495D01*
X659778Y301992D01*
X659833Y302487D01*
X659900Y302982D01*
X659979Y303474D01*
X660070Y303964D01*
X660174Y304452D01*
X660289Y304937D01*
X660416Y305420D01*
X660555Y305899D01*
X660706Y306374D01*
X660868Y306846D01*
X661042Y307313D01*
X661227Y307776D01*
X661423Y308235D01*
X661631Y308688D01*
X661850Y309136D01*
X662079Y309579D01*
X662320Y310016D01*
X662571Y310447D01*
X662833Y310871D01*
X663105Y311289D01*
X663387Y311700D01*
X663679Y312105D01*
X663981Y312502D01*
X664292Y312891D01*
X664614Y313272D01*
X664944Y313646D01*
X665283Y314011D01*
X665632Y314368D01*
X665989Y314717D01*
X666354Y315056D01*
X666728Y315386D01*
X667109Y315708D01*
X667498Y316019D01*
X667895Y316321D01*
X668300Y316613D01*
X668711Y316895D01*
X669129Y317167D01*
X669553Y317429D01*
X669984Y317680D01*
X670421Y317921D01*
X670864Y318150D01*
X671312Y318369D01*
X671765Y318577D01*
X672224Y318773D01*
X672687Y318958D01*
X673154Y319132D01*
X673626Y319294D01*
X674101Y319445D01*
X674580Y319584D01*
X675063Y319711D01*
X675548Y319826D01*
X676036Y319930D01*
X676526Y320021D01*
X677018Y320100D01*
X677513Y320167D01*
X678008Y320222D01*
X678505Y320265D01*
X679003Y320296D01*
X679501Y320314D01*
X680000Y320320D01*
X680499Y320314D01*
X680997Y320296D01*
X681495Y320265D01*
X681992Y320222D01*
X682487Y320167D01*
X682982Y320100D01*
X683474Y320021D01*
X683964Y319930D01*
X684452Y319826D01*
X684937Y319711D01*
X685420Y319584D01*
X685899Y319445D01*
X686374Y319294D01*
X686846Y319132D01*
X687313Y318958D01*
X687776Y318773D01*
X688235Y318577D01*
X688688Y318369D01*
X689136Y318150D01*
X689579Y317921D01*
X690016Y317680D01*
X690447Y317429D01*
X690871Y317167D01*
X691289Y316895D01*
X691700Y316613D01*
X692105Y316321D01*
X692502Y316019D01*
X692891Y315708D01*
X693272Y315386D01*
X693646Y315056D01*
X694011Y314717D01*
X694368Y314368D01*
X694717Y314011D01*
X695056Y313646D01*
X695386Y313272D01*
X695708Y312891D01*
X696019Y312502D01*
X696321Y312105D01*
X696613Y311700D01*
X696895Y311289D01*
X697167Y310871D01*
X697429Y310447D01*
X697680Y310016D01*
X697921Y309579D01*
X698150Y309136D01*
X698369Y308688D01*
X698577Y308235D01*
X698773Y307776D01*
X698958Y307313D01*
X699132Y306846D01*
X699294Y306374D01*
X699445Y305899D01*
X699584Y305420D01*
X699711Y304937D01*
X699826Y304452D01*
X699930Y303964D01*
X700021Y303474D01*
X700100Y302982D01*
X700167Y302487D01*
X700222Y301992D01*
X700265Y301495D01*
X700296Y300997D01*
X700314Y300499D01*
X700320Y300000D01*
X700314Y299501D01*
X700296Y299003D01*
X700265Y298505D01*
X700222Y298008D01*
X700167Y297513D01*
X700100Y297018D01*
X700021Y296526D01*
X699930Y296036D01*
X699826Y295548D01*
X699711Y295063D01*
X699584Y294580D01*
X699445Y294101D01*
X699294Y293626D01*
X699132Y293154D01*
X698958Y292687D01*
X698773Y292224D01*
X698577Y291765D01*
X698369Y291312D01*
X698150Y290864D01*
X697921Y290421D01*
X697680Y289984D01*
X697429Y289553D01*
X697167Y289129D01*
X696895Y288711D01*
X696613Y288300D01*
X696321Y287895D01*
X696019Y287498D01*
X695708Y287109D01*
X695386Y286728D01*
X695056Y286354D01*
X694717Y285989D01*
X694368Y285632D01*
X694011Y285283D01*
X693646Y284944D01*
X693272Y284614D01*
X692891Y284292D01*
X692502Y283981D01*
X692105Y283679D01*
X691700Y283387D01*
X691289Y283105D01*
X690871Y282833D01*
X690447Y282571D01*
X690016Y282320D01*
X689579Y282079D01*
X689136Y281850D01*
X688688Y281631D01*
X688235Y281423D01*
X687776Y281227D01*
X687313Y281042D01*
X686846Y280868D01*
X686374Y280706D01*
X685899Y280555D01*
X685420Y280416D01*
X684937Y280289D01*
X684452Y280174D01*
X683964Y280070D01*
X683474Y279979D01*
X682982Y279900D01*
X682487Y279833D01*
X681992Y279778D01*
X681495Y279735D01*
X680997Y279704D01*
X680499Y279686D01*
X680000Y279680D01*
X679501Y279686D01*
X679003Y279704D01*
X678505Y279735D01*
X678008Y279778D01*
X677513Y279833D01*
X677018Y279900D01*
X676526Y279979D01*
X676036Y280070D01*
X675548Y280174D01*
X675063Y280289D01*
X674580Y280416D01*
X674101Y280555D01*
X673626Y280706D01*
X673154Y280868D01*
X672687Y281042D01*
X672224Y281227D01*
X671765Y281423D01*
X671312Y281631D01*
X670864Y281850D01*
X670421Y282079D01*
X669984Y282320D01*
X669553Y282571D01*
X669129Y282833D01*
X668711Y283105D01*
X668300Y283387D01*
X667895Y283679D01*
X667498Y283981D01*
X667109Y284292D01*
X666728Y284614D01*
X666354Y284944D01*
X665989Y285283D01*
X665632Y285632D01*
X665283Y285989D01*
X664944Y286354D01*
X664614Y286728D01*
X664292Y287109D01*
X663981Y287498D01*
X663679Y287895D01*
X663387Y288300D01*
X663105Y288711D01*
X662833Y289129D01*
X662571Y289553D01*
X662320Y289984D01*
X662079Y290421D01*
X661850Y290864D01*
X661631Y291312D01*
X661423Y291765D01*
X661227Y292224D01*
X661042Y292687D01*
X660868Y293154D01*
X660706Y293626D01*
X660555Y294101D01*
X660416Y294580D01*
X660289Y295063D01*
X660174Y295548D01*
X660070Y296036D01*
X659979Y296526D01*
X659900Y297018D01*
X659833Y297513D01*
X659778Y298008D01*
X659735Y298505D01*
X659704Y299003D01*
X659686Y299501D01*
X659680Y300000D01*
D16*
X680000Y300000D03*
D17*
X629200Y312700D03*
X629200Y287300D03*
D14*
X641900Y135400D03*
X705400Y160800D03*
D15*
X629200Y110000D03*
X730800Y110000D03*
D10*
X659680Y110000D02*
X659686Y110499D01*
X659704Y110997D01*
X659735Y111495D01*
X659778Y111992D01*
X659833Y112487D01*
X659900Y112982D01*
X659979Y113474D01*
X660070Y113964D01*
X660174Y114452D01*
X660289Y114937D01*
X660416Y115420D01*
X660555Y115899D01*
X660706Y116374D01*
X660868Y116846D01*
X661042Y117313D01*
X661227Y117776D01*
X661423Y118235D01*
X661631Y118688D01*
X661850Y119136D01*
X662079Y119579D01*
X662320Y120016D01*
X662571Y120447D01*
X662833Y120871D01*
X663105Y121289D01*
X663387Y121700D01*
X663679Y122105D01*
X663981Y122502D01*
X664292Y122891D01*
X664614Y123272D01*
X664944Y123646D01*
X665283Y124011D01*
X665632Y124368D01*
X665989Y124717D01*
X666354Y125056D01*
X666728Y125386D01*
X667109Y125708D01*
X667498Y126019D01*
X667895Y126321D01*
X668300Y126613D01*
X668711Y126895D01*
X669129Y127167D01*
X669553Y127429D01*
X669984Y127680D01*
X670421Y127921D01*
X670864Y128150D01*
X671312Y128369D01*
X671765Y128577D01*
X672224Y128773D01*
X672687Y128958D01*
X673154Y129132D01*
X673626Y129294D01*
X674101Y129445D01*
X674580Y129584D01*
X675063Y129711D01*
X675548Y129826D01*
X676036Y129930D01*
X676526Y130021D01*
X677018Y130100D01*
X677513Y130167D01*
X678008Y130222D01*
X678505Y130265D01*
X679003Y130296D01*
X679501Y130314D01*
X680000Y130320D01*
X680499Y130314D01*
X680997Y130296D01*
X681495Y130265D01*
X681992Y130222D01*
X682487Y130167D01*
X682982Y130100D01*
X683474Y130021D01*
X683964Y129930D01*
X684452Y129826D01*
X684937Y129711D01*
X685420Y129584D01*
X685899Y129445D01*
X686374Y129294D01*
X686846Y129132D01*
X687313Y128958D01*
X687776Y128773D01*
X688235Y128577D01*
X688688Y128369D01*
X689136Y128150D01*
X689579Y127921D01*
X690016Y127680D01*
X690447Y127429D01*
X690871Y127167D01*
X691289Y126895D01*
X691700Y126613D01*
X692105Y126321D01*
X692502Y126019D01*
X692891Y125708D01*
X693272Y125386D01*
X693646Y125056D01*
X694011Y124717D01*
X694368Y124368D01*
X694717Y124011D01*
X695056Y123646D01*
X695386Y123272D01*
X695708Y122891D01*
X696019Y122502D01*
X696321Y122105D01*
X696613Y121700D01*
X696895Y121289D01*
X697167Y120871D01*
X697429Y120447D01*
X697680Y120016D01*
X697921Y119579D01*
X698150Y119136D01*
X698369Y118688D01*
X698577Y118235D01*
X698773Y117776D01*
X698958Y117313D01*
X699132Y116846D01*
X699294Y116374D01*
X699445Y115899D01*
X699584Y115420D01*
X699711Y114937D01*
X699826Y114452D01*
X699930Y113964D01*
X700021Y113474D01*
X700100Y112982D01*
X700167Y112487D01*
X700222Y111992D01*
X700265Y111495D01*
X700296Y110997D01*
X700314Y110499D01*
X700320Y110000D01*
X700314Y109501D01*
X700296Y109003D01*
X700265Y108505D01*
X700222Y108008D01*
X700167Y107513D01*
X700100Y107018D01*
X700021Y106526D01*
X699930Y106036D01*
X699826Y105548D01*
X699711Y105063D01*
X699584Y104580D01*
X699445Y104101D01*
X699294Y103626D01*
X699132Y103154D01*
X698958Y102687D01*
X698773Y102224D01*
X698577Y101765D01*
X698369Y101312D01*
X698150Y100864D01*
X697921Y100421D01*
X697680Y99984D01*
X697429Y99553D01*
X697167Y99129D01*
X696895Y98711D01*
X696613Y98300D01*
X696321Y97895D01*
X696019Y97498D01*
X695708Y97109D01*
X695386Y96728D01*
X695056Y96354D01*
X694717Y95989D01*
X694368Y95632D01*
X694011Y95283D01*
X693646Y94944D01*
X693272Y94614D01*
X692891Y94292D01*
X692502Y93981D01*
X692105Y93679D01*
X691700Y93387D01*
X691289Y93105D01*
X690871Y92833D01*
X690447Y92571D01*
X690016Y92320D01*
X689579Y92079D01*
X689136Y91850D01*
X688688Y91631D01*
X688235Y91423D01*
X687776Y91227D01*
X687313Y91042D01*
X686846Y90868D01*
X686374Y90706D01*
X685899Y90555D01*
X685420Y90416D01*
X684937Y90289D01*
X684452Y90174D01*
X683964Y90070D01*
X683474Y89979D01*
X682982Y89900D01*
X682487Y89833D01*
X681992Y89778D01*
X681495Y89735D01*
X680997Y89704D01*
X680499Y89686D01*
X680000Y89680D01*
X679501Y89686D01*
X679003Y89704D01*
X678505Y89735D01*
X678008Y89778D01*
X677513Y89833D01*
X677018Y89900D01*
X676526Y89979D01*
X676036Y90070D01*
X675548Y90174D01*
X675063Y90289D01*
X674580Y90416D01*
X674101Y90555D01*
X673626Y90706D01*
X673154Y90868D01*
X672687Y91042D01*
X672224Y91227D01*
X671765Y91423D01*
X671312Y91631D01*
X670864Y91850D01*
X670421Y92079D01*
X669984Y92320D01*
X669553Y92571D01*
X669129Y92833D01*
X668711Y93105D01*
X668300Y93387D01*
X667895Y93679D01*
X667498Y93981D01*
X667109Y94292D01*
X666728Y94614D01*
X666354Y94944D01*
X665989Y95283D01*
X665632Y95632D01*
X665283Y95989D01*
X664944Y96354D01*
X664614Y96728D01*
X664292Y97109D01*
X663981Y97498D01*
X663679Y97895D01*
X663387Y98300D01*
X663105Y98711D01*
X662833Y99129D01*
X662571Y99553D01*
X662320Y99984D01*
X662079Y100421D01*
X661850Y100864D01*
X661631Y101312D01*
X661423Y101765D01*
X661227Y102224D01*
X661042Y102687D01*
X660868Y103154D01*
X660706Y103626D01*
X660555Y104101D01*
X660416Y104580D01*
X660289Y105063D01*
X660174Y105548D01*
X660070Y106036D01*
X659979Y106526D01*
X659900Y107018D01*
X659833Y107513D01*
X659778Y108008D01*
X659735Y108505D01*
X659704Y109003D01*
X659686Y109501D01*
X659680Y110000D01*
D16*
X680000Y110000D03*
D17*
X667300Y59200D03*
X692700Y59200D03*
D21*
X769000Y150000D03*
X731000Y150000D03*
D14*
X166900Y135400D03*
X230400Y160800D03*
D10*
X184680Y110000D02*
X184686Y110499D01*
X184704Y110997D01*
X184735Y111495D01*
X184778Y111992D01*
X184833Y112487D01*
X184900Y112982D01*
X184979Y113474D01*
X185070Y113964D01*
X185174Y114452D01*
X185289Y114937D01*
X185416Y115420D01*
X185555Y115899D01*
X185706Y116374D01*
X185868Y116846D01*
X186042Y117313D01*
X186227Y117776D01*
X186423Y118235D01*
X186631Y118688D01*
X186850Y119136D01*
X187079Y119579D01*
X187320Y120016D01*
X187571Y120447D01*
X187833Y120871D01*
X188105Y121289D01*
X188387Y121700D01*
X188679Y122105D01*
X188981Y122502D01*
X189292Y122891D01*
X189614Y123272D01*
X189944Y123646D01*
X190283Y124011D01*
X190632Y124368D01*
X190989Y124717D01*
X191354Y125056D01*
X191728Y125386D01*
X192109Y125708D01*
X192498Y126019D01*
X192895Y126321D01*
X193300Y126613D01*
X193711Y126895D01*
X194129Y127167D01*
X194553Y127429D01*
X194984Y127680D01*
X195421Y127921D01*
X195864Y128150D01*
X196312Y128369D01*
X196765Y128577D01*
X197224Y128773D01*
X197687Y128958D01*
X198154Y129132D01*
X198626Y129294D01*
X199101Y129445D01*
X199580Y129584D01*
X200063Y129711D01*
X200548Y129826D01*
X201036Y129930D01*
X201526Y130021D01*
X202018Y130100D01*
X202513Y130167D01*
X203008Y130222D01*
X203505Y130265D01*
X204003Y130296D01*
X204501Y130314D01*
X205000Y130320D01*
X205499Y130314D01*
X205997Y130296D01*
X206495Y130265D01*
X206992Y130222D01*
X207487Y130167D01*
X207982Y130100D01*
X208474Y130021D01*
X208964Y129930D01*
X209452Y129826D01*
X209937Y129711D01*
X210420Y129584D01*
X210899Y129445D01*
X211374Y129294D01*
X211846Y129132D01*
X212313Y128958D01*
X212776Y128773D01*
X213235Y128577D01*
X213688Y128369D01*
X214136Y128150D01*
X214579Y127921D01*
X215016Y127680D01*
X215447Y127429D01*
X215871Y127167D01*
X216289Y126895D01*
X216700Y126613D01*
X217105Y126321D01*
X217502Y126019D01*
X217891Y125708D01*
X218272Y125386D01*
X218646Y125056D01*
X219011Y124717D01*
X219368Y124368D01*
X219717Y124011D01*
X220056Y123646D01*
X220386Y123272D01*
X220708Y122891D01*
X221019Y122502D01*
X221321Y122105D01*
X221613Y121700D01*
X221895Y121289D01*
X222167Y120871D01*
X222429Y120447D01*
X222680Y120016D01*
X222921Y119579D01*
X223150Y119136D01*
X223369Y118688D01*
X223577Y118235D01*
X223773Y117776D01*
X223958Y117313D01*
X224132Y116846D01*
X224294Y116374D01*
X224445Y115899D01*
X224584Y115420D01*
X224711Y114937D01*
X224826Y114452D01*
X224930Y113964D01*
X225021Y113474D01*
X225100Y112982D01*
X225167Y112487D01*
X225222Y111992D01*
X225265Y111495D01*
X225296Y110997D01*
X225314Y110499D01*
X225320Y110000D01*
X225314Y109501D01*
X225296Y109003D01*
X225265Y108505D01*
X225222Y108008D01*
X225167Y107513D01*
X225100Y107018D01*
X225021Y106526D01*
X224930Y106036D01*
X224826Y105548D01*
X224711Y105063D01*
X224584Y104580D01*
X224445Y104101D01*
X224294Y103626D01*
X224132Y103154D01*
X223958Y102687D01*
X223773Y102224D01*
X223577Y101765D01*
X223369Y101312D01*
X223150Y100864D01*
X222921Y100421D01*
X222680Y99984D01*
X222429Y99553D01*
X222167Y99129D01*
X221895Y98711D01*
X221613Y98300D01*
X221321Y97895D01*
X221019Y97498D01*
X220708Y97109D01*
X220386Y96728D01*
X220056Y96354D01*
X219717Y95989D01*
X219368Y95632D01*
X219011Y95283D01*
X218646Y94944D01*
X218272Y94614D01*
X217891Y94292D01*
X217502Y93981D01*
X217105Y93679D01*
X216700Y93387D01*
X216289Y93105D01*
X215871Y92833D01*
X215447Y92571D01*
X215016Y92320D01*
X214579Y92079D01*
X214136Y91850D01*
X213688Y91631D01*
X213235Y91423D01*
X212776Y91227D01*
X212313Y91042D01*
X211846Y90868D01*
X211374Y90706D01*
X210899Y90555D01*
X210420Y90416D01*
X209937Y90289D01*
X209452Y90174D01*
X208964Y90070D01*
X208474Y89979D01*
X207982Y89900D01*
X207487Y89833D01*
X206992Y89778D01*
X206495Y89735D01*
X205997Y89704D01*
X205499Y89686D01*
X205000Y89680D01*
X204501Y89686D01*
X204003Y89704D01*
X203505Y89735D01*
X203008Y89778D01*
X202513Y89833D01*
X202018Y89900D01*
X201526Y89979D01*
X201036Y90070D01*
X200548Y90174D01*
X200063Y90289D01*
X199580Y90416D01*
X199101Y90555D01*
X198626Y90706D01*
X198154Y90868D01*
X197687Y91042D01*
X197224Y91227D01*
X196765Y91423D01*
X196312Y91631D01*
X195864Y91850D01*
X195421Y92079D01*
X194984Y92320D01*
X194553Y92571D01*
X194129Y92833D01*
X193711Y93105D01*
X193300Y93387D01*
X192895Y93679D01*
X192498Y93981D01*
X192109Y94292D01*
X191728Y94614D01*
X191354Y94944D01*
X190989Y95283D01*
X190632Y95632D01*
X190283Y95989D01*
X189944Y96354D01*
X189614Y96728D01*
X189292Y97109D01*
X188981Y97498D01*
X188679Y97895D01*
X188387Y98300D01*
X188105Y98711D01*
X187833Y99129D01*
X187571Y99553D01*
X187320Y99984D01*
X187079Y100421D01*
X186850Y100864D01*
X186631Y101312D01*
X186423Y101765D01*
X186227Y102224D01*
X186042Y102687D01*
X185868Y103154D01*
X185706Y103626D01*
X185555Y104101D01*
X185416Y104580D01*
X185289Y105063D01*
X185174Y105548D01*
X185070Y106036D01*
X184979Y106526D01*
X184900Y107018D01*
X184833Y107513D01*
X184778Y108008D01*
X184735Y108505D01*
X184704Y109003D01*
X184686Y109501D01*
X184680Y110000D01*
D16*
X205000Y110000D03*
D17*
X192300Y59200D03*
X217700Y59200D03*
D35*
X205000Y775000D03*
X775000Y775000D03*
X205000Y395000D03*
X585000Y395000D03*
D36*
X870000Y60000D03*
M02*
