M48
;GenerationSoftware,Autodesk,EAGLE,9.2.1*%
;CreationDate,2019-11-10T22:11:42Z*%
FMAT,2
ICI,OFF
METRIC,TZ,000.000
T11C0.300
T10C0.813
T9C1.000
T8C1.016
T7C1.524
T6C1.714
T5C2.200
T4C3.000
T3C3.100
T2C4.000
T1C4.064
%
G90
M71
T1
X68000Y68000
X68000Y49000
X68000Y20500
X68000Y30000
X68000Y11000
X20500Y11000
X30000Y30000
X11000Y30000
X49000Y49000
X30000Y49000
X11000Y49000
X49000Y68000
X11000Y68000
X30000Y68000
X68000Y87000
X30000Y87000
X49000Y87000
X49000Y11000
X30000Y11000
X11000Y11000
X11000Y87000
X49000Y30000
T2
X59750Y8600
X59750Y32400
T3
X75000Y32400
X75000Y8600
T4
X58500Y39500
X20500Y39500
X20500Y77500
X87000Y6000
X77500Y77500
T5
X93100Y49000
X80900Y49000
X93100Y87000
X80900Y87000
T6
X54080Y87000
X43920Y87000
X5920Y87000
X16080Y87000
X35080Y87000
X16080Y68000
X73080Y11000
X62920Y11000
X68000Y24920
X68000Y35080
X73080Y49000
X62920Y49000
X24920Y49000
X73080Y68000
X62920Y68000
X73080Y87000
X62920Y87000
X54080Y11000
X43920Y11000
X54080Y30000
X35080Y11000
X24920Y11000
X16080Y11000
X5920Y11000
X24920Y87000
X43920Y30000
X35080Y30000
X24920Y30000
X16080Y30000
X5920Y30000
X54080Y49000
X43920Y49000
X35080Y49000
X16080Y49000
X5920Y49000
X54080Y68000
X43920Y68000
X35080Y68000
X24920Y68000
X5920Y68000
T7
X7190Y89540
X13540Y92080
X26190Y89540
X45190Y32540
X13540Y35080
X13540Y54080
X7190Y51540
X7190Y32540
X32540Y35080
X51540Y73080
X45190Y70540
X26190Y32540
X51540Y54080
X32540Y73080
X26190Y70540
X70540Y73080
X45190Y51540
X13540Y73080
X7190Y70540
X51540Y35080
X32540Y54080
X7190Y13540
X13540Y16080
X26190Y13540
X32540Y16080
X51540Y92080
X45190Y89540
X51540Y16080
X64190Y89540
X45190Y13540
X70540Y92080
X64190Y70540
X64190Y51540
X70540Y54080
X70540Y24310
X73080Y17960
X70540Y33810
X73080Y27460
X64190Y13540
X70540Y16080
X16690Y13540
X23040Y16080
X32540Y92080
X26190Y51540
T8
X50270Y5920
X66730Y81920
X69270Y81920
X66730Y62920
X69270Y62920
X66730Y43920
X69270Y43920
X62920Y21770
X62920Y19230
X83090Y38000
X85630Y38000
X88170Y38000
X90710Y38000
X62920Y31270
X62920Y28730
X66730Y5920
X69270Y5920
X19230Y5920
X9730Y81920
X12270Y81920
X21770Y5920
X31270Y81920
X47730Y81920
X50270Y81920
X9730Y62920
X12270Y62920
X28730Y62920
X31270Y62920
X47730Y62920
X50270Y62920
X9730Y43920
X12270Y43920
X28730Y81920
X28730Y43920
X31270Y43920
X47730Y43920
X50270Y43920
X9730Y24920
X12270Y24920
X28730Y24920
X31270Y24920
X47730Y24920
X50270Y24920
X9730Y5920
X12270Y5920
X28730Y5920
X31270Y5920
X47730Y5920
T9
X84500Y79500
X87000Y79500
X84500Y94000
X89500Y94000
X84500Y41500
X87000Y41500
X89500Y41500
X84500Y56000
X89500Y56000
X89500Y79500
T10
X88270Y75900
X85730Y60000
X88270Y60000
X85730Y75900
T11
X79000Y70500
X78000Y56000
X78000Y32500
X87000Y26000
X87000Y86000
X87000Y48000
X89500Y14000
X87600Y66400
X90500Y69000
X86400Y66400
X87600Y67600
X86400Y67600
X20500Y58500
X39500Y58500
X20500Y20500
X1500Y1500
X96500Y1500
X92000Y7000
X93200Y18000
X87600Y71000
X79000Y27400
X90600Y21000
X95500Y60000
X95500Y61500
X84500Y30500
X80000Y35000
X86600Y72000
X95500Y66000
X95500Y69000
X95500Y67500
X83000Y92000
X41000Y23000
X86000Y70000
X89500Y30500
X83000Y46000
X91000Y46000
X91000Y84000
X83000Y84000
X88200Y21000
X91500Y25200
X82500Y24000
X91500Y28300
X76700Y54000
X86000Y45000
X93300Y12500
X77500Y58500
X39500Y20500
X1500Y20500
X82000Y28000
X76700Y41900
X1500Y39500
X1500Y58500
X1500Y77500
X96500Y96500
X42500Y42000
X85000Y70000
X77500Y96500
X39500Y96500
X20500Y96500
X1500Y96500
X22000Y61000
X88000Y83000
X58500Y77500
X87000Y45000
X60500Y93500
X65500Y93500
X81500Y21000
X4000Y65000
X87000Y83000
X78000Y88000
X96500Y24500
X77500Y63000
X84000Y73000
X86000Y83000
X77500Y68000
X58500Y68000
X3500Y80000
X81500Y20000
X88000Y45000
X92600Y32500
X84000Y19000
X93500Y32000
X90500Y65300
X93200Y16900
X76000Y88000
X60500Y94500
X84500Y20000
X82500Y29000
X65500Y94500
X58500Y58500
X39500Y77500
X39500Y39500
X88500Y72000
X78000Y31400
X39500Y1500
X58500Y1500
X93200Y15000
X80500Y58500
M30